G04 #@! TF.GenerationSoftware,KiCad,Pcbnew,8.0.4*
G04 #@! TF.CreationDate,2024-11-23T11:06:33-08:00*
G04 #@! TF.ProjectId,rpi pico printer board,72706920-7069-4636-9f20-7072696e7465,rev?*
G04 #@! TF.SameCoordinates,Original*
G04 #@! TF.FileFunction,Paste,Top*
G04 #@! TF.FilePolarity,Positive*
%FSLAX46Y46*%
G04 Gerber Fmt 4.6, Leading zero omitted, Abs format (unit mm)*
G04 Created by KiCad (PCBNEW 8.0.4) date 2024-11-23 11:06:33*
%MOMM*%
%LPD*%
G01*
G04 APERTURE LIST*
G04 Aperture macros list*
%AMRoundRect*
0 Rectangle with rounded corners*
0 $1 Rounding radius*
0 $2 $3 $4 $5 $6 $7 $8 $9 X,Y pos of 4 corners*
0 Add a 4 corners polygon primitive as box body*
4,1,4,$2,$3,$4,$5,$6,$7,$8,$9,$2,$3,0*
0 Add four circle primitives for the rounded corners*
1,1,$1+$1,$2,$3*
1,1,$1+$1,$4,$5*
1,1,$1+$1,$6,$7*
1,1,$1+$1,$8,$9*
0 Add four rect primitives between the rounded corners*
20,1,$1+$1,$2,$3,$4,$5,0*
20,1,$1+$1,$4,$5,$6,$7,0*
20,1,$1+$1,$6,$7,$8,$9,0*
20,1,$1+$1,$8,$9,$2,$3,0*%
G04 Aperture macros list end*
%ADD10RoundRect,0.150000X0.350000X-0.150000X0.350000X0.150000X-0.350000X0.150000X-0.350000X-0.150000X0*%
%ADD11RoundRect,0.105000X0.105000X-0.245000X0.105000X0.245000X-0.105000X0.245000X-0.105000X-0.245000X0*%
%ADD12RoundRect,0.250000X-1.100000X0.325000X-1.100000X-0.325000X1.100000X-0.325000X1.100000X0.325000X0*%
%ADD13RoundRect,0.200000X0.200000X0.275000X-0.200000X0.275000X-0.200000X-0.275000X0.200000X-0.275000X0*%
%ADD14RoundRect,0.225000X-0.250000X0.225000X-0.250000X-0.225000X0.250000X-0.225000X0.250000X0.225000X0*%
%ADD15RoundRect,0.200000X-0.200000X-0.275000X0.200000X-0.275000X0.200000X0.275000X-0.200000X0.275000X0*%
%ADD16RoundRect,0.200000X0.275000X-0.200000X0.275000X0.200000X-0.275000X0.200000X-0.275000X-0.200000X0*%
%ADD17RoundRect,0.250000X-0.300000X-0.300000X0.300000X-0.300000X0.300000X0.300000X-0.300000X0.300000X0*%
%ADD18RoundRect,0.200000X-0.275000X0.200000X-0.275000X-0.200000X0.275000X-0.200000X0.275000X0.200000X0*%
%ADD19RoundRect,0.225000X-0.225000X-0.250000X0.225000X-0.250000X0.225000X0.250000X-0.225000X0.250000X0*%
%ADD20RoundRect,0.237500X0.287500X0.237500X-0.287500X0.237500X-0.287500X-0.237500X0.287500X-0.237500X0*%
%ADD21RoundRect,0.250000X1.100000X-0.325000X1.100000X0.325000X-1.100000X0.325000X-1.100000X-0.325000X0*%
%ADD22RoundRect,0.250000X0.650000X-1.000000X0.650000X1.000000X-0.650000X1.000000X-0.650000X-1.000000X0*%
%ADD23R,2.850000X6.600000*%
%ADD24RoundRect,0.100000X0.100000X-0.637500X0.100000X0.637500X-0.100000X0.637500X-0.100000X-0.637500X0*%
%ADD25RoundRect,0.250000X-0.325000X-1.100000X0.325000X-1.100000X0.325000X1.100000X-0.325000X1.100000X0*%
%ADD26RoundRect,0.225000X0.225000X0.250000X-0.225000X0.250000X-0.225000X-0.250000X0.225000X-0.250000X0*%
%ADD27RoundRect,0.237500X-0.237500X0.287500X-0.237500X-0.287500X0.237500X-0.287500X0.237500X0.287500X0*%
%ADD28RoundRect,0.250000X-0.275000X-0.700000X0.275000X-0.700000X0.275000X0.700000X-0.275000X0.700000X0*%
%ADD29R,1.500000X1.500000*%
%ADD30RoundRect,0.250000X-0.300000X0.300000X-0.300000X-0.300000X0.300000X-0.300000X0.300000X0.300000X0*%
%ADD31RoundRect,0.150000X-0.512500X-0.150000X0.512500X-0.150000X0.512500X0.150000X-0.512500X0.150000X0*%
%ADD32RoundRect,0.112500X-0.112500X0.187500X-0.112500X-0.187500X0.112500X-0.187500X0.112500X0.187500X0*%
%ADD33R,6.600000X2.850000*%
%ADD34RoundRect,0.250000X0.300000X0.300000X-0.300000X0.300000X-0.300000X-0.300000X0.300000X-0.300000X0*%
%ADD35RoundRect,0.225000X0.250000X-0.225000X0.250000X0.225000X-0.250000X0.225000X-0.250000X-0.225000X0*%
%ADD36RoundRect,0.237500X-0.287500X-0.237500X0.287500X-0.237500X0.287500X0.237500X-0.287500X0.237500X0*%
%ADD37RoundRect,0.237500X0.237500X-0.287500X0.237500X0.287500X-0.237500X0.287500X-0.237500X-0.287500X0*%
%ADD38RoundRect,0.150000X0.512500X0.150000X-0.512500X0.150000X-0.512500X-0.150000X0.512500X-0.150000X0*%
%ADD39RoundRect,0.218750X-0.256250X0.218750X-0.256250X-0.218750X0.256250X-0.218750X0.256250X0.218750X0*%
%ADD40RoundRect,0.150000X-0.150000X-0.350000X0.150000X-0.350000X0.150000X0.350000X-0.150000X0.350000X0*%
%ADD41RoundRect,0.105000X-0.245000X-0.105000X0.245000X-0.105000X0.245000X0.105000X-0.245000X0.105000X0*%
G04 APERTURE END LIST*
D10*
X64685000Y-125980000D03*
X65815000Y-125980000D03*
X64685000Y-125270000D03*
X65815000Y-125270000D03*
D11*
X64275000Y-124500000D03*
X64925000Y-124500000D03*
X65575000Y-124500000D03*
X66225000Y-124500000D03*
X64275000Y-127500000D03*
X64925000Y-127500000D03*
X65575000Y-127500000D03*
X66225000Y-127500000D03*
D12*
X82200000Y-98525000D03*
X82200000Y-101475000D03*
D13*
X111600000Y-120870000D03*
X109950000Y-120870000D03*
D10*
X77935000Y-72880000D03*
X79065000Y-72880000D03*
X77935000Y-72170000D03*
X79065000Y-72170000D03*
D11*
X77525000Y-71400000D03*
X78175000Y-71400000D03*
X78825000Y-71400000D03*
X79475000Y-71400000D03*
X77525000Y-74400000D03*
X78175000Y-74400000D03*
X78825000Y-74400000D03*
X79475000Y-74400000D03*
D14*
X86875000Y-129310000D03*
X86875000Y-130860000D03*
D15*
X124900000Y-71800000D03*
X126550000Y-71800000D03*
X73325000Y-92785000D03*
X74975000Y-92785000D03*
D16*
X71900000Y-70925000D03*
X71900000Y-69275000D03*
D17*
X53400000Y-70250000D03*
X56200000Y-70250000D03*
D18*
X130100000Y-84399999D03*
X130100000Y-86049999D03*
D16*
X82900000Y-70925000D03*
X82900000Y-69275000D03*
D19*
X78600000Y-128485000D03*
X80150000Y-128485000D03*
D14*
X75475000Y-129310000D03*
X75475000Y-130860000D03*
D20*
X138074999Y-69000000D03*
X136325001Y-69000000D03*
D18*
X70400000Y-72475000D03*
X70400000Y-74125000D03*
D15*
X140975000Y-70400000D03*
X142625000Y-70400000D03*
D21*
X116399999Y-92875000D03*
X116399999Y-89924998D03*
X119699998Y-92875001D03*
X119699998Y-89924999D03*
D22*
X68600000Y-82600001D03*
X68600000Y-78599999D03*
D18*
X132150000Y-79725000D03*
X132150000Y-81375000D03*
D22*
X112799998Y-94600001D03*
X112799998Y-90599999D03*
X65000000Y-82600000D03*
X65000000Y-78600000D03*
D23*
X80175000Y-92685000D03*
X85825000Y-92685000D03*
D14*
X91600000Y-129325000D03*
X91600000Y-130875000D03*
D15*
X133700000Y-87725000D03*
X135350000Y-87725000D03*
D24*
X103025000Y-91725000D03*
X103675000Y-91725000D03*
X104325000Y-91725000D03*
X104975000Y-91725000D03*
X105625000Y-91725000D03*
X106275000Y-91725000D03*
X106925000Y-91725000D03*
X107575000Y-91725000D03*
X107575000Y-86000000D03*
X106925000Y-86000000D03*
X106275000Y-86000000D03*
X105625000Y-86000000D03*
X104975000Y-86000000D03*
X104325000Y-86000000D03*
X103675000Y-86000000D03*
X103025000Y-86000000D03*
D16*
X93900000Y-70925000D03*
X93900000Y-69275000D03*
D25*
X89524999Y-96000000D03*
X92475001Y-96000000D03*
D16*
X104900000Y-70925000D03*
X104900000Y-69275000D03*
D26*
X74925000Y-89800000D03*
X73375000Y-89800000D03*
D27*
X135750000Y-95275001D03*
X135750000Y-97024999D03*
D15*
X98075000Y-84200000D03*
X99725000Y-84200000D03*
D28*
X77100000Y-130485000D03*
X80250000Y-130485000D03*
D18*
X128300000Y-84400000D03*
X128300000Y-86050000D03*
D29*
X122400000Y-78200000D03*
X130200000Y-78200000D03*
D17*
X86900000Y-69400000D03*
X89700000Y-69400000D03*
D15*
X77725000Y-119374999D03*
X79375000Y-119374999D03*
D16*
X128275000Y-73425000D03*
X128275000Y-71775000D03*
X103400000Y-70925000D03*
X103400000Y-69275000D03*
D19*
X127399998Y-104200001D03*
X128949998Y-104200001D03*
D30*
X71600000Y-121100000D03*
X71600000Y-123900000D03*
D15*
X130200000Y-87725000D03*
X131850000Y-87725000D03*
D18*
X129775000Y-71775000D03*
X129775000Y-73425000D03*
D19*
X124950000Y-73400000D03*
X126500000Y-73400000D03*
D18*
X133600000Y-84400000D03*
X133600000Y-86050000D03*
D14*
X123800000Y-129325000D03*
X123800000Y-130875000D03*
D26*
X102775000Y-84200000D03*
X101225000Y-84200000D03*
D31*
X74700000Y-94635000D03*
X74700000Y-95585000D03*
X74700000Y-96535000D03*
X76975000Y-96535000D03*
X76975000Y-95585000D03*
X76975000Y-94635000D03*
D14*
X119100000Y-129325000D03*
X119100000Y-130875000D03*
D32*
X131850000Y-84174998D03*
X131850000Y-86274998D03*
D16*
X81400000Y-70925000D03*
X81400000Y-69275000D03*
D27*
X104900000Y-72425000D03*
X104900000Y-74175000D03*
D15*
X93850000Y-119389999D03*
X95500000Y-119389999D03*
D26*
X132075000Y-128500000D03*
X130525000Y-128500000D03*
D27*
X133750000Y-79675001D03*
X133750000Y-81424999D03*
D19*
X131400000Y-73400000D03*
X132950000Y-73400000D03*
D15*
X137200000Y-87725000D03*
X138850000Y-87725000D03*
D16*
X92400000Y-70925000D03*
X92400000Y-69275000D03*
D33*
X119799999Y-101600000D03*
X119799999Y-95950000D03*
D19*
X137825000Y-73400000D03*
X139375000Y-73400000D03*
D12*
X100075000Y-108725000D03*
X100075000Y-111675000D03*
D28*
X93225000Y-130500000D03*
X96375000Y-130500000D03*
D13*
X79375000Y-120855000D03*
X77725000Y-120855000D03*
D34*
X147000000Y-98400000D03*
X144200000Y-98400000D03*
D12*
X85500000Y-98525000D03*
X85500000Y-101475000D03*
D14*
X137100000Y-89450000D03*
X137100000Y-91000000D03*
D18*
X81400000Y-72475000D03*
X81400000Y-74125000D03*
D13*
X56775000Y-62550000D03*
X55125000Y-62550000D03*
D14*
X135200000Y-129325000D03*
X135200000Y-130875000D03*
D16*
X134700000Y-73425000D03*
X134700000Y-71775000D03*
D14*
X77450000Y-91310000D03*
X77450000Y-92860000D03*
D18*
X140600000Y-84400000D03*
X140600000Y-86050000D03*
D28*
X109325000Y-130500000D03*
X112475000Y-130500000D03*
D15*
X58300000Y-64050000D03*
X59950000Y-64050000D03*
D14*
X103000000Y-129325000D03*
X103000000Y-130875000D03*
D13*
X128999998Y-101200002D03*
X127349998Y-101200002D03*
D35*
X125200000Y-102575000D03*
X125200000Y-101025000D03*
D19*
X139525000Y-75700000D03*
X141075000Y-75700000D03*
D12*
X83950000Y-108710000D03*
X83950000Y-111660000D03*
D18*
X145450000Y-94575000D03*
X145450000Y-96225000D03*
D27*
X93900000Y-72425000D03*
X93900000Y-74175000D03*
D19*
X74725000Y-98185000D03*
X76275000Y-98185000D03*
D36*
X58250000Y-62550000D03*
X60000000Y-62550000D03*
D14*
X133600000Y-89450000D03*
X133600000Y-91000000D03*
D17*
X64900000Y-69400000D03*
X67700000Y-69400000D03*
D15*
X126050000Y-119389999D03*
X127700000Y-119389999D03*
D18*
X101375000Y-90075000D03*
X101375000Y-91725000D03*
D19*
X94725000Y-128500000D03*
X96275000Y-128500000D03*
D16*
X141300000Y-81825000D03*
X141300000Y-80175000D03*
X110100000Y-64525001D03*
X110100000Y-62875001D03*
D19*
X110825000Y-128500000D03*
X112375000Y-128500000D03*
X126925000Y-128500000D03*
X128475000Y-128500000D03*
D28*
X98225000Y-130500000D03*
X101375000Y-130500000D03*
D13*
X66250000Y-133500000D03*
X64600000Y-133500000D03*
D27*
X147050000Y-94525001D03*
X147050000Y-96274999D03*
D14*
X140600000Y-89450000D03*
X140600000Y-91000000D03*
D17*
X75900000Y-69400000D03*
X78700000Y-69400000D03*
D14*
X139350000Y-80225000D03*
X139350000Y-81775000D03*
D28*
X82100000Y-130485000D03*
X85250000Y-130485000D03*
D36*
X67750000Y-133500000D03*
X69500000Y-133500000D03*
D26*
X115975000Y-128500000D03*
X114425000Y-128500000D03*
D13*
X66250000Y-132000000D03*
X64600000Y-132000000D03*
D37*
X108500000Y-64574999D03*
X108500000Y-62825001D03*
D15*
X140700000Y-87725000D03*
X142350000Y-87725000D03*
D13*
X127700000Y-120870000D03*
X126050000Y-120870000D03*
D15*
X137775000Y-71800000D03*
X139425000Y-71800000D03*
D38*
X128299999Y-99289999D03*
X128299999Y-98340000D03*
X128299999Y-97390001D03*
X126024999Y-97390001D03*
X126024999Y-98340000D03*
X126024999Y-99289999D03*
D18*
X137350000Y-95325000D03*
X137350000Y-96975000D03*
X123325000Y-71775000D03*
X123325000Y-73425000D03*
D17*
X97900000Y-69400000D03*
X100700000Y-69400000D03*
D28*
X114325000Y-130500000D03*
X117475000Y-130500000D03*
D26*
X102775000Y-93800000D03*
X101225000Y-93800000D03*
D28*
X125425000Y-130500000D03*
X128575000Y-130500000D03*
D26*
X99875000Y-128500000D03*
X98325000Y-128500000D03*
D13*
X56775000Y-64050000D03*
X55125000Y-64050000D03*
D15*
X67800000Y-132000000D03*
X69450000Y-132000000D03*
D10*
X88935000Y-72880000D03*
X90065000Y-72880000D03*
X88935000Y-72170000D03*
X90065000Y-72170000D03*
D11*
X88525000Y-71400000D03*
X89175000Y-71400000D03*
X89825000Y-71400000D03*
X90475000Y-71400000D03*
X88525000Y-74400000D03*
X89175000Y-74400000D03*
X89825000Y-74400000D03*
X90475000Y-74400000D03*
D12*
X132275000Y-108725000D03*
X132275000Y-111675000D03*
D10*
X99935000Y-72880000D03*
X101065000Y-72880000D03*
X99935000Y-72170000D03*
X101065000Y-72170000D03*
D11*
X99525000Y-71400000D03*
X100175000Y-71400000D03*
X100825000Y-71400000D03*
X101475000Y-71400000D03*
X99525000Y-74400000D03*
X100175000Y-74400000D03*
X100825000Y-74400000D03*
X101475000Y-74400000D03*
D25*
X74575000Y-100650000D03*
X77525000Y-100650000D03*
D32*
X138850000Y-84175000D03*
X138850000Y-86275000D03*
D16*
X99875000Y-91725000D03*
X99875000Y-90075000D03*
D15*
X127349998Y-102700002D03*
X128999998Y-102700002D03*
D12*
X116175000Y-108725000D03*
X116175000Y-111675000D03*
D39*
X139350000Y-77212500D03*
X139350000Y-78787500D03*
D15*
X109950000Y-119389999D03*
X111600000Y-119389999D03*
D27*
X71900000Y-72425000D03*
X71900000Y-74175000D03*
D16*
X121825000Y-73425000D03*
X121825000Y-71775000D03*
D18*
X137100000Y-84400000D03*
X137100000Y-86050000D03*
D40*
X60120000Y-67160000D03*
X60120000Y-68290000D03*
X60830000Y-67160000D03*
X60830000Y-68290000D03*
D41*
X61600000Y-66750000D03*
X61600000Y-67400000D03*
X61600000Y-68050000D03*
X61600000Y-68700000D03*
X58600000Y-66750000D03*
X58600000Y-67400000D03*
X58600000Y-68050000D03*
X58600000Y-68700000D03*
D32*
X135350000Y-84175000D03*
X135350000Y-86275000D03*
D14*
X107700000Y-129325000D03*
X107700000Y-130875000D03*
D18*
X136200000Y-71775000D03*
X136200000Y-73425000D03*
D32*
X142350000Y-84175000D03*
X142350000Y-86275000D03*
D18*
X92400000Y-72475000D03*
X92400000Y-74125000D03*
D32*
X141600000Y-71950000D03*
X141600000Y-74050000D03*
D28*
X130425000Y-130500000D03*
X133575000Y-130500000D03*
D14*
X137300000Y-80225000D03*
X137300000Y-81775000D03*
D18*
X103400000Y-72475000D03*
X103400000Y-74125000D03*
D21*
X132800000Y-97075001D03*
X132800000Y-94124999D03*
D13*
X95500000Y-120870000D03*
X93850000Y-120870000D03*
D26*
X83750000Y-128485000D03*
X82200000Y-128485000D03*
D21*
X122999998Y-92875001D03*
X122999998Y-89924999D03*
D16*
X70400000Y-70925000D03*
X70400000Y-69275000D03*
D14*
X130100000Y-89450000D03*
X130100000Y-91000000D03*
D13*
X74975000Y-91285000D03*
X73325000Y-91285000D03*
D15*
X98075000Y-81900000D03*
X99725000Y-81900000D03*
D35*
X130300000Y-97075000D03*
X130300000Y-95525000D03*
D10*
X66935000Y-72880000D03*
X68065000Y-72880000D03*
X66935000Y-72170000D03*
X68065000Y-72170000D03*
D11*
X66525000Y-71400000D03*
X67175000Y-71400000D03*
X67825000Y-71400000D03*
X68475000Y-71400000D03*
X66525000Y-74400000D03*
X67175000Y-74400000D03*
X67825000Y-74400000D03*
X68475000Y-74400000D03*
D15*
X131350000Y-71800000D03*
X133000000Y-71800000D03*
D27*
X82900000Y-72425000D03*
X82900000Y-74175000D03*
M02*
