%TF.GenerationSoftware,KiCad,Pcbnew,8.0.4*%
%TF.CreationDate,2024-09-25T20:08:00-07:00*%
%TF.ProjectId,rpi pico printer board,72706920-7069-4636-9f20-7072696e7465,rev?*%
%TF.SameCoordinates,Original*%
%TF.FileFunction,Drillmap*%
%TF.FilePolarity,Positive*%
%FSLAX45Y45*%
G04 Gerber Fmt 4.5, Leading zero omitted, Abs format (unit mm)*
G04 Created by KiCad (PCBNEW 8.0.4) date 2024-09-25 20:08:00*
%MOMM*%
%LPD*%
G01*
G04 APERTURE LIST*
%ADD10C,0.050000*%
%ADD11C,0.200000*%
%ADD12C,0.115200*%
%ADD13C,0.150000*%
%ADD14C,0.180000*%
%ADD15C,0.320000*%
G04 APERTURE END LIST*
D10*
X5000000Y-5300000D02*
X5000000Y-14700000D01*
X15000000Y-14700000D02*
X15000000Y-5300000D01*
X14700000Y-5000000D02*
G75*
G02*
X15000000Y-5300000I0J-300000D01*
G01*
X15000000Y-14700000D02*
G75*
G02*
X14700000Y-15000000I-300000J0D01*
G01*
X14700000Y-5000000D02*
X5300000Y-5000000D01*
X5300000Y-15000000D02*
G75*
G02*
X5000000Y-14700000I0J300000D01*
G01*
X5300000Y-15000000D02*
X14700000Y-15000000D01*
X5000000Y-5300000D02*
G75*
G02*
X5300000Y-5000000I300000J0D01*
G01*
D11*
D12*
X5142400Y-14112400D02*
X5257600Y-14227600D01*
X5257600Y-14112400D02*
X5142400Y-14227600D01*
X14362400Y-13722400D02*
X14477600Y-13837600D01*
X14477600Y-13722400D02*
X14362400Y-13837600D01*
X14782400Y-6142400D02*
X14897600Y-6257600D01*
X14897600Y-6142400D02*
X14782400Y-6257600D01*
D13*
X14559000Y-8558500D02*
G75*
G02*
X14409000Y-8558500I-75000J0D01*
G01*
X14409000Y-8558500D02*
G75*
G02*
X14559000Y-8558500I75000J0D01*
G01*
X14559000Y-9043500D02*
G75*
G02*
X14409000Y-9043500I-75000J0D01*
G01*
X14409000Y-9043500D02*
G75*
G02*
X14559000Y-9043500I75000J0D01*
G01*
D14*
X14787000Y-8438500D02*
X14787000Y-8618500D01*
X14697000Y-8528500D02*
X14877000Y-8528500D01*
X14787000Y-8983500D02*
X14787000Y-9163500D01*
X14697000Y-9073500D02*
X14877000Y-9073500D01*
D15*
X5413138Y-5413138D02*
X5413138Y-5186862D01*
X5186862Y-5186862D01*
X5186862Y-5413138D01*
X5413138Y-5413138D01*
X5413138Y-14813138D02*
X5413138Y-14586862D01*
X5186862Y-14586862D01*
X5186862Y-14813138D01*
X5413138Y-14813138D01*
X14813138Y-7313138D02*
X14813138Y-7086862D01*
X14586862Y-7086862D01*
X14586862Y-7313138D01*
X14813138Y-7313138D01*
X14813138Y-13513138D02*
X14813138Y-13286862D01*
X14586862Y-13286862D01*
X14586862Y-13513138D01*
X14813138Y-13513138D01*
D11*
X5258277Y-15313984D02*
X5258277Y-15113984D01*
X5258277Y-15113984D02*
X5305896Y-15113984D01*
X5305896Y-15113984D02*
X5334467Y-15123508D01*
X5334467Y-15123508D02*
X5353515Y-15142555D01*
X5353515Y-15142555D02*
X5363039Y-15161603D01*
X5363039Y-15161603D02*
X5372563Y-15199698D01*
X5372563Y-15199698D02*
X5372563Y-15228269D01*
X5372563Y-15228269D02*
X5363039Y-15266365D01*
X5363039Y-15266365D02*
X5353515Y-15285412D01*
X5353515Y-15285412D02*
X5334467Y-15304460D01*
X5334467Y-15304460D02*
X5305896Y-15313984D01*
X5305896Y-15313984D02*
X5258277Y-15313984D01*
X5458277Y-15313984D02*
X5458277Y-15180650D01*
X5458277Y-15218746D02*
X5467801Y-15199698D01*
X5467801Y-15199698D02*
X5477324Y-15190174D01*
X5477324Y-15190174D02*
X5496372Y-15180650D01*
X5496372Y-15180650D02*
X5515420Y-15180650D01*
X5582086Y-15313984D02*
X5582086Y-15180650D01*
X5582086Y-15113984D02*
X5572563Y-15123508D01*
X5572563Y-15123508D02*
X5582086Y-15133031D01*
X5582086Y-15133031D02*
X5591610Y-15123508D01*
X5591610Y-15123508D02*
X5582086Y-15113984D01*
X5582086Y-15113984D02*
X5582086Y-15133031D01*
X5705896Y-15313984D02*
X5686848Y-15304460D01*
X5686848Y-15304460D02*
X5677324Y-15285412D01*
X5677324Y-15285412D02*
X5677324Y-15113984D01*
X5810658Y-15313984D02*
X5791610Y-15304460D01*
X5791610Y-15304460D02*
X5782086Y-15285412D01*
X5782086Y-15285412D02*
X5782086Y-15113984D01*
X6039229Y-15313984D02*
X6039229Y-15113984D01*
X6039229Y-15113984D02*
X6105896Y-15256841D01*
X6105896Y-15256841D02*
X6172562Y-15113984D01*
X6172562Y-15113984D02*
X6172562Y-15313984D01*
X6353515Y-15313984D02*
X6353515Y-15209222D01*
X6353515Y-15209222D02*
X6343991Y-15190174D01*
X6343991Y-15190174D02*
X6324943Y-15180650D01*
X6324943Y-15180650D02*
X6286848Y-15180650D01*
X6286848Y-15180650D02*
X6267801Y-15190174D01*
X6353515Y-15304460D02*
X6334467Y-15313984D01*
X6334467Y-15313984D02*
X6286848Y-15313984D01*
X6286848Y-15313984D02*
X6267801Y-15304460D01*
X6267801Y-15304460D02*
X6258277Y-15285412D01*
X6258277Y-15285412D02*
X6258277Y-15266365D01*
X6258277Y-15266365D02*
X6267801Y-15247317D01*
X6267801Y-15247317D02*
X6286848Y-15237793D01*
X6286848Y-15237793D02*
X6334467Y-15237793D01*
X6334467Y-15237793D02*
X6353515Y-15228269D01*
X6448753Y-15180650D02*
X6448753Y-15380650D01*
X6448753Y-15190174D02*
X6467801Y-15180650D01*
X6467801Y-15180650D02*
X6505896Y-15180650D01*
X6505896Y-15180650D02*
X6524943Y-15190174D01*
X6524943Y-15190174D02*
X6534467Y-15199698D01*
X6534467Y-15199698D02*
X6543991Y-15218746D01*
X6543991Y-15218746D02*
X6543991Y-15275888D01*
X6543991Y-15275888D02*
X6534467Y-15294936D01*
X6534467Y-15294936D02*
X6524943Y-15304460D01*
X6524943Y-15304460D02*
X6505896Y-15313984D01*
X6505896Y-15313984D02*
X6467801Y-15313984D01*
X6467801Y-15313984D02*
X6448753Y-15304460D01*
X6629705Y-15294936D02*
X6639229Y-15304460D01*
X6639229Y-15304460D02*
X6629705Y-15313984D01*
X6629705Y-15313984D02*
X6620182Y-15304460D01*
X6620182Y-15304460D02*
X6629705Y-15294936D01*
X6629705Y-15294936D02*
X6629705Y-15313984D01*
X6629705Y-15190174D02*
X6639229Y-15199698D01*
X6639229Y-15199698D02*
X6629705Y-15209222D01*
X6629705Y-15209222D02*
X6620182Y-15199698D01*
X6620182Y-15199698D02*
X6629705Y-15190174D01*
X6629705Y-15190174D02*
X6629705Y-15209222D01*
D12*
X4882300Y-15584900D02*
X4997500Y-15700100D01*
X4997500Y-15584900D02*
X4882300Y-15700100D01*
D11*
X5363039Y-15733984D02*
X5248753Y-15733984D01*
X5305896Y-15733984D02*
X5305896Y-15533984D01*
X5305896Y-15533984D02*
X5286848Y-15562555D01*
X5286848Y-15562555D02*
X5267801Y-15581603D01*
X5267801Y-15581603D02*
X5248753Y-15591127D01*
X5448753Y-15714936D02*
X5458277Y-15724460D01*
X5458277Y-15724460D02*
X5448753Y-15733984D01*
X5448753Y-15733984D02*
X5439229Y-15724460D01*
X5439229Y-15724460D02*
X5448753Y-15714936D01*
X5448753Y-15714936D02*
X5448753Y-15733984D01*
X5648753Y-15733984D02*
X5534467Y-15733984D01*
X5591610Y-15733984D02*
X5591610Y-15533984D01*
X5591610Y-15533984D02*
X5572563Y-15562555D01*
X5572563Y-15562555D02*
X5553515Y-15581603D01*
X5553515Y-15581603D02*
X5534467Y-15591127D01*
X5829705Y-15533984D02*
X5734467Y-15533984D01*
X5734467Y-15533984D02*
X5724943Y-15629222D01*
X5724943Y-15629222D02*
X5734467Y-15619698D01*
X5734467Y-15619698D02*
X5753515Y-15610174D01*
X5753515Y-15610174D02*
X5801134Y-15610174D01*
X5801134Y-15610174D02*
X5820182Y-15619698D01*
X5820182Y-15619698D02*
X5829705Y-15629222D01*
X5829705Y-15629222D02*
X5839229Y-15648269D01*
X5839229Y-15648269D02*
X5839229Y-15695888D01*
X5839229Y-15695888D02*
X5829705Y-15714936D01*
X5829705Y-15714936D02*
X5820182Y-15724460D01*
X5820182Y-15724460D02*
X5801134Y-15733984D01*
X5801134Y-15733984D02*
X5753515Y-15733984D01*
X5753515Y-15733984D02*
X5734467Y-15724460D01*
X5734467Y-15724460D02*
X5724943Y-15714936D01*
X5915420Y-15553031D02*
X5924943Y-15543508D01*
X5924943Y-15543508D02*
X5943991Y-15533984D01*
X5943991Y-15533984D02*
X5991610Y-15533984D01*
X5991610Y-15533984D02*
X6010658Y-15543508D01*
X6010658Y-15543508D02*
X6020182Y-15553031D01*
X6020182Y-15553031D02*
X6029705Y-15572079D01*
X6029705Y-15572079D02*
X6029705Y-15591127D01*
X6029705Y-15591127D02*
X6020182Y-15619698D01*
X6020182Y-15619698D02*
X5905896Y-15733984D01*
X5905896Y-15733984D02*
X6029705Y-15733984D01*
X6115420Y-15733984D02*
X6115420Y-15600650D01*
X6115420Y-15619698D02*
X6124943Y-15610174D01*
X6124943Y-15610174D02*
X6143991Y-15600650D01*
X6143991Y-15600650D02*
X6172563Y-15600650D01*
X6172563Y-15600650D02*
X6191610Y-15610174D01*
X6191610Y-15610174D02*
X6201134Y-15629222D01*
X6201134Y-15629222D02*
X6201134Y-15733984D01*
X6201134Y-15629222D02*
X6210658Y-15610174D01*
X6210658Y-15610174D02*
X6229705Y-15600650D01*
X6229705Y-15600650D02*
X6258277Y-15600650D01*
X6258277Y-15600650D02*
X6277324Y-15610174D01*
X6277324Y-15610174D02*
X6286848Y-15629222D01*
X6286848Y-15629222D02*
X6286848Y-15733984D01*
X6382086Y-15733984D02*
X6382086Y-15600650D01*
X6382086Y-15619698D02*
X6391610Y-15610174D01*
X6391610Y-15610174D02*
X6410658Y-15600650D01*
X6410658Y-15600650D02*
X6439229Y-15600650D01*
X6439229Y-15600650D02*
X6458277Y-15610174D01*
X6458277Y-15610174D02*
X6467801Y-15629222D01*
X6467801Y-15629222D02*
X6467801Y-15733984D01*
X6467801Y-15629222D02*
X6477324Y-15610174D01*
X6477324Y-15610174D02*
X6496372Y-15600650D01*
X6496372Y-15600650D02*
X6524943Y-15600650D01*
X6524943Y-15600650D02*
X6543991Y-15610174D01*
X6543991Y-15610174D02*
X6553515Y-15629222D01*
X6553515Y-15629222D02*
X6553515Y-15733984D01*
X6943991Y-15524460D02*
X6772563Y-15781603D01*
X7201134Y-15533984D02*
X7220182Y-15533984D01*
X7220182Y-15533984D02*
X7239229Y-15543508D01*
X7239229Y-15543508D02*
X7248753Y-15553031D01*
X7248753Y-15553031D02*
X7258277Y-15572079D01*
X7258277Y-15572079D02*
X7267801Y-15610174D01*
X7267801Y-15610174D02*
X7267801Y-15657793D01*
X7267801Y-15657793D02*
X7258277Y-15695888D01*
X7258277Y-15695888D02*
X7248753Y-15714936D01*
X7248753Y-15714936D02*
X7239229Y-15724460D01*
X7239229Y-15724460D02*
X7220182Y-15733984D01*
X7220182Y-15733984D02*
X7201134Y-15733984D01*
X7201134Y-15733984D02*
X7182086Y-15724460D01*
X7182086Y-15724460D02*
X7172563Y-15714936D01*
X7172563Y-15714936D02*
X7163039Y-15695888D01*
X7163039Y-15695888D02*
X7153515Y-15657793D01*
X7153515Y-15657793D02*
X7153515Y-15610174D01*
X7153515Y-15610174D02*
X7163039Y-15572079D01*
X7163039Y-15572079D02*
X7172563Y-15553031D01*
X7172563Y-15553031D02*
X7182086Y-15543508D01*
X7182086Y-15543508D02*
X7201134Y-15533984D01*
X7353515Y-15714936D02*
X7363039Y-15724460D01*
X7363039Y-15724460D02*
X7353515Y-15733984D01*
X7353515Y-15733984D02*
X7343991Y-15724460D01*
X7343991Y-15724460D02*
X7353515Y-15714936D01*
X7353515Y-15714936D02*
X7353515Y-15733984D01*
X7486848Y-15533984D02*
X7505896Y-15533984D01*
X7505896Y-15533984D02*
X7524944Y-15543508D01*
X7524944Y-15543508D02*
X7534467Y-15553031D01*
X7534467Y-15553031D02*
X7543991Y-15572079D01*
X7543991Y-15572079D02*
X7553515Y-15610174D01*
X7553515Y-15610174D02*
X7553515Y-15657793D01*
X7553515Y-15657793D02*
X7543991Y-15695888D01*
X7543991Y-15695888D02*
X7534467Y-15714936D01*
X7534467Y-15714936D02*
X7524944Y-15724460D01*
X7524944Y-15724460D02*
X7505896Y-15733984D01*
X7505896Y-15733984D02*
X7486848Y-15733984D01*
X7486848Y-15733984D02*
X7467801Y-15724460D01*
X7467801Y-15724460D02*
X7458277Y-15714936D01*
X7458277Y-15714936D02*
X7448753Y-15695888D01*
X7448753Y-15695888D02*
X7439229Y-15657793D01*
X7439229Y-15657793D02*
X7439229Y-15610174D01*
X7439229Y-15610174D02*
X7448753Y-15572079D01*
X7448753Y-15572079D02*
X7458277Y-15553031D01*
X7458277Y-15553031D02*
X7467801Y-15543508D01*
X7467801Y-15543508D02*
X7486848Y-15533984D01*
X7724944Y-15600650D02*
X7724944Y-15733984D01*
X7677325Y-15524460D02*
X7629706Y-15667317D01*
X7629706Y-15667317D02*
X7753515Y-15667317D01*
X7924944Y-15533984D02*
X7829706Y-15533984D01*
X7829706Y-15533984D02*
X7820182Y-15629222D01*
X7820182Y-15629222D02*
X7829706Y-15619698D01*
X7829706Y-15619698D02*
X7848753Y-15610174D01*
X7848753Y-15610174D02*
X7896372Y-15610174D01*
X7896372Y-15610174D02*
X7915420Y-15619698D01*
X7915420Y-15619698D02*
X7924944Y-15629222D01*
X7924944Y-15629222D02*
X7934467Y-15648269D01*
X7934467Y-15648269D02*
X7934467Y-15695888D01*
X7934467Y-15695888D02*
X7924944Y-15714936D01*
X7924944Y-15714936D02*
X7915420Y-15724460D01*
X7915420Y-15724460D02*
X7896372Y-15733984D01*
X7896372Y-15733984D02*
X7848753Y-15733984D01*
X7848753Y-15733984D02*
X7829706Y-15724460D01*
X7829706Y-15724460D02*
X7820182Y-15714936D01*
X8105896Y-15600650D02*
X8105896Y-15733984D01*
X8058277Y-15524460D02*
X8010658Y-15667317D01*
X8010658Y-15667317D02*
X8134467Y-15667317D01*
X8201134Y-15533984D02*
X8201134Y-15572079D01*
X8277325Y-15533984D02*
X8277325Y-15572079D01*
X8572563Y-15810174D02*
X8563039Y-15800650D01*
X8563039Y-15800650D02*
X8543991Y-15772079D01*
X8543991Y-15772079D02*
X8534468Y-15753031D01*
X8534468Y-15753031D02*
X8524944Y-15724460D01*
X8524944Y-15724460D02*
X8515420Y-15676841D01*
X8515420Y-15676841D02*
X8515420Y-15638746D01*
X8515420Y-15638746D02*
X8524944Y-15591127D01*
X8524944Y-15591127D02*
X8534468Y-15562555D01*
X8534468Y-15562555D02*
X8543991Y-15543508D01*
X8543991Y-15543508D02*
X8563039Y-15514936D01*
X8563039Y-15514936D02*
X8572563Y-15505412D01*
X8629706Y-15533984D02*
X8753515Y-15533984D01*
X8753515Y-15533984D02*
X8686849Y-15610174D01*
X8686849Y-15610174D02*
X8715420Y-15610174D01*
X8715420Y-15610174D02*
X8734468Y-15619698D01*
X8734468Y-15619698D02*
X8743991Y-15629222D01*
X8743991Y-15629222D02*
X8753515Y-15648269D01*
X8753515Y-15648269D02*
X8753515Y-15695888D01*
X8753515Y-15695888D02*
X8743991Y-15714936D01*
X8743991Y-15714936D02*
X8734468Y-15724460D01*
X8734468Y-15724460D02*
X8715420Y-15733984D01*
X8715420Y-15733984D02*
X8658277Y-15733984D01*
X8658277Y-15733984D02*
X8639230Y-15724460D01*
X8639230Y-15724460D02*
X8629706Y-15714936D01*
X8991611Y-15733984D02*
X8991611Y-15533984D01*
X9077325Y-15733984D02*
X9077325Y-15629222D01*
X9077325Y-15629222D02*
X9067801Y-15610174D01*
X9067801Y-15610174D02*
X9048753Y-15600650D01*
X9048753Y-15600650D02*
X9020182Y-15600650D01*
X9020182Y-15600650D02*
X9001134Y-15610174D01*
X9001134Y-15610174D02*
X8991611Y-15619698D01*
X9201134Y-15733984D02*
X9182087Y-15724460D01*
X9182087Y-15724460D02*
X9172563Y-15714936D01*
X9172563Y-15714936D02*
X9163039Y-15695888D01*
X9163039Y-15695888D02*
X9163039Y-15638746D01*
X9163039Y-15638746D02*
X9172563Y-15619698D01*
X9172563Y-15619698D02*
X9182087Y-15610174D01*
X9182087Y-15610174D02*
X9201134Y-15600650D01*
X9201134Y-15600650D02*
X9229706Y-15600650D01*
X9229706Y-15600650D02*
X9248753Y-15610174D01*
X9248753Y-15610174D02*
X9258277Y-15619698D01*
X9258277Y-15619698D02*
X9267801Y-15638746D01*
X9267801Y-15638746D02*
X9267801Y-15695888D01*
X9267801Y-15695888D02*
X9258277Y-15714936D01*
X9258277Y-15714936D02*
X9248753Y-15724460D01*
X9248753Y-15724460D02*
X9229706Y-15733984D01*
X9229706Y-15733984D02*
X9201134Y-15733984D01*
X9382087Y-15733984D02*
X9363039Y-15724460D01*
X9363039Y-15724460D02*
X9353515Y-15705412D01*
X9353515Y-15705412D02*
X9353515Y-15533984D01*
X9534468Y-15724460D02*
X9515420Y-15733984D01*
X9515420Y-15733984D02*
X9477325Y-15733984D01*
X9477325Y-15733984D02*
X9458277Y-15724460D01*
X9458277Y-15724460D02*
X9448753Y-15705412D01*
X9448753Y-15705412D02*
X9448753Y-15629222D01*
X9448753Y-15629222D02*
X9458277Y-15610174D01*
X9458277Y-15610174D02*
X9477325Y-15600650D01*
X9477325Y-15600650D02*
X9515420Y-15600650D01*
X9515420Y-15600650D02*
X9534468Y-15610174D01*
X9534468Y-15610174D02*
X9543992Y-15629222D01*
X9543992Y-15629222D02*
X9543992Y-15648269D01*
X9543992Y-15648269D02*
X9448753Y-15667317D01*
X9620182Y-15724460D02*
X9639230Y-15733984D01*
X9639230Y-15733984D02*
X9677325Y-15733984D01*
X9677325Y-15733984D02*
X9696373Y-15724460D01*
X9696373Y-15724460D02*
X9705896Y-15705412D01*
X9705896Y-15705412D02*
X9705896Y-15695888D01*
X9705896Y-15695888D02*
X9696373Y-15676841D01*
X9696373Y-15676841D02*
X9677325Y-15667317D01*
X9677325Y-15667317D02*
X9648753Y-15667317D01*
X9648753Y-15667317D02*
X9629706Y-15657793D01*
X9629706Y-15657793D02*
X9620182Y-15638746D01*
X9620182Y-15638746D02*
X9620182Y-15629222D01*
X9620182Y-15629222D02*
X9629706Y-15610174D01*
X9629706Y-15610174D02*
X9648753Y-15600650D01*
X9648753Y-15600650D02*
X9677325Y-15600650D01*
X9677325Y-15600650D02*
X9696373Y-15610174D01*
X9772563Y-15810174D02*
X9782087Y-15800650D01*
X9782087Y-15800650D02*
X9801134Y-15772079D01*
X9801134Y-15772079D02*
X9810658Y-15753031D01*
X9810658Y-15753031D02*
X9820182Y-15724460D01*
X9820182Y-15724460D02*
X9829706Y-15676841D01*
X9829706Y-15676841D02*
X9829706Y-15638746D01*
X9829706Y-15638746D02*
X9820182Y-15591127D01*
X9820182Y-15591127D02*
X9810658Y-15562555D01*
X9810658Y-15562555D02*
X9801134Y-15543508D01*
X9801134Y-15543508D02*
X9782087Y-15514936D01*
X9782087Y-15514936D02*
X9772563Y-15505412D01*
X10134468Y-15810174D02*
X10124944Y-15800650D01*
X10124944Y-15800650D02*
X10105896Y-15772079D01*
X10105896Y-15772079D02*
X10096373Y-15753031D01*
X10096373Y-15753031D02*
X10086849Y-15724460D01*
X10086849Y-15724460D02*
X10077325Y-15676841D01*
X10077325Y-15676841D02*
X10077325Y-15638746D01*
X10077325Y-15638746D02*
X10086849Y-15591127D01*
X10086849Y-15591127D02*
X10096373Y-15562555D01*
X10096373Y-15562555D02*
X10105896Y-15543508D01*
X10105896Y-15543508D02*
X10124944Y-15514936D01*
X10124944Y-15514936D02*
X10134468Y-15505412D01*
X10210658Y-15600650D02*
X10210658Y-15733984D01*
X10210658Y-15619698D02*
X10220182Y-15610174D01*
X10220182Y-15610174D02*
X10239230Y-15600650D01*
X10239230Y-15600650D02*
X10267801Y-15600650D01*
X10267801Y-15600650D02*
X10286849Y-15610174D01*
X10286849Y-15610174D02*
X10296373Y-15629222D01*
X10296373Y-15629222D02*
X10296373Y-15733984D01*
X10420182Y-15733984D02*
X10401134Y-15724460D01*
X10401134Y-15724460D02*
X10391611Y-15714936D01*
X10391611Y-15714936D02*
X10382087Y-15695888D01*
X10382087Y-15695888D02*
X10382087Y-15638746D01*
X10382087Y-15638746D02*
X10391611Y-15619698D01*
X10391611Y-15619698D02*
X10401134Y-15610174D01*
X10401134Y-15610174D02*
X10420182Y-15600650D01*
X10420182Y-15600650D02*
X10448754Y-15600650D01*
X10448754Y-15600650D02*
X10467801Y-15610174D01*
X10467801Y-15610174D02*
X10477325Y-15619698D01*
X10477325Y-15619698D02*
X10486849Y-15638746D01*
X10486849Y-15638746D02*
X10486849Y-15695888D01*
X10486849Y-15695888D02*
X10477325Y-15714936D01*
X10477325Y-15714936D02*
X10467801Y-15724460D01*
X10467801Y-15724460D02*
X10448754Y-15733984D01*
X10448754Y-15733984D02*
X10420182Y-15733984D01*
X10543992Y-15600650D02*
X10620182Y-15600650D01*
X10572563Y-15533984D02*
X10572563Y-15705412D01*
X10572563Y-15705412D02*
X10582087Y-15724460D01*
X10582087Y-15724460D02*
X10601134Y-15733984D01*
X10601134Y-15733984D02*
X10620182Y-15733984D01*
X10839230Y-15600650D02*
X10839230Y-15800650D01*
X10839230Y-15610174D02*
X10858277Y-15600650D01*
X10858277Y-15600650D02*
X10896373Y-15600650D01*
X10896373Y-15600650D02*
X10915420Y-15610174D01*
X10915420Y-15610174D02*
X10924944Y-15619698D01*
X10924944Y-15619698D02*
X10934468Y-15638746D01*
X10934468Y-15638746D02*
X10934468Y-15695888D01*
X10934468Y-15695888D02*
X10924944Y-15714936D01*
X10924944Y-15714936D02*
X10915420Y-15724460D01*
X10915420Y-15724460D02*
X10896373Y-15733984D01*
X10896373Y-15733984D02*
X10858277Y-15733984D01*
X10858277Y-15733984D02*
X10839230Y-15724460D01*
X11048754Y-15733984D02*
X11029706Y-15724460D01*
X11029706Y-15724460D02*
X11020182Y-15705412D01*
X11020182Y-15705412D02*
X11020182Y-15533984D01*
X11210658Y-15733984D02*
X11210658Y-15629222D01*
X11210658Y-15629222D02*
X11201134Y-15610174D01*
X11201134Y-15610174D02*
X11182087Y-15600650D01*
X11182087Y-15600650D02*
X11143992Y-15600650D01*
X11143992Y-15600650D02*
X11124944Y-15610174D01*
X11210658Y-15724460D02*
X11191611Y-15733984D01*
X11191611Y-15733984D02*
X11143992Y-15733984D01*
X11143992Y-15733984D02*
X11124944Y-15724460D01*
X11124944Y-15724460D02*
X11115420Y-15705412D01*
X11115420Y-15705412D02*
X11115420Y-15686365D01*
X11115420Y-15686365D02*
X11124944Y-15667317D01*
X11124944Y-15667317D02*
X11143992Y-15657793D01*
X11143992Y-15657793D02*
X11191611Y-15657793D01*
X11191611Y-15657793D02*
X11210658Y-15648269D01*
X11277325Y-15600650D02*
X11353515Y-15600650D01*
X11305896Y-15533984D02*
X11305896Y-15705412D01*
X11305896Y-15705412D02*
X11315420Y-15724460D01*
X11315420Y-15724460D02*
X11334468Y-15733984D01*
X11334468Y-15733984D02*
X11353515Y-15733984D01*
X11496373Y-15724460D02*
X11477325Y-15733984D01*
X11477325Y-15733984D02*
X11439230Y-15733984D01*
X11439230Y-15733984D02*
X11420182Y-15724460D01*
X11420182Y-15724460D02*
X11410658Y-15705412D01*
X11410658Y-15705412D02*
X11410658Y-15629222D01*
X11410658Y-15629222D02*
X11420182Y-15610174D01*
X11420182Y-15610174D02*
X11439230Y-15600650D01*
X11439230Y-15600650D02*
X11477325Y-15600650D01*
X11477325Y-15600650D02*
X11496373Y-15610174D01*
X11496373Y-15610174D02*
X11505896Y-15629222D01*
X11505896Y-15629222D02*
X11505896Y-15648269D01*
X11505896Y-15648269D02*
X11410658Y-15667317D01*
X11677325Y-15733984D02*
X11677325Y-15533984D01*
X11677325Y-15724460D02*
X11658277Y-15733984D01*
X11658277Y-15733984D02*
X11620182Y-15733984D01*
X11620182Y-15733984D02*
X11601134Y-15724460D01*
X11601134Y-15724460D02*
X11591611Y-15714936D01*
X11591611Y-15714936D02*
X11582087Y-15695888D01*
X11582087Y-15695888D02*
X11582087Y-15638746D01*
X11582087Y-15638746D02*
X11591611Y-15619698D01*
X11591611Y-15619698D02*
X11601134Y-15610174D01*
X11601134Y-15610174D02*
X11620182Y-15600650D01*
X11620182Y-15600650D02*
X11658277Y-15600650D01*
X11658277Y-15600650D02*
X11677325Y-15610174D01*
X11753515Y-15810174D02*
X11763039Y-15800650D01*
X11763039Y-15800650D02*
X11782087Y-15772079D01*
X11782087Y-15772079D02*
X11791611Y-15753031D01*
X11791611Y-15753031D02*
X11801134Y-15724460D01*
X11801134Y-15724460D02*
X11810658Y-15676841D01*
X11810658Y-15676841D02*
X11810658Y-15638746D01*
X11810658Y-15638746D02*
X11801134Y-15591127D01*
X11801134Y-15591127D02*
X11791611Y-15562555D01*
X11791611Y-15562555D02*
X11782087Y-15543508D01*
X11782087Y-15543508D02*
X11763039Y-15514936D01*
X11763039Y-15514936D02*
X11753515Y-15505412D01*
D13*
X4997500Y-15906500D02*
G75*
G02*
X4847500Y-15906500I-75000J0D01*
G01*
X4847500Y-15906500D02*
G75*
G02*
X4997500Y-15906500I75000J0D01*
G01*
D11*
X5363039Y-15997984D02*
X5248753Y-15997984D01*
X5305896Y-15997984D02*
X5305896Y-15797984D01*
X5305896Y-15797984D02*
X5286848Y-15826555D01*
X5286848Y-15826555D02*
X5267801Y-15845603D01*
X5267801Y-15845603D02*
X5248753Y-15855127D01*
X5448753Y-15978936D02*
X5458277Y-15988460D01*
X5458277Y-15988460D02*
X5448753Y-15997984D01*
X5448753Y-15997984D02*
X5439229Y-15988460D01*
X5439229Y-15988460D02*
X5448753Y-15978936D01*
X5448753Y-15978936D02*
X5448753Y-15997984D01*
X5639229Y-15797984D02*
X5543991Y-15797984D01*
X5543991Y-15797984D02*
X5534467Y-15893222D01*
X5534467Y-15893222D02*
X5543991Y-15883698D01*
X5543991Y-15883698D02*
X5563039Y-15874174D01*
X5563039Y-15874174D02*
X5610658Y-15874174D01*
X5610658Y-15874174D02*
X5629705Y-15883698D01*
X5629705Y-15883698D02*
X5639229Y-15893222D01*
X5639229Y-15893222D02*
X5648753Y-15912269D01*
X5648753Y-15912269D02*
X5648753Y-15959888D01*
X5648753Y-15959888D02*
X5639229Y-15978936D01*
X5639229Y-15978936D02*
X5629705Y-15988460D01*
X5629705Y-15988460D02*
X5610658Y-15997984D01*
X5610658Y-15997984D02*
X5563039Y-15997984D01*
X5563039Y-15997984D02*
X5543991Y-15988460D01*
X5543991Y-15988460D02*
X5534467Y-15978936D01*
X5772562Y-15797984D02*
X5791610Y-15797984D01*
X5791610Y-15797984D02*
X5810658Y-15807508D01*
X5810658Y-15807508D02*
X5820182Y-15817031D01*
X5820182Y-15817031D02*
X5829705Y-15836079D01*
X5829705Y-15836079D02*
X5839229Y-15874174D01*
X5839229Y-15874174D02*
X5839229Y-15921793D01*
X5839229Y-15921793D02*
X5829705Y-15959888D01*
X5829705Y-15959888D02*
X5820182Y-15978936D01*
X5820182Y-15978936D02*
X5810658Y-15988460D01*
X5810658Y-15988460D02*
X5791610Y-15997984D01*
X5791610Y-15997984D02*
X5772562Y-15997984D01*
X5772562Y-15997984D02*
X5753515Y-15988460D01*
X5753515Y-15988460D02*
X5743991Y-15978936D01*
X5743991Y-15978936D02*
X5734467Y-15959888D01*
X5734467Y-15959888D02*
X5724943Y-15921793D01*
X5724943Y-15921793D02*
X5724943Y-15874174D01*
X5724943Y-15874174D02*
X5734467Y-15836079D01*
X5734467Y-15836079D02*
X5743991Y-15817031D01*
X5743991Y-15817031D02*
X5753515Y-15807508D01*
X5753515Y-15807508D02*
X5772562Y-15797984D01*
X5963039Y-15797984D02*
X5982086Y-15797984D01*
X5982086Y-15797984D02*
X6001134Y-15807508D01*
X6001134Y-15807508D02*
X6010658Y-15817031D01*
X6010658Y-15817031D02*
X6020182Y-15836079D01*
X6020182Y-15836079D02*
X6029705Y-15874174D01*
X6029705Y-15874174D02*
X6029705Y-15921793D01*
X6029705Y-15921793D02*
X6020182Y-15959888D01*
X6020182Y-15959888D02*
X6010658Y-15978936D01*
X6010658Y-15978936D02*
X6001134Y-15988460D01*
X6001134Y-15988460D02*
X5982086Y-15997984D01*
X5982086Y-15997984D02*
X5963039Y-15997984D01*
X5963039Y-15997984D02*
X5943991Y-15988460D01*
X5943991Y-15988460D02*
X5934467Y-15978936D01*
X5934467Y-15978936D02*
X5924943Y-15959888D01*
X5924943Y-15959888D02*
X5915420Y-15921793D01*
X5915420Y-15921793D02*
X5915420Y-15874174D01*
X5915420Y-15874174D02*
X5924943Y-15836079D01*
X5924943Y-15836079D02*
X5934467Y-15817031D01*
X5934467Y-15817031D02*
X5943991Y-15807508D01*
X5943991Y-15807508D02*
X5963039Y-15797984D01*
X6115420Y-15997984D02*
X6115420Y-15864650D01*
X6115420Y-15883698D02*
X6124943Y-15874174D01*
X6124943Y-15874174D02*
X6143991Y-15864650D01*
X6143991Y-15864650D02*
X6172563Y-15864650D01*
X6172563Y-15864650D02*
X6191610Y-15874174D01*
X6191610Y-15874174D02*
X6201134Y-15893222D01*
X6201134Y-15893222D02*
X6201134Y-15997984D01*
X6201134Y-15893222D02*
X6210658Y-15874174D01*
X6210658Y-15874174D02*
X6229705Y-15864650D01*
X6229705Y-15864650D02*
X6258277Y-15864650D01*
X6258277Y-15864650D02*
X6277324Y-15874174D01*
X6277324Y-15874174D02*
X6286848Y-15893222D01*
X6286848Y-15893222D02*
X6286848Y-15997984D01*
X6382086Y-15997984D02*
X6382086Y-15864650D01*
X6382086Y-15883698D02*
X6391610Y-15874174D01*
X6391610Y-15874174D02*
X6410658Y-15864650D01*
X6410658Y-15864650D02*
X6439229Y-15864650D01*
X6439229Y-15864650D02*
X6458277Y-15874174D01*
X6458277Y-15874174D02*
X6467801Y-15893222D01*
X6467801Y-15893222D02*
X6467801Y-15997984D01*
X6467801Y-15893222D02*
X6477324Y-15874174D01*
X6477324Y-15874174D02*
X6496372Y-15864650D01*
X6496372Y-15864650D02*
X6524943Y-15864650D01*
X6524943Y-15864650D02*
X6543991Y-15874174D01*
X6543991Y-15874174D02*
X6553515Y-15893222D01*
X6553515Y-15893222D02*
X6553515Y-15997984D01*
X6943991Y-15788460D02*
X6772563Y-16045603D01*
X7201134Y-15797984D02*
X7220182Y-15797984D01*
X7220182Y-15797984D02*
X7239229Y-15807508D01*
X7239229Y-15807508D02*
X7248753Y-15817031D01*
X7248753Y-15817031D02*
X7258277Y-15836079D01*
X7258277Y-15836079D02*
X7267801Y-15874174D01*
X7267801Y-15874174D02*
X7267801Y-15921793D01*
X7267801Y-15921793D02*
X7258277Y-15959888D01*
X7258277Y-15959888D02*
X7248753Y-15978936D01*
X7248753Y-15978936D02*
X7239229Y-15988460D01*
X7239229Y-15988460D02*
X7220182Y-15997984D01*
X7220182Y-15997984D02*
X7201134Y-15997984D01*
X7201134Y-15997984D02*
X7182086Y-15988460D01*
X7182086Y-15988460D02*
X7172563Y-15978936D01*
X7172563Y-15978936D02*
X7163039Y-15959888D01*
X7163039Y-15959888D02*
X7153515Y-15921793D01*
X7153515Y-15921793D02*
X7153515Y-15874174D01*
X7153515Y-15874174D02*
X7163039Y-15836079D01*
X7163039Y-15836079D02*
X7172563Y-15817031D01*
X7172563Y-15817031D02*
X7182086Y-15807508D01*
X7182086Y-15807508D02*
X7201134Y-15797984D01*
X7353515Y-15978936D02*
X7363039Y-15988460D01*
X7363039Y-15988460D02*
X7353515Y-15997984D01*
X7353515Y-15997984D02*
X7343991Y-15988460D01*
X7343991Y-15988460D02*
X7353515Y-15978936D01*
X7353515Y-15978936D02*
X7353515Y-15997984D01*
X7486848Y-15797984D02*
X7505896Y-15797984D01*
X7505896Y-15797984D02*
X7524944Y-15807508D01*
X7524944Y-15807508D02*
X7534467Y-15817031D01*
X7534467Y-15817031D02*
X7543991Y-15836079D01*
X7543991Y-15836079D02*
X7553515Y-15874174D01*
X7553515Y-15874174D02*
X7553515Y-15921793D01*
X7553515Y-15921793D02*
X7543991Y-15959888D01*
X7543991Y-15959888D02*
X7534467Y-15978936D01*
X7534467Y-15978936D02*
X7524944Y-15988460D01*
X7524944Y-15988460D02*
X7505896Y-15997984D01*
X7505896Y-15997984D02*
X7486848Y-15997984D01*
X7486848Y-15997984D02*
X7467801Y-15988460D01*
X7467801Y-15988460D02*
X7458277Y-15978936D01*
X7458277Y-15978936D02*
X7448753Y-15959888D01*
X7448753Y-15959888D02*
X7439229Y-15921793D01*
X7439229Y-15921793D02*
X7439229Y-15874174D01*
X7439229Y-15874174D02*
X7448753Y-15836079D01*
X7448753Y-15836079D02*
X7458277Y-15817031D01*
X7458277Y-15817031D02*
X7467801Y-15807508D01*
X7467801Y-15807508D02*
X7486848Y-15797984D01*
X7734467Y-15797984D02*
X7639229Y-15797984D01*
X7639229Y-15797984D02*
X7629706Y-15893222D01*
X7629706Y-15893222D02*
X7639229Y-15883698D01*
X7639229Y-15883698D02*
X7658277Y-15874174D01*
X7658277Y-15874174D02*
X7705896Y-15874174D01*
X7705896Y-15874174D02*
X7724944Y-15883698D01*
X7724944Y-15883698D02*
X7734467Y-15893222D01*
X7734467Y-15893222D02*
X7743991Y-15912269D01*
X7743991Y-15912269D02*
X7743991Y-15959888D01*
X7743991Y-15959888D02*
X7734467Y-15978936D01*
X7734467Y-15978936D02*
X7724944Y-15988460D01*
X7724944Y-15988460D02*
X7705896Y-15997984D01*
X7705896Y-15997984D02*
X7658277Y-15997984D01*
X7658277Y-15997984D02*
X7639229Y-15988460D01*
X7639229Y-15988460D02*
X7629706Y-15978936D01*
X7839229Y-15997984D02*
X7877325Y-15997984D01*
X7877325Y-15997984D02*
X7896372Y-15988460D01*
X7896372Y-15988460D02*
X7905896Y-15978936D01*
X7905896Y-15978936D02*
X7924944Y-15950365D01*
X7924944Y-15950365D02*
X7934467Y-15912269D01*
X7934467Y-15912269D02*
X7934467Y-15836079D01*
X7934467Y-15836079D02*
X7924944Y-15817031D01*
X7924944Y-15817031D02*
X7915420Y-15807508D01*
X7915420Y-15807508D02*
X7896372Y-15797984D01*
X7896372Y-15797984D02*
X7858277Y-15797984D01*
X7858277Y-15797984D02*
X7839229Y-15807508D01*
X7839229Y-15807508D02*
X7829706Y-15817031D01*
X7829706Y-15817031D02*
X7820182Y-15836079D01*
X7820182Y-15836079D02*
X7820182Y-15883698D01*
X7820182Y-15883698D02*
X7829706Y-15902746D01*
X7829706Y-15902746D02*
X7839229Y-15912269D01*
X7839229Y-15912269D02*
X7858277Y-15921793D01*
X7858277Y-15921793D02*
X7896372Y-15921793D01*
X7896372Y-15921793D02*
X7915420Y-15912269D01*
X7915420Y-15912269D02*
X7924944Y-15902746D01*
X7924944Y-15902746D02*
X7934467Y-15883698D01*
X8124944Y-15997984D02*
X8010658Y-15997984D01*
X8067801Y-15997984D02*
X8067801Y-15797984D01*
X8067801Y-15797984D02*
X8048753Y-15826555D01*
X8048753Y-15826555D02*
X8029706Y-15845603D01*
X8029706Y-15845603D02*
X8010658Y-15855127D01*
X8201134Y-15797984D02*
X8201134Y-15836079D01*
X8277325Y-15797984D02*
X8277325Y-15836079D01*
X8572563Y-16074174D02*
X8563039Y-16064650D01*
X8563039Y-16064650D02*
X8543991Y-16036079D01*
X8543991Y-16036079D02*
X8534468Y-16017031D01*
X8534468Y-16017031D02*
X8524944Y-15988460D01*
X8524944Y-15988460D02*
X8515420Y-15940841D01*
X8515420Y-15940841D02*
X8515420Y-15902746D01*
X8515420Y-15902746D02*
X8524944Y-15855127D01*
X8524944Y-15855127D02*
X8534468Y-15826555D01*
X8534468Y-15826555D02*
X8543991Y-15807508D01*
X8543991Y-15807508D02*
X8563039Y-15778936D01*
X8563039Y-15778936D02*
X8572563Y-15769412D01*
X8639230Y-15817031D02*
X8648753Y-15807508D01*
X8648753Y-15807508D02*
X8667801Y-15797984D01*
X8667801Y-15797984D02*
X8715420Y-15797984D01*
X8715420Y-15797984D02*
X8734468Y-15807508D01*
X8734468Y-15807508D02*
X8743991Y-15817031D01*
X8743991Y-15817031D02*
X8753515Y-15836079D01*
X8753515Y-15836079D02*
X8753515Y-15855127D01*
X8753515Y-15855127D02*
X8743991Y-15883698D01*
X8743991Y-15883698D02*
X8629706Y-15997984D01*
X8629706Y-15997984D02*
X8753515Y-15997984D01*
X8991611Y-15997984D02*
X8991611Y-15797984D01*
X9077325Y-15997984D02*
X9077325Y-15893222D01*
X9077325Y-15893222D02*
X9067801Y-15874174D01*
X9067801Y-15874174D02*
X9048753Y-15864650D01*
X9048753Y-15864650D02*
X9020182Y-15864650D01*
X9020182Y-15864650D02*
X9001134Y-15874174D01*
X9001134Y-15874174D02*
X8991611Y-15883698D01*
X9201134Y-15997984D02*
X9182087Y-15988460D01*
X9182087Y-15988460D02*
X9172563Y-15978936D01*
X9172563Y-15978936D02*
X9163039Y-15959888D01*
X9163039Y-15959888D02*
X9163039Y-15902746D01*
X9163039Y-15902746D02*
X9172563Y-15883698D01*
X9172563Y-15883698D02*
X9182087Y-15874174D01*
X9182087Y-15874174D02*
X9201134Y-15864650D01*
X9201134Y-15864650D02*
X9229706Y-15864650D01*
X9229706Y-15864650D02*
X9248753Y-15874174D01*
X9248753Y-15874174D02*
X9258277Y-15883698D01*
X9258277Y-15883698D02*
X9267801Y-15902746D01*
X9267801Y-15902746D02*
X9267801Y-15959888D01*
X9267801Y-15959888D02*
X9258277Y-15978936D01*
X9258277Y-15978936D02*
X9248753Y-15988460D01*
X9248753Y-15988460D02*
X9229706Y-15997984D01*
X9229706Y-15997984D02*
X9201134Y-15997984D01*
X9382087Y-15997984D02*
X9363039Y-15988460D01*
X9363039Y-15988460D02*
X9353515Y-15969412D01*
X9353515Y-15969412D02*
X9353515Y-15797984D01*
X9534468Y-15988460D02*
X9515420Y-15997984D01*
X9515420Y-15997984D02*
X9477325Y-15997984D01*
X9477325Y-15997984D02*
X9458277Y-15988460D01*
X9458277Y-15988460D02*
X9448753Y-15969412D01*
X9448753Y-15969412D02*
X9448753Y-15893222D01*
X9448753Y-15893222D02*
X9458277Y-15874174D01*
X9458277Y-15874174D02*
X9477325Y-15864650D01*
X9477325Y-15864650D02*
X9515420Y-15864650D01*
X9515420Y-15864650D02*
X9534468Y-15874174D01*
X9534468Y-15874174D02*
X9543992Y-15893222D01*
X9543992Y-15893222D02*
X9543992Y-15912269D01*
X9543992Y-15912269D02*
X9448753Y-15931317D01*
X9620182Y-15988460D02*
X9639230Y-15997984D01*
X9639230Y-15997984D02*
X9677325Y-15997984D01*
X9677325Y-15997984D02*
X9696373Y-15988460D01*
X9696373Y-15988460D02*
X9705896Y-15969412D01*
X9705896Y-15969412D02*
X9705896Y-15959888D01*
X9705896Y-15959888D02*
X9696373Y-15940841D01*
X9696373Y-15940841D02*
X9677325Y-15931317D01*
X9677325Y-15931317D02*
X9648753Y-15931317D01*
X9648753Y-15931317D02*
X9629706Y-15921793D01*
X9629706Y-15921793D02*
X9620182Y-15902746D01*
X9620182Y-15902746D02*
X9620182Y-15893222D01*
X9620182Y-15893222D02*
X9629706Y-15874174D01*
X9629706Y-15874174D02*
X9648753Y-15864650D01*
X9648753Y-15864650D02*
X9677325Y-15864650D01*
X9677325Y-15864650D02*
X9696373Y-15874174D01*
X9772563Y-16074174D02*
X9782087Y-16064650D01*
X9782087Y-16064650D02*
X9801134Y-16036079D01*
X9801134Y-16036079D02*
X9810658Y-16017031D01*
X9810658Y-16017031D02*
X9820182Y-15988460D01*
X9820182Y-15988460D02*
X9829706Y-15940841D01*
X9829706Y-15940841D02*
X9829706Y-15902746D01*
X9829706Y-15902746D02*
X9820182Y-15855127D01*
X9820182Y-15855127D02*
X9810658Y-15826555D01*
X9810658Y-15826555D02*
X9801134Y-15807508D01*
X9801134Y-15807508D02*
X9782087Y-15778936D01*
X9782087Y-15778936D02*
X9772563Y-15769412D01*
X10134468Y-16074174D02*
X10124944Y-16064650D01*
X10124944Y-16064650D02*
X10105896Y-16036079D01*
X10105896Y-16036079D02*
X10096373Y-16017031D01*
X10096373Y-16017031D02*
X10086849Y-15988460D01*
X10086849Y-15988460D02*
X10077325Y-15940841D01*
X10077325Y-15940841D02*
X10077325Y-15902746D01*
X10077325Y-15902746D02*
X10086849Y-15855127D01*
X10086849Y-15855127D02*
X10096373Y-15826555D01*
X10096373Y-15826555D02*
X10105896Y-15807508D01*
X10105896Y-15807508D02*
X10124944Y-15778936D01*
X10124944Y-15778936D02*
X10134468Y-15769412D01*
X10210658Y-15864650D02*
X10210658Y-15997984D01*
X10210658Y-15883698D02*
X10220182Y-15874174D01*
X10220182Y-15874174D02*
X10239230Y-15864650D01*
X10239230Y-15864650D02*
X10267801Y-15864650D01*
X10267801Y-15864650D02*
X10286849Y-15874174D01*
X10286849Y-15874174D02*
X10296373Y-15893222D01*
X10296373Y-15893222D02*
X10296373Y-15997984D01*
X10420182Y-15997984D02*
X10401134Y-15988460D01*
X10401134Y-15988460D02*
X10391611Y-15978936D01*
X10391611Y-15978936D02*
X10382087Y-15959888D01*
X10382087Y-15959888D02*
X10382087Y-15902746D01*
X10382087Y-15902746D02*
X10391611Y-15883698D01*
X10391611Y-15883698D02*
X10401134Y-15874174D01*
X10401134Y-15874174D02*
X10420182Y-15864650D01*
X10420182Y-15864650D02*
X10448754Y-15864650D01*
X10448754Y-15864650D02*
X10467801Y-15874174D01*
X10467801Y-15874174D02*
X10477325Y-15883698D01*
X10477325Y-15883698D02*
X10486849Y-15902746D01*
X10486849Y-15902746D02*
X10486849Y-15959888D01*
X10486849Y-15959888D02*
X10477325Y-15978936D01*
X10477325Y-15978936D02*
X10467801Y-15988460D01*
X10467801Y-15988460D02*
X10448754Y-15997984D01*
X10448754Y-15997984D02*
X10420182Y-15997984D01*
X10543992Y-15864650D02*
X10620182Y-15864650D01*
X10572563Y-15797984D02*
X10572563Y-15969412D01*
X10572563Y-15969412D02*
X10582087Y-15988460D01*
X10582087Y-15988460D02*
X10601134Y-15997984D01*
X10601134Y-15997984D02*
X10620182Y-15997984D01*
X10839230Y-15864650D02*
X10839230Y-16064650D01*
X10839230Y-15874174D02*
X10858277Y-15864650D01*
X10858277Y-15864650D02*
X10896373Y-15864650D01*
X10896373Y-15864650D02*
X10915420Y-15874174D01*
X10915420Y-15874174D02*
X10924944Y-15883698D01*
X10924944Y-15883698D02*
X10934468Y-15902746D01*
X10934468Y-15902746D02*
X10934468Y-15959888D01*
X10934468Y-15959888D02*
X10924944Y-15978936D01*
X10924944Y-15978936D02*
X10915420Y-15988460D01*
X10915420Y-15988460D02*
X10896373Y-15997984D01*
X10896373Y-15997984D02*
X10858277Y-15997984D01*
X10858277Y-15997984D02*
X10839230Y-15988460D01*
X11048754Y-15997984D02*
X11029706Y-15988460D01*
X11029706Y-15988460D02*
X11020182Y-15969412D01*
X11020182Y-15969412D02*
X11020182Y-15797984D01*
X11210658Y-15997984D02*
X11210658Y-15893222D01*
X11210658Y-15893222D02*
X11201134Y-15874174D01*
X11201134Y-15874174D02*
X11182087Y-15864650D01*
X11182087Y-15864650D02*
X11143992Y-15864650D01*
X11143992Y-15864650D02*
X11124944Y-15874174D01*
X11210658Y-15988460D02*
X11191611Y-15997984D01*
X11191611Y-15997984D02*
X11143992Y-15997984D01*
X11143992Y-15997984D02*
X11124944Y-15988460D01*
X11124944Y-15988460D02*
X11115420Y-15969412D01*
X11115420Y-15969412D02*
X11115420Y-15950365D01*
X11115420Y-15950365D02*
X11124944Y-15931317D01*
X11124944Y-15931317D02*
X11143992Y-15921793D01*
X11143992Y-15921793D02*
X11191611Y-15921793D01*
X11191611Y-15921793D02*
X11210658Y-15912269D01*
X11277325Y-15864650D02*
X11353515Y-15864650D01*
X11305896Y-15797984D02*
X11305896Y-15969412D01*
X11305896Y-15969412D02*
X11315420Y-15988460D01*
X11315420Y-15988460D02*
X11334468Y-15997984D01*
X11334468Y-15997984D02*
X11353515Y-15997984D01*
X11496373Y-15988460D02*
X11477325Y-15997984D01*
X11477325Y-15997984D02*
X11439230Y-15997984D01*
X11439230Y-15997984D02*
X11420182Y-15988460D01*
X11420182Y-15988460D02*
X11410658Y-15969412D01*
X11410658Y-15969412D02*
X11410658Y-15893222D01*
X11410658Y-15893222D02*
X11420182Y-15874174D01*
X11420182Y-15874174D02*
X11439230Y-15864650D01*
X11439230Y-15864650D02*
X11477325Y-15864650D01*
X11477325Y-15864650D02*
X11496373Y-15874174D01*
X11496373Y-15874174D02*
X11505896Y-15893222D01*
X11505896Y-15893222D02*
X11505896Y-15912269D01*
X11505896Y-15912269D02*
X11410658Y-15931317D01*
X11677325Y-15997984D02*
X11677325Y-15797984D01*
X11677325Y-15988460D02*
X11658277Y-15997984D01*
X11658277Y-15997984D02*
X11620182Y-15997984D01*
X11620182Y-15997984D02*
X11601134Y-15988460D01*
X11601134Y-15988460D02*
X11591611Y-15978936D01*
X11591611Y-15978936D02*
X11582087Y-15959888D01*
X11582087Y-15959888D02*
X11582087Y-15902746D01*
X11582087Y-15902746D02*
X11591611Y-15883698D01*
X11591611Y-15883698D02*
X11601134Y-15874174D01*
X11601134Y-15874174D02*
X11620182Y-15864650D01*
X11620182Y-15864650D02*
X11658277Y-15864650D01*
X11658277Y-15864650D02*
X11677325Y-15874174D01*
X11753515Y-16074174D02*
X11763039Y-16064650D01*
X11763039Y-16064650D02*
X11782087Y-16036079D01*
X11782087Y-16036079D02*
X11791611Y-16017031D01*
X11791611Y-16017031D02*
X11801134Y-15988460D01*
X11801134Y-15988460D02*
X11810658Y-15940841D01*
X11810658Y-15940841D02*
X11810658Y-15902746D01*
X11810658Y-15902746D02*
X11801134Y-15855127D01*
X11801134Y-15855127D02*
X11791611Y-15826555D01*
X11791611Y-15826555D02*
X11782087Y-15807508D01*
X11782087Y-15807508D02*
X11763039Y-15778936D01*
X11763039Y-15778936D02*
X11753515Y-15769412D01*
D14*
X4907500Y-16086500D02*
X4907500Y-16266500D01*
X4817500Y-16176500D02*
X4997500Y-16176500D01*
D11*
X5363039Y-16267984D02*
X5248753Y-16267984D01*
X5305896Y-16267984D02*
X5305896Y-16067984D01*
X5305896Y-16067984D02*
X5286848Y-16096555D01*
X5286848Y-16096555D02*
X5267801Y-16115603D01*
X5267801Y-16115603D02*
X5248753Y-16125127D01*
X5448753Y-16248936D02*
X5458277Y-16258460D01*
X5458277Y-16258460D02*
X5448753Y-16267984D01*
X5448753Y-16267984D02*
X5439229Y-16258460D01*
X5439229Y-16258460D02*
X5448753Y-16248936D01*
X5448753Y-16248936D02*
X5448753Y-16267984D01*
X5572563Y-16153698D02*
X5553515Y-16144174D01*
X5553515Y-16144174D02*
X5543991Y-16134650D01*
X5543991Y-16134650D02*
X5534467Y-16115603D01*
X5534467Y-16115603D02*
X5534467Y-16106079D01*
X5534467Y-16106079D02*
X5543991Y-16087031D01*
X5543991Y-16087031D02*
X5553515Y-16077508D01*
X5553515Y-16077508D02*
X5572563Y-16067984D01*
X5572563Y-16067984D02*
X5610658Y-16067984D01*
X5610658Y-16067984D02*
X5629705Y-16077508D01*
X5629705Y-16077508D02*
X5639229Y-16087031D01*
X5639229Y-16087031D02*
X5648753Y-16106079D01*
X5648753Y-16106079D02*
X5648753Y-16115603D01*
X5648753Y-16115603D02*
X5639229Y-16134650D01*
X5639229Y-16134650D02*
X5629705Y-16144174D01*
X5629705Y-16144174D02*
X5610658Y-16153698D01*
X5610658Y-16153698D02*
X5572563Y-16153698D01*
X5572563Y-16153698D02*
X5553515Y-16163222D01*
X5553515Y-16163222D02*
X5543991Y-16172746D01*
X5543991Y-16172746D02*
X5534467Y-16191793D01*
X5534467Y-16191793D02*
X5534467Y-16229888D01*
X5534467Y-16229888D02*
X5543991Y-16248936D01*
X5543991Y-16248936D02*
X5553515Y-16258460D01*
X5553515Y-16258460D02*
X5572563Y-16267984D01*
X5572563Y-16267984D02*
X5610658Y-16267984D01*
X5610658Y-16267984D02*
X5629705Y-16258460D01*
X5629705Y-16258460D02*
X5639229Y-16248936D01*
X5639229Y-16248936D02*
X5648753Y-16229888D01*
X5648753Y-16229888D02*
X5648753Y-16191793D01*
X5648753Y-16191793D02*
X5639229Y-16172746D01*
X5639229Y-16172746D02*
X5629705Y-16163222D01*
X5629705Y-16163222D02*
X5610658Y-16153698D01*
X5772562Y-16067984D02*
X5791610Y-16067984D01*
X5791610Y-16067984D02*
X5810658Y-16077508D01*
X5810658Y-16077508D02*
X5820182Y-16087031D01*
X5820182Y-16087031D02*
X5829705Y-16106079D01*
X5829705Y-16106079D02*
X5839229Y-16144174D01*
X5839229Y-16144174D02*
X5839229Y-16191793D01*
X5839229Y-16191793D02*
X5829705Y-16229888D01*
X5829705Y-16229888D02*
X5820182Y-16248936D01*
X5820182Y-16248936D02*
X5810658Y-16258460D01*
X5810658Y-16258460D02*
X5791610Y-16267984D01*
X5791610Y-16267984D02*
X5772562Y-16267984D01*
X5772562Y-16267984D02*
X5753515Y-16258460D01*
X5753515Y-16258460D02*
X5743991Y-16248936D01*
X5743991Y-16248936D02*
X5734467Y-16229888D01*
X5734467Y-16229888D02*
X5724943Y-16191793D01*
X5724943Y-16191793D02*
X5724943Y-16144174D01*
X5724943Y-16144174D02*
X5734467Y-16106079D01*
X5734467Y-16106079D02*
X5743991Y-16087031D01*
X5743991Y-16087031D02*
X5753515Y-16077508D01*
X5753515Y-16077508D02*
X5772562Y-16067984D01*
X5963039Y-16067984D02*
X5982086Y-16067984D01*
X5982086Y-16067984D02*
X6001134Y-16077508D01*
X6001134Y-16077508D02*
X6010658Y-16087031D01*
X6010658Y-16087031D02*
X6020182Y-16106079D01*
X6020182Y-16106079D02*
X6029705Y-16144174D01*
X6029705Y-16144174D02*
X6029705Y-16191793D01*
X6029705Y-16191793D02*
X6020182Y-16229888D01*
X6020182Y-16229888D02*
X6010658Y-16248936D01*
X6010658Y-16248936D02*
X6001134Y-16258460D01*
X6001134Y-16258460D02*
X5982086Y-16267984D01*
X5982086Y-16267984D02*
X5963039Y-16267984D01*
X5963039Y-16267984D02*
X5943991Y-16258460D01*
X5943991Y-16258460D02*
X5934467Y-16248936D01*
X5934467Y-16248936D02*
X5924943Y-16229888D01*
X5924943Y-16229888D02*
X5915420Y-16191793D01*
X5915420Y-16191793D02*
X5915420Y-16144174D01*
X5915420Y-16144174D02*
X5924943Y-16106079D01*
X5924943Y-16106079D02*
X5934467Y-16087031D01*
X5934467Y-16087031D02*
X5943991Y-16077508D01*
X5943991Y-16077508D02*
X5963039Y-16067984D01*
X6115420Y-16267984D02*
X6115420Y-16134650D01*
X6115420Y-16153698D02*
X6124943Y-16144174D01*
X6124943Y-16144174D02*
X6143991Y-16134650D01*
X6143991Y-16134650D02*
X6172563Y-16134650D01*
X6172563Y-16134650D02*
X6191610Y-16144174D01*
X6191610Y-16144174D02*
X6201134Y-16163222D01*
X6201134Y-16163222D02*
X6201134Y-16267984D01*
X6201134Y-16163222D02*
X6210658Y-16144174D01*
X6210658Y-16144174D02*
X6229705Y-16134650D01*
X6229705Y-16134650D02*
X6258277Y-16134650D01*
X6258277Y-16134650D02*
X6277324Y-16144174D01*
X6277324Y-16144174D02*
X6286848Y-16163222D01*
X6286848Y-16163222D02*
X6286848Y-16267984D01*
X6382086Y-16267984D02*
X6382086Y-16134650D01*
X6382086Y-16153698D02*
X6391610Y-16144174D01*
X6391610Y-16144174D02*
X6410658Y-16134650D01*
X6410658Y-16134650D02*
X6439229Y-16134650D01*
X6439229Y-16134650D02*
X6458277Y-16144174D01*
X6458277Y-16144174D02*
X6467801Y-16163222D01*
X6467801Y-16163222D02*
X6467801Y-16267984D01*
X6467801Y-16163222D02*
X6477324Y-16144174D01*
X6477324Y-16144174D02*
X6496372Y-16134650D01*
X6496372Y-16134650D02*
X6524943Y-16134650D01*
X6524943Y-16134650D02*
X6543991Y-16144174D01*
X6543991Y-16144174D02*
X6553515Y-16163222D01*
X6553515Y-16163222D02*
X6553515Y-16267984D01*
X6943991Y-16058460D02*
X6772563Y-16315603D01*
X7201134Y-16067984D02*
X7220182Y-16067984D01*
X7220182Y-16067984D02*
X7239229Y-16077508D01*
X7239229Y-16077508D02*
X7248753Y-16087031D01*
X7248753Y-16087031D02*
X7258277Y-16106079D01*
X7258277Y-16106079D02*
X7267801Y-16144174D01*
X7267801Y-16144174D02*
X7267801Y-16191793D01*
X7267801Y-16191793D02*
X7258277Y-16229888D01*
X7258277Y-16229888D02*
X7248753Y-16248936D01*
X7248753Y-16248936D02*
X7239229Y-16258460D01*
X7239229Y-16258460D02*
X7220182Y-16267984D01*
X7220182Y-16267984D02*
X7201134Y-16267984D01*
X7201134Y-16267984D02*
X7182086Y-16258460D01*
X7182086Y-16258460D02*
X7172563Y-16248936D01*
X7172563Y-16248936D02*
X7163039Y-16229888D01*
X7163039Y-16229888D02*
X7153515Y-16191793D01*
X7153515Y-16191793D02*
X7153515Y-16144174D01*
X7153515Y-16144174D02*
X7163039Y-16106079D01*
X7163039Y-16106079D02*
X7172563Y-16087031D01*
X7172563Y-16087031D02*
X7182086Y-16077508D01*
X7182086Y-16077508D02*
X7201134Y-16067984D01*
X7353515Y-16248936D02*
X7363039Y-16258460D01*
X7363039Y-16258460D02*
X7353515Y-16267984D01*
X7353515Y-16267984D02*
X7343991Y-16258460D01*
X7343991Y-16258460D02*
X7353515Y-16248936D01*
X7353515Y-16248936D02*
X7353515Y-16267984D01*
X7486848Y-16067984D02*
X7505896Y-16067984D01*
X7505896Y-16067984D02*
X7524944Y-16077508D01*
X7524944Y-16077508D02*
X7534467Y-16087031D01*
X7534467Y-16087031D02*
X7543991Y-16106079D01*
X7543991Y-16106079D02*
X7553515Y-16144174D01*
X7553515Y-16144174D02*
X7553515Y-16191793D01*
X7553515Y-16191793D02*
X7543991Y-16229888D01*
X7543991Y-16229888D02*
X7534467Y-16248936D01*
X7534467Y-16248936D02*
X7524944Y-16258460D01*
X7524944Y-16258460D02*
X7505896Y-16267984D01*
X7505896Y-16267984D02*
X7486848Y-16267984D01*
X7486848Y-16267984D02*
X7467801Y-16258460D01*
X7467801Y-16258460D02*
X7458277Y-16248936D01*
X7458277Y-16248936D02*
X7448753Y-16229888D01*
X7448753Y-16229888D02*
X7439229Y-16191793D01*
X7439229Y-16191793D02*
X7439229Y-16144174D01*
X7439229Y-16144174D02*
X7448753Y-16106079D01*
X7448753Y-16106079D02*
X7458277Y-16087031D01*
X7458277Y-16087031D02*
X7467801Y-16077508D01*
X7467801Y-16077508D02*
X7486848Y-16067984D01*
X7620182Y-16067984D02*
X7753515Y-16067984D01*
X7753515Y-16067984D02*
X7667801Y-16267984D01*
X7867801Y-16067984D02*
X7886848Y-16067984D01*
X7886848Y-16067984D02*
X7905896Y-16077508D01*
X7905896Y-16077508D02*
X7915420Y-16087031D01*
X7915420Y-16087031D02*
X7924944Y-16106079D01*
X7924944Y-16106079D02*
X7934467Y-16144174D01*
X7934467Y-16144174D02*
X7934467Y-16191793D01*
X7934467Y-16191793D02*
X7924944Y-16229888D01*
X7924944Y-16229888D02*
X7915420Y-16248936D01*
X7915420Y-16248936D02*
X7905896Y-16258460D01*
X7905896Y-16258460D02*
X7886848Y-16267984D01*
X7886848Y-16267984D02*
X7867801Y-16267984D01*
X7867801Y-16267984D02*
X7848753Y-16258460D01*
X7848753Y-16258460D02*
X7839229Y-16248936D01*
X7839229Y-16248936D02*
X7829706Y-16229888D01*
X7829706Y-16229888D02*
X7820182Y-16191793D01*
X7820182Y-16191793D02*
X7820182Y-16144174D01*
X7820182Y-16144174D02*
X7829706Y-16106079D01*
X7829706Y-16106079D02*
X7839229Y-16087031D01*
X7839229Y-16087031D02*
X7848753Y-16077508D01*
X7848753Y-16077508D02*
X7867801Y-16067984D01*
X8029706Y-16267984D02*
X8067801Y-16267984D01*
X8067801Y-16267984D02*
X8086848Y-16258460D01*
X8086848Y-16258460D02*
X8096372Y-16248936D01*
X8096372Y-16248936D02*
X8115420Y-16220365D01*
X8115420Y-16220365D02*
X8124944Y-16182269D01*
X8124944Y-16182269D02*
X8124944Y-16106079D01*
X8124944Y-16106079D02*
X8115420Y-16087031D01*
X8115420Y-16087031D02*
X8105896Y-16077508D01*
X8105896Y-16077508D02*
X8086848Y-16067984D01*
X8086848Y-16067984D02*
X8048753Y-16067984D01*
X8048753Y-16067984D02*
X8029706Y-16077508D01*
X8029706Y-16077508D02*
X8020182Y-16087031D01*
X8020182Y-16087031D02*
X8010658Y-16106079D01*
X8010658Y-16106079D02*
X8010658Y-16153698D01*
X8010658Y-16153698D02*
X8020182Y-16172746D01*
X8020182Y-16172746D02*
X8029706Y-16182269D01*
X8029706Y-16182269D02*
X8048753Y-16191793D01*
X8048753Y-16191793D02*
X8086848Y-16191793D01*
X8086848Y-16191793D02*
X8105896Y-16182269D01*
X8105896Y-16182269D02*
X8115420Y-16172746D01*
X8115420Y-16172746D02*
X8124944Y-16153698D01*
X8201134Y-16067984D02*
X8201134Y-16106079D01*
X8277325Y-16067984D02*
X8277325Y-16106079D01*
X8572563Y-16344174D02*
X8563039Y-16334650D01*
X8563039Y-16334650D02*
X8543991Y-16306079D01*
X8543991Y-16306079D02*
X8534468Y-16287031D01*
X8534468Y-16287031D02*
X8524944Y-16258460D01*
X8524944Y-16258460D02*
X8515420Y-16210841D01*
X8515420Y-16210841D02*
X8515420Y-16172746D01*
X8515420Y-16172746D02*
X8524944Y-16125127D01*
X8524944Y-16125127D02*
X8534468Y-16096555D01*
X8534468Y-16096555D02*
X8543991Y-16077508D01*
X8543991Y-16077508D02*
X8563039Y-16048936D01*
X8563039Y-16048936D02*
X8572563Y-16039412D01*
X8639230Y-16087031D02*
X8648753Y-16077508D01*
X8648753Y-16077508D02*
X8667801Y-16067984D01*
X8667801Y-16067984D02*
X8715420Y-16067984D01*
X8715420Y-16067984D02*
X8734468Y-16077508D01*
X8734468Y-16077508D02*
X8743991Y-16087031D01*
X8743991Y-16087031D02*
X8753515Y-16106079D01*
X8753515Y-16106079D02*
X8753515Y-16125127D01*
X8753515Y-16125127D02*
X8743991Y-16153698D01*
X8743991Y-16153698D02*
X8629706Y-16267984D01*
X8629706Y-16267984D02*
X8753515Y-16267984D01*
X8991611Y-16267984D02*
X8991611Y-16067984D01*
X9077325Y-16267984D02*
X9077325Y-16163222D01*
X9077325Y-16163222D02*
X9067801Y-16144174D01*
X9067801Y-16144174D02*
X9048753Y-16134650D01*
X9048753Y-16134650D02*
X9020182Y-16134650D01*
X9020182Y-16134650D02*
X9001134Y-16144174D01*
X9001134Y-16144174D02*
X8991611Y-16153698D01*
X9201134Y-16267984D02*
X9182087Y-16258460D01*
X9182087Y-16258460D02*
X9172563Y-16248936D01*
X9172563Y-16248936D02*
X9163039Y-16229888D01*
X9163039Y-16229888D02*
X9163039Y-16172746D01*
X9163039Y-16172746D02*
X9172563Y-16153698D01*
X9172563Y-16153698D02*
X9182087Y-16144174D01*
X9182087Y-16144174D02*
X9201134Y-16134650D01*
X9201134Y-16134650D02*
X9229706Y-16134650D01*
X9229706Y-16134650D02*
X9248753Y-16144174D01*
X9248753Y-16144174D02*
X9258277Y-16153698D01*
X9258277Y-16153698D02*
X9267801Y-16172746D01*
X9267801Y-16172746D02*
X9267801Y-16229888D01*
X9267801Y-16229888D02*
X9258277Y-16248936D01*
X9258277Y-16248936D02*
X9248753Y-16258460D01*
X9248753Y-16258460D02*
X9229706Y-16267984D01*
X9229706Y-16267984D02*
X9201134Y-16267984D01*
X9382087Y-16267984D02*
X9363039Y-16258460D01*
X9363039Y-16258460D02*
X9353515Y-16239412D01*
X9353515Y-16239412D02*
X9353515Y-16067984D01*
X9534468Y-16258460D02*
X9515420Y-16267984D01*
X9515420Y-16267984D02*
X9477325Y-16267984D01*
X9477325Y-16267984D02*
X9458277Y-16258460D01*
X9458277Y-16258460D02*
X9448753Y-16239412D01*
X9448753Y-16239412D02*
X9448753Y-16163222D01*
X9448753Y-16163222D02*
X9458277Y-16144174D01*
X9458277Y-16144174D02*
X9477325Y-16134650D01*
X9477325Y-16134650D02*
X9515420Y-16134650D01*
X9515420Y-16134650D02*
X9534468Y-16144174D01*
X9534468Y-16144174D02*
X9543992Y-16163222D01*
X9543992Y-16163222D02*
X9543992Y-16182269D01*
X9543992Y-16182269D02*
X9448753Y-16201317D01*
X9620182Y-16258460D02*
X9639230Y-16267984D01*
X9639230Y-16267984D02*
X9677325Y-16267984D01*
X9677325Y-16267984D02*
X9696373Y-16258460D01*
X9696373Y-16258460D02*
X9705896Y-16239412D01*
X9705896Y-16239412D02*
X9705896Y-16229888D01*
X9705896Y-16229888D02*
X9696373Y-16210841D01*
X9696373Y-16210841D02*
X9677325Y-16201317D01*
X9677325Y-16201317D02*
X9648753Y-16201317D01*
X9648753Y-16201317D02*
X9629706Y-16191793D01*
X9629706Y-16191793D02*
X9620182Y-16172746D01*
X9620182Y-16172746D02*
X9620182Y-16163222D01*
X9620182Y-16163222D02*
X9629706Y-16144174D01*
X9629706Y-16144174D02*
X9648753Y-16134650D01*
X9648753Y-16134650D02*
X9677325Y-16134650D01*
X9677325Y-16134650D02*
X9696373Y-16144174D01*
X9772563Y-16344174D02*
X9782087Y-16334650D01*
X9782087Y-16334650D02*
X9801134Y-16306079D01*
X9801134Y-16306079D02*
X9810658Y-16287031D01*
X9810658Y-16287031D02*
X9820182Y-16258460D01*
X9820182Y-16258460D02*
X9829706Y-16210841D01*
X9829706Y-16210841D02*
X9829706Y-16172746D01*
X9829706Y-16172746D02*
X9820182Y-16125127D01*
X9820182Y-16125127D02*
X9810658Y-16096555D01*
X9810658Y-16096555D02*
X9801134Y-16077508D01*
X9801134Y-16077508D02*
X9782087Y-16048936D01*
X9782087Y-16048936D02*
X9772563Y-16039412D01*
X10134468Y-16344174D02*
X10124944Y-16334650D01*
X10124944Y-16334650D02*
X10105896Y-16306079D01*
X10105896Y-16306079D02*
X10096373Y-16287031D01*
X10096373Y-16287031D02*
X10086849Y-16258460D01*
X10086849Y-16258460D02*
X10077325Y-16210841D01*
X10077325Y-16210841D02*
X10077325Y-16172746D01*
X10077325Y-16172746D02*
X10086849Y-16125127D01*
X10086849Y-16125127D02*
X10096373Y-16096555D01*
X10096373Y-16096555D02*
X10105896Y-16077508D01*
X10105896Y-16077508D02*
X10124944Y-16048936D01*
X10124944Y-16048936D02*
X10134468Y-16039412D01*
X10210658Y-16134650D02*
X10210658Y-16267984D01*
X10210658Y-16153698D02*
X10220182Y-16144174D01*
X10220182Y-16144174D02*
X10239230Y-16134650D01*
X10239230Y-16134650D02*
X10267801Y-16134650D01*
X10267801Y-16134650D02*
X10286849Y-16144174D01*
X10286849Y-16144174D02*
X10296373Y-16163222D01*
X10296373Y-16163222D02*
X10296373Y-16267984D01*
X10420182Y-16267984D02*
X10401134Y-16258460D01*
X10401134Y-16258460D02*
X10391611Y-16248936D01*
X10391611Y-16248936D02*
X10382087Y-16229888D01*
X10382087Y-16229888D02*
X10382087Y-16172746D01*
X10382087Y-16172746D02*
X10391611Y-16153698D01*
X10391611Y-16153698D02*
X10401134Y-16144174D01*
X10401134Y-16144174D02*
X10420182Y-16134650D01*
X10420182Y-16134650D02*
X10448754Y-16134650D01*
X10448754Y-16134650D02*
X10467801Y-16144174D01*
X10467801Y-16144174D02*
X10477325Y-16153698D01*
X10477325Y-16153698D02*
X10486849Y-16172746D01*
X10486849Y-16172746D02*
X10486849Y-16229888D01*
X10486849Y-16229888D02*
X10477325Y-16248936D01*
X10477325Y-16248936D02*
X10467801Y-16258460D01*
X10467801Y-16258460D02*
X10448754Y-16267984D01*
X10448754Y-16267984D02*
X10420182Y-16267984D01*
X10543992Y-16134650D02*
X10620182Y-16134650D01*
X10572563Y-16067984D02*
X10572563Y-16239412D01*
X10572563Y-16239412D02*
X10582087Y-16258460D01*
X10582087Y-16258460D02*
X10601134Y-16267984D01*
X10601134Y-16267984D02*
X10620182Y-16267984D01*
X10839230Y-16134650D02*
X10839230Y-16334650D01*
X10839230Y-16144174D02*
X10858277Y-16134650D01*
X10858277Y-16134650D02*
X10896373Y-16134650D01*
X10896373Y-16134650D02*
X10915420Y-16144174D01*
X10915420Y-16144174D02*
X10924944Y-16153698D01*
X10924944Y-16153698D02*
X10934468Y-16172746D01*
X10934468Y-16172746D02*
X10934468Y-16229888D01*
X10934468Y-16229888D02*
X10924944Y-16248936D01*
X10924944Y-16248936D02*
X10915420Y-16258460D01*
X10915420Y-16258460D02*
X10896373Y-16267984D01*
X10896373Y-16267984D02*
X10858277Y-16267984D01*
X10858277Y-16267984D02*
X10839230Y-16258460D01*
X11048754Y-16267984D02*
X11029706Y-16258460D01*
X11029706Y-16258460D02*
X11020182Y-16239412D01*
X11020182Y-16239412D02*
X11020182Y-16067984D01*
X11210658Y-16267984D02*
X11210658Y-16163222D01*
X11210658Y-16163222D02*
X11201134Y-16144174D01*
X11201134Y-16144174D02*
X11182087Y-16134650D01*
X11182087Y-16134650D02*
X11143992Y-16134650D01*
X11143992Y-16134650D02*
X11124944Y-16144174D01*
X11210658Y-16258460D02*
X11191611Y-16267984D01*
X11191611Y-16267984D02*
X11143992Y-16267984D01*
X11143992Y-16267984D02*
X11124944Y-16258460D01*
X11124944Y-16258460D02*
X11115420Y-16239412D01*
X11115420Y-16239412D02*
X11115420Y-16220365D01*
X11115420Y-16220365D02*
X11124944Y-16201317D01*
X11124944Y-16201317D02*
X11143992Y-16191793D01*
X11143992Y-16191793D02*
X11191611Y-16191793D01*
X11191611Y-16191793D02*
X11210658Y-16182269D01*
X11277325Y-16134650D02*
X11353515Y-16134650D01*
X11305896Y-16067984D02*
X11305896Y-16239412D01*
X11305896Y-16239412D02*
X11315420Y-16258460D01*
X11315420Y-16258460D02*
X11334468Y-16267984D01*
X11334468Y-16267984D02*
X11353515Y-16267984D01*
X11496373Y-16258460D02*
X11477325Y-16267984D01*
X11477325Y-16267984D02*
X11439230Y-16267984D01*
X11439230Y-16267984D02*
X11420182Y-16258460D01*
X11420182Y-16258460D02*
X11410658Y-16239412D01*
X11410658Y-16239412D02*
X11410658Y-16163222D01*
X11410658Y-16163222D02*
X11420182Y-16144174D01*
X11420182Y-16144174D02*
X11439230Y-16134650D01*
X11439230Y-16134650D02*
X11477325Y-16134650D01*
X11477325Y-16134650D02*
X11496373Y-16144174D01*
X11496373Y-16144174D02*
X11505896Y-16163222D01*
X11505896Y-16163222D02*
X11505896Y-16182269D01*
X11505896Y-16182269D02*
X11410658Y-16201317D01*
X11677325Y-16267984D02*
X11677325Y-16067984D01*
X11677325Y-16258460D02*
X11658277Y-16267984D01*
X11658277Y-16267984D02*
X11620182Y-16267984D01*
X11620182Y-16267984D02*
X11601134Y-16258460D01*
X11601134Y-16258460D02*
X11591611Y-16248936D01*
X11591611Y-16248936D02*
X11582087Y-16229888D01*
X11582087Y-16229888D02*
X11582087Y-16172746D01*
X11582087Y-16172746D02*
X11591611Y-16153698D01*
X11591611Y-16153698D02*
X11601134Y-16144174D01*
X11601134Y-16144174D02*
X11620182Y-16134650D01*
X11620182Y-16134650D02*
X11658277Y-16134650D01*
X11658277Y-16134650D02*
X11677325Y-16144174D01*
X11753515Y-16344174D02*
X11763039Y-16334650D01*
X11763039Y-16334650D02*
X11782087Y-16306079D01*
X11782087Y-16306079D02*
X11791611Y-16287031D01*
X11791611Y-16287031D02*
X11801134Y-16258460D01*
X11801134Y-16258460D02*
X11810658Y-16210841D01*
X11810658Y-16210841D02*
X11810658Y-16172746D01*
X11810658Y-16172746D02*
X11801134Y-16125127D01*
X11801134Y-16125127D02*
X11791611Y-16096555D01*
X11791611Y-16096555D02*
X11782087Y-16077508D01*
X11782087Y-16077508D02*
X11763039Y-16048936D01*
X11763039Y-16048936D02*
X11753515Y-16039412D01*
X4968211Y-16547211D02*
X4968211Y-16405789D01*
X4826789Y-16405789D01*
X4826789Y-16547211D01*
X4968211Y-16547211D01*
X5239229Y-16367984D02*
X5363039Y-16367984D01*
X5363039Y-16367984D02*
X5296372Y-16444174D01*
X5296372Y-16444174D02*
X5324944Y-16444174D01*
X5324944Y-16444174D02*
X5343991Y-16453698D01*
X5343991Y-16453698D02*
X5353515Y-16463222D01*
X5353515Y-16463222D02*
X5363039Y-16482269D01*
X5363039Y-16482269D02*
X5363039Y-16529888D01*
X5363039Y-16529888D02*
X5353515Y-16548936D01*
X5353515Y-16548936D02*
X5343991Y-16558460D01*
X5343991Y-16558460D02*
X5324944Y-16567984D01*
X5324944Y-16567984D02*
X5267801Y-16567984D01*
X5267801Y-16567984D02*
X5248753Y-16558460D01*
X5248753Y-16558460D02*
X5239229Y-16548936D01*
X5448753Y-16548936D02*
X5458277Y-16558460D01*
X5458277Y-16558460D02*
X5448753Y-16567984D01*
X5448753Y-16567984D02*
X5439229Y-16558460D01*
X5439229Y-16558460D02*
X5448753Y-16548936D01*
X5448753Y-16548936D02*
X5448753Y-16567984D01*
X5534467Y-16387031D02*
X5543991Y-16377508D01*
X5543991Y-16377508D02*
X5563039Y-16367984D01*
X5563039Y-16367984D02*
X5610658Y-16367984D01*
X5610658Y-16367984D02*
X5629705Y-16377508D01*
X5629705Y-16377508D02*
X5639229Y-16387031D01*
X5639229Y-16387031D02*
X5648753Y-16406079D01*
X5648753Y-16406079D02*
X5648753Y-16425127D01*
X5648753Y-16425127D02*
X5639229Y-16453698D01*
X5639229Y-16453698D02*
X5524944Y-16567984D01*
X5524944Y-16567984D02*
X5648753Y-16567984D01*
X5772562Y-16367984D02*
X5791610Y-16367984D01*
X5791610Y-16367984D02*
X5810658Y-16377508D01*
X5810658Y-16377508D02*
X5820182Y-16387031D01*
X5820182Y-16387031D02*
X5829705Y-16406079D01*
X5829705Y-16406079D02*
X5839229Y-16444174D01*
X5839229Y-16444174D02*
X5839229Y-16491793D01*
X5839229Y-16491793D02*
X5829705Y-16529888D01*
X5829705Y-16529888D02*
X5820182Y-16548936D01*
X5820182Y-16548936D02*
X5810658Y-16558460D01*
X5810658Y-16558460D02*
X5791610Y-16567984D01*
X5791610Y-16567984D02*
X5772562Y-16567984D01*
X5772562Y-16567984D02*
X5753515Y-16558460D01*
X5753515Y-16558460D02*
X5743991Y-16548936D01*
X5743991Y-16548936D02*
X5734467Y-16529888D01*
X5734467Y-16529888D02*
X5724943Y-16491793D01*
X5724943Y-16491793D02*
X5724943Y-16444174D01*
X5724943Y-16444174D02*
X5734467Y-16406079D01*
X5734467Y-16406079D02*
X5743991Y-16387031D01*
X5743991Y-16387031D02*
X5753515Y-16377508D01*
X5753515Y-16377508D02*
X5772562Y-16367984D01*
X5963039Y-16367984D02*
X5982086Y-16367984D01*
X5982086Y-16367984D02*
X6001134Y-16377508D01*
X6001134Y-16377508D02*
X6010658Y-16387031D01*
X6010658Y-16387031D02*
X6020182Y-16406079D01*
X6020182Y-16406079D02*
X6029705Y-16444174D01*
X6029705Y-16444174D02*
X6029705Y-16491793D01*
X6029705Y-16491793D02*
X6020182Y-16529888D01*
X6020182Y-16529888D02*
X6010658Y-16548936D01*
X6010658Y-16548936D02*
X6001134Y-16558460D01*
X6001134Y-16558460D02*
X5982086Y-16567984D01*
X5982086Y-16567984D02*
X5963039Y-16567984D01*
X5963039Y-16567984D02*
X5943991Y-16558460D01*
X5943991Y-16558460D02*
X5934467Y-16548936D01*
X5934467Y-16548936D02*
X5924943Y-16529888D01*
X5924943Y-16529888D02*
X5915420Y-16491793D01*
X5915420Y-16491793D02*
X5915420Y-16444174D01*
X5915420Y-16444174D02*
X5924943Y-16406079D01*
X5924943Y-16406079D02*
X5934467Y-16387031D01*
X5934467Y-16387031D02*
X5943991Y-16377508D01*
X5943991Y-16377508D02*
X5963039Y-16367984D01*
X6115420Y-16567984D02*
X6115420Y-16434650D01*
X6115420Y-16453698D02*
X6124943Y-16444174D01*
X6124943Y-16444174D02*
X6143991Y-16434650D01*
X6143991Y-16434650D02*
X6172563Y-16434650D01*
X6172563Y-16434650D02*
X6191610Y-16444174D01*
X6191610Y-16444174D02*
X6201134Y-16463222D01*
X6201134Y-16463222D02*
X6201134Y-16567984D01*
X6201134Y-16463222D02*
X6210658Y-16444174D01*
X6210658Y-16444174D02*
X6229705Y-16434650D01*
X6229705Y-16434650D02*
X6258277Y-16434650D01*
X6258277Y-16434650D02*
X6277324Y-16444174D01*
X6277324Y-16444174D02*
X6286848Y-16463222D01*
X6286848Y-16463222D02*
X6286848Y-16567984D01*
X6382086Y-16567984D02*
X6382086Y-16434650D01*
X6382086Y-16453698D02*
X6391610Y-16444174D01*
X6391610Y-16444174D02*
X6410658Y-16434650D01*
X6410658Y-16434650D02*
X6439229Y-16434650D01*
X6439229Y-16434650D02*
X6458277Y-16444174D01*
X6458277Y-16444174D02*
X6467801Y-16463222D01*
X6467801Y-16463222D02*
X6467801Y-16567984D01*
X6467801Y-16463222D02*
X6477324Y-16444174D01*
X6477324Y-16444174D02*
X6496372Y-16434650D01*
X6496372Y-16434650D02*
X6524943Y-16434650D01*
X6524943Y-16434650D02*
X6543991Y-16444174D01*
X6543991Y-16444174D02*
X6553515Y-16463222D01*
X6553515Y-16463222D02*
X6553515Y-16567984D01*
X6943991Y-16358460D02*
X6772563Y-16615603D01*
X7201134Y-16367984D02*
X7220182Y-16367984D01*
X7220182Y-16367984D02*
X7239229Y-16377508D01*
X7239229Y-16377508D02*
X7248753Y-16387031D01*
X7248753Y-16387031D02*
X7258277Y-16406079D01*
X7258277Y-16406079D02*
X7267801Y-16444174D01*
X7267801Y-16444174D02*
X7267801Y-16491793D01*
X7267801Y-16491793D02*
X7258277Y-16529888D01*
X7258277Y-16529888D02*
X7248753Y-16548936D01*
X7248753Y-16548936D02*
X7239229Y-16558460D01*
X7239229Y-16558460D02*
X7220182Y-16567984D01*
X7220182Y-16567984D02*
X7201134Y-16567984D01*
X7201134Y-16567984D02*
X7182086Y-16558460D01*
X7182086Y-16558460D02*
X7172563Y-16548936D01*
X7172563Y-16548936D02*
X7163039Y-16529888D01*
X7163039Y-16529888D02*
X7153515Y-16491793D01*
X7153515Y-16491793D02*
X7153515Y-16444174D01*
X7153515Y-16444174D02*
X7163039Y-16406079D01*
X7163039Y-16406079D02*
X7172563Y-16387031D01*
X7172563Y-16387031D02*
X7182086Y-16377508D01*
X7182086Y-16377508D02*
X7201134Y-16367984D01*
X7353515Y-16548936D02*
X7363039Y-16558460D01*
X7363039Y-16558460D02*
X7353515Y-16567984D01*
X7353515Y-16567984D02*
X7343991Y-16558460D01*
X7343991Y-16558460D02*
X7353515Y-16548936D01*
X7353515Y-16548936D02*
X7353515Y-16567984D01*
X7553515Y-16567984D02*
X7439229Y-16567984D01*
X7496372Y-16567984D02*
X7496372Y-16367984D01*
X7496372Y-16367984D02*
X7477325Y-16396555D01*
X7477325Y-16396555D02*
X7458277Y-16415603D01*
X7458277Y-16415603D02*
X7439229Y-16425127D01*
X7629706Y-16387031D02*
X7639229Y-16377508D01*
X7639229Y-16377508D02*
X7658277Y-16367984D01*
X7658277Y-16367984D02*
X7705896Y-16367984D01*
X7705896Y-16367984D02*
X7724944Y-16377508D01*
X7724944Y-16377508D02*
X7734467Y-16387031D01*
X7734467Y-16387031D02*
X7743991Y-16406079D01*
X7743991Y-16406079D02*
X7743991Y-16425127D01*
X7743991Y-16425127D02*
X7734467Y-16453698D01*
X7734467Y-16453698D02*
X7620182Y-16567984D01*
X7620182Y-16567984D02*
X7743991Y-16567984D01*
X7915420Y-16367984D02*
X7877325Y-16367984D01*
X7877325Y-16367984D02*
X7858277Y-16377508D01*
X7858277Y-16377508D02*
X7848753Y-16387031D01*
X7848753Y-16387031D02*
X7829706Y-16415603D01*
X7829706Y-16415603D02*
X7820182Y-16453698D01*
X7820182Y-16453698D02*
X7820182Y-16529888D01*
X7820182Y-16529888D02*
X7829706Y-16548936D01*
X7829706Y-16548936D02*
X7839229Y-16558460D01*
X7839229Y-16558460D02*
X7858277Y-16567984D01*
X7858277Y-16567984D02*
X7896372Y-16567984D01*
X7896372Y-16567984D02*
X7915420Y-16558460D01*
X7915420Y-16558460D02*
X7924944Y-16548936D01*
X7924944Y-16548936D02*
X7934467Y-16529888D01*
X7934467Y-16529888D02*
X7934467Y-16482269D01*
X7934467Y-16482269D02*
X7924944Y-16463222D01*
X7924944Y-16463222D02*
X7915420Y-16453698D01*
X7915420Y-16453698D02*
X7896372Y-16444174D01*
X7896372Y-16444174D02*
X7858277Y-16444174D01*
X7858277Y-16444174D02*
X7839229Y-16453698D01*
X7839229Y-16453698D02*
X7829706Y-16463222D01*
X7829706Y-16463222D02*
X7820182Y-16482269D01*
X8058277Y-16367984D02*
X8077325Y-16367984D01*
X8077325Y-16367984D02*
X8096372Y-16377508D01*
X8096372Y-16377508D02*
X8105896Y-16387031D01*
X8105896Y-16387031D02*
X8115420Y-16406079D01*
X8115420Y-16406079D02*
X8124944Y-16444174D01*
X8124944Y-16444174D02*
X8124944Y-16491793D01*
X8124944Y-16491793D02*
X8115420Y-16529888D01*
X8115420Y-16529888D02*
X8105896Y-16548936D01*
X8105896Y-16548936D02*
X8096372Y-16558460D01*
X8096372Y-16558460D02*
X8077325Y-16567984D01*
X8077325Y-16567984D02*
X8058277Y-16567984D01*
X8058277Y-16567984D02*
X8039229Y-16558460D01*
X8039229Y-16558460D02*
X8029706Y-16548936D01*
X8029706Y-16548936D02*
X8020182Y-16529888D01*
X8020182Y-16529888D02*
X8010658Y-16491793D01*
X8010658Y-16491793D02*
X8010658Y-16444174D01*
X8010658Y-16444174D02*
X8020182Y-16406079D01*
X8020182Y-16406079D02*
X8029706Y-16387031D01*
X8029706Y-16387031D02*
X8039229Y-16377508D01*
X8039229Y-16377508D02*
X8058277Y-16367984D01*
X8201134Y-16367984D02*
X8201134Y-16406079D01*
X8277325Y-16367984D02*
X8277325Y-16406079D01*
X8572563Y-16644174D02*
X8563039Y-16634650D01*
X8563039Y-16634650D02*
X8543991Y-16606079D01*
X8543991Y-16606079D02*
X8534468Y-16587031D01*
X8534468Y-16587031D02*
X8524944Y-16558460D01*
X8524944Y-16558460D02*
X8515420Y-16510841D01*
X8515420Y-16510841D02*
X8515420Y-16472746D01*
X8515420Y-16472746D02*
X8524944Y-16425127D01*
X8524944Y-16425127D02*
X8534468Y-16396555D01*
X8534468Y-16396555D02*
X8543991Y-16377508D01*
X8543991Y-16377508D02*
X8563039Y-16348936D01*
X8563039Y-16348936D02*
X8572563Y-16339412D01*
X8734468Y-16434650D02*
X8734468Y-16567984D01*
X8686849Y-16358460D02*
X8639230Y-16501317D01*
X8639230Y-16501317D02*
X8763039Y-16501317D01*
X8991611Y-16567984D02*
X8991611Y-16367984D01*
X9077325Y-16567984D02*
X9077325Y-16463222D01*
X9077325Y-16463222D02*
X9067801Y-16444174D01*
X9067801Y-16444174D02*
X9048753Y-16434650D01*
X9048753Y-16434650D02*
X9020182Y-16434650D01*
X9020182Y-16434650D02*
X9001134Y-16444174D01*
X9001134Y-16444174D02*
X8991611Y-16453698D01*
X9201134Y-16567984D02*
X9182087Y-16558460D01*
X9182087Y-16558460D02*
X9172563Y-16548936D01*
X9172563Y-16548936D02*
X9163039Y-16529888D01*
X9163039Y-16529888D02*
X9163039Y-16472746D01*
X9163039Y-16472746D02*
X9172563Y-16453698D01*
X9172563Y-16453698D02*
X9182087Y-16444174D01*
X9182087Y-16444174D02*
X9201134Y-16434650D01*
X9201134Y-16434650D02*
X9229706Y-16434650D01*
X9229706Y-16434650D02*
X9248753Y-16444174D01*
X9248753Y-16444174D02*
X9258277Y-16453698D01*
X9258277Y-16453698D02*
X9267801Y-16472746D01*
X9267801Y-16472746D02*
X9267801Y-16529888D01*
X9267801Y-16529888D02*
X9258277Y-16548936D01*
X9258277Y-16548936D02*
X9248753Y-16558460D01*
X9248753Y-16558460D02*
X9229706Y-16567984D01*
X9229706Y-16567984D02*
X9201134Y-16567984D01*
X9382087Y-16567984D02*
X9363039Y-16558460D01*
X9363039Y-16558460D02*
X9353515Y-16539412D01*
X9353515Y-16539412D02*
X9353515Y-16367984D01*
X9534468Y-16558460D02*
X9515420Y-16567984D01*
X9515420Y-16567984D02*
X9477325Y-16567984D01*
X9477325Y-16567984D02*
X9458277Y-16558460D01*
X9458277Y-16558460D02*
X9448753Y-16539412D01*
X9448753Y-16539412D02*
X9448753Y-16463222D01*
X9448753Y-16463222D02*
X9458277Y-16444174D01*
X9458277Y-16444174D02*
X9477325Y-16434650D01*
X9477325Y-16434650D02*
X9515420Y-16434650D01*
X9515420Y-16434650D02*
X9534468Y-16444174D01*
X9534468Y-16444174D02*
X9543992Y-16463222D01*
X9543992Y-16463222D02*
X9543992Y-16482269D01*
X9543992Y-16482269D02*
X9448753Y-16501317D01*
X9620182Y-16558460D02*
X9639230Y-16567984D01*
X9639230Y-16567984D02*
X9677325Y-16567984D01*
X9677325Y-16567984D02*
X9696373Y-16558460D01*
X9696373Y-16558460D02*
X9705896Y-16539412D01*
X9705896Y-16539412D02*
X9705896Y-16529888D01*
X9705896Y-16529888D02*
X9696373Y-16510841D01*
X9696373Y-16510841D02*
X9677325Y-16501317D01*
X9677325Y-16501317D02*
X9648753Y-16501317D01*
X9648753Y-16501317D02*
X9629706Y-16491793D01*
X9629706Y-16491793D02*
X9620182Y-16472746D01*
X9620182Y-16472746D02*
X9620182Y-16463222D01*
X9620182Y-16463222D02*
X9629706Y-16444174D01*
X9629706Y-16444174D02*
X9648753Y-16434650D01*
X9648753Y-16434650D02*
X9677325Y-16434650D01*
X9677325Y-16434650D02*
X9696373Y-16444174D01*
X9772563Y-16644174D02*
X9782087Y-16634650D01*
X9782087Y-16634650D02*
X9801134Y-16606079D01*
X9801134Y-16606079D02*
X9810658Y-16587031D01*
X9810658Y-16587031D02*
X9820182Y-16558460D01*
X9820182Y-16558460D02*
X9829706Y-16510841D01*
X9829706Y-16510841D02*
X9829706Y-16472746D01*
X9829706Y-16472746D02*
X9820182Y-16425127D01*
X9820182Y-16425127D02*
X9810658Y-16396555D01*
X9810658Y-16396555D02*
X9801134Y-16377508D01*
X9801134Y-16377508D02*
X9782087Y-16348936D01*
X9782087Y-16348936D02*
X9772563Y-16339412D01*
X10134468Y-16644174D02*
X10124944Y-16634650D01*
X10124944Y-16634650D02*
X10105896Y-16606079D01*
X10105896Y-16606079D02*
X10096373Y-16587031D01*
X10096373Y-16587031D02*
X10086849Y-16558460D01*
X10086849Y-16558460D02*
X10077325Y-16510841D01*
X10077325Y-16510841D02*
X10077325Y-16472746D01*
X10077325Y-16472746D02*
X10086849Y-16425127D01*
X10086849Y-16425127D02*
X10096373Y-16396555D01*
X10096373Y-16396555D02*
X10105896Y-16377508D01*
X10105896Y-16377508D02*
X10124944Y-16348936D01*
X10124944Y-16348936D02*
X10134468Y-16339412D01*
X10210658Y-16434650D02*
X10210658Y-16567984D01*
X10210658Y-16453698D02*
X10220182Y-16444174D01*
X10220182Y-16444174D02*
X10239230Y-16434650D01*
X10239230Y-16434650D02*
X10267801Y-16434650D01*
X10267801Y-16434650D02*
X10286849Y-16444174D01*
X10286849Y-16444174D02*
X10296373Y-16463222D01*
X10296373Y-16463222D02*
X10296373Y-16567984D01*
X10420182Y-16567984D02*
X10401134Y-16558460D01*
X10401134Y-16558460D02*
X10391611Y-16548936D01*
X10391611Y-16548936D02*
X10382087Y-16529888D01*
X10382087Y-16529888D02*
X10382087Y-16472746D01*
X10382087Y-16472746D02*
X10391611Y-16453698D01*
X10391611Y-16453698D02*
X10401134Y-16444174D01*
X10401134Y-16444174D02*
X10420182Y-16434650D01*
X10420182Y-16434650D02*
X10448754Y-16434650D01*
X10448754Y-16434650D02*
X10467801Y-16444174D01*
X10467801Y-16444174D02*
X10477325Y-16453698D01*
X10477325Y-16453698D02*
X10486849Y-16472746D01*
X10486849Y-16472746D02*
X10486849Y-16529888D01*
X10486849Y-16529888D02*
X10477325Y-16548936D01*
X10477325Y-16548936D02*
X10467801Y-16558460D01*
X10467801Y-16558460D02*
X10448754Y-16567984D01*
X10448754Y-16567984D02*
X10420182Y-16567984D01*
X10543992Y-16434650D02*
X10620182Y-16434650D01*
X10572563Y-16367984D02*
X10572563Y-16539412D01*
X10572563Y-16539412D02*
X10582087Y-16558460D01*
X10582087Y-16558460D02*
X10601134Y-16567984D01*
X10601134Y-16567984D02*
X10620182Y-16567984D01*
X10839230Y-16434650D02*
X10839230Y-16634650D01*
X10839230Y-16444174D02*
X10858277Y-16434650D01*
X10858277Y-16434650D02*
X10896373Y-16434650D01*
X10896373Y-16434650D02*
X10915420Y-16444174D01*
X10915420Y-16444174D02*
X10924944Y-16453698D01*
X10924944Y-16453698D02*
X10934468Y-16472746D01*
X10934468Y-16472746D02*
X10934468Y-16529888D01*
X10934468Y-16529888D02*
X10924944Y-16548936D01*
X10924944Y-16548936D02*
X10915420Y-16558460D01*
X10915420Y-16558460D02*
X10896373Y-16567984D01*
X10896373Y-16567984D02*
X10858277Y-16567984D01*
X10858277Y-16567984D02*
X10839230Y-16558460D01*
X11048754Y-16567984D02*
X11029706Y-16558460D01*
X11029706Y-16558460D02*
X11020182Y-16539412D01*
X11020182Y-16539412D02*
X11020182Y-16367984D01*
X11210658Y-16567984D02*
X11210658Y-16463222D01*
X11210658Y-16463222D02*
X11201134Y-16444174D01*
X11201134Y-16444174D02*
X11182087Y-16434650D01*
X11182087Y-16434650D02*
X11143992Y-16434650D01*
X11143992Y-16434650D02*
X11124944Y-16444174D01*
X11210658Y-16558460D02*
X11191611Y-16567984D01*
X11191611Y-16567984D02*
X11143992Y-16567984D01*
X11143992Y-16567984D02*
X11124944Y-16558460D01*
X11124944Y-16558460D02*
X11115420Y-16539412D01*
X11115420Y-16539412D02*
X11115420Y-16520365D01*
X11115420Y-16520365D02*
X11124944Y-16501317D01*
X11124944Y-16501317D02*
X11143992Y-16491793D01*
X11143992Y-16491793D02*
X11191611Y-16491793D01*
X11191611Y-16491793D02*
X11210658Y-16482269D01*
X11277325Y-16434650D02*
X11353515Y-16434650D01*
X11305896Y-16367984D02*
X11305896Y-16539412D01*
X11305896Y-16539412D02*
X11315420Y-16558460D01*
X11315420Y-16558460D02*
X11334468Y-16567984D01*
X11334468Y-16567984D02*
X11353515Y-16567984D01*
X11496373Y-16558460D02*
X11477325Y-16567984D01*
X11477325Y-16567984D02*
X11439230Y-16567984D01*
X11439230Y-16567984D02*
X11420182Y-16558460D01*
X11420182Y-16558460D02*
X11410658Y-16539412D01*
X11410658Y-16539412D02*
X11410658Y-16463222D01*
X11410658Y-16463222D02*
X11420182Y-16444174D01*
X11420182Y-16444174D02*
X11439230Y-16434650D01*
X11439230Y-16434650D02*
X11477325Y-16434650D01*
X11477325Y-16434650D02*
X11496373Y-16444174D01*
X11496373Y-16444174D02*
X11505896Y-16463222D01*
X11505896Y-16463222D02*
X11505896Y-16482269D01*
X11505896Y-16482269D02*
X11410658Y-16501317D01*
X11677325Y-16567984D02*
X11677325Y-16367984D01*
X11677325Y-16558460D02*
X11658277Y-16567984D01*
X11658277Y-16567984D02*
X11620182Y-16567984D01*
X11620182Y-16567984D02*
X11601134Y-16558460D01*
X11601134Y-16558460D02*
X11591611Y-16548936D01*
X11591611Y-16548936D02*
X11582087Y-16529888D01*
X11582087Y-16529888D02*
X11582087Y-16472746D01*
X11582087Y-16472746D02*
X11591611Y-16453698D01*
X11591611Y-16453698D02*
X11601134Y-16444174D01*
X11601134Y-16444174D02*
X11620182Y-16434650D01*
X11620182Y-16434650D02*
X11658277Y-16434650D01*
X11658277Y-16434650D02*
X11677325Y-16444174D01*
X11753515Y-16644174D02*
X11763039Y-16634650D01*
X11763039Y-16634650D02*
X11782087Y-16606079D01*
X11782087Y-16606079D02*
X11791611Y-16587031D01*
X11791611Y-16587031D02*
X11801134Y-16558460D01*
X11801134Y-16558460D02*
X11810658Y-16510841D01*
X11810658Y-16510841D02*
X11810658Y-16472746D01*
X11810658Y-16472746D02*
X11801134Y-16425127D01*
X11801134Y-16425127D02*
X11791611Y-16396555D01*
X11791611Y-16396555D02*
X11782087Y-16377508D01*
X11782087Y-16377508D02*
X11763039Y-16348936D01*
X11763039Y-16348936D02*
X11753515Y-16339412D01*
M02*
