G04 #@! TF.GenerationSoftware,KiCad,Pcbnew,8.0.4*
G04 #@! TF.CreationDate,2024-11-23T11:06:33-08:00*
G04 #@! TF.ProjectId,rpi pico printer board,72706920-7069-4636-9f20-7072696e7465,rev?*
G04 #@! TF.SameCoordinates,Original*
G04 #@! TF.FileFunction,Soldermask,Bot*
G04 #@! TF.FilePolarity,Negative*
%FSLAX46Y46*%
G04 Gerber Fmt 4.6, Leading zero omitted, Abs format (unit mm)*
G04 Created by KiCad (PCBNEW 8.0.4) date 2024-11-23 11:06:33*
%MOMM*%
%LPD*%
G01*
G04 APERTURE LIST*
G04 Aperture macros list*
%AMRoundRect*
0 Rectangle with rounded corners*
0 $1 Rounding radius*
0 $2 $3 $4 $5 $6 $7 $8 $9 X,Y pos of 4 corners*
0 Add a 4 corners polygon primitive as box body*
4,1,4,$2,$3,$4,$5,$6,$7,$8,$9,$2,$3,0*
0 Add four circle primitives for the rounded corners*
1,1,$1+$1,$2,$3*
1,1,$1+$1,$4,$5*
1,1,$1+$1,$6,$7*
1,1,$1+$1,$8,$9*
0 Add four rect primitives between the rounded corners*
20,1,$1+$1,$2,$3,$4,$5,0*
20,1,$1+$1,$4,$5,$6,$7,0*
20,1,$1+$1,$6,$7,$8,$9,0*
20,1,$1+$1,$8,$9,$2,$3,0*%
G04 Aperture macros list end*
%ADD10C,3.225000*%
%ADD11R,1.600000X1.600000*%
%ADD12C,1.600000*%
%ADD13C,1.800000*%
%ADD14C,1.700000*%
%ADD15RoundRect,0.250000X0.620000X0.620000X-0.620000X0.620000X-0.620000X-0.620000X0.620000X-0.620000X0*%
%ADD16C,1.740000*%
%ADD17R,1.700000X1.700000*%
%ADD18O,1.700000X1.700000*%
%ADD19C,1.300000*%
%ADD20O,1.800000X1.800000*%
%ADD21C,2.000000*%
%ADD22C,2.780000*%
%ADD23R,2.600000X2.600000*%
%ADD24C,2.600000*%
%ADD25C,3.200000*%
%ADD26R,0.862500X1.000000*%
%ADD27R,1.000000X1.000000*%
%ADD28R,0.900000X0.950000*%
%ADD29O,1.500000X1.500000*%
%ADD30R,1.700000X3.500000*%
%ADD31R,3.500000X1.700000*%
G04 APERTURE END LIST*
D10*
X54612500Y-53000000D02*
G75*
G02*
X51387500Y-53000000I-1612500J0D01*
G01*
X51387500Y-53000000D02*
G75*
G02*
X54612500Y-53000000I1612500J0D01*
G01*
X148612500Y-72000000D02*
G75*
G02*
X145387500Y-72000000I-1612500J0D01*
G01*
X145387500Y-72000000D02*
G75*
G02*
X148612500Y-72000000I1612500J0D01*
G01*
X54612500Y-147000000D02*
G75*
G02*
X51387500Y-147000000I-1612500J0D01*
G01*
X51387500Y-147000000D02*
G75*
G02*
X54612500Y-147000000I1612500J0D01*
G01*
X148612500Y-134000000D02*
G75*
G02*
X145387500Y-134000000I-1612500J0D01*
G01*
X145387500Y-134000000D02*
G75*
G02*
X148612500Y-134000000I1612500J0D01*
G01*
D11*
X91900000Y-104152651D03*
D12*
X91900000Y-100652651D03*
D13*
X77380000Y-64300000D03*
X79900000Y-64300000D03*
X82420000Y-64300000D03*
X139780000Y-64200000D03*
X142300000Y-64200000D03*
X144820000Y-64200000D03*
D14*
X119975000Y-126669999D03*
X119975000Y-124129999D03*
X119975000Y-121589999D03*
X119975000Y-119049999D03*
X119975000Y-116509999D03*
X119975000Y-113969999D03*
X119975000Y-111429999D03*
X119975000Y-108889999D03*
X107275000Y-108889999D03*
X107275000Y-111429999D03*
X107275000Y-113969999D03*
X107275000Y-116509999D03*
X107275000Y-119049999D03*
X107275000Y-121589999D03*
X107275000Y-124129999D03*
X107275000Y-126669999D03*
X109815000Y-108889999D03*
X112355000Y-108889999D03*
X136075000Y-126669999D03*
X136075000Y-124129999D03*
X136075000Y-121589999D03*
X136075000Y-119049999D03*
X136075000Y-116509999D03*
X136075000Y-113969999D03*
X136075000Y-111429999D03*
X136075000Y-108889999D03*
X123375000Y-108889999D03*
X123375000Y-111429999D03*
X123375000Y-113969999D03*
X123375000Y-116509999D03*
X123375000Y-119049999D03*
X123375000Y-121589999D03*
X123375000Y-124129999D03*
X123375000Y-126669999D03*
X125915000Y-108889999D03*
X128455000Y-108889999D03*
D15*
X112150000Y-101300000D03*
D16*
X109610000Y-101300000D03*
X107070000Y-101300000D03*
X104530000Y-101300000D03*
X101990000Y-101300000D03*
X99450000Y-101300000D03*
D17*
X79300000Y-85175000D03*
D18*
X79300000Y-82635000D03*
X79300000Y-80095000D03*
D13*
X66380000Y-64300000D03*
X68900000Y-64300000D03*
X71420000Y-64300000D03*
D19*
X52000000Y-141700000D03*
D13*
X114290000Y-64200000D03*
X116810000Y-64200000D03*
X147020000Y-117425000D03*
X144500000Y-117425000D03*
X141980000Y-117425000D03*
D11*
X132747349Y-102500000D03*
D12*
X136247349Y-102500000D03*
D17*
X93350000Y-86700000D03*
D18*
X93350000Y-89240000D03*
X93350000Y-91780000D03*
D13*
X117255000Y-135775000D03*
X114735000Y-135775000D03*
D20*
X112215000Y-135775000D03*
X109695000Y-135775000D03*
D17*
X87600000Y-85160000D03*
D18*
X87600000Y-82620000D03*
X87600000Y-80080000D03*
D21*
X146500000Y-145900000D03*
X146500000Y-140400000D03*
X143000000Y-145900000D03*
X143000000Y-140400000D03*
X139500000Y-145900000D03*
X139500000Y-140400000D03*
X136000000Y-145900000D03*
X136000000Y-140400000D03*
X132500000Y-145900000D03*
X132500000Y-140400000D03*
X129000000Y-145900000D03*
X129000000Y-140400000D03*
X125500000Y-145900000D03*
X125500000Y-140400000D03*
X122000000Y-145900000D03*
X122000000Y-140400000D03*
X118500000Y-145900000D03*
X118500000Y-140400000D03*
X115000000Y-145900000D03*
X115000000Y-140400000D03*
X111500000Y-145900000D03*
X111500000Y-140400000D03*
X108000000Y-145900000D03*
X108000000Y-140400000D03*
X104500000Y-145900000D03*
X104500000Y-140400000D03*
X101000000Y-145900000D03*
X101000000Y-140400000D03*
X97500000Y-145900000D03*
X97500000Y-140400000D03*
X94000000Y-145900000D03*
X94000000Y-140400000D03*
X90500000Y-145900000D03*
X90500000Y-140400000D03*
X87000000Y-145900000D03*
X87000000Y-140400000D03*
X83500000Y-145900000D03*
X83500000Y-140400000D03*
X80000000Y-145900000D03*
X80000000Y-140400000D03*
X76500000Y-145900000D03*
X76500000Y-140400000D03*
X73000000Y-145900000D03*
X73000000Y-140400000D03*
X69500000Y-145900000D03*
X69500000Y-140400000D03*
X66000000Y-145900000D03*
X66000000Y-140400000D03*
X62500000Y-145900000D03*
X62500000Y-140400000D03*
D13*
X122790000Y-64200000D03*
X125310000Y-64200000D03*
X147020000Y-103600000D03*
X144500000Y-103600000D03*
X141980000Y-103600000D03*
D17*
X75200000Y-85175000D03*
D18*
X75200000Y-82635000D03*
X75200000Y-80095000D03*
D13*
X85005000Y-135775000D03*
X82485000Y-135775000D03*
D20*
X79965000Y-135775000D03*
X77445000Y-135775000D03*
D13*
X88380000Y-64300000D03*
X90900000Y-64300000D03*
X93420000Y-64300000D03*
X99380000Y-64300000D03*
X101900000Y-64300000D03*
X104420000Y-64300000D03*
D21*
X62500000Y-54100000D03*
X62500000Y-59600000D03*
X66000000Y-54100000D03*
X66000000Y-59600000D03*
X69500000Y-54100000D03*
X69500000Y-59600000D03*
X73000000Y-54100000D03*
X73000000Y-59600000D03*
X76500000Y-54100000D03*
X76500000Y-59600000D03*
X80000000Y-54100000D03*
X80000000Y-59600000D03*
X83500000Y-54100000D03*
X83500000Y-59600000D03*
X87000000Y-54100000D03*
X87000000Y-59600000D03*
X90500000Y-54100000D03*
X90500000Y-59600000D03*
X94000000Y-54100000D03*
X94000000Y-59600000D03*
X97500000Y-54100000D03*
X97500000Y-59600000D03*
X101000000Y-54100000D03*
X101000000Y-59600000D03*
X104500000Y-54100000D03*
X104500000Y-59600000D03*
X108000000Y-54100000D03*
X108000000Y-59600000D03*
X111500000Y-54100000D03*
X111500000Y-59600000D03*
X115000000Y-54100000D03*
X115000000Y-59600000D03*
X118500000Y-54100000D03*
X118500000Y-59600000D03*
X122000000Y-54100000D03*
X122000000Y-59600000D03*
X125500000Y-54100000D03*
X125500000Y-59600000D03*
X129000000Y-54100000D03*
X129000000Y-59600000D03*
X132500000Y-54100000D03*
X132500000Y-59600000D03*
X136000000Y-54100000D03*
X136000000Y-59600000D03*
X139500000Y-54100000D03*
X139500000Y-59600000D03*
X143000000Y-54100000D03*
X143000000Y-59600000D03*
X146500000Y-54100000D03*
X146500000Y-59600000D03*
D22*
X68400000Y-107370000D03*
X65000000Y-107370000D03*
X68400000Y-117290000D03*
X65000000Y-117290000D03*
D11*
X93300000Y-81900000D03*
D12*
X93300000Y-79400000D03*
D14*
X87750000Y-126654999D03*
X87750000Y-124114999D03*
X87750000Y-121574999D03*
X87750000Y-119034999D03*
X87750000Y-116494999D03*
X87750000Y-113954999D03*
X87750000Y-111414999D03*
X87750000Y-108874999D03*
X75050000Y-108874999D03*
X75050000Y-111414999D03*
X75050000Y-113954999D03*
X75050000Y-116494999D03*
X75050000Y-119034999D03*
X75050000Y-121574999D03*
X75050000Y-124114999D03*
X75050000Y-126654999D03*
X77590000Y-108874999D03*
X80130000Y-108874999D03*
D13*
X133330000Y-135775000D03*
X130810000Y-135775000D03*
D20*
X128290000Y-135775000D03*
X125770000Y-135775000D03*
D13*
X131290000Y-64200000D03*
X133810000Y-64200000D03*
D23*
X57095000Y-77000000D03*
D24*
X57095000Y-82000000D03*
D19*
X144200000Y-137800000D03*
D25*
X53000000Y-53000000D03*
X147000000Y-72000000D03*
D13*
X147020000Y-110500000D03*
X144500000Y-110500000D03*
X141980000Y-110500000D03*
D19*
X148400000Y-62000000D03*
D13*
X147020000Y-124325000D03*
X144500000Y-124325000D03*
X141980000Y-124325000D03*
D22*
X65000000Y-99330000D03*
X68400000Y-99330000D03*
X65000000Y-89410000D03*
X68400000Y-89410000D03*
D13*
X101080000Y-135775000D03*
X98560000Y-135775000D03*
D20*
X96040000Y-135775000D03*
X93520000Y-135775000D03*
D25*
X53000000Y-147000000D03*
X147000000Y-134000000D03*
D14*
X103875000Y-126669999D03*
X103875000Y-124129999D03*
X103875000Y-121589999D03*
X103875000Y-119049999D03*
X103875000Y-116509999D03*
X103875000Y-113969999D03*
X103875000Y-111429999D03*
X103875000Y-108889999D03*
X91175000Y-108889999D03*
X91175000Y-111429999D03*
X91175000Y-113969999D03*
X91175000Y-116509999D03*
X91175000Y-119049999D03*
X91175000Y-121589999D03*
X91175000Y-124129999D03*
X91175000Y-126669999D03*
X93715000Y-108889999D03*
X96255000Y-108889999D03*
D22*
X57000000Y-99330000D03*
X60400000Y-99330000D03*
X57000000Y-89410000D03*
X60400000Y-89410000D03*
D23*
X57100000Y-107000000D03*
D24*
X57100000Y-112000000D03*
X57100000Y-117000000D03*
X57100000Y-122000000D03*
X57100000Y-127000000D03*
X57100000Y-132000000D03*
D17*
X83400000Y-85175000D03*
D18*
X83400000Y-82635000D03*
X83400000Y-80095000D03*
D11*
X110000000Y-71900000D03*
D12*
X112500000Y-71900000D03*
D26*
X109943750Y-119410000D03*
D27*
X111075000Y-119410000D03*
D26*
X112206250Y-119410000D03*
X77718750Y-121935000D03*
D27*
X78850000Y-121935000D03*
D26*
X79981250Y-121935000D03*
X93843750Y-119410000D03*
D27*
X94975000Y-119410000D03*
D26*
X96106250Y-119410000D03*
X77718750Y-119395000D03*
D27*
X78850000Y-119395000D03*
D26*
X79981250Y-119395000D03*
D28*
X109962500Y-111750000D03*
X111062500Y-111750000D03*
D26*
X126043750Y-124490000D03*
D27*
X127175000Y-124490000D03*
D26*
X128306250Y-124490000D03*
X126043750Y-114330000D03*
D27*
X127175000Y-114330000D03*
D26*
X128306250Y-114330000D03*
X126043750Y-121950000D03*
D27*
X127175000Y-121950000D03*
D26*
X128306250Y-121950000D03*
X126043750Y-119410000D03*
D27*
X127175000Y-119410000D03*
D26*
X128306250Y-119410000D03*
D28*
X77737500Y-111735000D03*
X78837500Y-111735000D03*
D26*
X109943750Y-124490000D03*
D27*
X111075000Y-124490000D03*
D26*
X112206250Y-124490000D03*
D20*
X147870000Y-90735000D03*
D29*
X144840000Y-90435000D03*
X144840000Y-85585000D03*
D20*
X147870000Y-85285000D03*
D30*
X148000000Y-97800000D03*
X145460000Y-97800000D03*
X142920000Y-97800000D03*
X140380000Y-97800000D03*
X137840000Y-97800000D03*
X135300000Y-97800000D03*
X132760000Y-97800000D03*
X130220000Y-97800000D03*
X127680000Y-97800000D03*
X125140000Y-97800000D03*
X122600000Y-97800000D03*
X120060000Y-97800000D03*
X117520000Y-97800000D03*
X114980000Y-97800000D03*
X112440000Y-97800000D03*
X109900000Y-97800000D03*
X107360000Y-97800000D03*
X104820000Y-97800000D03*
X102280000Y-97800000D03*
X99740000Y-97800000D03*
X99740000Y-78220000D03*
X102280000Y-78220000D03*
X104820000Y-78220000D03*
X107360000Y-78220000D03*
X109900000Y-78220000D03*
X112440000Y-78220000D03*
X114980000Y-78220000D03*
X117520000Y-78220000D03*
X120060000Y-78220000D03*
X122600000Y-78220000D03*
X125140000Y-78220000D03*
X127680000Y-78220000D03*
X130220000Y-78220000D03*
X132760000Y-78220000D03*
X135300000Y-78220000D03*
X137840000Y-78220000D03*
X140380000Y-78220000D03*
X142920000Y-78220000D03*
X145460000Y-78220000D03*
X148000000Y-78220000D03*
D31*
X99070000Y-90550000D03*
X99070000Y-88010000D03*
X99070000Y-85470000D03*
D28*
X126062500Y-111750000D03*
X127162500Y-111750000D03*
D26*
X77718750Y-116855000D03*
D27*
X78850000Y-116855000D03*
D26*
X79981250Y-116855000D03*
X77718750Y-114315000D03*
D27*
X78850000Y-114315000D03*
D26*
X79981250Y-114315000D03*
X109943750Y-114330000D03*
D27*
X111075000Y-114330000D03*
D26*
X112206250Y-114330000D03*
X109943750Y-116870000D03*
D27*
X111075000Y-116870000D03*
D26*
X112206250Y-116870000D03*
X126043750Y-116870000D03*
D27*
X127175000Y-116870000D03*
D26*
X128306250Y-116870000D03*
X93843750Y-121950000D03*
D27*
X94975000Y-121950000D03*
D26*
X96106250Y-121950000D03*
X93843750Y-116870000D03*
D27*
X94975000Y-116870000D03*
D26*
X96106250Y-116870000D03*
D28*
X93862500Y-111750000D03*
X94962500Y-111750000D03*
D26*
X109943750Y-121950000D03*
D27*
X111075000Y-121950000D03*
D26*
X112206250Y-121950000D03*
X77718750Y-124475000D03*
D27*
X78850000Y-124475000D03*
D26*
X79981250Y-124475000D03*
X93843750Y-114330000D03*
D27*
X94975000Y-114330000D03*
D26*
X96106250Y-114330000D03*
X93843750Y-124490000D03*
D27*
X94975000Y-124490000D03*
D26*
X96106250Y-124490000D03*
M02*
