G04 #@! TF.GenerationSoftware,KiCad,Pcbnew,8.0.4*
G04 #@! TF.CreationDate,2024-11-23T11:06:33-08:00*
G04 #@! TF.ProjectId,rpi pico printer board,72706920-7069-4636-9f20-7072696e7465,rev?*
G04 #@! TF.SameCoordinates,Original*
G04 #@! TF.FileFunction,Soldermask,Top*
G04 #@! TF.FilePolarity,Negative*
%FSLAX46Y46*%
G04 Gerber Fmt 4.6, Leading zero omitted, Abs format (unit mm)*
G04 Created by KiCad (PCBNEW 8.0.4) date 2024-11-23 11:06:33*
%MOMM*%
%LPD*%
G01*
G04 APERTURE LIST*
G04 Aperture macros list*
%AMRoundRect*
0 Rectangle with rounded corners*
0 $1 Rounding radius*
0 $2 $3 $4 $5 $6 $7 $8 $9 X,Y pos of 4 corners*
0 Add a 4 corners polygon primitive as box body*
4,1,4,$2,$3,$4,$5,$6,$7,$8,$9,$2,$3,0*
0 Add four circle primitives for the rounded corners*
1,1,$1+$1,$2,$3*
1,1,$1+$1,$4,$5*
1,1,$1+$1,$6,$7*
1,1,$1+$1,$8,$9*
0 Add four rect primitives between the rounded corners*
20,1,$1+$1,$2,$3,$4,$5,0*
20,1,$1+$1,$4,$5,$6,$7,0*
20,1,$1+$1,$6,$7,$8,$9,0*
20,1,$1+$1,$8,$9,$2,$3,0*%
%AMFreePoly0*
4,1,17,1.395000,0.765000,0.855000,0.765000,0.855000,0.535000,1.395000,0.535000,1.395000,0.115000,0.855000,0.115000,0.855000,-0.115000,1.395000,-0.115000,1.395000,-0.535000,0.855000,-0.535000,0.855000,-0.765000,1.395000,-0.765000,1.395000,-1.185000,-0.855000,-1.185000,-0.855000,1.185000,1.395000,1.185000,1.395000,0.765000,1.395000,0.765000,$1*%
G04 Aperture macros list end*
%ADD10C,3.225000*%
%ADD11RoundRect,0.105000X0.105000X-0.245000X0.105000X0.245000X-0.105000X0.245000X-0.105000X-0.245000X0*%
%ADD12FreePoly0,90.000000*%
%ADD13RoundRect,0.250000X-1.100000X0.325000X-1.100000X-0.325000X1.100000X-0.325000X1.100000X0.325000X0*%
%ADD14RoundRect,0.200000X0.200000X0.275000X-0.200000X0.275000X-0.200000X-0.275000X0.200000X-0.275000X0*%
%ADD15RoundRect,0.225000X-0.250000X0.225000X-0.250000X-0.225000X0.250000X-0.225000X0.250000X0.225000X0*%
%ADD16RoundRect,0.200000X-0.200000X-0.275000X0.200000X-0.275000X0.200000X0.275000X-0.200000X0.275000X0*%
%ADD17R,1.600000X1.600000*%
%ADD18C,1.600000*%
%ADD19C,2.000000*%
%ADD20RoundRect,0.200000X0.275000X-0.200000X0.275000X0.200000X-0.275000X0.200000X-0.275000X-0.200000X0*%
%ADD21C,1.800000*%
%ADD22RoundRect,0.250000X-0.300000X-0.300000X0.300000X-0.300000X0.300000X0.300000X-0.300000X0.300000X0*%
%ADD23RoundRect,0.200000X-0.275000X0.200000X-0.275000X-0.200000X0.275000X-0.200000X0.275000X0.200000X0*%
%ADD24RoundRect,0.225000X-0.225000X-0.250000X0.225000X-0.250000X0.225000X0.250000X-0.225000X0.250000X0*%
%ADD25C,1.700000*%
%ADD26RoundRect,0.237500X0.287500X0.237500X-0.287500X0.237500X-0.287500X-0.237500X0.287500X-0.237500X0*%
%ADD27RoundRect,0.250000X0.620000X0.620000X-0.620000X0.620000X-0.620000X-0.620000X0.620000X-0.620000X0*%
%ADD28C,1.740000*%
%ADD29RoundRect,0.250000X1.100000X-0.325000X1.100000X0.325000X-1.100000X0.325000X-1.100000X-0.325000X0*%
%ADD30RoundRect,0.250000X0.650000X-1.000000X0.650000X1.000000X-0.650000X1.000000X-0.650000X-1.000000X0*%
%ADD31R,2.850000X6.600000*%
%ADD32RoundRect,0.100000X0.100000X-0.637500X0.100000X0.637500X-0.100000X0.637500X-0.100000X-0.637500X0*%
%ADD33RoundRect,0.250000X-0.325000X-1.100000X0.325000X-1.100000X0.325000X1.100000X-0.325000X1.100000X0*%
%ADD34R,1.700000X1.700000*%
%ADD35O,1.700000X1.700000*%
%ADD36RoundRect,0.225000X0.225000X0.250000X-0.225000X0.250000X-0.225000X-0.250000X0.225000X-0.250000X0*%
%ADD37RoundRect,0.237500X-0.237500X0.287500X-0.237500X-0.287500X0.237500X-0.287500X0.237500X0.287500X0*%
%ADD38RoundRect,0.250000X-0.275000X-0.700000X0.275000X-0.700000X0.275000X0.700000X-0.275000X0.700000X0*%
%ADD39R,1.500000X1.500000*%
%ADD40RoundRect,0.250000X-0.300000X0.300000X-0.300000X-0.300000X0.300000X-0.300000X0.300000X0.300000X0*%
%ADD41C,1.300000*%
%ADD42RoundRect,0.150000X-0.512500X-0.150000X0.512500X-0.150000X0.512500X0.150000X-0.512500X0.150000X0*%
%ADD43RoundRect,0.112500X-0.112500X0.187500X-0.112500X-0.187500X0.112500X-0.187500X0.112500X0.187500X0*%
%ADD44O,1.800000X1.800000*%
%ADD45R,6.600000X2.850000*%
%ADD46RoundRect,0.250000X0.300000X0.300000X-0.300000X0.300000X-0.300000X-0.300000X0.300000X-0.300000X0*%
%ADD47RoundRect,0.225000X0.250000X-0.225000X0.250000X0.225000X-0.250000X0.225000X-0.250000X-0.225000X0*%
%ADD48RoundRect,0.237500X-0.287500X-0.237500X0.287500X-0.237500X0.287500X0.237500X-0.287500X0.237500X0*%
%ADD49C,2.780000*%
%ADD50RoundRect,0.237500X0.237500X-0.287500X0.237500X0.287500X-0.237500X0.287500X-0.237500X-0.287500X0*%
%ADD51R,2.600000X2.600000*%
%ADD52C,2.600000*%
%ADD53RoundRect,0.150000X0.512500X0.150000X-0.512500X0.150000X-0.512500X-0.150000X0.512500X-0.150000X0*%
%ADD54C,3.200000*%
%ADD55RoundRect,0.218750X-0.256250X0.218750X-0.256250X-0.218750X0.256250X-0.218750X0.256250X0.218750X0*%
%ADD56RoundRect,0.105000X-0.245000X-0.105000X0.245000X-0.105000X0.245000X0.105000X-0.245000X0.105000X0*%
%ADD57FreePoly0,0.000000*%
%ADD58O,1.500000X1.500000*%
G04 APERTURE END LIST*
D10*
X54612500Y-53000000D02*
G75*
G02*
X51387500Y-53000000I-1612500J0D01*
G01*
X51387500Y-53000000D02*
G75*
G02*
X54612500Y-53000000I1612500J0D01*
G01*
X148612500Y-72000000D02*
G75*
G02*
X145387500Y-72000000I-1612500J0D01*
G01*
X145387500Y-72000000D02*
G75*
G02*
X148612500Y-72000000I1612500J0D01*
G01*
X54612500Y-147000000D02*
G75*
G02*
X51387500Y-147000000I-1612500J0D01*
G01*
X51387500Y-147000000D02*
G75*
G02*
X54612500Y-147000000I1612500J0D01*
G01*
X148612500Y-134000000D02*
G75*
G02*
X145387500Y-134000000I-1612500J0D01*
G01*
X145387500Y-134000000D02*
G75*
G02*
X148612500Y-134000000I1612500J0D01*
G01*
D11*
X64275000Y-127500000D03*
X64925000Y-127500000D03*
X65575000Y-127500000D03*
X66225000Y-127500000D03*
D12*
X65250000Y-125545000D03*
D13*
X82200000Y-98525000D03*
X82200000Y-101475000D03*
D14*
X111600000Y-120870000D03*
X109950000Y-120870000D03*
D11*
X77525000Y-74400000D03*
X78175000Y-74400000D03*
X78825000Y-74400000D03*
X79475000Y-74400000D03*
D12*
X78500000Y-72445000D03*
D15*
X86875000Y-129310000D03*
X86875000Y-130860000D03*
D16*
X124900000Y-71800000D03*
X126550000Y-71800000D03*
X73325000Y-92785000D03*
X74975000Y-92785000D03*
D17*
X91900000Y-104152651D03*
D18*
X91900000Y-100652651D03*
D19*
X52100000Y-95000000D03*
D20*
X71900000Y-70925000D03*
X71900000Y-69275000D03*
D21*
X77380000Y-64300000D03*
X79900000Y-64300000D03*
X82420000Y-64300000D03*
D22*
X53400000Y-70250000D03*
X56200000Y-70250000D03*
D23*
X130100000Y-84399999D03*
X130100000Y-86049999D03*
D21*
X139780000Y-64200000D03*
X142300000Y-64200000D03*
X144820000Y-64200000D03*
D20*
X82900000Y-70925000D03*
X82900000Y-69275000D03*
D24*
X78600000Y-128485000D03*
X80150000Y-128485000D03*
D19*
X147500000Y-143200000D03*
D25*
X119975000Y-126669999D03*
X119975000Y-124129999D03*
X119975000Y-121589999D03*
X119975000Y-119049999D03*
X119975000Y-116509999D03*
X119975000Y-113969999D03*
X119975000Y-111429999D03*
X119975000Y-108889999D03*
X107275000Y-108889999D03*
X107275000Y-111429999D03*
X107275000Y-113969999D03*
X107275000Y-116509999D03*
X107275000Y-119049999D03*
X107275000Y-121589999D03*
X107275000Y-124129999D03*
X107275000Y-126669999D03*
X109815000Y-108889999D03*
X112355000Y-108889999D03*
D15*
X75475000Y-129310000D03*
X75475000Y-130860000D03*
D25*
X136075000Y-126669999D03*
X136075000Y-124129999D03*
X136075000Y-121589999D03*
X136075000Y-119049999D03*
X136075000Y-116509999D03*
X136075000Y-113969999D03*
X136075000Y-111429999D03*
X136075000Y-108889999D03*
X123375000Y-108889999D03*
X123375000Y-111429999D03*
X123375000Y-113969999D03*
X123375000Y-116509999D03*
X123375000Y-119049999D03*
X123375000Y-121589999D03*
X123375000Y-124129999D03*
X123375000Y-126669999D03*
X125915000Y-108889999D03*
X128455000Y-108889999D03*
D26*
X138074999Y-69000000D03*
X136325001Y-69000000D03*
D23*
X70400000Y-72475000D03*
X70400000Y-74125000D03*
D16*
X140975000Y-70400000D03*
X142625000Y-70400000D03*
D27*
X112150000Y-101300000D03*
D28*
X109610000Y-101300000D03*
X107070000Y-101300000D03*
X104530000Y-101300000D03*
X101990000Y-101300000D03*
X99450000Y-101300000D03*
D29*
X116399999Y-92875000D03*
X116399999Y-89924998D03*
X119699998Y-92875001D03*
X119699998Y-89924999D03*
D30*
X68600000Y-82600001D03*
X68600000Y-78599999D03*
D23*
X132150000Y-79725000D03*
X132150000Y-81375000D03*
D30*
X112799998Y-94600001D03*
X112799998Y-90599999D03*
X65000000Y-82600000D03*
X65000000Y-78600000D03*
D31*
X80175000Y-92685000D03*
X85825000Y-92685000D03*
D15*
X91600000Y-129325000D03*
X91600000Y-130875000D03*
D16*
X133700000Y-87725000D03*
X135350000Y-87725000D03*
D32*
X103025000Y-91725000D03*
X103675000Y-91725000D03*
X104325000Y-91725000D03*
X104975000Y-91725000D03*
X105625000Y-91725000D03*
X106275000Y-91725000D03*
X106925000Y-91725000D03*
X107575000Y-91725000D03*
X107575000Y-86000000D03*
X106925000Y-86000000D03*
X106275000Y-86000000D03*
X105625000Y-86000000D03*
X104975000Y-86000000D03*
X104325000Y-86000000D03*
X103675000Y-86000000D03*
X103025000Y-86000000D03*
D20*
X93900000Y-70925000D03*
X93900000Y-69275000D03*
D33*
X89524999Y-96000000D03*
X92475001Y-96000000D03*
D20*
X104900000Y-70925000D03*
X104900000Y-69275000D03*
D34*
X79300000Y-85175000D03*
D35*
X79300000Y-82635000D03*
X79300000Y-80095000D03*
D36*
X74925000Y-89800000D03*
X73375000Y-89800000D03*
D37*
X135750000Y-95275001D03*
X135750000Y-97024999D03*
D16*
X98075000Y-84200000D03*
X99725000Y-84200000D03*
D21*
X66380000Y-64300000D03*
X68900000Y-64300000D03*
X71420000Y-64300000D03*
D38*
X77100000Y-130485000D03*
X80250000Y-130485000D03*
D23*
X128300000Y-84400000D03*
X128300000Y-86050000D03*
D39*
X122400000Y-78200000D03*
X130200000Y-78200000D03*
D22*
X86900000Y-69400000D03*
X89700000Y-69400000D03*
D16*
X77725000Y-119374999D03*
X79375000Y-119374999D03*
D20*
X128275000Y-73425000D03*
X128275000Y-71775000D03*
X103400000Y-70925000D03*
X103400000Y-69275000D03*
D24*
X127399998Y-104200001D03*
X128949998Y-104200001D03*
D40*
X71600000Y-121100000D03*
X71600000Y-123900000D03*
D16*
X130200000Y-87725000D03*
X131850000Y-87725000D03*
D23*
X129775000Y-71775000D03*
X129775000Y-73425000D03*
D19*
X147500000Y-56900000D03*
D41*
X52000000Y-141700000D03*
D21*
X114290000Y-64200000D03*
X116810000Y-64200000D03*
D24*
X124950000Y-73400000D03*
X126500000Y-73400000D03*
D23*
X133600000Y-84400000D03*
X133600000Y-86050000D03*
D15*
X123800000Y-129325000D03*
X123800000Y-130875000D03*
D36*
X102775000Y-84200000D03*
X101225000Y-84200000D03*
D42*
X74700000Y-94635000D03*
X74700000Y-95585000D03*
X74700000Y-96535000D03*
X76975000Y-96535000D03*
X76975000Y-95585000D03*
X76975000Y-94635000D03*
D15*
X119100000Y-129325000D03*
X119100000Y-130875000D03*
D43*
X131850000Y-84174998D03*
X131850000Y-86274998D03*
D19*
X58300000Y-143200000D03*
D21*
X147020000Y-117425000D03*
X144500000Y-117425000D03*
X141980000Y-117425000D03*
D20*
X81400000Y-70925000D03*
X81400000Y-69275000D03*
D37*
X104900000Y-72425000D03*
X104900000Y-74175000D03*
D16*
X93850000Y-119389999D03*
X95500000Y-119389999D03*
D17*
X132747349Y-102500000D03*
D18*
X136247349Y-102500000D03*
D36*
X132075000Y-128500000D03*
X130525000Y-128500000D03*
D37*
X133750000Y-79675001D03*
X133750000Y-81424999D03*
D24*
X131400000Y-73400000D03*
X132950000Y-73400000D03*
D34*
X93350000Y-86700000D03*
D35*
X93350000Y-89240000D03*
X93350000Y-91780000D03*
D16*
X137200000Y-87725000D03*
X138850000Y-87725000D03*
D20*
X92400000Y-70925000D03*
X92400000Y-69275000D03*
D21*
X117255000Y-135775000D03*
X114735000Y-135775000D03*
D44*
X112215000Y-135775000D03*
X109695000Y-135775000D03*
D45*
X119799999Y-101600000D03*
X119799999Y-95950000D03*
D24*
X137825000Y-73400000D03*
X139375000Y-73400000D03*
D34*
X87600000Y-85160000D03*
D35*
X87600000Y-82620000D03*
X87600000Y-80080000D03*
D13*
X100075000Y-108725000D03*
X100075000Y-111675000D03*
D38*
X93225000Y-130500000D03*
X96375000Y-130500000D03*
D19*
X146500000Y-145900000D03*
X146500000Y-140400000D03*
X143000000Y-145900000D03*
X143000000Y-140400000D03*
X139500000Y-145900000D03*
X139500000Y-140400000D03*
X136000000Y-145900000D03*
X136000000Y-140400000D03*
X132500000Y-145900000D03*
X132500000Y-140400000D03*
X129000000Y-145900000D03*
X129000000Y-140400000D03*
X125500000Y-145900000D03*
X125500000Y-140400000D03*
X122000000Y-145900000D03*
X122000000Y-140400000D03*
X118500000Y-145900000D03*
X118500000Y-140400000D03*
X115000000Y-145900000D03*
X115000000Y-140400000D03*
X111500000Y-145900000D03*
X111500000Y-140400000D03*
X108000000Y-145900000D03*
X108000000Y-140400000D03*
X104500000Y-145900000D03*
X104500000Y-140400000D03*
X101000000Y-145900000D03*
X101000000Y-140400000D03*
X97500000Y-145900000D03*
X97500000Y-140400000D03*
X94000000Y-145900000D03*
X94000000Y-140400000D03*
X90500000Y-145900000D03*
X90500000Y-140400000D03*
X87000000Y-145900000D03*
X87000000Y-140400000D03*
X83500000Y-145900000D03*
X83500000Y-140400000D03*
X80000000Y-145900000D03*
X80000000Y-140400000D03*
X76500000Y-145900000D03*
X76500000Y-140400000D03*
X73000000Y-145900000D03*
X73000000Y-140400000D03*
X69500000Y-145900000D03*
X69500000Y-140400000D03*
X66000000Y-145900000D03*
X66000000Y-140400000D03*
X62500000Y-145900000D03*
X62500000Y-140400000D03*
D14*
X79375000Y-120855000D03*
X77725000Y-120855000D03*
D46*
X147000000Y-98400000D03*
X144200000Y-98400000D03*
D21*
X122790000Y-64200000D03*
X125310000Y-64200000D03*
D13*
X85500000Y-98525000D03*
X85500000Y-101475000D03*
D15*
X137100000Y-89450000D03*
X137100000Y-91000000D03*
D23*
X81400000Y-72475000D03*
X81400000Y-74125000D03*
D21*
X147020000Y-103600000D03*
X144500000Y-103600000D03*
X141980000Y-103600000D03*
D14*
X56775000Y-62550000D03*
X55125000Y-62550000D03*
D15*
X135200000Y-129325000D03*
X135200000Y-130875000D03*
D20*
X134700000Y-73425000D03*
X134700000Y-71775000D03*
D15*
X77450000Y-91310000D03*
X77450000Y-92860000D03*
D23*
X140600000Y-84400000D03*
X140600000Y-86050000D03*
D38*
X109325000Y-130500000D03*
X112475000Y-130500000D03*
D34*
X75200000Y-85175000D03*
D35*
X75200000Y-82635000D03*
X75200000Y-80095000D03*
D21*
X85005000Y-135775000D03*
X82485000Y-135775000D03*
D44*
X79965000Y-135775000D03*
X77445000Y-135775000D03*
D16*
X58300000Y-64050000D03*
X59950000Y-64050000D03*
D15*
X103000000Y-129325000D03*
X103000000Y-130875000D03*
D14*
X128999998Y-101200002D03*
X127349998Y-101200002D03*
D47*
X125200000Y-102575000D03*
X125200000Y-101025000D03*
D24*
X139525000Y-75700000D03*
X141075000Y-75700000D03*
D21*
X88380000Y-64300000D03*
X90900000Y-64300000D03*
X93420000Y-64300000D03*
D13*
X83950000Y-108710000D03*
X83950000Y-111660000D03*
D23*
X145450000Y-94575000D03*
X145450000Y-96225000D03*
D37*
X93900000Y-72425000D03*
X93900000Y-74175000D03*
D24*
X74725000Y-98185000D03*
X76275000Y-98185000D03*
D48*
X58250000Y-62550000D03*
X60000000Y-62550000D03*
D15*
X133600000Y-89450000D03*
X133600000Y-91000000D03*
D22*
X64900000Y-69400000D03*
X67700000Y-69400000D03*
D16*
X126050000Y-119389999D03*
X127700000Y-119389999D03*
D23*
X101375000Y-90075000D03*
X101375000Y-91725000D03*
D24*
X94725000Y-128500000D03*
X96275000Y-128500000D03*
D21*
X99380000Y-64300000D03*
X101900000Y-64300000D03*
X104420000Y-64300000D03*
D20*
X141300000Y-81825000D03*
X141300000Y-80175000D03*
X110100000Y-64525001D03*
X110100000Y-62875001D03*
D24*
X110825000Y-128500000D03*
X112375000Y-128500000D03*
D19*
X62500000Y-54100000D03*
X62500000Y-59600000D03*
X66000000Y-54100000D03*
X66000000Y-59600000D03*
X69500000Y-54100000D03*
X69500000Y-59600000D03*
X73000000Y-54100000D03*
X73000000Y-59600000D03*
X76500000Y-54100000D03*
X76500000Y-59600000D03*
X80000000Y-54100000D03*
X80000000Y-59600000D03*
X83500000Y-54100000D03*
X83500000Y-59600000D03*
X87000000Y-54100000D03*
X87000000Y-59600000D03*
X90500000Y-54100000D03*
X90500000Y-59600000D03*
X94000000Y-54100000D03*
X94000000Y-59600000D03*
X97500000Y-54100000D03*
X97500000Y-59600000D03*
X101000000Y-54100000D03*
X101000000Y-59600000D03*
X104500000Y-54100000D03*
X104500000Y-59600000D03*
X108000000Y-54100000D03*
X108000000Y-59600000D03*
X111500000Y-54100000D03*
X111500000Y-59600000D03*
X115000000Y-54100000D03*
X115000000Y-59600000D03*
X118500000Y-54100000D03*
X118500000Y-59600000D03*
X122000000Y-54100000D03*
X122000000Y-59600000D03*
X125500000Y-54100000D03*
X125500000Y-59600000D03*
X129000000Y-54100000D03*
X129000000Y-59600000D03*
X132500000Y-54100000D03*
X132500000Y-59600000D03*
X136000000Y-54100000D03*
X136000000Y-59600000D03*
X139500000Y-54100000D03*
X139500000Y-59600000D03*
X143000000Y-54100000D03*
X143000000Y-59600000D03*
X146500000Y-54100000D03*
X146500000Y-59600000D03*
D24*
X126925000Y-128500000D03*
X128475000Y-128500000D03*
D38*
X98225000Y-130500000D03*
X101375000Y-130500000D03*
D14*
X66250000Y-133500000D03*
X64600000Y-133500000D03*
D37*
X147050000Y-94525001D03*
X147050000Y-96274999D03*
D49*
X68400000Y-107370000D03*
X65000000Y-107370000D03*
X68400000Y-117290000D03*
X65000000Y-117290000D03*
D15*
X140600000Y-89450000D03*
X140600000Y-91000000D03*
D22*
X75900000Y-69400000D03*
X78700000Y-69400000D03*
D17*
X93300000Y-81900000D03*
D18*
X93300000Y-79400000D03*
D25*
X87750000Y-126654999D03*
X87750000Y-124114999D03*
X87750000Y-121574999D03*
X87750000Y-119034999D03*
X87750000Y-116494999D03*
X87750000Y-113954999D03*
X87750000Y-111414999D03*
X87750000Y-108874999D03*
X75050000Y-108874999D03*
X75050000Y-111414999D03*
X75050000Y-113954999D03*
X75050000Y-116494999D03*
X75050000Y-119034999D03*
X75050000Y-121574999D03*
X75050000Y-124114999D03*
X75050000Y-126654999D03*
X77590000Y-108874999D03*
X80130000Y-108874999D03*
D15*
X139350000Y-80225000D03*
X139350000Y-81775000D03*
D38*
X82100000Y-130485000D03*
X85250000Y-130485000D03*
D48*
X67750000Y-133500000D03*
X69500000Y-133500000D03*
D21*
X133330000Y-135775000D03*
X130810000Y-135775000D03*
D44*
X128290000Y-135775000D03*
X125770000Y-135775000D03*
D36*
X115975000Y-128500000D03*
X114425000Y-128500000D03*
D14*
X66250000Y-132000000D03*
X64600000Y-132000000D03*
D21*
X131290000Y-64200000D03*
X133810000Y-64200000D03*
D50*
X108500000Y-64574999D03*
X108500000Y-62825001D03*
D16*
X140700000Y-87725000D03*
X142350000Y-87725000D03*
D14*
X127700000Y-120870000D03*
X126050000Y-120870000D03*
D51*
X57095000Y-77000000D03*
D52*
X57095000Y-82000000D03*
D16*
X137775000Y-71800000D03*
X139425000Y-71800000D03*
D53*
X128299999Y-99289999D03*
X128299999Y-98340000D03*
X128299999Y-97390001D03*
X126024999Y-97390001D03*
X126024999Y-98340000D03*
X126024999Y-99289999D03*
D23*
X137350000Y-95325000D03*
X137350000Y-96975000D03*
X123325000Y-71775000D03*
X123325000Y-73425000D03*
D22*
X97900000Y-69400000D03*
X100700000Y-69400000D03*
D38*
X114325000Y-130500000D03*
X117475000Y-130500000D03*
D36*
X102775000Y-93800000D03*
X101225000Y-93800000D03*
D38*
X125425000Y-130500000D03*
X128575000Y-130500000D03*
D41*
X144200000Y-137800000D03*
D54*
X53000000Y-53000000D03*
D36*
X99875000Y-128500000D03*
X98325000Y-128500000D03*
D54*
X147000000Y-72000000D03*
D14*
X56775000Y-64050000D03*
X55125000Y-64050000D03*
D16*
X67800000Y-132000000D03*
X69450000Y-132000000D03*
D11*
X88525000Y-74400000D03*
X89175000Y-74400000D03*
X89825000Y-74400000D03*
X90475000Y-74400000D03*
D12*
X89500000Y-72445000D03*
D13*
X132275000Y-108725000D03*
X132275000Y-111675000D03*
D11*
X99525000Y-74400000D03*
X100175000Y-74400000D03*
X100825000Y-74400000D03*
X101475000Y-74400000D03*
D12*
X100500000Y-72445000D03*
D21*
X147020000Y-110500000D03*
X144500000Y-110500000D03*
X141980000Y-110500000D03*
D33*
X74575000Y-100650000D03*
X77525000Y-100650000D03*
D43*
X138850000Y-84175000D03*
X138850000Y-86275000D03*
D41*
X148400000Y-62000000D03*
D20*
X99875000Y-91725000D03*
X99875000Y-90075000D03*
D21*
X147020000Y-124325000D03*
X144500000Y-124325000D03*
X141980000Y-124325000D03*
D16*
X127349998Y-102700002D03*
X128999998Y-102700002D03*
D13*
X116175000Y-108725000D03*
X116175000Y-111675000D03*
D55*
X139350000Y-77212500D03*
X139350000Y-78787500D03*
D16*
X109950000Y-119389999D03*
X111600000Y-119389999D03*
D37*
X71900000Y-72425000D03*
X71900000Y-74175000D03*
D20*
X121825000Y-73425000D03*
X121825000Y-71775000D03*
D23*
X137100000Y-84400000D03*
X137100000Y-86050000D03*
D56*
X58600000Y-66750000D03*
X58600000Y-67400000D03*
X58600000Y-68050000D03*
X58600000Y-68700000D03*
D57*
X60555001Y-67725000D03*
D43*
X135350000Y-84175000D03*
X135350000Y-86275000D03*
D49*
X65000000Y-99330000D03*
X68400000Y-99330000D03*
X65000000Y-89410000D03*
X68400000Y-89410000D03*
D15*
X107700000Y-129325000D03*
X107700000Y-130875000D03*
D23*
X136200000Y-71775000D03*
X136200000Y-73425000D03*
D43*
X142350000Y-84175000D03*
X142350000Y-86275000D03*
D23*
X92400000Y-72475000D03*
X92400000Y-74125000D03*
D21*
X101080000Y-135775000D03*
X98560000Y-135775000D03*
D44*
X96040000Y-135775000D03*
X93520000Y-135775000D03*
D43*
X141600000Y-71950000D03*
X141600000Y-74050000D03*
D54*
X53000000Y-147000000D03*
D38*
X130425000Y-130500000D03*
X133575000Y-130500000D03*
D54*
X147000000Y-134000000D03*
D15*
X137300000Y-80225000D03*
X137300000Y-81775000D03*
D23*
X103400000Y-72475000D03*
X103400000Y-74125000D03*
D25*
X103875000Y-126669999D03*
X103875000Y-124129999D03*
X103875000Y-121589999D03*
X103875000Y-119049999D03*
X103875000Y-116509999D03*
X103875000Y-113969999D03*
X103875000Y-111429999D03*
X103875000Y-108889999D03*
X91175000Y-108889999D03*
X91175000Y-111429999D03*
X91175000Y-113969999D03*
X91175000Y-116509999D03*
X91175000Y-119049999D03*
X91175000Y-121589999D03*
X91175000Y-124129999D03*
X91175000Y-126669999D03*
X93715000Y-108889999D03*
X96255000Y-108889999D03*
D29*
X132800000Y-97075001D03*
X132800000Y-94124999D03*
D49*
X57000000Y-99330000D03*
X60400000Y-99330000D03*
X57000000Y-89410000D03*
X60400000Y-89410000D03*
D14*
X95500000Y-120870000D03*
X93850000Y-120870000D03*
D36*
X83750000Y-128485000D03*
X82200000Y-128485000D03*
D51*
X57100000Y-107000000D03*
D52*
X57100000Y-112000000D03*
X57100000Y-117000000D03*
X57100000Y-122000000D03*
X57100000Y-127000000D03*
X57100000Y-132000000D03*
D29*
X122999998Y-92875001D03*
X122999998Y-89924999D03*
D34*
X83400000Y-85175000D03*
D35*
X83400000Y-82635000D03*
X83400000Y-80095000D03*
D20*
X70400000Y-70925000D03*
X70400000Y-69275000D03*
D15*
X130100000Y-89450000D03*
X130100000Y-91000000D03*
D14*
X74975000Y-91285000D03*
X73325000Y-91285000D03*
D17*
X110000000Y-71900000D03*
D18*
X112500000Y-71900000D03*
D16*
X98075000Y-81900000D03*
X99725000Y-81900000D03*
D47*
X130300000Y-97075000D03*
X130300000Y-95525000D03*
D11*
X66525000Y-74400000D03*
X67175000Y-74400000D03*
X67825000Y-74400000D03*
X68475000Y-74400000D03*
D12*
X67500000Y-72445000D03*
D16*
X131350000Y-71800000D03*
X133000000Y-71800000D03*
D37*
X82900000Y-72425000D03*
X82900000Y-74175000D03*
D44*
X147870000Y-90735000D03*
D58*
X144840000Y-90435000D03*
X144840000Y-85585000D03*
D44*
X147870000Y-85285000D03*
M02*
