M48
; DRILL file {KiCad 8.0.4} date 2024-09-25T20:07:59-0700
; FORMAT={-:-/ absolute / metric / decimal}
; #@! TF.CreationDate,2024-09-25T20:07:59-07:00
; #@! TF.GenerationSoftware,Kicad,Pcbnew,8.0.4
; #@! TF.FileFunction,Plated,1,4,PTH
FMAT,2
METRIC
; #@! TA.AperFunction,Plated,PTH,ViaDrill
T1C0.300
; #@! TA.AperFunction,Plated,PTH,ViaDrill
T2C0.400
; #@! TA.AperFunction,Plated,PTH,ComponentDrill
T3C0.800
; #@! TA.AperFunction,Plated,PTH,ComponentDrill
T4C1.000
; #@! TA.AperFunction,Plated,PTH,ComponentDrill
T5C1.090
; #@! TA.AperFunction,Plated,PTH,ComponentDrill
T6C1.100
; #@! TA.AperFunction,Plated,PTH,ComponentDrill
T7C1.300
; #@! TA.AperFunction,Plated,PTH,ComponentDrill
T8C1.780
%
G90
G05
T1
X55.125Y-65.05
X56.9Y-65.4
X56.9Y-66.4
X56.9Y-67.4
X57.7Y-65.9
X57.7Y-66.9
X57.7Y-67.9
X58.5Y-65.4
X59.95Y-64.95
X63.4Y-77.2
X63.4Y-78.1
X63.4Y-79.0
X63.4Y-79.9
X65.0Y-74.2
X65.0Y-75.3
X65.9Y-75.3
X66.8Y-75.3
X66.8Y-77.2
X66.8Y-78.1
X66.8Y-79.0
X67.7Y-75.3
X70.4Y-68.4
X70.4Y-132.0
X74.475Y-129.285
X75.8Y-93.6
X75.95Y-91.285
X76.0Y-74.2
X76.0Y-75.3
X76.725Y-114.29
X76.725Y-116.855
X76.75Y-119.375
X76.75Y-121.975
X76.775Y-124.485
X76.9Y-75.3
X77.125Y-125.525
X77.5Y-97.6
X77.5Y-98.6
X77.8Y-75.3
X78.575Y-129.485
X78.7Y-75.3
X78.85Y-100.1
X78.85Y-101.2
X79.325Y-118.09
X79.325Y-123.19
X80.85Y-100.4
X81.4Y-68.4
X82.85Y-100.4
X82.975Y-110.585
X83.0Y-103.6
X83.0Y-104.6
X83.0Y-105.6
X83.0Y-106.6
X83.0Y-107.6
X83.5Y-96.15
X83.775Y-129.485
X83.975Y-110.585
X84.0Y-103.6
X84.0Y-104.6
X84.0Y-105.6
X84.0Y-106.6
X84.0Y-107.6
X84.85Y-100.4
X86.85Y-100.4
X87.0Y-74.2
X87.0Y-75.3
X87.875Y-129.285
X87.9Y-75.3
X88.8Y-75.3
X89.7Y-75.3
X90.6Y-129.3
X92.4Y-68.4
X92.825Y-114.33
X92.825Y-116.87
X92.875Y-119.39
X92.875Y-121.99
X92.9Y-124.5
X93.225Y-125.525
X93.6Y-95.0
X93.6Y-97.0
X94.7Y-129.5
X95.425Y-118.09
X95.425Y-123.19
X97.037Y-84.208
X97.05Y-81.9
X98.0Y-74.2
X98.0Y-75.3
X98.9Y-75.3
X99.1Y-107.6
X99.1Y-110.6
X99.8Y-75.3
X99.9Y-129.5
X100.1Y-107.6
X100.1Y-110.6
X100.2Y-93.7
X100.7Y-75.3
X101.1Y-107.6
X102.0Y-85.45
X102.4Y-90.05
X103.4Y-68.4
X103.675Y-92.975
X104.0Y-129.3
X104.3Y-93.8
X104.325Y-90.2
X104.82Y-95.4
X104.975Y-84.775
X104.975Y-92.975
X105.625Y-90.2
X105.65Y-81.7
X106.7Y-129.3
X106.925Y-90.2
X107.525Y-88.8
X108.125Y-88.15
X108.725Y-87.5
X108.925Y-114.29
X108.925Y-116.87
X108.975Y-119.39
X108.975Y-121.99
X109.0Y-124.5
X109.325Y-125.525
X109.4Y-91.7
X110.8Y-129.5
X111.525Y-118.09
X111.525Y-123.19
X113.7Y-88.6
X115.2Y-107.6
X115.2Y-110.6
X115.7Y-88.6
X116.0Y-129.5
X116.2Y-107.6
X116.2Y-110.6
X117.2Y-107.6
X117.52Y-75.72
X117.7Y-88.6
X119.7Y-88.6
X120.1Y-129.3
X120.675Y-87.325
X121.7Y-88.6
X121.825Y-74.275
X122.1Y-104.6
X122.1Y-105.6
X122.1Y-106.6
X122.1Y-107.6
X122.6Y-80.5
X122.625Y-86.725
X122.8Y-129.3
X123.7Y-88.6
X123.725Y-94.85
X124.7Y-104.6
X124.7Y-105.6
X124.7Y-106.6
X124.7Y-107.6
X124.95Y-75.7
X125.025Y-114.29
X125.025Y-116.87
X125.075Y-119.39
X125.075Y-121.99
X125.1Y-124.5
X125.425Y-125.525
X125.7Y-88.6
X125.7Y-92.2
X125.7Y-95.5
X126.425Y-102.75
X126.55Y-70.65
X126.7Y-95.5
X126.9Y-129.5
X127.05Y-84.4
X127.05Y-86.05
X127.25Y-100.1
X127.625Y-118.09
X127.625Y-123.19
X127.7Y-75.7
X127.7Y-95.5
X128.275Y-74.275
X129.0Y-91.0
X129.0Y-95.5
X130.2Y-80.5
X130.6Y-93.7
X130.6Y-94.5
X131.3Y-104.6
X131.3Y-105.6
X131.3Y-106.6
X131.3Y-107.6
X131.3Y-110.6
X131.85Y-85.25
X132.1Y-129.5
X132.3Y-105.6
X132.3Y-106.6
X132.3Y-107.6
X132.3Y-110.6
X132.5Y-91.0
X132.8Y-75.7
X133.0Y-70.6
X133.3Y-107.6
X133.75Y-82.8
X134.7Y-74.3
X135.25Y-80.45
X135.35Y-88.75
X136.0Y-91.0
X136.2Y-129.3
X137.85Y-75.7
X138.3Y-81.775
X138.85Y-88.75
X139.4Y-70.6
X139.5Y-91.0
X142.35Y-88.75
X142.875Y-80.575
X142.92Y-75.72
X142.92Y-94.9
T2
X53.75Y-115.5
X53.75Y-118.5
X53.75Y-121.0
X53.75Y-124.0
X53.75Y-127.0
X53.75Y-130.0
X53.75Y-133.0
X60.0Y-117.0
X60.0Y-122.5
X60.0Y-128.5
X60.0Y-131.5
X60.0Y-134.5
X61.5Y-115.5
X61.5Y-118.5
X61.5Y-121.0
X61.5Y-124.0
X61.5Y-127.0
X61.5Y-128.5
X61.5Y-130.0
X61.5Y-133.0
X63.0Y-114.0
X63.0Y-117.0
X63.0Y-122.5
X63.0Y-124.0
X63.0Y-125.5
X63.0Y-128.5
X63.0Y-131.5
X63.0Y-134.5
X64.5Y-115.5
X64.5Y-121.0
X64.5Y-122.5
X64.5Y-128.5
X64.5Y-130.0
X66.0Y-114.0
X66.0Y-122.5
X66.75Y-118.5
X67.5Y-115.5
X67.5Y-121.0
X67.5Y-122.5
X67.5Y-124.0
X67.5Y-125.5
X67.5Y-127.0
X67.5Y-128.5
X67.5Y-130.0
X69.0Y-114.0
X69.0Y-122.5
X69.0Y-124.0
X69.0Y-125.5
X69.0Y-127.0
X69.0Y-128.5
X69.0Y-130.0
X70.5Y-122.5
X70.5Y-125.5
X70.5Y-128.5
X72.0Y-127.0
X72.0Y-130.0
T3
X91.9Y-100.653
X91.9Y-104.153
X93.3Y-79.4
X93.3Y-81.9
X110.0Y-71.9
X112.5Y-71.9
X132.747Y-102.5
X136.247Y-102.5
T4
X75.05Y-108.875
X75.05Y-111.415
X75.05Y-113.955
X75.05Y-116.495
X75.05Y-119.035
X75.05Y-121.575
X75.05Y-124.115
X75.05Y-126.655
X75.2Y-80.095
X75.2Y-82.635
X75.2Y-85.175
X77.59Y-108.875
X79.3Y-80.095
X79.3Y-82.635
X79.3Y-85.175
X80.13Y-108.875
X83.4Y-80.095
X83.4Y-82.635
X83.4Y-85.175
X87.6Y-80.08
X87.6Y-82.62
X87.6Y-85.16
X87.75Y-108.875
X87.75Y-111.415
X87.75Y-113.955
X87.75Y-116.495
X87.75Y-119.035
X87.75Y-121.575
X87.75Y-124.115
X87.75Y-126.655
X91.175Y-108.89
X91.175Y-111.43
X91.175Y-113.97
X91.175Y-116.51
X91.175Y-119.05
X91.175Y-121.59
X91.175Y-124.13
X91.175Y-126.67
X93.35Y-86.7
X93.35Y-89.24
X93.35Y-91.78
X93.715Y-108.89
X96.255Y-108.89
X103.875Y-108.89
X103.875Y-111.43
X103.875Y-113.97
X103.875Y-116.51
X103.875Y-119.05
X103.875Y-121.59
X103.875Y-124.13
X103.875Y-126.67
X107.275Y-108.89
X107.275Y-111.43
X107.275Y-113.97
X107.275Y-116.51
X107.275Y-119.05
X107.275Y-121.59
X107.275Y-124.13
X107.275Y-126.67
X109.815Y-108.89
X112.355Y-108.89
X119.975Y-108.89
X119.975Y-111.43
X119.975Y-113.97
X119.975Y-116.51
X119.975Y-119.05
X119.975Y-121.59
X119.975Y-124.13
X119.975Y-126.67
X123.375Y-108.89
X123.375Y-111.43
X123.375Y-113.97
X123.375Y-116.51
X123.375Y-119.05
X123.375Y-121.59
X123.375Y-124.13
X123.375Y-126.67
X125.915Y-108.89
X128.455Y-108.89
X136.075Y-108.89
X136.075Y-111.43
X136.075Y-113.97
X136.075Y-116.51
X136.075Y-119.05
X136.075Y-121.59
X136.075Y-124.13
X136.075Y-126.67
T5
X99.45Y-101.3
X101.99Y-101.3
X104.53Y-101.3
X107.07Y-101.3
X109.61Y-101.3
X112.15Y-101.3
T6
X62.5Y-54.1
X62.5Y-59.6
X62.5Y-140.4
X62.5Y-145.9
X66.0Y-54.1
X66.0Y-59.6
X66.0Y-140.4
X66.0Y-145.9
X66.38Y-64.3
X68.9Y-64.3
X69.5Y-54.1
X69.5Y-59.6
X69.5Y-140.4
X69.5Y-145.9
X71.42Y-64.3
X73.0Y-54.1
X73.0Y-59.6
X73.0Y-140.4
X73.0Y-145.9
X76.5Y-54.1
X76.5Y-59.6
X76.5Y-140.4
X76.5Y-145.9
X77.38Y-64.3
X77.445Y-135.775
X79.9Y-64.3
X79.965Y-135.775
X80.0Y-54.1
X80.0Y-59.6
X80.0Y-140.4
X80.0Y-145.9
X82.42Y-64.3
X82.485Y-135.775
X83.5Y-54.1
X83.5Y-59.6
X83.5Y-140.4
X83.5Y-145.9
X85.005Y-135.775
X87.0Y-54.1
X87.0Y-59.6
X87.0Y-140.4
X87.0Y-145.9
X88.38Y-64.3
X90.5Y-54.1
X90.5Y-59.6
X90.5Y-140.4
X90.5Y-145.9
X90.9Y-64.3
X93.42Y-64.3
X93.52Y-135.775
X94.0Y-54.1
X94.0Y-59.6
X94.0Y-140.4
X94.0Y-145.9
X96.04Y-135.775
X97.5Y-54.1
X97.5Y-59.6
X97.5Y-140.4
X97.5Y-145.9
X98.56Y-135.775
X99.38Y-64.3
X101.0Y-54.1
X101.0Y-59.6
X101.0Y-140.4
X101.0Y-145.9
X101.08Y-135.775
X101.9Y-64.3
X104.42Y-64.3
X104.5Y-54.1
X104.5Y-59.6
X104.5Y-140.4
X104.5Y-145.9
X108.0Y-54.1
X108.0Y-59.6
X108.0Y-140.4
X108.0Y-145.9
X109.695Y-135.775
X111.5Y-54.1
X111.5Y-59.6
X111.5Y-140.4
X111.5Y-145.9
X112.215Y-135.775
X114.29Y-64.2
X114.735Y-135.775
X115.0Y-54.1
X115.0Y-59.6
X115.0Y-140.4
X115.0Y-145.9
X116.81Y-64.2
X117.255Y-135.775
X118.5Y-54.1
X118.5Y-59.6
X118.5Y-140.4
X118.5Y-145.9
X122.0Y-54.1
X122.0Y-59.6
X122.0Y-140.4
X122.0Y-145.9
X122.79Y-64.2
X125.31Y-64.2
X125.5Y-54.1
X125.5Y-59.6
X125.5Y-140.4
X125.5Y-145.9
X125.77Y-135.775
X128.29Y-135.775
X129.0Y-54.1
X129.0Y-59.6
X129.0Y-140.4
X129.0Y-145.9
X130.81Y-135.775
X131.29Y-64.2
X132.5Y-54.1
X132.5Y-59.6
X132.5Y-140.4
X132.5Y-145.9
X133.33Y-135.775
X133.81Y-64.2
X136.0Y-54.1
X136.0Y-59.6
X136.0Y-140.4
X136.0Y-145.9
X139.5Y-54.1
X139.5Y-59.6
X139.5Y-140.4
X139.5Y-145.9
X139.78Y-64.2
X141.98Y-103.6
X141.98Y-110.5
X141.98Y-117.425
X141.98Y-124.325
X142.3Y-64.2
X143.0Y-54.1
X143.0Y-59.6
X143.0Y-140.4
X143.0Y-145.9
X144.5Y-103.6
X144.5Y-110.5
X144.5Y-117.425
X144.5Y-124.325
X144.82Y-64.2
X146.5Y-54.1
X146.5Y-59.6
X146.5Y-140.4
X146.5Y-145.9
X147.02Y-103.6
X147.02Y-110.5
X147.02Y-117.425
X147.02Y-124.325
T7
X57.095Y-77.0
X57.095Y-82.0
X57.1Y-107.0
X57.1Y-112.0
X57.1Y-117.0
X57.1Y-122.0
X57.1Y-127.0
X57.1Y-132.0
T8
X57.0Y-89.41
X57.0Y-99.33
X60.4Y-89.41
X60.4Y-99.33
X65.0Y-89.41
X65.0Y-99.33
X65.0Y-107.37
X65.0Y-117.29
X68.4Y-89.41
X68.4Y-99.33
X68.4Y-107.37
X68.4Y-117.29
M30
