%TF.GenerationSoftware,KiCad,Pcbnew,8.0.4*%
%TF.CreationDate,2024-09-25T20:08:00-07:00*%
%TF.ProjectId,rpi pico printer board,72706920-7069-4636-9f20-7072696e7465,rev?*%
%TF.SameCoordinates,Original*%
%TF.FileFunction,Drillmap*%
%TF.FilePolarity,Positive*%
%FSLAX45Y45*%
G04 Gerber Fmt 4.5, Leading zero omitted, Abs format (unit mm)*
G04 Created by KiCad (PCBNEW 8.0.4) date 2024-09-25 20:08:00*
%MOMM*%
%LPD*%
G01*
G04 APERTURE LIST*
%ADD10C,0.050000*%
%ADD11C,0.200000*%
%ADD12C,0.100000*%
%ADD13C,0.109000*%
%ADD14C,0.110000*%
%ADD15C,0.130000*%
%ADD16C,0.178000*%
G04 APERTURE END LIST*
D10*
X5000000Y-5300000D02*
X5000000Y-14700000D01*
X15000000Y-14700000D02*
X15000000Y-5300000D01*
X14700000Y-5000000D02*
G75*
G02*
X15000000Y-5300000I0J-300000D01*
G01*
X15000000Y-14700000D02*
G75*
G02*
X14700000Y-15000000I-300000J0D01*
G01*
X14700000Y-5000000D02*
X5300000Y-5000000D01*
X5300000Y-15000000D02*
G75*
G02*
X5000000Y-14700000I0J300000D01*
G01*
X5300000Y-15000000D02*
X14700000Y-15000000D01*
X5000000Y-5300000D02*
G75*
G02*
X5300000Y-5000000I300000J0D01*
G01*
D11*
D12*
X5497500Y-6490000D02*
X5527500Y-6520000D01*
X5527500Y-6490000D02*
X5497500Y-6520000D01*
X5675000Y-6525000D02*
X5705000Y-6555000D01*
X5705000Y-6525000D02*
X5675000Y-6555000D01*
X5675000Y-6625000D02*
X5705000Y-6655000D01*
X5705000Y-6625000D02*
X5675000Y-6655000D01*
X5675000Y-6725000D02*
X5705000Y-6755000D01*
X5705000Y-6725000D02*
X5675000Y-6755000D01*
X5755000Y-6575000D02*
X5785000Y-6605000D01*
X5785000Y-6575000D02*
X5755000Y-6605000D01*
X5755000Y-6675000D02*
X5785000Y-6705000D01*
X5785000Y-6675000D02*
X5755000Y-6705000D01*
X5755000Y-6775000D02*
X5785000Y-6805000D01*
X5785000Y-6775000D02*
X5755000Y-6805000D01*
X5835000Y-6525000D02*
X5865000Y-6555000D01*
X5865000Y-6525000D02*
X5835000Y-6555000D01*
X5980000Y-6480000D02*
X6010000Y-6510000D01*
X6010000Y-6480000D02*
X5980000Y-6510000D01*
X6325000Y-7705000D02*
X6355000Y-7735000D01*
X6355000Y-7705000D02*
X6325000Y-7735000D01*
X6325000Y-7795000D02*
X6355000Y-7825000D01*
X6355000Y-7795000D02*
X6325000Y-7825000D01*
X6325000Y-7885000D02*
X6355000Y-7915000D01*
X6355000Y-7885000D02*
X6325000Y-7915000D01*
X6325000Y-7975000D02*
X6355000Y-8005000D01*
X6355000Y-7975000D02*
X6325000Y-8005000D01*
X6485000Y-7405000D02*
X6515000Y-7435000D01*
X6515000Y-7405000D02*
X6485000Y-7435000D01*
X6485000Y-7515000D02*
X6515000Y-7545000D01*
X6515000Y-7515000D02*
X6485000Y-7545000D01*
X6575000Y-7515000D02*
X6605000Y-7545000D01*
X6605000Y-7515000D02*
X6575000Y-7545000D01*
X6665000Y-7515000D02*
X6695000Y-7545000D01*
X6695000Y-7515000D02*
X6665000Y-7545000D01*
X6665000Y-7705000D02*
X6695000Y-7735000D01*
X6695000Y-7705000D02*
X6665000Y-7735000D01*
X6665000Y-7795000D02*
X6695000Y-7825000D01*
X6695000Y-7795000D02*
X6665000Y-7825000D01*
X6665000Y-7885000D02*
X6695000Y-7915000D01*
X6695000Y-7885000D02*
X6665000Y-7915000D01*
X6755000Y-7515000D02*
X6785000Y-7545000D01*
X6785000Y-7515000D02*
X6755000Y-7545000D01*
X7025000Y-6825000D02*
X7055000Y-6855000D01*
X7055000Y-6825000D02*
X7025000Y-6855000D01*
X7025000Y-13185000D02*
X7055000Y-13215000D01*
X7055000Y-13185000D02*
X7025000Y-13215000D01*
X7432500Y-12913500D02*
X7462500Y-12943500D01*
X7462500Y-12913500D02*
X7432500Y-12943500D01*
X7565000Y-9345000D02*
X7595000Y-9375000D01*
X7595000Y-9345000D02*
X7565000Y-9375000D01*
X7580000Y-9113500D02*
X7610000Y-9143500D01*
X7610000Y-9113500D02*
X7580000Y-9143500D01*
X7585000Y-7405000D02*
X7615000Y-7435000D01*
X7615000Y-7405000D02*
X7585000Y-7435000D01*
X7585000Y-7515000D02*
X7615000Y-7545000D01*
X7615000Y-7515000D02*
X7585000Y-7545000D01*
X7657500Y-11414000D02*
X7687500Y-11444000D01*
X7687500Y-11414000D02*
X7657500Y-11444000D01*
X7657500Y-11670500D02*
X7687500Y-11700500D01*
X7687500Y-11670500D02*
X7657500Y-11700500D01*
X7660000Y-11922500D02*
X7690000Y-11952500D01*
X7690000Y-11922500D02*
X7660000Y-11952500D01*
X7660000Y-12182500D02*
X7690000Y-12212500D01*
X7690000Y-12182500D02*
X7660000Y-12212500D01*
X7662500Y-12433500D02*
X7692500Y-12463500D01*
X7692500Y-12433500D02*
X7662500Y-12463500D01*
X7675000Y-7515000D02*
X7705000Y-7545000D01*
X7705000Y-7515000D02*
X7675000Y-7545000D01*
X7697500Y-12537500D02*
X7727500Y-12567500D01*
X7727500Y-12537500D02*
X7697500Y-12567500D01*
X7735000Y-9745000D02*
X7765000Y-9775000D01*
X7765000Y-9745000D02*
X7735000Y-9775000D01*
X7735000Y-9845000D02*
X7765000Y-9875000D01*
X7765000Y-9845000D02*
X7735000Y-9875000D01*
X7765000Y-7515000D02*
X7795000Y-7545000D01*
X7795000Y-7515000D02*
X7765000Y-7545000D01*
X7842500Y-12933500D02*
X7872500Y-12963500D01*
X7872500Y-12933500D02*
X7842500Y-12963500D01*
X7855000Y-7515000D02*
X7885000Y-7545000D01*
X7885000Y-7515000D02*
X7855000Y-7545000D01*
X7870000Y-9995000D02*
X7900000Y-10025000D01*
X7900000Y-9995000D02*
X7870000Y-10025000D01*
X7870000Y-10105000D02*
X7900000Y-10135000D01*
X7900000Y-10105000D02*
X7870000Y-10135000D01*
X7917500Y-11794000D02*
X7947500Y-11824000D01*
X7947500Y-11794000D02*
X7917500Y-11824000D01*
X7917500Y-12304000D02*
X7947500Y-12334000D01*
X7947500Y-12304000D02*
X7917500Y-12334000D01*
X8070000Y-10025000D02*
X8100000Y-10055000D01*
X8100000Y-10025000D02*
X8070000Y-10055000D01*
X8125000Y-6825000D02*
X8155000Y-6855000D01*
X8155000Y-6825000D02*
X8125000Y-6855000D01*
X8270000Y-10025000D02*
X8300000Y-10055000D01*
X8300000Y-10025000D02*
X8270000Y-10055000D01*
X8282500Y-11043500D02*
X8312500Y-11073500D01*
X8312500Y-11043500D02*
X8282500Y-11073500D01*
X8285000Y-10345000D02*
X8315000Y-10375000D01*
X8315000Y-10345000D02*
X8285000Y-10375000D01*
X8285000Y-10445000D02*
X8315000Y-10475000D01*
X8315000Y-10445000D02*
X8285000Y-10475000D01*
X8285000Y-10545000D02*
X8315000Y-10575000D01*
X8315000Y-10545000D02*
X8285000Y-10575000D01*
X8285000Y-10645000D02*
X8315000Y-10675000D01*
X8315000Y-10645000D02*
X8285000Y-10675000D01*
X8285000Y-10745000D02*
X8315000Y-10775000D01*
X8315000Y-10745000D02*
X8285000Y-10775000D01*
X8335000Y-9600000D02*
X8365000Y-9630000D01*
X8365000Y-9600000D02*
X8335000Y-9630000D01*
X8362500Y-12933500D02*
X8392500Y-12963500D01*
X8392500Y-12933500D02*
X8362500Y-12963500D01*
X8382500Y-11043500D02*
X8412500Y-11073500D01*
X8412500Y-11043500D02*
X8382500Y-11073500D01*
X8385000Y-10345000D02*
X8415000Y-10375000D01*
X8415000Y-10345000D02*
X8385000Y-10375000D01*
X8385000Y-10445000D02*
X8415000Y-10475000D01*
X8415000Y-10445000D02*
X8385000Y-10475000D01*
X8385000Y-10545000D02*
X8415000Y-10575000D01*
X8415000Y-10545000D02*
X8385000Y-10575000D01*
X8385000Y-10645000D02*
X8415000Y-10675000D01*
X8415000Y-10645000D02*
X8385000Y-10675000D01*
X8385000Y-10745000D02*
X8415000Y-10775000D01*
X8415000Y-10745000D02*
X8385000Y-10775000D01*
X8470000Y-10025000D02*
X8500000Y-10055000D01*
X8500000Y-10025000D02*
X8470000Y-10055000D01*
X8670000Y-10025000D02*
X8700000Y-10055000D01*
X8700000Y-10025000D02*
X8670000Y-10055000D01*
X8685000Y-7405000D02*
X8715000Y-7435000D01*
X8715000Y-7405000D02*
X8685000Y-7435000D01*
X8685000Y-7515000D02*
X8715000Y-7545000D01*
X8715000Y-7515000D02*
X8685000Y-7545000D01*
X8772500Y-12913500D02*
X8802500Y-12943500D01*
X8802500Y-12913500D02*
X8772500Y-12943500D01*
X8775000Y-7515000D02*
X8805000Y-7545000D01*
X8805000Y-7515000D02*
X8775000Y-7545000D01*
X8865000Y-7515000D02*
X8895000Y-7545000D01*
X8895000Y-7515000D02*
X8865000Y-7545000D01*
X8955000Y-7515000D02*
X8985000Y-7545000D01*
X8985000Y-7515000D02*
X8955000Y-7545000D01*
X9045000Y-12915000D02*
X9075000Y-12945000D01*
X9075000Y-12915000D02*
X9045000Y-12945000D01*
X9225000Y-6825000D02*
X9255000Y-6855000D01*
X9255000Y-6825000D02*
X9225000Y-6855000D01*
X9267500Y-11418000D02*
X9297500Y-11448000D01*
X9297500Y-11418000D02*
X9267500Y-11448000D01*
X9267500Y-11672000D02*
X9297500Y-11702000D01*
X9297500Y-11672000D02*
X9267500Y-11702000D01*
X9272500Y-11924000D02*
X9302500Y-11954000D01*
X9302500Y-11924000D02*
X9272500Y-11954000D01*
X9272500Y-12184000D02*
X9302500Y-12214000D01*
X9302500Y-12184000D02*
X9272500Y-12214000D01*
X9275000Y-12435000D02*
X9305000Y-12465000D01*
X9305000Y-12435000D02*
X9275000Y-12465000D01*
X9307500Y-12537500D02*
X9337500Y-12567500D01*
X9337500Y-12537500D02*
X9307500Y-12567500D01*
X9345000Y-9485000D02*
X9375000Y-9515000D01*
X9375000Y-9485000D02*
X9345000Y-9515000D01*
X9345000Y-9685000D02*
X9375000Y-9715000D01*
X9375000Y-9685000D02*
X9345000Y-9715000D01*
X9455000Y-12935000D02*
X9485000Y-12965000D01*
X9485000Y-12935000D02*
X9455000Y-12965000D01*
X9527500Y-11794000D02*
X9557500Y-11824000D01*
X9557500Y-11794000D02*
X9527500Y-11824000D01*
X9527500Y-12304000D02*
X9557500Y-12334000D01*
X9557500Y-12304000D02*
X9527500Y-12334000D01*
X9688674Y-8405798D02*
X9718674Y-8435798D01*
X9718674Y-8405798D02*
X9688674Y-8435798D01*
X9690000Y-8175000D02*
X9720000Y-8205000D01*
X9720000Y-8175000D02*
X9690000Y-8205000D01*
X9785000Y-7405000D02*
X9815000Y-7435000D01*
X9815000Y-7405000D02*
X9785000Y-7435000D01*
X9785000Y-7515000D02*
X9815000Y-7545000D01*
X9815000Y-7515000D02*
X9785000Y-7545000D01*
X9875000Y-7515000D02*
X9905000Y-7545000D01*
X9905000Y-7515000D02*
X9875000Y-7545000D01*
X9895000Y-10745000D02*
X9925000Y-10775000D01*
X9925000Y-10745000D02*
X9895000Y-10775000D01*
X9895000Y-11045000D02*
X9925000Y-11075000D01*
X9925000Y-11045000D02*
X9895000Y-11075000D01*
X9965000Y-7515000D02*
X9995000Y-7545000D01*
X9995000Y-7515000D02*
X9965000Y-7545000D01*
X9975000Y-12935000D02*
X10005000Y-12965000D01*
X10005000Y-12935000D02*
X9975000Y-12965000D01*
X9995000Y-10745000D02*
X10025000Y-10775000D01*
X10025000Y-10745000D02*
X9995000Y-10775000D01*
X9995000Y-11045000D02*
X10025000Y-11075000D01*
X10025000Y-11045000D02*
X9995000Y-11075000D01*
X10005000Y-9355000D02*
X10035000Y-9385000D01*
X10035000Y-9355000D02*
X10005000Y-9385000D01*
X10055000Y-7515000D02*
X10085000Y-7545000D01*
X10085000Y-7515000D02*
X10055000Y-7545000D01*
X10095000Y-10745000D02*
X10125000Y-10775000D01*
X10125000Y-10745000D02*
X10095000Y-10775000D01*
X10185000Y-8530000D02*
X10215000Y-8560000D01*
X10215000Y-8530000D02*
X10185000Y-8560000D01*
X10225000Y-8990000D02*
X10255000Y-9020000D01*
X10255000Y-8990000D02*
X10225000Y-9020000D01*
X10325000Y-6825000D02*
X10355000Y-6855000D01*
X10355000Y-6825000D02*
X10325000Y-6855000D01*
X10352500Y-9282500D02*
X10382500Y-9312500D01*
X10382500Y-9282500D02*
X10352500Y-9312500D01*
X10385000Y-12915000D02*
X10415000Y-12945000D01*
X10415000Y-12915000D02*
X10385000Y-12945000D01*
X10415000Y-9365000D02*
X10445000Y-9395000D01*
X10445000Y-9365000D02*
X10415000Y-9395000D01*
X10417500Y-9005000D02*
X10447500Y-9035000D01*
X10447500Y-9005000D02*
X10417500Y-9035000D01*
X10467000Y-9525000D02*
X10497000Y-9555000D01*
X10497000Y-9525000D02*
X10467000Y-9555000D01*
X10482500Y-8462500D02*
X10512500Y-8492500D01*
X10512500Y-8462500D02*
X10482500Y-8492500D01*
X10482500Y-9282500D02*
X10512500Y-9312500D01*
X10512500Y-9282500D02*
X10482500Y-9312500D01*
X10547500Y-9005000D02*
X10577500Y-9035000D01*
X10577500Y-9005000D02*
X10547500Y-9035000D01*
X10550000Y-8155000D02*
X10580000Y-8185000D01*
X10580000Y-8155000D02*
X10550000Y-8185000D01*
X10655000Y-12915000D02*
X10685000Y-12945000D01*
X10685000Y-12915000D02*
X10655000Y-12945000D01*
X10677500Y-9005000D02*
X10707500Y-9035000D01*
X10707500Y-9005000D02*
X10677500Y-9035000D01*
X10737500Y-8865000D02*
X10767500Y-8895000D01*
X10767500Y-8865000D02*
X10737500Y-8895000D01*
X10797500Y-8800000D02*
X10827500Y-8830000D01*
X10827500Y-8800000D02*
X10797500Y-8830000D01*
X10857500Y-8735000D02*
X10887500Y-8765000D01*
X10887500Y-8735000D02*
X10857500Y-8765000D01*
X10877500Y-11414000D02*
X10907500Y-11444000D01*
X10907500Y-11414000D02*
X10877500Y-11444000D01*
X10877500Y-11672000D02*
X10907500Y-11702000D01*
X10907500Y-11672000D02*
X10877500Y-11702000D01*
X10882500Y-11924000D02*
X10912500Y-11954000D01*
X10912500Y-11924000D02*
X10882500Y-11954000D01*
X10882500Y-12184000D02*
X10912500Y-12214000D01*
X10912500Y-12184000D02*
X10882500Y-12214000D01*
X10885000Y-12435000D02*
X10915000Y-12465000D01*
X10915000Y-12435000D02*
X10885000Y-12465000D01*
X10917500Y-12537500D02*
X10947500Y-12567500D01*
X10947500Y-12537500D02*
X10917500Y-12567500D01*
X10925000Y-9155000D02*
X10955000Y-9185000D01*
X10955000Y-9155000D02*
X10925000Y-9185000D01*
X11065000Y-12935000D02*
X11095000Y-12965000D01*
X11095000Y-12935000D02*
X11065000Y-12965000D01*
X11137500Y-11794000D02*
X11167500Y-11824000D01*
X11167500Y-11794000D02*
X11137500Y-11824000D01*
X11137500Y-12304000D02*
X11167500Y-12334000D01*
X11167500Y-12304000D02*
X11137500Y-12334000D01*
X11355000Y-8845000D02*
X11385000Y-8875000D01*
X11385000Y-8845000D02*
X11355000Y-8875000D01*
X11505000Y-10745000D02*
X11535000Y-10775000D01*
X11535000Y-10745000D02*
X11505000Y-10775000D01*
X11505000Y-11045000D02*
X11535000Y-11075000D01*
X11535000Y-11045000D02*
X11505000Y-11075000D01*
X11555000Y-8845000D02*
X11585000Y-8875000D01*
X11585000Y-8845000D02*
X11555000Y-8875000D01*
X11585000Y-12935000D02*
X11615000Y-12965000D01*
X11615000Y-12935000D02*
X11585000Y-12965000D01*
X11605000Y-10745000D02*
X11635000Y-10775000D01*
X11635000Y-10745000D02*
X11605000Y-10775000D01*
X11605000Y-11045000D02*
X11635000Y-11075000D01*
X11635000Y-11045000D02*
X11605000Y-11075000D01*
X11705000Y-10745000D02*
X11735000Y-10775000D01*
X11735000Y-10745000D02*
X11705000Y-10775000D01*
X11737000Y-7557000D02*
X11767000Y-7587000D01*
X11767000Y-7557000D02*
X11737000Y-7587000D01*
X11755000Y-8845000D02*
X11785000Y-8875000D01*
X11785000Y-8845000D02*
X11755000Y-8875000D01*
X11955000Y-8845000D02*
X11985000Y-8875000D01*
X11985000Y-8845000D02*
X11955000Y-8875000D01*
X11995000Y-12915000D02*
X12025000Y-12945000D01*
X12025000Y-12915000D02*
X11995000Y-12945000D01*
X12052500Y-8717500D02*
X12082500Y-8747500D01*
X12082500Y-8717500D02*
X12052500Y-8747500D01*
X12155000Y-8845000D02*
X12185000Y-8875000D01*
X12185000Y-8845000D02*
X12155000Y-8875000D01*
X12167500Y-7412500D02*
X12197500Y-7442500D01*
X12197500Y-7412500D02*
X12167500Y-7442500D01*
X12195000Y-10445000D02*
X12225000Y-10475000D01*
X12225000Y-10445000D02*
X12195000Y-10475000D01*
X12195000Y-10545000D02*
X12225000Y-10575000D01*
X12225000Y-10545000D02*
X12195000Y-10575000D01*
X12195000Y-10645000D02*
X12225000Y-10675000D01*
X12225000Y-10645000D02*
X12195000Y-10675000D01*
X12195000Y-10745000D02*
X12225000Y-10775000D01*
X12225000Y-10745000D02*
X12195000Y-10775000D01*
X12245000Y-8035000D02*
X12275000Y-8065000D01*
X12275000Y-8035000D02*
X12245000Y-8065000D01*
X12247500Y-8657500D02*
X12277500Y-8687500D01*
X12277500Y-8657500D02*
X12247500Y-8687500D01*
X12265000Y-12915000D02*
X12295000Y-12945000D01*
X12295000Y-12915000D02*
X12265000Y-12945000D01*
X12355000Y-8845000D02*
X12385000Y-8875000D01*
X12385000Y-8845000D02*
X12355000Y-8875000D01*
X12357500Y-9470000D02*
X12387500Y-9500000D01*
X12387500Y-9470000D02*
X12357500Y-9500000D01*
X12455000Y-10445000D02*
X12485000Y-10475000D01*
X12485000Y-10445000D02*
X12455000Y-10475000D01*
X12455000Y-10545000D02*
X12485000Y-10575000D01*
X12485000Y-10545000D02*
X12455000Y-10575000D01*
X12455000Y-10645000D02*
X12485000Y-10675000D01*
X12485000Y-10645000D02*
X12455000Y-10675000D01*
X12455000Y-10745000D02*
X12485000Y-10775000D01*
X12485000Y-10745000D02*
X12455000Y-10775000D01*
X12480000Y-7555000D02*
X12510000Y-7585000D01*
X12510000Y-7555000D02*
X12480000Y-7585000D01*
X12487500Y-11414000D02*
X12517500Y-11444000D01*
X12517500Y-11414000D02*
X12487500Y-11444000D01*
X12487500Y-11672000D02*
X12517500Y-11702000D01*
X12517500Y-11672000D02*
X12487500Y-11702000D01*
X12492500Y-11924000D02*
X12522500Y-11954000D01*
X12522500Y-11924000D02*
X12492500Y-11954000D01*
X12492500Y-12184000D02*
X12522500Y-12214000D01*
X12522500Y-12184000D02*
X12492500Y-12214000D01*
X12495000Y-12435000D02*
X12525000Y-12465000D01*
X12525000Y-12435000D02*
X12495000Y-12465000D01*
X12527500Y-12537500D02*
X12557500Y-12567500D01*
X12557500Y-12537500D02*
X12527500Y-12567500D01*
X12555000Y-8845000D02*
X12585000Y-8875000D01*
X12585000Y-8845000D02*
X12555000Y-8875000D01*
X12555000Y-9205000D02*
X12585000Y-9235000D01*
X12585000Y-9205000D02*
X12555000Y-9235000D01*
X12555000Y-9535000D02*
X12585000Y-9565000D01*
X12585000Y-9535000D02*
X12555000Y-9565000D01*
X12627500Y-10260000D02*
X12657500Y-10290000D01*
X12657500Y-10260000D02*
X12627500Y-10290000D01*
X12640000Y-7050000D02*
X12670000Y-7080000D01*
X12670000Y-7050000D02*
X12640000Y-7080000D01*
X12655000Y-9535000D02*
X12685000Y-9565000D01*
X12685000Y-9535000D02*
X12655000Y-9565000D01*
X12675000Y-12935000D02*
X12705000Y-12965000D01*
X12705000Y-12935000D02*
X12675000Y-12965000D01*
X12690000Y-8425000D02*
X12720000Y-8455000D01*
X12720000Y-8425000D02*
X12690000Y-8455000D01*
X12690000Y-8590000D02*
X12720000Y-8620000D01*
X12720000Y-8590000D02*
X12690000Y-8620000D01*
X12710000Y-9995000D02*
X12740000Y-10025000D01*
X12740000Y-9995000D02*
X12710000Y-10025000D01*
X12747500Y-11794000D02*
X12777500Y-11824000D01*
X12777500Y-11794000D02*
X12747500Y-11824000D01*
X12747500Y-12304000D02*
X12777500Y-12334000D01*
X12777500Y-12304000D02*
X12747500Y-12334000D01*
X12755000Y-7555000D02*
X12785000Y-7585000D01*
X12785000Y-7555000D02*
X12755000Y-7585000D01*
X12755000Y-9535000D02*
X12785000Y-9565000D01*
X12785000Y-9535000D02*
X12755000Y-9565000D01*
X12812500Y-7412500D02*
X12842500Y-7442500D01*
X12842500Y-7412500D02*
X12812500Y-7442500D01*
X12885000Y-9085000D02*
X12915000Y-9115000D01*
X12915000Y-9085000D02*
X12885000Y-9115000D01*
X12885000Y-9535000D02*
X12915000Y-9565000D01*
X12915000Y-9535000D02*
X12885000Y-9565000D01*
X13005000Y-8035000D02*
X13035000Y-8065000D01*
X13035000Y-8035000D02*
X13005000Y-8065000D01*
X13045000Y-9355000D02*
X13075000Y-9385000D01*
X13075000Y-9355000D02*
X13045000Y-9385000D01*
X13045000Y-9435000D02*
X13075000Y-9465000D01*
X13075000Y-9435000D02*
X13045000Y-9465000D01*
X13115000Y-10445000D02*
X13145000Y-10475000D01*
X13145000Y-10445000D02*
X13115000Y-10475000D01*
X13115000Y-10545000D02*
X13145000Y-10575000D01*
X13145000Y-10545000D02*
X13115000Y-10575000D01*
X13115000Y-10645000D02*
X13145000Y-10675000D01*
X13145000Y-10645000D02*
X13115000Y-10675000D01*
X13115000Y-10745000D02*
X13145000Y-10775000D01*
X13145000Y-10745000D02*
X13115000Y-10775000D01*
X13115000Y-11045000D02*
X13145000Y-11075000D01*
X13145000Y-11045000D02*
X13115000Y-11075000D01*
X13170000Y-8510000D02*
X13200000Y-8540000D01*
X13200000Y-8510000D02*
X13170000Y-8540000D01*
X13195000Y-12935000D02*
X13225000Y-12965000D01*
X13225000Y-12935000D02*
X13195000Y-12965000D01*
X13215000Y-10545000D02*
X13245000Y-10575000D01*
X13245000Y-10545000D02*
X13215000Y-10575000D01*
X13215000Y-10645000D02*
X13245000Y-10675000D01*
X13245000Y-10645000D02*
X13215000Y-10675000D01*
X13215000Y-10745000D02*
X13245000Y-10775000D01*
X13245000Y-10745000D02*
X13215000Y-10775000D01*
X13215000Y-11045000D02*
X13245000Y-11075000D01*
X13245000Y-11045000D02*
X13215000Y-11075000D01*
X13235000Y-9085000D02*
X13265000Y-9115000D01*
X13265000Y-9085000D02*
X13235000Y-9115000D01*
X13265000Y-7555000D02*
X13295000Y-7585000D01*
X13295000Y-7555000D02*
X13265000Y-7585000D01*
X13285000Y-7045000D02*
X13315000Y-7075000D01*
X13315000Y-7045000D02*
X13285000Y-7075000D01*
X13315000Y-10745000D02*
X13345000Y-10775000D01*
X13345000Y-10745000D02*
X13315000Y-10775000D01*
X13360000Y-8265000D02*
X13390000Y-8295000D01*
X13390000Y-8265000D02*
X13360000Y-8295000D01*
X13455000Y-7415000D02*
X13485000Y-7445000D01*
X13485000Y-7415000D02*
X13455000Y-7445000D01*
X13510000Y-8030000D02*
X13540000Y-8060000D01*
X13540000Y-8030000D02*
X13510000Y-8060000D01*
X13520000Y-8860000D02*
X13550000Y-8890000D01*
X13550000Y-8860000D02*
X13520000Y-8890000D01*
X13585000Y-9085000D02*
X13615000Y-9115000D01*
X13615000Y-9085000D02*
X13585000Y-9115000D01*
X13605000Y-12915000D02*
X13635000Y-12945000D01*
X13635000Y-12915000D02*
X13605000Y-12945000D01*
X13770000Y-7555000D02*
X13800000Y-7585000D01*
X13800000Y-7555000D02*
X13770000Y-7585000D01*
X13815000Y-8162500D02*
X13845000Y-8192500D01*
X13845000Y-8162500D02*
X13815000Y-8192500D01*
X13870000Y-8860000D02*
X13900000Y-8890000D01*
X13900000Y-8860000D02*
X13870000Y-8890000D01*
X13925000Y-7045000D02*
X13955000Y-7075000D01*
X13955000Y-7045000D02*
X13925000Y-7075000D01*
X13935000Y-9085000D02*
X13965000Y-9115000D01*
X13965000Y-9085000D02*
X13935000Y-9115000D01*
X14220000Y-8860000D02*
X14250000Y-8890000D01*
X14250000Y-8860000D02*
X14220000Y-8890000D01*
X14272500Y-8042500D02*
X14302500Y-8072500D01*
X14302500Y-8042500D02*
X14272500Y-8072500D01*
X14277000Y-7557000D02*
X14307000Y-7587000D01*
X14307000Y-7557000D02*
X14277000Y-7587000D01*
X14277000Y-9475000D02*
X14307000Y-9505000D01*
X14307000Y-9475000D02*
X14277000Y-9505000D01*
X5395000Y-11550000D02*
G75*
G02*
X5355000Y-11550000I-20000J0D01*
G01*
X5355000Y-11550000D02*
G75*
G02*
X5395000Y-11550000I20000J0D01*
G01*
X5395000Y-11850000D02*
G75*
G02*
X5355000Y-11850000I-20000J0D01*
G01*
X5355000Y-11850000D02*
G75*
G02*
X5395000Y-11850000I20000J0D01*
G01*
X5395000Y-12100000D02*
G75*
G02*
X5355000Y-12100000I-20000J0D01*
G01*
X5355000Y-12100000D02*
G75*
G02*
X5395000Y-12100000I20000J0D01*
G01*
X5395000Y-12400000D02*
G75*
G02*
X5355000Y-12400000I-20000J0D01*
G01*
X5355000Y-12400000D02*
G75*
G02*
X5395000Y-12400000I20000J0D01*
G01*
X5395000Y-12700000D02*
G75*
G02*
X5355000Y-12700000I-20000J0D01*
G01*
X5355000Y-12700000D02*
G75*
G02*
X5395000Y-12700000I20000J0D01*
G01*
X5395000Y-13000000D02*
G75*
G02*
X5355000Y-13000000I-20000J0D01*
G01*
X5355000Y-13000000D02*
G75*
G02*
X5395000Y-13000000I20000J0D01*
G01*
X5395000Y-13300000D02*
G75*
G02*
X5355000Y-13300000I-20000J0D01*
G01*
X5355000Y-13300000D02*
G75*
G02*
X5395000Y-13300000I20000J0D01*
G01*
X6020000Y-11700000D02*
G75*
G02*
X5980000Y-11700000I-20000J0D01*
G01*
X5980000Y-11700000D02*
G75*
G02*
X6020000Y-11700000I20000J0D01*
G01*
X6020000Y-12250000D02*
G75*
G02*
X5980000Y-12250000I-20000J0D01*
G01*
X5980000Y-12250000D02*
G75*
G02*
X6020000Y-12250000I20000J0D01*
G01*
X6020000Y-12850000D02*
G75*
G02*
X5980000Y-12850000I-20000J0D01*
G01*
X5980000Y-12850000D02*
G75*
G02*
X6020000Y-12850000I20000J0D01*
G01*
X6020000Y-13150000D02*
G75*
G02*
X5980000Y-13150000I-20000J0D01*
G01*
X5980000Y-13150000D02*
G75*
G02*
X6020000Y-13150000I20000J0D01*
G01*
X6020000Y-13450000D02*
G75*
G02*
X5980000Y-13450000I-20000J0D01*
G01*
X5980000Y-13450000D02*
G75*
G02*
X6020000Y-13450000I20000J0D01*
G01*
X6170000Y-11550000D02*
G75*
G02*
X6130000Y-11550000I-20000J0D01*
G01*
X6130000Y-11550000D02*
G75*
G02*
X6170000Y-11550000I20000J0D01*
G01*
X6170000Y-11850000D02*
G75*
G02*
X6130000Y-11850000I-20000J0D01*
G01*
X6130000Y-11850000D02*
G75*
G02*
X6170000Y-11850000I20000J0D01*
G01*
X6170000Y-12100000D02*
G75*
G02*
X6130000Y-12100000I-20000J0D01*
G01*
X6130000Y-12100000D02*
G75*
G02*
X6170000Y-12100000I20000J0D01*
G01*
X6170000Y-12400000D02*
G75*
G02*
X6130000Y-12400000I-20000J0D01*
G01*
X6130000Y-12400000D02*
G75*
G02*
X6170000Y-12400000I20000J0D01*
G01*
X6170000Y-12700000D02*
G75*
G02*
X6130000Y-12700000I-20000J0D01*
G01*
X6130000Y-12700000D02*
G75*
G02*
X6170000Y-12700000I20000J0D01*
G01*
X6170000Y-12850000D02*
G75*
G02*
X6130000Y-12850000I-20000J0D01*
G01*
X6130000Y-12850000D02*
G75*
G02*
X6170000Y-12850000I20000J0D01*
G01*
X6170000Y-13000000D02*
G75*
G02*
X6130000Y-13000000I-20000J0D01*
G01*
X6130000Y-13000000D02*
G75*
G02*
X6170000Y-13000000I20000J0D01*
G01*
X6170000Y-13300000D02*
G75*
G02*
X6130000Y-13300000I-20000J0D01*
G01*
X6130000Y-13300000D02*
G75*
G02*
X6170000Y-13300000I20000J0D01*
G01*
X6320000Y-11400000D02*
G75*
G02*
X6280000Y-11400000I-20000J0D01*
G01*
X6280000Y-11400000D02*
G75*
G02*
X6320000Y-11400000I20000J0D01*
G01*
X6320000Y-11700000D02*
G75*
G02*
X6280000Y-11700000I-20000J0D01*
G01*
X6280000Y-11700000D02*
G75*
G02*
X6320000Y-11700000I20000J0D01*
G01*
X6320000Y-12250000D02*
G75*
G02*
X6280000Y-12250000I-20000J0D01*
G01*
X6280000Y-12250000D02*
G75*
G02*
X6320000Y-12250000I20000J0D01*
G01*
X6320000Y-12400000D02*
G75*
G02*
X6280000Y-12400000I-20000J0D01*
G01*
X6280000Y-12400000D02*
G75*
G02*
X6320000Y-12400000I20000J0D01*
G01*
X6320000Y-12550000D02*
G75*
G02*
X6280000Y-12550000I-20000J0D01*
G01*
X6280000Y-12550000D02*
G75*
G02*
X6320000Y-12550000I20000J0D01*
G01*
X6320000Y-12850000D02*
G75*
G02*
X6280000Y-12850000I-20000J0D01*
G01*
X6280000Y-12850000D02*
G75*
G02*
X6320000Y-12850000I20000J0D01*
G01*
X6320000Y-13150000D02*
G75*
G02*
X6280000Y-13150000I-20000J0D01*
G01*
X6280000Y-13150000D02*
G75*
G02*
X6320000Y-13150000I20000J0D01*
G01*
X6320000Y-13450000D02*
G75*
G02*
X6280000Y-13450000I-20000J0D01*
G01*
X6280000Y-13450000D02*
G75*
G02*
X6320000Y-13450000I20000J0D01*
G01*
X6470000Y-11550000D02*
G75*
G02*
X6430000Y-11550000I-20000J0D01*
G01*
X6430000Y-11550000D02*
G75*
G02*
X6470000Y-11550000I20000J0D01*
G01*
X6470000Y-12100000D02*
G75*
G02*
X6430000Y-12100000I-20000J0D01*
G01*
X6430000Y-12100000D02*
G75*
G02*
X6470000Y-12100000I20000J0D01*
G01*
X6470000Y-12250000D02*
G75*
G02*
X6430000Y-12250000I-20000J0D01*
G01*
X6430000Y-12250000D02*
G75*
G02*
X6470000Y-12250000I20000J0D01*
G01*
X6470000Y-12850000D02*
G75*
G02*
X6430000Y-12850000I-20000J0D01*
G01*
X6430000Y-12850000D02*
G75*
G02*
X6470000Y-12850000I20000J0D01*
G01*
X6470000Y-13000000D02*
G75*
G02*
X6430000Y-13000000I-20000J0D01*
G01*
X6430000Y-13000000D02*
G75*
G02*
X6470000Y-13000000I20000J0D01*
G01*
X6620000Y-11400000D02*
G75*
G02*
X6580000Y-11400000I-20000J0D01*
G01*
X6580000Y-11400000D02*
G75*
G02*
X6620000Y-11400000I20000J0D01*
G01*
X6620000Y-12250000D02*
G75*
G02*
X6580000Y-12250000I-20000J0D01*
G01*
X6580000Y-12250000D02*
G75*
G02*
X6620000Y-12250000I20000J0D01*
G01*
X6695000Y-11850000D02*
G75*
G02*
X6655000Y-11850000I-20000J0D01*
G01*
X6655000Y-11850000D02*
G75*
G02*
X6695000Y-11850000I20000J0D01*
G01*
X6770000Y-11550000D02*
G75*
G02*
X6730000Y-11550000I-20000J0D01*
G01*
X6730000Y-11550000D02*
G75*
G02*
X6770000Y-11550000I20000J0D01*
G01*
X6770000Y-12100000D02*
G75*
G02*
X6730000Y-12100000I-20000J0D01*
G01*
X6730000Y-12100000D02*
G75*
G02*
X6770000Y-12100000I20000J0D01*
G01*
X6770000Y-12250000D02*
G75*
G02*
X6730000Y-12250000I-20000J0D01*
G01*
X6730000Y-12250000D02*
G75*
G02*
X6770000Y-12250000I20000J0D01*
G01*
X6770000Y-12400000D02*
G75*
G02*
X6730000Y-12400000I-20000J0D01*
G01*
X6730000Y-12400000D02*
G75*
G02*
X6770000Y-12400000I20000J0D01*
G01*
X6770000Y-12550000D02*
G75*
G02*
X6730000Y-12550000I-20000J0D01*
G01*
X6730000Y-12550000D02*
G75*
G02*
X6770000Y-12550000I20000J0D01*
G01*
X6770000Y-12700000D02*
G75*
G02*
X6730000Y-12700000I-20000J0D01*
G01*
X6730000Y-12700000D02*
G75*
G02*
X6770000Y-12700000I20000J0D01*
G01*
X6770000Y-12850000D02*
G75*
G02*
X6730000Y-12850000I-20000J0D01*
G01*
X6730000Y-12850000D02*
G75*
G02*
X6770000Y-12850000I20000J0D01*
G01*
X6770000Y-13000000D02*
G75*
G02*
X6730000Y-13000000I-20000J0D01*
G01*
X6730000Y-13000000D02*
G75*
G02*
X6770000Y-13000000I20000J0D01*
G01*
X6920000Y-11400000D02*
G75*
G02*
X6880000Y-11400000I-20000J0D01*
G01*
X6880000Y-11400000D02*
G75*
G02*
X6920000Y-11400000I20000J0D01*
G01*
X6920000Y-12250000D02*
G75*
G02*
X6880000Y-12250000I-20000J0D01*
G01*
X6880000Y-12250000D02*
G75*
G02*
X6920000Y-12250000I20000J0D01*
G01*
X6920000Y-12400000D02*
G75*
G02*
X6880000Y-12400000I-20000J0D01*
G01*
X6880000Y-12400000D02*
G75*
G02*
X6920000Y-12400000I20000J0D01*
G01*
X6920000Y-12550000D02*
G75*
G02*
X6880000Y-12550000I-20000J0D01*
G01*
X6880000Y-12550000D02*
G75*
G02*
X6920000Y-12550000I20000J0D01*
G01*
X6920000Y-12700000D02*
G75*
G02*
X6880000Y-12700000I-20000J0D01*
G01*
X6880000Y-12700000D02*
G75*
G02*
X6920000Y-12700000I20000J0D01*
G01*
X6920000Y-12850000D02*
G75*
G02*
X6880000Y-12850000I-20000J0D01*
G01*
X6880000Y-12850000D02*
G75*
G02*
X6920000Y-12850000I20000J0D01*
G01*
X6920000Y-13000000D02*
G75*
G02*
X6880000Y-13000000I-20000J0D01*
G01*
X6880000Y-13000000D02*
G75*
G02*
X6920000Y-13000000I20000J0D01*
G01*
X7070000Y-12250000D02*
G75*
G02*
X7030000Y-12250000I-20000J0D01*
G01*
X7030000Y-12250000D02*
G75*
G02*
X7070000Y-12250000I20000J0D01*
G01*
X7070000Y-12550000D02*
G75*
G02*
X7030000Y-12550000I-20000J0D01*
G01*
X7030000Y-12550000D02*
G75*
G02*
X7070000Y-12550000I20000J0D01*
G01*
X7070000Y-12850000D02*
G75*
G02*
X7030000Y-12850000I-20000J0D01*
G01*
X7030000Y-12850000D02*
G75*
G02*
X7070000Y-12850000I20000J0D01*
G01*
X7220000Y-12700000D02*
G75*
G02*
X7180000Y-12700000I-20000J0D01*
G01*
X7180000Y-12700000D02*
G75*
G02*
X7220000Y-12700000I20000J0D01*
G01*
X7220000Y-13000000D02*
G75*
G02*
X7180000Y-13000000I-20000J0D01*
G01*
X7180000Y-13000000D02*
G75*
G02*
X7220000Y-13000000I20000J0D01*
G01*
X9190000Y-10025265D02*
X9190000Y-10105265D01*
X9150000Y-10065265D02*
X9230000Y-10065265D01*
X9190000Y-10375265D02*
X9190000Y-10455265D01*
X9150000Y-10415265D02*
X9230000Y-10415265D01*
X9330000Y-7900000D02*
X9330000Y-7980000D01*
X9290000Y-7940000D02*
X9370000Y-7940000D01*
X9330000Y-8150000D02*
X9330000Y-8230000D01*
X9290000Y-8190000D02*
X9370000Y-8190000D01*
X11000000Y-7150000D02*
X11000000Y-7230000D01*
X10960000Y-7190000D02*
X11040000Y-7190000D01*
X11250000Y-7150000D02*
X11250000Y-7230000D01*
X11210000Y-7190000D02*
X11290000Y-7190000D01*
X13274735Y-10210000D02*
X13274735Y-10290000D01*
X13234735Y-10250000D02*
X13314735Y-10250000D01*
X13624735Y-10210000D02*
X13624735Y-10290000D01*
X13584735Y-10250000D02*
X13664735Y-10250000D01*
X7540356Y-10922856D02*
X7540356Y-10852144D01*
X7469644Y-10852144D01*
X7469644Y-10922856D01*
X7540356Y-10922856D01*
X7540356Y-11176856D02*
X7540356Y-11106144D01*
X7469644Y-11106144D01*
X7469644Y-11176856D01*
X7540356Y-11176856D01*
X7540356Y-11430856D02*
X7540356Y-11360144D01*
X7469644Y-11360144D01*
X7469644Y-11430856D01*
X7540356Y-11430856D01*
X7540356Y-11684856D02*
X7540356Y-11614144D01*
X7469644Y-11614144D01*
X7469644Y-11684856D01*
X7540356Y-11684856D01*
X7540356Y-11938856D02*
X7540356Y-11868144D01*
X7469644Y-11868144D01*
X7469644Y-11938856D01*
X7540356Y-11938856D01*
X7540356Y-12192856D02*
X7540356Y-12122144D01*
X7469644Y-12122144D01*
X7469644Y-12192856D01*
X7540356Y-12192856D01*
X7540356Y-12446856D02*
X7540356Y-12376144D01*
X7469644Y-12376144D01*
X7469644Y-12446856D01*
X7540356Y-12446856D01*
X7540356Y-12700856D02*
X7540356Y-12630144D01*
X7469644Y-12630144D01*
X7469644Y-12700856D01*
X7540356Y-12700856D01*
X7555356Y-8044856D02*
X7555356Y-7974144D01*
X7484644Y-7974144D01*
X7484644Y-8044856D01*
X7555356Y-8044856D01*
X7555356Y-8298856D02*
X7555356Y-8228144D01*
X7484644Y-8228144D01*
X7484644Y-8298856D01*
X7555356Y-8298856D01*
X7555356Y-8552856D02*
X7555356Y-8482144D01*
X7484644Y-8482144D01*
X7484644Y-8552856D01*
X7555356Y-8552856D01*
X7794356Y-10922856D02*
X7794356Y-10852144D01*
X7723644Y-10852144D01*
X7723644Y-10922856D01*
X7794356Y-10922856D01*
X7965356Y-8044856D02*
X7965356Y-7974144D01*
X7894644Y-7974144D01*
X7894644Y-8044856D01*
X7965356Y-8044856D01*
X7965356Y-8298856D02*
X7965356Y-8228144D01*
X7894644Y-8228144D01*
X7894644Y-8298856D01*
X7965356Y-8298856D01*
X7965356Y-8552856D02*
X7965356Y-8482144D01*
X7894644Y-8482144D01*
X7894644Y-8552856D01*
X7965356Y-8552856D01*
X8048356Y-10922856D02*
X8048356Y-10852144D01*
X7977644Y-10852144D01*
X7977644Y-10922856D01*
X8048356Y-10922856D01*
X8375356Y-8044856D02*
X8375356Y-7974144D01*
X8304644Y-7974144D01*
X8304644Y-8044856D01*
X8375356Y-8044856D01*
X8375356Y-8298856D02*
X8375356Y-8228144D01*
X8304644Y-8228144D01*
X8304644Y-8298856D01*
X8375356Y-8298856D01*
X8375356Y-8552856D02*
X8375356Y-8482144D01*
X8304644Y-8482144D01*
X8304644Y-8552856D01*
X8375356Y-8552856D01*
X8795356Y-8043356D02*
X8795356Y-7972644D01*
X8724644Y-7972644D01*
X8724644Y-8043356D01*
X8795356Y-8043356D01*
X8795356Y-8297356D02*
X8795356Y-8226644D01*
X8724644Y-8226644D01*
X8724644Y-8297356D01*
X8795356Y-8297356D01*
X8795356Y-8551356D02*
X8795356Y-8480644D01*
X8724644Y-8480644D01*
X8724644Y-8551356D01*
X8795356Y-8551356D01*
X8810356Y-10922856D02*
X8810356Y-10852144D01*
X8739644Y-10852144D01*
X8739644Y-10922856D01*
X8810356Y-10922856D01*
X8810356Y-11176856D02*
X8810356Y-11106144D01*
X8739644Y-11106144D01*
X8739644Y-11176856D01*
X8810356Y-11176856D01*
X8810356Y-11430856D02*
X8810356Y-11360144D01*
X8739644Y-11360144D01*
X8739644Y-11430856D01*
X8810356Y-11430856D01*
X8810356Y-11684856D02*
X8810356Y-11614144D01*
X8739644Y-11614144D01*
X8739644Y-11684856D01*
X8810356Y-11684856D01*
X8810356Y-11938856D02*
X8810356Y-11868144D01*
X8739644Y-11868144D01*
X8739644Y-11938856D01*
X8810356Y-11938856D01*
X8810356Y-12192856D02*
X8810356Y-12122144D01*
X8739644Y-12122144D01*
X8739644Y-12192856D01*
X8810356Y-12192856D01*
X8810356Y-12446856D02*
X8810356Y-12376144D01*
X8739644Y-12376144D01*
X8739644Y-12446856D01*
X8810356Y-12446856D01*
X8810356Y-12700856D02*
X8810356Y-12630144D01*
X8739644Y-12630144D01*
X8739644Y-12700856D01*
X8810356Y-12700856D01*
X9152856Y-10924356D02*
X9152856Y-10853644D01*
X9082144Y-10853644D01*
X9082144Y-10924356D01*
X9152856Y-10924356D01*
X9152856Y-11178356D02*
X9152856Y-11107644D01*
X9082144Y-11107644D01*
X9082144Y-11178356D01*
X9152856Y-11178356D01*
X9152856Y-11432356D02*
X9152856Y-11361644D01*
X9082144Y-11361644D01*
X9082144Y-11432356D01*
X9152856Y-11432356D01*
X9152856Y-11686356D02*
X9152856Y-11615644D01*
X9082144Y-11615644D01*
X9082144Y-11686356D01*
X9152856Y-11686356D01*
X9152856Y-11940356D02*
X9152856Y-11869644D01*
X9082144Y-11869644D01*
X9082144Y-11940356D01*
X9152856Y-11940356D01*
X9152856Y-12194356D02*
X9152856Y-12123644D01*
X9082144Y-12123644D01*
X9082144Y-12194356D01*
X9152856Y-12194356D01*
X9152856Y-12448356D02*
X9152856Y-12377644D01*
X9082144Y-12377644D01*
X9082144Y-12448356D01*
X9152856Y-12448356D01*
X9152856Y-12702356D02*
X9152856Y-12631644D01*
X9082144Y-12631644D01*
X9082144Y-12702356D01*
X9152856Y-12702356D01*
X9370356Y-8705356D02*
X9370356Y-8634644D01*
X9299644Y-8634644D01*
X9299644Y-8705356D01*
X9370356Y-8705356D01*
X9370356Y-8959356D02*
X9370356Y-8888644D01*
X9299644Y-8888644D01*
X9299644Y-8959356D01*
X9370356Y-8959356D01*
X9370356Y-9213356D02*
X9370356Y-9142644D01*
X9299644Y-9142644D01*
X9299644Y-9213356D01*
X9370356Y-9213356D01*
X9406856Y-10924356D02*
X9406856Y-10853644D01*
X9336144Y-10853644D01*
X9336144Y-10924356D01*
X9406856Y-10924356D01*
X9660856Y-10924356D02*
X9660856Y-10853644D01*
X9590144Y-10853644D01*
X9590144Y-10924356D01*
X9660856Y-10924356D01*
X10422856Y-10924356D02*
X10422856Y-10853644D01*
X10352144Y-10853644D01*
X10352144Y-10924356D01*
X10422856Y-10924356D01*
X10422856Y-11178356D02*
X10422856Y-11107644D01*
X10352144Y-11107644D01*
X10352144Y-11178356D01*
X10422856Y-11178356D01*
X10422856Y-11432356D02*
X10422856Y-11361644D01*
X10352144Y-11361644D01*
X10352144Y-11432356D01*
X10422856Y-11432356D01*
X10422856Y-11686356D02*
X10422856Y-11615644D01*
X10352144Y-11615644D01*
X10352144Y-11686356D01*
X10422856Y-11686356D01*
X10422856Y-11940356D02*
X10422856Y-11869644D01*
X10352144Y-11869644D01*
X10352144Y-11940356D01*
X10422856Y-11940356D01*
X10422856Y-12194356D02*
X10422856Y-12123644D01*
X10352144Y-12123644D01*
X10352144Y-12194356D01*
X10422856Y-12194356D01*
X10422856Y-12448356D02*
X10422856Y-12377644D01*
X10352144Y-12377644D01*
X10352144Y-12448356D01*
X10422856Y-12448356D01*
X10422856Y-12702356D02*
X10422856Y-12631644D01*
X10352144Y-12631644D01*
X10352144Y-12702356D01*
X10422856Y-12702356D01*
X10762856Y-10924356D02*
X10762856Y-10853644D01*
X10692144Y-10853644D01*
X10692144Y-10924356D01*
X10762856Y-10924356D01*
X10762856Y-11178356D02*
X10762856Y-11107644D01*
X10692144Y-11107644D01*
X10692144Y-11178356D01*
X10762856Y-11178356D01*
X10762856Y-11432356D02*
X10762856Y-11361644D01*
X10692144Y-11361644D01*
X10692144Y-11432356D01*
X10762856Y-11432356D01*
X10762856Y-11686356D02*
X10762856Y-11615644D01*
X10692144Y-11615644D01*
X10692144Y-11686356D01*
X10762856Y-11686356D01*
X10762856Y-11940356D02*
X10762856Y-11869644D01*
X10692144Y-11869644D01*
X10692144Y-11940356D01*
X10762856Y-11940356D01*
X10762856Y-12194356D02*
X10762856Y-12123644D01*
X10692144Y-12123644D01*
X10692144Y-12194356D01*
X10762856Y-12194356D01*
X10762856Y-12448356D02*
X10762856Y-12377644D01*
X10692144Y-12377644D01*
X10692144Y-12448356D01*
X10762856Y-12448356D01*
X10762856Y-12702356D02*
X10762856Y-12631644D01*
X10692144Y-12631644D01*
X10692144Y-12702356D01*
X10762856Y-12702356D01*
X11016856Y-10924356D02*
X11016856Y-10853644D01*
X10946144Y-10853644D01*
X10946144Y-10924356D01*
X11016856Y-10924356D01*
X11270856Y-10924356D02*
X11270856Y-10853644D01*
X11200144Y-10853644D01*
X11200144Y-10924356D01*
X11270856Y-10924356D01*
X12032856Y-10924356D02*
X12032856Y-10853644D01*
X11962144Y-10853644D01*
X11962144Y-10924356D01*
X12032856Y-10924356D01*
X12032856Y-11178356D02*
X12032856Y-11107644D01*
X11962144Y-11107644D01*
X11962144Y-11178356D01*
X12032856Y-11178356D01*
X12032856Y-11432356D02*
X12032856Y-11361644D01*
X11962144Y-11361644D01*
X11962144Y-11432356D01*
X12032856Y-11432356D01*
X12032856Y-11686356D02*
X12032856Y-11615644D01*
X11962144Y-11615644D01*
X11962144Y-11686356D01*
X12032856Y-11686356D01*
X12032856Y-11940356D02*
X12032856Y-11869644D01*
X11962144Y-11869644D01*
X11962144Y-11940356D01*
X12032856Y-11940356D01*
X12032856Y-12194356D02*
X12032856Y-12123644D01*
X11962144Y-12123644D01*
X11962144Y-12194356D01*
X12032856Y-12194356D01*
X12032856Y-12448356D02*
X12032856Y-12377644D01*
X11962144Y-12377644D01*
X11962144Y-12448356D01*
X12032856Y-12448356D01*
X12032856Y-12702356D02*
X12032856Y-12631644D01*
X11962144Y-12631644D01*
X11962144Y-12702356D01*
X12032856Y-12702356D01*
X12372856Y-10924356D02*
X12372856Y-10853644D01*
X12302144Y-10853644D01*
X12302144Y-10924356D01*
X12372856Y-10924356D01*
X12372856Y-11178356D02*
X12372856Y-11107644D01*
X12302144Y-11107644D01*
X12302144Y-11178356D01*
X12372856Y-11178356D01*
X12372856Y-11432356D02*
X12372856Y-11361644D01*
X12302144Y-11361644D01*
X12302144Y-11432356D01*
X12372856Y-11432356D01*
X12372856Y-11686356D02*
X12372856Y-11615644D01*
X12302144Y-11615644D01*
X12302144Y-11686356D01*
X12372856Y-11686356D01*
X12372856Y-11940356D02*
X12372856Y-11869644D01*
X12302144Y-11869644D01*
X12302144Y-11940356D01*
X12372856Y-11940356D01*
X12372856Y-12194356D02*
X12372856Y-12123644D01*
X12302144Y-12123644D01*
X12302144Y-12194356D01*
X12372856Y-12194356D01*
X12372856Y-12448356D02*
X12372856Y-12377644D01*
X12302144Y-12377644D01*
X12302144Y-12448356D01*
X12372856Y-12448356D01*
X12372856Y-12702356D02*
X12372856Y-12631644D01*
X12302144Y-12631644D01*
X12302144Y-12702356D01*
X12372856Y-12702356D01*
X12626856Y-10924356D02*
X12626856Y-10853644D01*
X12556144Y-10853644D01*
X12556144Y-10924356D01*
X12626856Y-10924356D01*
X12880856Y-10924356D02*
X12880856Y-10853644D01*
X12810144Y-10853644D01*
X12810144Y-10924356D01*
X12880856Y-10924356D01*
X13642856Y-10924356D02*
X13642856Y-10853644D01*
X13572144Y-10853644D01*
X13572144Y-10924356D01*
X13642856Y-10924356D01*
X13642856Y-11178356D02*
X13642856Y-11107644D01*
X13572144Y-11107644D01*
X13572144Y-11178356D01*
X13642856Y-11178356D01*
X13642856Y-11432356D02*
X13642856Y-11361644D01*
X13572144Y-11361644D01*
X13572144Y-11432356D01*
X13642856Y-11432356D01*
X13642856Y-11686356D02*
X13642856Y-11615644D01*
X13572144Y-11615644D01*
X13572144Y-11686356D01*
X13642856Y-11686356D01*
X13642856Y-11940356D02*
X13642856Y-11869644D01*
X13572144Y-11869644D01*
X13572144Y-11940356D01*
X13642856Y-11940356D01*
X13642856Y-12194356D02*
X13642856Y-12123644D01*
X13572144Y-12123644D01*
X13572144Y-12194356D01*
X13642856Y-12194356D01*
X13642856Y-12448356D02*
X13642856Y-12377644D01*
X13572144Y-12377644D01*
X13572144Y-12448356D01*
X13642856Y-12448356D01*
X13642856Y-12702356D02*
X13642856Y-12631644D01*
X13572144Y-12631644D01*
X13572144Y-12702356D01*
X13642856Y-12702356D01*
D13*
X9945000Y-10184500D02*
X9999500Y-10130000D01*
X9945000Y-10075500D01*
X9890500Y-10130000D01*
X9945000Y-10184500D01*
X10199000Y-10184500D02*
X10253500Y-10130000D01*
X10199000Y-10075500D01*
X10144500Y-10130000D01*
X10199000Y-10184500D01*
X10453000Y-10184500D02*
X10507500Y-10130000D01*
X10453000Y-10075500D01*
X10398500Y-10130000D01*
X10453000Y-10184500D01*
X10707000Y-10184500D02*
X10761500Y-10130000D01*
X10707000Y-10075500D01*
X10652500Y-10130000D01*
X10707000Y-10184500D01*
X10961000Y-10184500D02*
X11015500Y-10130000D01*
X10961000Y-10075500D01*
X10906500Y-10130000D01*
X10961000Y-10184500D01*
X11215000Y-10184500D02*
X11269500Y-10130000D01*
X11215000Y-10075500D01*
X11160500Y-10130000D01*
X11215000Y-10184500D01*
D14*
X6195000Y-5355000D02*
X6305000Y-5465000D01*
X6305000Y-5355000D02*
X6195000Y-5465000D01*
X6305000Y-5410000D02*
G75*
G02*
X6195000Y-5410000I-55000J0D01*
G01*
X6195000Y-5410000D02*
G75*
G02*
X6305000Y-5410000I55000J0D01*
G01*
X6195000Y-5905000D02*
X6305000Y-6015000D01*
X6305000Y-5905000D02*
X6195000Y-6015000D01*
X6305000Y-5960000D02*
G75*
G02*
X6195000Y-5960000I-55000J0D01*
G01*
X6195000Y-5960000D02*
G75*
G02*
X6305000Y-5960000I55000J0D01*
G01*
X6195000Y-13985000D02*
X6305000Y-14095000D01*
X6305000Y-13985000D02*
X6195000Y-14095000D01*
X6305000Y-14040000D02*
G75*
G02*
X6195000Y-14040000I-55000J0D01*
G01*
X6195000Y-14040000D02*
G75*
G02*
X6305000Y-14040000I55000J0D01*
G01*
X6195000Y-14535000D02*
X6305000Y-14645000D01*
X6305000Y-14535000D02*
X6195000Y-14645000D01*
X6305000Y-14590000D02*
G75*
G02*
X6195000Y-14590000I-55000J0D01*
G01*
X6195000Y-14590000D02*
G75*
G02*
X6305000Y-14590000I55000J0D01*
G01*
X6545000Y-5355000D02*
X6655000Y-5465000D01*
X6655000Y-5355000D02*
X6545000Y-5465000D01*
X6655000Y-5410000D02*
G75*
G02*
X6545000Y-5410000I-55000J0D01*
G01*
X6545000Y-5410000D02*
G75*
G02*
X6655000Y-5410000I55000J0D01*
G01*
X6545000Y-5905000D02*
X6655000Y-6015000D01*
X6655000Y-5905000D02*
X6545000Y-6015000D01*
X6655000Y-5960000D02*
G75*
G02*
X6545000Y-5960000I-55000J0D01*
G01*
X6545000Y-5960000D02*
G75*
G02*
X6655000Y-5960000I55000J0D01*
G01*
X6545000Y-13985000D02*
X6655000Y-14095000D01*
X6655000Y-13985000D02*
X6545000Y-14095000D01*
X6655000Y-14040000D02*
G75*
G02*
X6545000Y-14040000I-55000J0D01*
G01*
X6545000Y-14040000D02*
G75*
G02*
X6655000Y-14040000I55000J0D01*
G01*
X6545000Y-14535000D02*
X6655000Y-14645000D01*
X6655000Y-14535000D02*
X6545000Y-14645000D01*
X6655000Y-14590000D02*
G75*
G02*
X6545000Y-14590000I-55000J0D01*
G01*
X6545000Y-14590000D02*
G75*
G02*
X6655000Y-14590000I55000J0D01*
G01*
X6583000Y-6375000D02*
X6693000Y-6485000D01*
X6693000Y-6375000D02*
X6583000Y-6485000D01*
X6693000Y-6430000D02*
G75*
G02*
X6583000Y-6430000I-55000J0D01*
G01*
X6583000Y-6430000D02*
G75*
G02*
X6693000Y-6430000I55000J0D01*
G01*
X6835000Y-6375000D02*
X6945000Y-6485000D01*
X6945000Y-6375000D02*
X6835000Y-6485000D01*
X6945000Y-6430000D02*
G75*
G02*
X6835000Y-6430000I-55000J0D01*
G01*
X6835000Y-6430000D02*
G75*
G02*
X6945000Y-6430000I55000J0D01*
G01*
X6895000Y-5355000D02*
X7005000Y-5465000D01*
X7005000Y-5355000D02*
X6895000Y-5465000D01*
X7005000Y-5410000D02*
G75*
G02*
X6895000Y-5410000I-55000J0D01*
G01*
X6895000Y-5410000D02*
G75*
G02*
X7005000Y-5410000I55000J0D01*
G01*
X6895000Y-5905000D02*
X7005000Y-6015000D01*
X7005000Y-5905000D02*
X6895000Y-6015000D01*
X7005000Y-5960000D02*
G75*
G02*
X6895000Y-5960000I-55000J0D01*
G01*
X6895000Y-5960000D02*
G75*
G02*
X7005000Y-5960000I55000J0D01*
G01*
X6895000Y-13985000D02*
X7005000Y-14095000D01*
X7005000Y-13985000D02*
X6895000Y-14095000D01*
X7005000Y-14040000D02*
G75*
G02*
X6895000Y-14040000I-55000J0D01*
G01*
X6895000Y-14040000D02*
G75*
G02*
X7005000Y-14040000I55000J0D01*
G01*
X6895000Y-14535000D02*
X7005000Y-14645000D01*
X7005000Y-14535000D02*
X6895000Y-14645000D01*
X7005000Y-14590000D02*
G75*
G02*
X6895000Y-14590000I-55000J0D01*
G01*
X6895000Y-14590000D02*
G75*
G02*
X7005000Y-14590000I55000J0D01*
G01*
X7087000Y-6375000D02*
X7197000Y-6485000D01*
X7197000Y-6375000D02*
X7087000Y-6485000D01*
X7197000Y-6430000D02*
G75*
G02*
X7087000Y-6430000I-55000J0D01*
G01*
X7087000Y-6430000D02*
G75*
G02*
X7197000Y-6430000I55000J0D01*
G01*
X7245000Y-5355000D02*
X7355000Y-5465000D01*
X7355000Y-5355000D02*
X7245000Y-5465000D01*
X7355000Y-5410000D02*
G75*
G02*
X7245000Y-5410000I-55000J0D01*
G01*
X7245000Y-5410000D02*
G75*
G02*
X7355000Y-5410000I55000J0D01*
G01*
X7245000Y-5905000D02*
X7355000Y-6015000D01*
X7355000Y-5905000D02*
X7245000Y-6015000D01*
X7355000Y-5960000D02*
G75*
G02*
X7245000Y-5960000I-55000J0D01*
G01*
X7245000Y-5960000D02*
G75*
G02*
X7355000Y-5960000I55000J0D01*
G01*
X7245000Y-13985000D02*
X7355000Y-14095000D01*
X7355000Y-13985000D02*
X7245000Y-14095000D01*
X7355000Y-14040000D02*
G75*
G02*
X7245000Y-14040000I-55000J0D01*
G01*
X7245000Y-14040000D02*
G75*
G02*
X7355000Y-14040000I55000J0D01*
G01*
X7245000Y-14535000D02*
X7355000Y-14645000D01*
X7355000Y-14535000D02*
X7245000Y-14645000D01*
X7355000Y-14590000D02*
G75*
G02*
X7245000Y-14590000I-55000J0D01*
G01*
X7245000Y-14590000D02*
G75*
G02*
X7355000Y-14590000I55000J0D01*
G01*
X7595000Y-5355000D02*
X7705000Y-5465000D01*
X7705000Y-5355000D02*
X7595000Y-5465000D01*
X7705000Y-5410000D02*
G75*
G02*
X7595000Y-5410000I-55000J0D01*
G01*
X7595000Y-5410000D02*
G75*
G02*
X7705000Y-5410000I55000J0D01*
G01*
X7595000Y-5905000D02*
X7705000Y-6015000D01*
X7705000Y-5905000D02*
X7595000Y-6015000D01*
X7705000Y-5960000D02*
G75*
G02*
X7595000Y-5960000I-55000J0D01*
G01*
X7595000Y-5960000D02*
G75*
G02*
X7705000Y-5960000I55000J0D01*
G01*
X7595000Y-13985000D02*
X7705000Y-14095000D01*
X7705000Y-13985000D02*
X7595000Y-14095000D01*
X7705000Y-14040000D02*
G75*
G02*
X7595000Y-14040000I-55000J0D01*
G01*
X7595000Y-14040000D02*
G75*
G02*
X7705000Y-14040000I55000J0D01*
G01*
X7595000Y-14535000D02*
X7705000Y-14645000D01*
X7705000Y-14535000D02*
X7595000Y-14645000D01*
X7705000Y-14590000D02*
G75*
G02*
X7595000Y-14590000I-55000J0D01*
G01*
X7595000Y-14590000D02*
G75*
G02*
X7705000Y-14590000I55000J0D01*
G01*
X7683000Y-6375000D02*
X7793000Y-6485000D01*
X7793000Y-6375000D02*
X7683000Y-6485000D01*
X7793000Y-6430000D02*
G75*
G02*
X7683000Y-6430000I-55000J0D01*
G01*
X7683000Y-6430000D02*
G75*
G02*
X7793000Y-6430000I55000J0D01*
G01*
X7689500Y-13522500D02*
X7799500Y-13632500D01*
X7799500Y-13522500D02*
X7689500Y-13632500D01*
X7799500Y-13577500D02*
G75*
G02*
X7689500Y-13577500I-55000J0D01*
G01*
X7689500Y-13577500D02*
G75*
G02*
X7799500Y-13577500I55000J0D01*
G01*
X7935000Y-6375000D02*
X8045000Y-6485000D01*
X8045000Y-6375000D02*
X7935000Y-6485000D01*
X8045000Y-6430000D02*
G75*
G02*
X7935000Y-6430000I-55000J0D01*
G01*
X7935000Y-6430000D02*
G75*
G02*
X8045000Y-6430000I55000J0D01*
G01*
X7941500Y-13522500D02*
X8051500Y-13632500D01*
X8051500Y-13522500D02*
X7941500Y-13632500D01*
X8051500Y-13577500D02*
G75*
G02*
X7941500Y-13577500I-55000J0D01*
G01*
X7941500Y-13577500D02*
G75*
G02*
X8051500Y-13577500I55000J0D01*
G01*
X7945000Y-5355000D02*
X8055000Y-5465000D01*
X8055000Y-5355000D02*
X7945000Y-5465000D01*
X8055000Y-5410000D02*
G75*
G02*
X7945000Y-5410000I-55000J0D01*
G01*
X7945000Y-5410000D02*
G75*
G02*
X8055000Y-5410000I55000J0D01*
G01*
X7945000Y-5905000D02*
X8055000Y-6015000D01*
X8055000Y-5905000D02*
X7945000Y-6015000D01*
X8055000Y-5960000D02*
G75*
G02*
X7945000Y-5960000I-55000J0D01*
G01*
X7945000Y-5960000D02*
G75*
G02*
X8055000Y-5960000I55000J0D01*
G01*
X7945000Y-13985000D02*
X8055000Y-14095000D01*
X8055000Y-13985000D02*
X7945000Y-14095000D01*
X8055000Y-14040000D02*
G75*
G02*
X7945000Y-14040000I-55000J0D01*
G01*
X7945000Y-14040000D02*
G75*
G02*
X8055000Y-14040000I55000J0D01*
G01*
X7945000Y-14535000D02*
X8055000Y-14645000D01*
X8055000Y-14535000D02*
X7945000Y-14645000D01*
X8055000Y-14590000D02*
G75*
G02*
X7945000Y-14590000I-55000J0D01*
G01*
X7945000Y-14590000D02*
G75*
G02*
X8055000Y-14590000I55000J0D01*
G01*
X8187000Y-6375000D02*
X8297000Y-6485000D01*
X8297000Y-6375000D02*
X8187000Y-6485000D01*
X8297000Y-6430000D02*
G75*
G02*
X8187000Y-6430000I-55000J0D01*
G01*
X8187000Y-6430000D02*
G75*
G02*
X8297000Y-6430000I55000J0D01*
G01*
X8193500Y-13522500D02*
X8303500Y-13632500D01*
X8303500Y-13522500D02*
X8193500Y-13632500D01*
X8303500Y-13577500D02*
G75*
G02*
X8193500Y-13577500I-55000J0D01*
G01*
X8193500Y-13577500D02*
G75*
G02*
X8303500Y-13577500I55000J0D01*
G01*
X8295000Y-5355000D02*
X8405000Y-5465000D01*
X8405000Y-5355000D02*
X8295000Y-5465000D01*
X8405000Y-5410000D02*
G75*
G02*
X8295000Y-5410000I-55000J0D01*
G01*
X8295000Y-5410000D02*
G75*
G02*
X8405000Y-5410000I55000J0D01*
G01*
X8295000Y-5905000D02*
X8405000Y-6015000D01*
X8405000Y-5905000D02*
X8295000Y-6015000D01*
X8405000Y-5960000D02*
G75*
G02*
X8295000Y-5960000I-55000J0D01*
G01*
X8295000Y-5960000D02*
G75*
G02*
X8405000Y-5960000I55000J0D01*
G01*
X8295000Y-13985000D02*
X8405000Y-14095000D01*
X8405000Y-13985000D02*
X8295000Y-14095000D01*
X8405000Y-14040000D02*
G75*
G02*
X8295000Y-14040000I-55000J0D01*
G01*
X8295000Y-14040000D02*
G75*
G02*
X8405000Y-14040000I55000J0D01*
G01*
X8295000Y-14535000D02*
X8405000Y-14645000D01*
X8405000Y-14535000D02*
X8295000Y-14645000D01*
X8405000Y-14590000D02*
G75*
G02*
X8295000Y-14590000I-55000J0D01*
G01*
X8295000Y-14590000D02*
G75*
G02*
X8405000Y-14590000I55000J0D01*
G01*
X8445500Y-13522500D02*
X8555500Y-13632500D01*
X8555500Y-13522500D02*
X8445500Y-13632500D01*
X8555500Y-13577500D02*
G75*
G02*
X8445500Y-13577500I-55000J0D01*
G01*
X8445500Y-13577500D02*
G75*
G02*
X8555500Y-13577500I55000J0D01*
G01*
X8645000Y-5355000D02*
X8755000Y-5465000D01*
X8755000Y-5355000D02*
X8645000Y-5465000D01*
X8755000Y-5410000D02*
G75*
G02*
X8645000Y-5410000I-55000J0D01*
G01*
X8645000Y-5410000D02*
G75*
G02*
X8755000Y-5410000I55000J0D01*
G01*
X8645000Y-5905000D02*
X8755000Y-6015000D01*
X8755000Y-5905000D02*
X8645000Y-6015000D01*
X8755000Y-5960000D02*
G75*
G02*
X8645000Y-5960000I-55000J0D01*
G01*
X8645000Y-5960000D02*
G75*
G02*
X8755000Y-5960000I55000J0D01*
G01*
X8645000Y-13985000D02*
X8755000Y-14095000D01*
X8755000Y-13985000D02*
X8645000Y-14095000D01*
X8755000Y-14040000D02*
G75*
G02*
X8645000Y-14040000I-55000J0D01*
G01*
X8645000Y-14040000D02*
G75*
G02*
X8755000Y-14040000I55000J0D01*
G01*
X8645000Y-14535000D02*
X8755000Y-14645000D01*
X8755000Y-14535000D02*
X8645000Y-14645000D01*
X8755000Y-14590000D02*
G75*
G02*
X8645000Y-14590000I-55000J0D01*
G01*
X8645000Y-14590000D02*
G75*
G02*
X8755000Y-14590000I55000J0D01*
G01*
X8783000Y-6375000D02*
X8893000Y-6485000D01*
X8893000Y-6375000D02*
X8783000Y-6485000D01*
X8893000Y-6430000D02*
G75*
G02*
X8783000Y-6430000I-55000J0D01*
G01*
X8783000Y-6430000D02*
G75*
G02*
X8893000Y-6430000I55000J0D01*
G01*
X8995000Y-5355000D02*
X9105000Y-5465000D01*
X9105000Y-5355000D02*
X8995000Y-5465000D01*
X9105000Y-5410000D02*
G75*
G02*
X8995000Y-5410000I-55000J0D01*
G01*
X8995000Y-5410000D02*
G75*
G02*
X9105000Y-5410000I55000J0D01*
G01*
X8995000Y-5905000D02*
X9105000Y-6015000D01*
X9105000Y-5905000D02*
X8995000Y-6015000D01*
X9105000Y-5960000D02*
G75*
G02*
X8995000Y-5960000I-55000J0D01*
G01*
X8995000Y-5960000D02*
G75*
G02*
X9105000Y-5960000I55000J0D01*
G01*
X8995000Y-13985000D02*
X9105000Y-14095000D01*
X9105000Y-13985000D02*
X8995000Y-14095000D01*
X9105000Y-14040000D02*
G75*
G02*
X8995000Y-14040000I-55000J0D01*
G01*
X8995000Y-14040000D02*
G75*
G02*
X9105000Y-14040000I55000J0D01*
G01*
X8995000Y-14535000D02*
X9105000Y-14645000D01*
X9105000Y-14535000D02*
X8995000Y-14645000D01*
X9105000Y-14590000D02*
G75*
G02*
X8995000Y-14590000I-55000J0D01*
G01*
X8995000Y-14590000D02*
G75*
G02*
X9105000Y-14590000I55000J0D01*
G01*
X9035000Y-6375000D02*
X9145000Y-6485000D01*
X9145000Y-6375000D02*
X9035000Y-6485000D01*
X9145000Y-6430000D02*
G75*
G02*
X9035000Y-6430000I-55000J0D01*
G01*
X9035000Y-6430000D02*
G75*
G02*
X9145000Y-6430000I55000J0D01*
G01*
X9287000Y-6375000D02*
X9397000Y-6485000D01*
X9397000Y-6375000D02*
X9287000Y-6485000D01*
X9397000Y-6430000D02*
G75*
G02*
X9287000Y-6430000I-55000J0D01*
G01*
X9287000Y-6430000D02*
G75*
G02*
X9397000Y-6430000I55000J0D01*
G01*
X9297000Y-13522500D02*
X9407000Y-13632500D01*
X9407000Y-13522500D02*
X9297000Y-13632500D01*
X9407000Y-13577500D02*
G75*
G02*
X9297000Y-13577500I-55000J0D01*
G01*
X9297000Y-13577500D02*
G75*
G02*
X9407000Y-13577500I55000J0D01*
G01*
X9345000Y-5355000D02*
X9455000Y-5465000D01*
X9455000Y-5355000D02*
X9345000Y-5465000D01*
X9455000Y-5410000D02*
G75*
G02*
X9345000Y-5410000I-55000J0D01*
G01*
X9345000Y-5410000D02*
G75*
G02*
X9455000Y-5410000I55000J0D01*
G01*
X9345000Y-5905000D02*
X9455000Y-6015000D01*
X9455000Y-5905000D02*
X9345000Y-6015000D01*
X9455000Y-5960000D02*
G75*
G02*
X9345000Y-5960000I-55000J0D01*
G01*
X9345000Y-5960000D02*
G75*
G02*
X9455000Y-5960000I55000J0D01*
G01*
X9345000Y-13985000D02*
X9455000Y-14095000D01*
X9455000Y-13985000D02*
X9345000Y-14095000D01*
X9455000Y-14040000D02*
G75*
G02*
X9345000Y-14040000I-55000J0D01*
G01*
X9345000Y-14040000D02*
G75*
G02*
X9455000Y-14040000I55000J0D01*
G01*
X9345000Y-14535000D02*
X9455000Y-14645000D01*
X9455000Y-14535000D02*
X9345000Y-14645000D01*
X9455000Y-14590000D02*
G75*
G02*
X9345000Y-14590000I-55000J0D01*
G01*
X9345000Y-14590000D02*
G75*
G02*
X9455000Y-14590000I55000J0D01*
G01*
X9549000Y-13522500D02*
X9659000Y-13632500D01*
X9659000Y-13522500D02*
X9549000Y-13632500D01*
X9659000Y-13577500D02*
G75*
G02*
X9549000Y-13577500I-55000J0D01*
G01*
X9549000Y-13577500D02*
G75*
G02*
X9659000Y-13577500I55000J0D01*
G01*
X9695000Y-5355000D02*
X9805000Y-5465000D01*
X9805000Y-5355000D02*
X9695000Y-5465000D01*
X9805000Y-5410000D02*
G75*
G02*
X9695000Y-5410000I-55000J0D01*
G01*
X9695000Y-5410000D02*
G75*
G02*
X9805000Y-5410000I55000J0D01*
G01*
X9695000Y-5905000D02*
X9805000Y-6015000D01*
X9805000Y-5905000D02*
X9695000Y-6015000D01*
X9805000Y-5960000D02*
G75*
G02*
X9695000Y-5960000I-55000J0D01*
G01*
X9695000Y-5960000D02*
G75*
G02*
X9805000Y-5960000I55000J0D01*
G01*
X9695000Y-13985000D02*
X9805000Y-14095000D01*
X9805000Y-13985000D02*
X9695000Y-14095000D01*
X9805000Y-14040000D02*
G75*
G02*
X9695000Y-14040000I-55000J0D01*
G01*
X9695000Y-14040000D02*
G75*
G02*
X9805000Y-14040000I55000J0D01*
G01*
X9695000Y-14535000D02*
X9805000Y-14645000D01*
X9805000Y-14535000D02*
X9695000Y-14645000D01*
X9805000Y-14590000D02*
G75*
G02*
X9695000Y-14590000I-55000J0D01*
G01*
X9695000Y-14590000D02*
G75*
G02*
X9805000Y-14590000I55000J0D01*
G01*
X9801000Y-13522500D02*
X9911000Y-13632500D01*
X9911000Y-13522500D02*
X9801000Y-13632500D01*
X9911000Y-13577500D02*
G75*
G02*
X9801000Y-13577500I-55000J0D01*
G01*
X9801000Y-13577500D02*
G75*
G02*
X9911000Y-13577500I55000J0D01*
G01*
X9883000Y-6375000D02*
X9993000Y-6485000D01*
X9993000Y-6375000D02*
X9883000Y-6485000D01*
X9993000Y-6430000D02*
G75*
G02*
X9883000Y-6430000I-55000J0D01*
G01*
X9883000Y-6430000D02*
G75*
G02*
X9993000Y-6430000I55000J0D01*
G01*
X10045000Y-5355000D02*
X10155000Y-5465000D01*
X10155000Y-5355000D02*
X10045000Y-5465000D01*
X10155000Y-5410000D02*
G75*
G02*
X10045000Y-5410000I-55000J0D01*
G01*
X10045000Y-5410000D02*
G75*
G02*
X10155000Y-5410000I55000J0D01*
G01*
X10045000Y-5905000D02*
X10155000Y-6015000D01*
X10155000Y-5905000D02*
X10045000Y-6015000D01*
X10155000Y-5960000D02*
G75*
G02*
X10045000Y-5960000I-55000J0D01*
G01*
X10045000Y-5960000D02*
G75*
G02*
X10155000Y-5960000I55000J0D01*
G01*
X10045000Y-13985000D02*
X10155000Y-14095000D01*
X10155000Y-13985000D02*
X10045000Y-14095000D01*
X10155000Y-14040000D02*
G75*
G02*
X10045000Y-14040000I-55000J0D01*
G01*
X10045000Y-14040000D02*
G75*
G02*
X10155000Y-14040000I55000J0D01*
G01*
X10045000Y-14535000D02*
X10155000Y-14645000D01*
X10155000Y-14535000D02*
X10045000Y-14645000D01*
X10155000Y-14590000D02*
G75*
G02*
X10045000Y-14590000I-55000J0D01*
G01*
X10045000Y-14590000D02*
G75*
G02*
X10155000Y-14590000I55000J0D01*
G01*
X10053000Y-13522500D02*
X10163000Y-13632500D01*
X10163000Y-13522500D02*
X10053000Y-13632500D01*
X10163000Y-13577500D02*
G75*
G02*
X10053000Y-13577500I-55000J0D01*
G01*
X10053000Y-13577500D02*
G75*
G02*
X10163000Y-13577500I55000J0D01*
G01*
X10135000Y-6375000D02*
X10245000Y-6485000D01*
X10245000Y-6375000D02*
X10135000Y-6485000D01*
X10245000Y-6430000D02*
G75*
G02*
X10135000Y-6430000I-55000J0D01*
G01*
X10135000Y-6430000D02*
G75*
G02*
X10245000Y-6430000I55000J0D01*
G01*
X10387000Y-6375000D02*
X10497000Y-6485000D01*
X10497000Y-6375000D02*
X10387000Y-6485000D01*
X10497000Y-6430000D02*
G75*
G02*
X10387000Y-6430000I-55000J0D01*
G01*
X10387000Y-6430000D02*
G75*
G02*
X10497000Y-6430000I55000J0D01*
G01*
X10395000Y-5355000D02*
X10505000Y-5465000D01*
X10505000Y-5355000D02*
X10395000Y-5465000D01*
X10505000Y-5410000D02*
G75*
G02*
X10395000Y-5410000I-55000J0D01*
G01*
X10395000Y-5410000D02*
G75*
G02*
X10505000Y-5410000I55000J0D01*
G01*
X10395000Y-5905000D02*
X10505000Y-6015000D01*
X10505000Y-5905000D02*
X10395000Y-6015000D01*
X10505000Y-5960000D02*
G75*
G02*
X10395000Y-5960000I-55000J0D01*
G01*
X10395000Y-5960000D02*
G75*
G02*
X10505000Y-5960000I55000J0D01*
G01*
X10395000Y-13985000D02*
X10505000Y-14095000D01*
X10505000Y-13985000D02*
X10395000Y-14095000D01*
X10505000Y-14040000D02*
G75*
G02*
X10395000Y-14040000I-55000J0D01*
G01*
X10395000Y-14040000D02*
G75*
G02*
X10505000Y-14040000I55000J0D01*
G01*
X10395000Y-14535000D02*
X10505000Y-14645000D01*
X10505000Y-14535000D02*
X10395000Y-14645000D01*
X10505000Y-14590000D02*
G75*
G02*
X10395000Y-14590000I-55000J0D01*
G01*
X10395000Y-14590000D02*
G75*
G02*
X10505000Y-14590000I55000J0D01*
G01*
X10745000Y-5355000D02*
X10855000Y-5465000D01*
X10855000Y-5355000D02*
X10745000Y-5465000D01*
X10855000Y-5410000D02*
G75*
G02*
X10745000Y-5410000I-55000J0D01*
G01*
X10745000Y-5410000D02*
G75*
G02*
X10855000Y-5410000I55000J0D01*
G01*
X10745000Y-5905000D02*
X10855000Y-6015000D01*
X10855000Y-5905000D02*
X10745000Y-6015000D01*
X10855000Y-5960000D02*
G75*
G02*
X10745000Y-5960000I-55000J0D01*
G01*
X10745000Y-5960000D02*
G75*
G02*
X10855000Y-5960000I55000J0D01*
G01*
X10745000Y-13985000D02*
X10855000Y-14095000D01*
X10855000Y-13985000D02*
X10745000Y-14095000D01*
X10855000Y-14040000D02*
G75*
G02*
X10745000Y-14040000I-55000J0D01*
G01*
X10745000Y-14040000D02*
G75*
G02*
X10855000Y-14040000I55000J0D01*
G01*
X10745000Y-14535000D02*
X10855000Y-14645000D01*
X10855000Y-14535000D02*
X10745000Y-14645000D01*
X10855000Y-14590000D02*
G75*
G02*
X10745000Y-14590000I-55000J0D01*
G01*
X10745000Y-14590000D02*
G75*
G02*
X10855000Y-14590000I55000J0D01*
G01*
X10914500Y-13522500D02*
X11024500Y-13632500D01*
X11024500Y-13522500D02*
X10914500Y-13632500D01*
X11024500Y-13577500D02*
G75*
G02*
X10914500Y-13577500I-55000J0D01*
G01*
X10914500Y-13577500D02*
G75*
G02*
X11024500Y-13577500I55000J0D01*
G01*
X11095000Y-5355000D02*
X11205000Y-5465000D01*
X11205000Y-5355000D02*
X11095000Y-5465000D01*
X11205000Y-5410000D02*
G75*
G02*
X11095000Y-5410000I-55000J0D01*
G01*
X11095000Y-5410000D02*
G75*
G02*
X11205000Y-5410000I55000J0D01*
G01*
X11095000Y-5905000D02*
X11205000Y-6015000D01*
X11205000Y-5905000D02*
X11095000Y-6015000D01*
X11205000Y-5960000D02*
G75*
G02*
X11095000Y-5960000I-55000J0D01*
G01*
X11095000Y-5960000D02*
G75*
G02*
X11205000Y-5960000I55000J0D01*
G01*
X11095000Y-13985000D02*
X11205000Y-14095000D01*
X11205000Y-13985000D02*
X11095000Y-14095000D01*
X11205000Y-14040000D02*
G75*
G02*
X11095000Y-14040000I-55000J0D01*
G01*
X11095000Y-14040000D02*
G75*
G02*
X11205000Y-14040000I55000J0D01*
G01*
X11095000Y-14535000D02*
X11205000Y-14645000D01*
X11205000Y-14535000D02*
X11095000Y-14645000D01*
X11205000Y-14590000D02*
G75*
G02*
X11095000Y-14590000I-55000J0D01*
G01*
X11095000Y-14590000D02*
G75*
G02*
X11205000Y-14590000I55000J0D01*
G01*
X11166500Y-13522500D02*
X11276500Y-13632500D01*
X11276500Y-13522500D02*
X11166500Y-13632500D01*
X11276500Y-13577500D02*
G75*
G02*
X11166500Y-13577500I-55000J0D01*
G01*
X11166500Y-13577500D02*
G75*
G02*
X11276500Y-13577500I55000J0D01*
G01*
X11374000Y-6365000D02*
X11484000Y-6475000D01*
X11484000Y-6365000D02*
X11374000Y-6475000D01*
X11484000Y-6420000D02*
G75*
G02*
X11374000Y-6420000I-55000J0D01*
G01*
X11374000Y-6420000D02*
G75*
G02*
X11484000Y-6420000I55000J0D01*
G01*
X11418500Y-13522500D02*
X11528500Y-13632500D01*
X11528500Y-13522500D02*
X11418500Y-13632500D01*
X11528500Y-13577500D02*
G75*
G02*
X11418500Y-13577500I-55000J0D01*
G01*
X11418500Y-13577500D02*
G75*
G02*
X11528500Y-13577500I55000J0D01*
G01*
X11445000Y-5355000D02*
X11555000Y-5465000D01*
X11555000Y-5355000D02*
X11445000Y-5465000D01*
X11555000Y-5410000D02*
G75*
G02*
X11445000Y-5410000I-55000J0D01*
G01*
X11445000Y-5410000D02*
G75*
G02*
X11555000Y-5410000I55000J0D01*
G01*
X11445000Y-5905000D02*
X11555000Y-6015000D01*
X11555000Y-5905000D02*
X11445000Y-6015000D01*
X11555000Y-5960000D02*
G75*
G02*
X11445000Y-5960000I-55000J0D01*
G01*
X11445000Y-5960000D02*
G75*
G02*
X11555000Y-5960000I55000J0D01*
G01*
X11445000Y-13985000D02*
X11555000Y-14095000D01*
X11555000Y-13985000D02*
X11445000Y-14095000D01*
X11555000Y-14040000D02*
G75*
G02*
X11445000Y-14040000I-55000J0D01*
G01*
X11445000Y-14040000D02*
G75*
G02*
X11555000Y-14040000I55000J0D01*
G01*
X11445000Y-14535000D02*
X11555000Y-14645000D01*
X11555000Y-14535000D02*
X11445000Y-14645000D01*
X11555000Y-14590000D02*
G75*
G02*
X11445000Y-14590000I-55000J0D01*
G01*
X11445000Y-14590000D02*
G75*
G02*
X11555000Y-14590000I55000J0D01*
G01*
X11626000Y-6365000D02*
X11736000Y-6475000D01*
X11736000Y-6365000D02*
X11626000Y-6475000D01*
X11736000Y-6420000D02*
G75*
G02*
X11626000Y-6420000I-55000J0D01*
G01*
X11626000Y-6420000D02*
G75*
G02*
X11736000Y-6420000I55000J0D01*
G01*
X11670500Y-13522500D02*
X11780500Y-13632500D01*
X11780500Y-13522500D02*
X11670500Y-13632500D01*
X11780500Y-13577500D02*
G75*
G02*
X11670500Y-13577500I-55000J0D01*
G01*
X11670500Y-13577500D02*
G75*
G02*
X11780500Y-13577500I55000J0D01*
G01*
X11795000Y-5355000D02*
X11905000Y-5465000D01*
X11905000Y-5355000D02*
X11795000Y-5465000D01*
X11905000Y-5410000D02*
G75*
G02*
X11795000Y-5410000I-55000J0D01*
G01*
X11795000Y-5410000D02*
G75*
G02*
X11905000Y-5410000I55000J0D01*
G01*
X11795000Y-5905000D02*
X11905000Y-6015000D01*
X11905000Y-5905000D02*
X11795000Y-6015000D01*
X11905000Y-5960000D02*
G75*
G02*
X11795000Y-5960000I-55000J0D01*
G01*
X11795000Y-5960000D02*
G75*
G02*
X11905000Y-5960000I55000J0D01*
G01*
X11795000Y-13985000D02*
X11905000Y-14095000D01*
X11905000Y-13985000D02*
X11795000Y-14095000D01*
X11905000Y-14040000D02*
G75*
G02*
X11795000Y-14040000I-55000J0D01*
G01*
X11795000Y-14040000D02*
G75*
G02*
X11905000Y-14040000I55000J0D01*
G01*
X11795000Y-14535000D02*
X11905000Y-14645000D01*
X11905000Y-14535000D02*
X11795000Y-14645000D01*
X11905000Y-14590000D02*
G75*
G02*
X11795000Y-14590000I-55000J0D01*
G01*
X11795000Y-14590000D02*
G75*
G02*
X11905000Y-14590000I55000J0D01*
G01*
X12145000Y-5355000D02*
X12255000Y-5465000D01*
X12255000Y-5355000D02*
X12145000Y-5465000D01*
X12255000Y-5410000D02*
G75*
G02*
X12145000Y-5410000I-55000J0D01*
G01*
X12145000Y-5410000D02*
G75*
G02*
X12255000Y-5410000I55000J0D01*
G01*
X12145000Y-5905000D02*
X12255000Y-6015000D01*
X12255000Y-5905000D02*
X12145000Y-6015000D01*
X12255000Y-5960000D02*
G75*
G02*
X12145000Y-5960000I-55000J0D01*
G01*
X12145000Y-5960000D02*
G75*
G02*
X12255000Y-5960000I55000J0D01*
G01*
X12145000Y-13985000D02*
X12255000Y-14095000D01*
X12255000Y-13985000D02*
X12145000Y-14095000D01*
X12255000Y-14040000D02*
G75*
G02*
X12145000Y-14040000I-55000J0D01*
G01*
X12145000Y-14040000D02*
G75*
G02*
X12255000Y-14040000I55000J0D01*
G01*
X12145000Y-14535000D02*
X12255000Y-14645000D01*
X12255000Y-14535000D02*
X12145000Y-14645000D01*
X12255000Y-14590000D02*
G75*
G02*
X12145000Y-14590000I-55000J0D01*
G01*
X12145000Y-14590000D02*
G75*
G02*
X12255000Y-14590000I55000J0D01*
G01*
X12224000Y-6365000D02*
X12334000Y-6475000D01*
X12334000Y-6365000D02*
X12224000Y-6475000D01*
X12334000Y-6420000D02*
G75*
G02*
X12224000Y-6420000I-55000J0D01*
G01*
X12224000Y-6420000D02*
G75*
G02*
X12334000Y-6420000I55000J0D01*
G01*
X12476000Y-6365000D02*
X12586000Y-6475000D01*
X12586000Y-6365000D02*
X12476000Y-6475000D01*
X12586000Y-6420000D02*
G75*
G02*
X12476000Y-6420000I-55000J0D01*
G01*
X12476000Y-6420000D02*
G75*
G02*
X12586000Y-6420000I55000J0D01*
G01*
X12495000Y-5355000D02*
X12605000Y-5465000D01*
X12605000Y-5355000D02*
X12495000Y-5465000D01*
X12605000Y-5410000D02*
G75*
G02*
X12495000Y-5410000I-55000J0D01*
G01*
X12495000Y-5410000D02*
G75*
G02*
X12605000Y-5410000I55000J0D01*
G01*
X12495000Y-5905000D02*
X12605000Y-6015000D01*
X12605000Y-5905000D02*
X12495000Y-6015000D01*
X12605000Y-5960000D02*
G75*
G02*
X12495000Y-5960000I-55000J0D01*
G01*
X12495000Y-5960000D02*
G75*
G02*
X12605000Y-5960000I55000J0D01*
G01*
X12495000Y-13985000D02*
X12605000Y-14095000D01*
X12605000Y-13985000D02*
X12495000Y-14095000D01*
X12605000Y-14040000D02*
G75*
G02*
X12495000Y-14040000I-55000J0D01*
G01*
X12495000Y-14040000D02*
G75*
G02*
X12605000Y-14040000I55000J0D01*
G01*
X12495000Y-14535000D02*
X12605000Y-14645000D01*
X12605000Y-14535000D02*
X12495000Y-14645000D01*
X12605000Y-14590000D02*
G75*
G02*
X12495000Y-14590000I-55000J0D01*
G01*
X12495000Y-14590000D02*
G75*
G02*
X12605000Y-14590000I55000J0D01*
G01*
X12522000Y-13522500D02*
X12632000Y-13632500D01*
X12632000Y-13522500D02*
X12522000Y-13632500D01*
X12632000Y-13577500D02*
G75*
G02*
X12522000Y-13577500I-55000J0D01*
G01*
X12522000Y-13577500D02*
G75*
G02*
X12632000Y-13577500I55000J0D01*
G01*
X12774000Y-13522500D02*
X12884000Y-13632500D01*
X12884000Y-13522500D02*
X12774000Y-13632500D01*
X12884000Y-13577500D02*
G75*
G02*
X12774000Y-13577500I-55000J0D01*
G01*
X12774000Y-13577500D02*
G75*
G02*
X12884000Y-13577500I55000J0D01*
G01*
X12845000Y-5355000D02*
X12955000Y-5465000D01*
X12955000Y-5355000D02*
X12845000Y-5465000D01*
X12955000Y-5410000D02*
G75*
G02*
X12845000Y-5410000I-55000J0D01*
G01*
X12845000Y-5410000D02*
G75*
G02*
X12955000Y-5410000I55000J0D01*
G01*
X12845000Y-5905000D02*
X12955000Y-6015000D01*
X12955000Y-5905000D02*
X12845000Y-6015000D01*
X12955000Y-5960000D02*
G75*
G02*
X12845000Y-5960000I-55000J0D01*
G01*
X12845000Y-5960000D02*
G75*
G02*
X12955000Y-5960000I55000J0D01*
G01*
X12845000Y-13985000D02*
X12955000Y-14095000D01*
X12955000Y-13985000D02*
X12845000Y-14095000D01*
X12955000Y-14040000D02*
G75*
G02*
X12845000Y-14040000I-55000J0D01*
G01*
X12845000Y-14040000D02*
G75*
G02*
X12955000Y-14040000I55000J0D01*
G01*
X12845000Y-14535000D02*
X12955000Y-14645000D01*
X12955000Y-14535000D02*
X12845000Y-14645000D01*
X12955000Y-14590000D02*
G75*
G02*
X12845000Y-14590000I-55000J0D01*
G01*
X12845000Y-14590000D02*
G75*
G02*
X12955000Y-14590000I55000J0D01*
G01*
X13026000Y-13522500D02*
X13136000Y-13632500D01*
X13136000Y-13522500D02*
X13026000Y-13632500D01*
X13136000Y-13577500D02*
G75*
G02*
X13026000Y-13577500I-55000J0D01*
G01*
X13026000Y-13577500D02*
G75*
G02*
X13136000Y-13577500I55000J0D01*
G01*
X13074000Y-6365000D02*
X13184000Y-6475000D01*
X13184000Y-6365000D02*
X13074000Y-6475000D01*
X13184000Y-6420000D02*
G75*
G02*
X13074000Y-6420000I-55000J0D01*
G01*
X13074000Y-6420000D02*
G75*
G02*
X13184000Y-6420000I55000J0D01*
G01*
X13195000Y-5355000D02*
X13305000Y-5465000D01*
X13305000Y-5355000D02*
X13195000Y-5465000D01*
X13305000Y-5410000D02*
G75*
G02*
X13195000Y-5410000I-55000J0D01*
G01*
X13195000Y-5410000D02*
G75*
G02*
X13305000Y-5410000I55000J0D01*
G01*
X13195000Y-5905000D02*
X13305000Y-6015000D01*
X13305000Y-5905000D02*
X13195000Y-6015000D01*
X13305000Y-5960000D02*
G75*
G02*
X13195000Y-5960000I-55000J0D01*
G01*
X13195000Y-5960000D02*
G75*
G02*
X13305000Y-5960000I55000J0D01*
G01*
X13195000Y-13985000D02*
X13305000Y-14095000D01*
X13305000Y-13985000D02*
X13195000Y-14095000D01*
X13305000Y-14040000D02*
G75*
G02*
X13195000Y-14040000I-55000J0D01*
G01*
X13195000Y-14040000D02*
G75*
G02*
X13305000Y-14040000I55000J0D01*
G01*
X13195000Y-14535000D02*
X13305000Y-14645000D01*
X13305000Y-14535000D02*
X13195000Y-14645000D01*
X13305000Y-14590000D02*
G75*
G02*
X13195000Y-14590000I-55000J0D01*
G01*
X13195000Y-14590000D02*
G75*
G02*
X13305000Y-14590000I55000J0D01*
G01*
X13278000Y-13522500D02*
X13388000Y-13632500D01*
X13388000Y-13522500D02*
X13278000Y-13632500D01*
X13388000Y-13577500D02*
G75*
G02*
X13278000Y-13577500I-55000J0D01*
G01*
X13278000Y-13577500D02*
G75*
G02*
X13388000Y-13577500I55000J0D01*
G01*
X13326000Y-6365000D02*
X13436000Y-6475000D01*
X13436000Y-6365000D02*
X13326000Y-6475000D01*
X13436000Y-6420000D02*
G75*
G02*
X13326000Y-6420000I-55000J0D01*
G01*
X13326000Y-6420000D02*
G75*
G02*
X13436000Y-6420000I55000J0D01*
G01*
X13545000Y-5355000D02*
X13655000Y-5465000D01*
X13655000Y-5355000D02*
X13545000Y-5465000D01*
X13655000Y-5410000D02*
G75*
G02*
X13545000Y-5410000I-55000J0D01*
G01*
X13545000Y-5410000D02*
G75*
G02*
X13655000Y-5410000I55000J0D01*
G01*
X13545000Y-5905000D02*
X13655000Y-6015000D01*
X13655000Y-5905000D02*
X13545000Y-6015000D01*
X13655000Y-5960000D02*
G75*
G02*
X13545000Y-5960000I-55000J0D01*
G01*
X13545000Y-5960000D02*
G75*
G02*
X13655000Y-5960000I55000J0D01*
G01*
X13545000Y-13985000D02*
X13655000Y-14095000D01*
X13655000Y-13985000D02*
X13545000Y-14095000D01*
X13655000Y-14040000D02*
G75*
G02*
X13545000Y-14040000I-55000J0D01*
G01*
X13545000Y-14040000D02*
G75*
G02*
X13655000Y-14040000I55000J0D01*
G01*
X13545000Y-14535000D02*
X13655000Y-14645000D01*
X13655000Y-14535000D02*
X13545000Y-14645000D01*
X13655000Y-14590000D02*
G75*
G02*
X13545000Y-14590000I-55000J0D01*
G01*
X13545000Y-14590000D02*
G75*
G02*
X13655000Y-14590000I55000J0D01*
G01*
X13895000Y-5355000D02*
X14005000Y-5465000D01*
X14005000Y-5355000D02*
X13895000Y-5465000D01*
X14005000Y-5410000D02*
G75*
G02*
X13895000Y-5410000I-55000J0D01*
G01*
X13895000Y-5410000D02*
G75*
G02*
X14005000Y-5410000I55000J0D01*
G01*
X13895000Y-5905000D02*
X14005000Y-6015000D01*
X14005000Y-5905000D02*
X13895000Y-6015000D01*
X14005000Y-5960000D02*
G75*
G02*
X13895000Y-5960000I-55000J0D01*
G01*
X13895000Y-5960000D02*
G75*
G02*
X14005000Y-5960000I55000J0D01*
G01*
X13895000Y-13985000D02*
X14005000Y-14095000D01*
X14005000Y-13985000D02*
X13895000Y-14095000D01*
X14005000Y-14040000D02*
G75*
G02*
X13895000Y-14040000I-55000J0D01*
G01*
X13895000Y-14040000D02*
G75*
G02*
X14005000Y-14040000I55000J0D01*
G01*
X13895000Y-14535000D02*
X14005000Y-14645000D01*
X14005000Y-14535000D02*
X13895000Y-14645000D01*
X14005000Y-14590000D02*
G75*
G02*
X13895000Y-14590000I-55000J0D01*
G01*
X13895000Y-14590000D02*
G75*
G02*
X14005000Y-14590000I55000J0D01*
G01*
X13923000Y-6365000D02*
X14033000Y-6475000D01*
X14033000Y-6365000D02*
X13923000Y-6475000D01*
X14033000Y-6420000D02*
G75*
G02*
X13923000Y-6420000I-55000J0D01*
G01*
X13923000Y-6420000D02*
G75*
G02*
X14033000Y-6420000I55000J0D01*
G01*
X14143000Y-10305000D02*
X14253000Y-10415000D01*
X14253000Y-10305000D02*
X14143000Y-10415000D01*
X14253000Y-10360000D02*
G75*
G02*
X14143000Y-10360000I-55000J0D01*
G01*
X14143000Y-10360000D02*
G75*
G02*
X14253000Y-10360000I55000J0D01*
G01*
X14143000Y-10995000D02*
X14253000Y-11105000D01*
X14253000Y-10995000D02*
X14143000Y-11105000D01*
X14253000Y-11050000D02*
G75*
G02*
X14143000Y-11050000I-55000J0D01*
G01*
X14143000Y-11050000D02*
G75*
G02*
X14253000Y-11050000I55000J0D01*
G01*
X14143000Y-11687500D02*
X14253000Y-11797500D01*
X14253000Y-11687500D02*
X14143000Y-11797500D01*
X14253000Y-11742500D02*
G75*
G02*
X14143000Y-11742500I-55000J0D01*
G01*
X14143000Y-11742500D02*
G75*
G02*
X14253000Y-11742500I55000J0D01*
G01*
X14143000Y-12377500D02*
X14253000Y-12487500D01*
X14253000Y-12377500D02*
X14143000Y-12487500D01*
X14253000Y-12432500D02*
G75*
G02*
X14143000Y-12432500I-55000J0D01*
G01*
X14143000Y-12432500D02*
G75*
G02*
X14253000Y-12432500I55000J0D01*
G01*
X14175000Y-6365000D02*
X14285000Y-6475000D01*
X14285000Y-6365000D02*
X14175000Y-6475000D01*
X14285000Y-6420000D02*
G75*
G02*
X14175000Y-6420000I-55000J0D01*
G01*
X14175000Y-6420000D02*
G75*
G02*
X14285000Y-6420000I55000J0D01*
G01*
X14245000Y-5355000D02*
X14355000Y-5465000D01*
X14355000Y-5355000D02*
X14245000Y-5465000D01*
X14355000Y-5410000D02*
G75*
G02*
X14245000Y-5410000I-55000J0D01*
G01*
X14245000Y-5410000D02*
G75*
G02*
X14355000Y-5410000I55000J0D01*
G01*
X14245000Y-5905000D02*
X14355000Y-6015000D01*
X14355000Y-5905000D02*
X14245000Y-6015000D01*
X14355000Y-5960000D02*
G75*
G02*
X14245000Y-5960000I-55000J0D01*
G01*
X14245000Y-5960000D02*
G75*
G02*
X14355000Y-5960000I55000J0D01*
G01*
X14245000Y-13985000D02*
X14355000Y-14095000D01*
X14355000Y-13985000D02*
X14245000Y-14095000D01*
X14355000Y-14040000D02*
G75*
G02*
X14245000Y-14040000I-55000J0D01*
G01*
X14245000Y-14040000D02*
G75*
G02*
X14355000Y-14040000I55000J0D01*
G01*
X14245000Y-14535000D02*
X14355000Y-14645000D01*
X14355000Y-14535000D02*
X14245000Y-14645000D01*
X14355000Y-14590000D02*
G75*
G02*
X14245000Y-14590000I-55000J0D01*
G01*
X14245000Y-14590000D02*
G75*
G02*
X14355000Y-14590000I55000J0D01*
G01*
X14395000Y-10305000D02*
X14505000Y-10415000D01*
X14505000Y-10305000D02*
X14395000Y-10415000D01*
X14505000Y-10360000D02*
G75*
G02*
X14395000Y-10360000I-55000J0D01*
G01*
X14395000Y-10360000D02*
G75*
G02*
X14505000Y-10360000I55000J0D01*
G01*
X14395000Y-10995000D02*
X14505000Y-11105000D01*
X14505000Y-10995000D02*
X14395000Y-11105000D01*
X14505000Y-11050000D02*
G75*
G02*
X14395000Y-11050000I-55000J0D01*
G01*
X14395000Y-11050000D02*
G75*
G02*
X14505000Y-11050000I55000J0D01*
G01*
X14395000Y-11687500D02*
X14505000Y-11797500D01*
X14505000Y-11687500D02*
X14395000Y-11797500D01*
X14505000Y-11742500D02*
G75*
G02*
X14395000Y-11742500I-55000J0D01*
G01*
X14395000Y-11742500D02*
G75*
G02*
X14505000Y-11742500I55000J0D01*
G01*
X14395000Y-12377500D02*
X14505000Y-12487500D01*
X14505000Y-12377500D02*
X14395000Y-12487500D01*
X14505000Y-12432500D02*
G75*
G02*
X14395000Y-12432500I-55000J0D01*
G01*
X14395000Y-12432500D02*
G75*
G02*
X14505000Y-12432500I55000J0D01*
G01*
X14427000Y-6365000D02*
X14537000Y-6475000D01*
X14537000Y-6365000D02*
X14427000Y-6475000D01*
X14537000Y-6420000D02*
G75*
G02*
X14427000Y-6420000I-55000J0D01*
G01*
X14427000Y-6420000D02*
G75*
G02*
X14537000Y-6420000I55000J0D01*
G01*
X14595000Y-5355000D02*
X14705000Y-5465000D01*
X14705000Y-5355000D02*
X14595000Y-5465000D01*
X14705000Y-5410000D02*
G75*
G02*
X14595000Y-5410000I-55000J0D01*
G01*
X14595000Y-5410000D02*
G75*
G02*
X14705000Y-5410000I55000J0D01*
G01*
X14595000Y-5905000D02*
X14705000Y-6015000D01*
X14705000Y-5905000D02*
X14595000Y-6015000D01*
X14705000Y-5960000D02*
G75*
G02*
X14595000Y-5960000I-55000J0D01*
G01*
X14595000Y-5960000D02*
G75*
G02*
X14705000Y-5960000I55000J0D01*
G01*
X14595000Y-13985000D02*
X14705000Y-14095000D01*
X14705000Y-13985000D02*
X14595000Y-14095000D01*
X14705000Y-14040000D02*
G75*
G02*
X14595000Y-14040000I-55000J0D01*
G01*
X14595000Y-14040000D02*
G75*
G02*
X14705000Y-14040000I55000J0D01*
G01*
X14595000Y-14535000D02*
X14705000Y-14645000D01*
X14705000Y-14535000D02*
X14595000Y-14645000D01*
X14705000Y-14590000D02*
G75*
G02*
X14595000Y-14590000I-55000J0D01*
G01*
X14595000Y-14590000D02*
G75*
G02*
X14705000Y-14590000I55000J0D01*
G01*
X14647000Y-10305000D02*
X14757000Y-10415000D01*
X14757000Y-10305000D02*
X14647000Y-10415000D01*
X14757000Y-10360000D02*
G75*
G02*
X14647000Y-10360000I-55000J0D01*
G01*
X14647000Y-10360000D02*
G75*
G02*
X14757000Y-10360000I55000J0D01*
G01*
X14647000Y-10995000D02*
X14757000Y-11105000D01*
X14757000Y-10995000D02*
X14647000Y-11105000D01*
X14757000Y-11050000D02*
G75*
G02*
X14647000Y-11050000I-55000J0D01*
G01*
X14647000Y-11050000D02*
G75*
G02*
X14757000Y-11050000I55000J0D01*
G01*
X14647000Y-11687500D02*
X14757000Y-11797500D01*
X14757000Y-11687500D02*
X14647000Y-11797500D01*
X14757000Y-11742500D02*
G75*
G02*
X14647000Y-11742500I-55000J0D01*
G01*
X14647000Y-11742500D02*
G75*
G02*
X14757000Y-11742500I55000J0D01*
G01*
X14647000Y-12377500D02*
X14757000Y-12487500D01*
X14757000Y-12377500D02*
X14647000Y-12487500D01*
X14757000Y-12432500D02*
G75*
G02*
X14647000Y-12432500I-55000J0D01*
G01*
X14647000Y-12432500D02*
G75*
G02*
X14757000Y-12432500I55000J0D01*
G01*
D15*
X5644500Y-7635000D02*
X5774500Y-7765000D01*
X5774500Y-7635000D02*
X5644500Y-7765000D01*
X5709500Y-7635000D02*
X5709500Y-7765000D01*
X5644500Y-7700000D02*
X5774500Y-7700000D01*
X5644500Y-8135000D02*
X5774500Y-8265000D01*
X5774500Y-8135000D02*
X5644500Y-8265000D01*
X5709500Y-8135000D02*
X5709500Y-8265000D01*
X5644500Y-8200000D02*
X5774500Y-8200000D01*
X5645000Y-10635000D02*
X5775000Y-10765000D01*
X5775000Y-10635000D02*
X5645000Y-10765000D01*
X5710000Y-10635000D02*
X5710000Y-10765000D01*
X5645000Y-10700000D02*
X5775000Y-10700000D01*
X5645000Y-11135000D02*
X5775000Y-11265000D01*
X5775000Y-11135000D02*
X5645000Y-11265000D01*
X5710000Y-11135000D02*
X5710000Y-11265000D01*
X5645000Y-11200000D02*
X5775000Y-11200000D01*
X5645000Y-11635000D02*
X5775000Y-11765000D01*
X5775000Y-11635000D02*
X5645000Y-11765000D01*
X5710000Y-11635000D02*
X5710000Y-11765000D01*
X5645000Y-11700000D02*
X5775000Y-11700000D01*
X5645000Y-12135000D02*
X5775000Y-12265000D01*
X5775000Y-12135000D02*
X5645000Y-12265000D01*
X5710000Y-12135000D02*
X5710000Y-12265000D01*
X5645000Y-12200000D02*
X5775000Y-12200000D01*
X5645000Y-12635000D02*
X5775000Y-12765000D01*
X5775000Y-12635000D02*
X5645000Y-12765000D01*
X5710000Y-12635000D02*
X5710000Y-12765000D01*
X5645000Y-12700000D02*
X5775000Y-12700000D01*
X5645000Y-13135000D02*
X5775000Y-13265000D01*
X5775000Y-13135000D02*
X5645000Y-13265000D01*
X5710000Y-13135000D02*
X5710000Y-13265000D01*
X5645000Y-13200000D02*
X5775000Y-13200000D01*
D16*
X5611000Y-8852000D02*
X5789000Y-9030000D01*
X5789000Y-8852000D02*
X5611000Y-9030000D01*
X5762933Y-9003933D02*
X5762933Y-8878067D01*
X5637067Y-8878067D01*
X5637067Y-9003933D01*
X5762933Y-9003933D01*
X5611000Y-9844000D02*
X5789000Y-10022000D01*
X5789000Y-9844000D02*
X5611000Y-10022000D01*
X5762933Y-9995933D02*
X5762933Y-9870067D01*
X5637067Y-9870067D01*
X5637067Y-9995933D01*
X5762933Y-9995933D01*
X5951000Y-8852000D02*
X6129000Y-9030000D01*
X6129000Y-8852000D02*
X5951000Y-9030000D01*
X6102933Y-9003933D02*
X6102933Y-8878067D01*
X5977067Y-8878067D01*
X5977067Y-9003933D01*
X6102933Y-9003933D01*
X5951000Y-9844000D02*
X6129000Y-10022000D01*
X6129000Y-9844000D02*
X5951000Y-10022000D01*
X6102933Y-9995933D02*
X6102933Y-9870067D01*
X5977067Y-9870067D01*
X5977067Y-9995933D01*
X6102933Y-9995933D01*
X6411000Y-8852000D02*
X6589000Y-9030000D01*
X6589000Y-8852000D02*
X6411000Y-9030000D01*
X6562933Y-9003933D02*
X6562933Y-8878067D01*
X6437067Y-8878067D01*
X6437067Y-9003933D01*
X6562933Y-9003933D01*
X6411000Y-9844000D02*
X6589000Y-10022000D01*
X6589000Y-9844000D02*
X6411000Y-10022000D01*
X6562933Y-9995933D02*
X6562933Y-9870067D01*
X6437067Y-9870067D01*
X6437067Y-9995933D01*
X6562933Y-9995933D01*
X6411000Y-10648000D02*
X6589000Y-10826000D01*
X6589000Y-10648000D02*
X6411000Y-10826000D01*
X6562933Y-10799933D02*
X6562933Y-10674067D01*
X6437067Y-10674067D01*
X6437067Y-10799933D01*
X6562933Y-10799933D01*
X6411000Y-11640000D02*
X6589000Y-11818000D01*
X6589000Y-11640000D02*
X6411000Y-11818000D01*
X6562933Y-11791933D02*
X6562933Y-11666067D01*
X6437067Y-11666067D01*
X6437067Y-11791933D01*
X6562933Y-11791933D01*
X6751000Y-8852000D02*
X6929000Y-9030000D01*
X6929000Y-8852000D02*
X6751000Y-9030000D01*
X6902933Y-9003933D02*
X6902933Y-8878067D01*
X6777067Y-8878067D01*
X6777067Y-9003933D01*
X6902933Y-9003933D01*
X6751000Y-9844000D02*
X6929000Y-10022000D01*
X6929000Y-9844000D02*
X6751000Y-10022000D01*
X6902933Y-9995933D02*
X6902933Y-9870067D01*
X6777067Y-9870067D01*
X6777067Y-9995933D01*
X6902933Y-9995933D01*
X6751000Y-10648000D02*
X6929000Y-10826000D01*
X6929000Y-10648000D02*
X6751000Y-10826000D01*
X6902933Y-10799933D02*
X6902933Y-10674067D01*
X6777067Y-10674067D01*
X6777067Y-10799933D01*
X6902933Y-10799933D01*
X6751000Y-11640000D02*
X6929000Y-11818000D01*
X6929000Y-11640000D02*
X6751000Y-11818000D01*
X6902933Y-11791933D02*
X6902933Y-11666067D01*
X6777067Y-11666067D01*
X6777067Y-11791933D01*
X6902933Y-11791933D01*
D11*
X5258277Y-15313984D02*
X5258277Y-15113984D01*
X5258277Y-15113984D02*
X5305896Y-15113984D01*
X5305896Y-15113984D02*
X5334467Y-15123508D01*
X5334467Y-15123508D02*
X5353515Y-15142555D01*
X5353515Y-15142555D02*
X5363039Y-15161603D01*
X5363039Y-15161603D02*
X5372563Y-15199698D01*
X5372563Y-15199698D02*
X5372563Y-15228269D01*
X5372563Y-15228269D02*
X5363039Y-15266365D01*
X5363039Y-15266365D02*
X5353515Y-15285412D01*
X5353515Y-15285412D02*
X5334467Y-15304460D01*
X5334467Y-15304460D02*
X5305896Y-15313984D01*
X5305896Y-15313984D02*
X5258277Y-15313984D01*
X5458277Y-15313984D02*
X5458277Y-15180650D01*
X5458277Y-15218746D02*
X5467801Y-15199698D01*
X5467801Y-15199698D02*
X5477324Y-15190174D01*
X5477324Y-15190174D02*
X5496372Y-15180650D01*
X5496372Y-15180650D02*
X5515420Y-15180650D01*
X5582086Y-15313984D02*
X5582086Y-15180650D01*
X5582086Y-15113984D02*
X5572563Y-15123508D01*
X5572563Y-15123508D02*
X5582086Y-15133031D01*
X5582086Y-15133031D02*
X5591610Y-15123508D01*
X5591610Y-15123508D02*
X5582086Y-15113984D01*
X5582086Y-15113984D02*
X5582086Y-15133031D01*
X5705896Y-15313984D02*
X5686848Y-15304460D01*
X5686848Y-15304460D02*
X5677324Y-15285412D01*
X5677324Y-15285412D02*
X5677324Y-15113984D01*
X5810658Y-15313984D02*
X5791610Y-15304460D01*
X5791610Y-15304460D02*
X5782086Y-15285412D01*
X5782086Y-15285412D02*
X5782086Y-15113984D01*
X6039229Y-15313984D02*
X6039229Y-15113984D01*
X6039229Y-15113984D02*
X6105896Y-15256841D01*
X6105896Y-15256841D02*
X6172562Y-15113984D01*
X6172562Y-15113984D02*
X6172562Y-15313984D01*
X6353515Y-15313984D02*
X6353515Y-15209222D01*
X6353515Y-15209222D02*
X6343991Y-15190174D01*
X6343991Y-15190174D02*
X6324943Y-15180650D01*
X6324943Y-15180650D02*
X6286848Y-15180650D01*
X6286848Y-15180650D02*
X6267801Y-15190174D01*
X6353515Y-15304460D02*
X6334467Y-15313984D01*
X6334467Y-15313984D02*
X6286848Y-15313984D01*
X6286848Y-15313984D02*
X6267801Y-15304460D01*
X6267801Y-15304460D02*
X6258277Y-15285412D01*
X6258277Y-15285412D02*
X6258277Y-15266365D01*
X6258277Y-15266365D02*
X6267801Y-15247317D01*
X6267801Y-15247317D02*
X6286848Y-15237793D01*
X6286848Y-15237793D02*
X6334467Y-15237793D01*
X6334467Y-15237793D02*
X6353515Y-15228269D01*
X6448753Y-15180650D02*
X6448753Y-15380650D01*
X6448753Y-15190174D02*
X6467801Y-15180650D01*
X6467801Y-15180650D02*
X6505896Y-15180650D01*
X6505896Y-15180650D02*
X6524943Y-15190174D01*
X6524943Y-15190174D02*
X6534467Y-15199698D01*
X6534467Y-15199698D02*
X6543991Y-15218746D01*
X6543991Y-15218746D02*
X6543991Y-15275888D01*
X6543991Y-15275888D02*
X6534467Y-15294936D01*
X6534467Y-15294936D02*
X6524943Y-15304460D01*
X6524943Y-15304460D02*
X6505896Y-15313984D01*
X6505896Y-15313984D02*
X6467801Y-15313984D01*
X6467801Y-15313984D02*
X6448753Y-15304460D01*
X6629705Y-15294936D02*
X6639229Y-15304460D01*
X6639229Y-15304460D02*
X6629705Y-15313984D01*
X6629705Y-15313984D02*
X6620182Y-15304460D01*
X6620182Y-15304460D02*
X6629705Y-15294936D01*
X6629705Y-15294936D02*
X6629705Y-15313984D01*
X6629705Y-15190174D02*
X6639229Y-15199698D01*
X6639229Y-15199698D02*
X6629705Y-15209222D01*
X6629705Y-15209222D02*
X6620182Y-15199698D01*
X6620182Y-15199698D02*
X6629705Y-15190174D01*
X6629705Y-15190174D02*
X6629705Y-15209222D01*
D12*
X4967500Y-15627500D02*
X4997500Y-15657500D01*
X4997500Y-15627500D02*
X4967500Y-15657500D01*
D11*
X5296372Y-15533984D02*
X5315420Y-15533984D01*
X5315420Y-15533984D02*
X5334467Y-15543508D01*
X5334467Y-15543508D02*
X5343991Y-15553031D01*
X5343991Y-15553031D02*
X5353515Y-15572079D01*
X5353515Y-15572079D02*
X5363039Y-15610174D01*
X5363039Y-15610174D02*
X5363039Y-15657793D01*
X5363039Y-15657793D02*
X5353515Y-15695888D01*
X5353515Y-15695888D02*
X5343991Y-15714936D01*
X5343991Y-15714936D02*
X5334467Y-15724460D01*
X5334467Y-15724460D02*
X5315420Y-15733984D01*
X5315420Y-15733984D02*
X5296372Y-15733984D01*
X5296372Y-15733984D02*
X5277324Y-15724460D01*
X5277324Y-15724460D02*
X5267801Y-15714936D01*
X5267801Y-15714936D02*
X5258277Y-15695888D01*
X5258277Y-15695888D02*
X5248753Y-15657793D01*
X5248753Y-15657793D02*
X5248753Y-15610174D01*
X5248753Y-15610174D02*
X5258277Y-15572079D01*
X5258277Y-15572079D02*
X5267801Y-15553031D01*
X5267801Y-15553031D02*
X5277324Y-15543508D01*
X5277324Y-15543508D02*
X5296372Y-15533984D01*
X5448753Y-15714936D02*
X5458277Y-15724460D01*
X5458277Y-15724460D02*
X5448753Y-15733984D01*
X5448753Y-15733984D02*
X5439229Y-15724460D01*
X5439229Y-15724460D02*
X5448753Y-15714936D01*
X5448753Y-15714936D02*
X5448753Y-15733984D01*
X5524944Y-15533984D02*
X5648753Y-15533984D01*
X5648753Y-15533984D02*
X5582086Y-15610174D01*
X5582086Y-15610174D02*
X5610658Y-15610174D01*
X5610658Y-15610174D02*
X5629705Y-15619698D01*
X5629705Y-15619698D02*
X5639229Y-15629222D01*
X5639229Y-15629222D02*
X5648753Y-15648269D01*
X5648753Y-15648269D02*
X5648753Y-15695888D01*
X5648753Y-15695888D02*
X5639229Y-15714936D01*
X5639229Y-15714936D02*
X5629705Y-15724460D01*
X5629705Y-15724460D02*
X5610658Y-15733984D01*
X5610658Y-15733984D02*
X5553515Y-15733984D01*
X5553515Y-15733984D02*
X5534467Y-15724460D01*
X5534467Y-15724460D02*
X5524944Y-15714936D01*
X5772562Y-15533984D02*
X5791610Y-15533984D01*
X5791610Y-15533984D02*
X5810658Y-15543508D01*
X5810658Y-15543508D02*
X5820182Y-15553031D01*
X5820182Y-15553031D02*
X5829705Y-15572079D01*
X5829705Y-15572079D02*
X5839229Y-15610174D01*
X5839229Y-15610174D02*
X5839229Y-15657793D01*
X5839229Y-15657793D02*
X5829705Y-15695888D01*
X5829705Y-15695888D02*
X5820182Y-15714936D01*
X5820182Y-15714936D02*
X5810658Y-15724460D01*
X5810658Y-15724460D02*
X5791610Y-15733984D01*
X5791610Y-15733984D02*
X5772562Y-15733984D01*
X5772562Y-15733984D02*
X5753515Y-15724460D01*
X5753515Y-15724460D02*
X5743991Y-15714936D01*
X5743991Y-15714936D02*
X5734467Y-15695888D01*
X5734467Y-15695888D02*
X5724943Y-15657793D01*
X5724943Y-15657793D02*
X5724943Y-15610174D01*
X5724943Y-15610174D02*
X5734467Y-15572079D01*
X5734467Y-15572079D02*
X5743991Y-15553031D01*
X5743991Y-15553031D02*
X5753515Y-15543508D01*
X5753515Y-15543508D02*
X5772562Y-15533984D01*
X5963039Y-15533984D02*
X5982086Y-15533984D01*
X5982086Y-15533984D02*
X6001134Y-15543508D01*
X6001134Y-15543508D02*
X6010658Y-15553031D01*
X6010658Y-15553031D02*
X6020182Y-15572079D01*
X6020182Y-15572079D02*
X6029705Y-15610174D01*
X6029705Y-15610174D02*
X6029705Y-15657793D01*
X6029705Y-15657793D02*
X6020182Y-15695888D01*
X6020182Y-15695888D02*
X6010658Y-15714936D01*
X6010658Y-15714936D02*
X6001134Y-15724460D01*
X6001134Y-15724460D02*
X5982086Y-15733984D01*
X5982086Y-15733984D02*
X5963039Y-15733984D01*
X5963039Y-15733984D02*
X5943991Y-15724460D01*
X5943991Y-15724460D02*
X5934467Y-15714936D01*
X5934467Y-15714936D02*
X5924943Y-15695888D01*
X5924943Y-15695888D02*
X5915420Y-15657793D01*
X5915420Y-15657793D02*
X5915420Y-15610174D01*
X5915420Y-15610174D02*
X5924943Y-15572079D01*
X5924943Y-15572079D02*
X5934467Y-15553031D01*
X5934467Y-15553031D02*
X5943991Y-15543508D01*
X5943991Y-15543508D02*
X5963039Y-15533984D01*
X6115420Y-15733984D02*
X6115420Y-15600650D01*
X6115420Y-15619698D02*
X6124943Y-15610174D01*
X6124943Y-15610174D02*
X6143991Y-15600650D01*
X6143991Y-15600650D02*
X6172563Y-15600650D01*
X6172563Y-15600650D02*
X6191610Y-15610174D01*
X6191610Y-15610174D02*
X6201134Y-15629222D01*
X6201134Y-15629222D02*
X6201134Y-15733984D01*
X6201134Y-15629222D02*
X6210658Y-15610174D01*
X6210658Y-15610174D02*
X6229705Y-15600650D01*
X6229705Y-15600650D02*
X6258277Y-15600650D01*
X6258277Y-15600650D02*
X6277324Y-15610174D01*
X6277324Y-15610174D02*
X6286848Y-15629222D01*
X6286848Y-15629222D02*
X6286848Y-15733984D01*
X6382086Y-15733984D02*
X6382086Y-15600650D01*
X6382086Y-15619698D02*
X6391610Y-15610174D01*
X6391610Y-15610174D02*
X6410658Y-15600650D01*
X6410658Y-15600650D02*
X6439229Y-15600650D01*
X6439229Y-15600650D02*
X6458277Y-15610174D01*
X6458277Y-15610174D02*
X6467801Y-15629222D01*
X6467801Y-15629222D02*
X6467801Y-15733984D01*
X6467801Y-15629222D02*
X6477324Y-15610174D01*
X6477324Y-15610174D02*
X6496372Y-15600650D01*
X6496372Y-15600650D02*
X6524943Y-15600650D01*
X6524943Y-15600650D02*
X6543991Y-15610174D01*
X6543991Y-15610174D02*
X6553515Y-15629222D01*
X6553515Y-15629222D02*
X6553515Y-15733984D01*
X6943991Y-15524460D02*
X6772563Y-15781603D01*
X7201134Y-15533984D02*
X7220182Y-15533984D01*
X7220182Y-15533984D02*
X7239229Y-15543508D01*
X7239229Y-15543508D02*
X7248753Y-15553031D01*
X7248753Y-15553031D02*
X7258277Y-15572079D01*
X7258277Y-15572079D02*
X7267801Y-15610174D01*
X7267801Y-15610174D02*
X7267801Y-15657793D01*
X7267801Y-15657793D02*
X7258277Y-15695888D01*
X7258277Y-15695888D02*
X7248753Y-15714936D01*
X7248753Y-15714936D02*
X7239229Y-15724460D01*
X7239229Y-15724460D02*
X7220182Y-15733984D01*
X7220182Y-15733984D02*
X7201134Y-15733984D01*
X7201134Y-15733984D02*
X7182086Y-15724460D01*
X7182086Y-15724460D02*
X7172563Y-15714936D01*
X7172563Y-15714936D02*
X7163039Y-15695888D01*
X7163039Y-15695888D02*
X7153515Y-15657793D01*
X7153515Y-15657793D02*
X7153515Y-15610174D01*
X7153515Y-15610174D02*
X7163039Y-15572079D01*
X7163039Y-15572079D02*
X7172563Y-15553031D01*
X7172563Y-15553031D02*
X7182086Y-15543508D01*
X7182086Y-15543508D02*
X7201134Y-15533984D01*
X7353515Y-15714936D02*
X7363039Y-15724460D01*
X7363039Y-15724460D02*
X7353515Y-15733984D01*
X7353515Y-15733984D02*
X7343991Y-15724460D01*
X7343991Y-15724460D02*
X7353515Y-15714936D01*
X7353515Y-15714936D02*
X7353515Y-15733984D01*
X7486848Y-15533984D02*
X7505896Y-15533984D01*
X7505896Y-15533984D02*
X7524944Y-15543508D01*
X7524944Y-15543508D02*
X7534467Y-15553031D01*
X7534467Y-15553031D02*
X7543991Y-15572079D01*
X7543991Y-15572079D02*
X7553515Y-15610174D01*
X7553515Y-15610174D02*
X7553515Y-15657793D01*
X7553515Y-15657793D02*
X7543991Y-15695888D01*
X7543991Y-15695888D02*
X7534467Y-15714936D01*
X7534467Y-15714936D02*
X7524944Y-15724460D01*
X7524944Y-15724460D02*
X7505896Y-15733984D01*
X7505896Y-15733984D02*
X7486848Y-15733984D01*
X7486848Y-15733984D02*
X7467801Y-15724460D01*
X7467801Y-15724460D02*
X7458277Y-15714936D01*
X7458277Y-15714936D02*
X7448753Y-15695888D01*
X7448753Y-15695888D02*
X7439229Y-15657793D01*
X7439229Y-15657793D02*
X7439229Y-15610174D01*
X7439229Y-15610174D02*
X7448753Y-15572079D01*
X7448753Y-15572079D02*
X7458277Y-15553031D01*
X7458277Y-15553031D02*
X7467801Y-15543508D01*
X7467801Y-15543508D02*
X7486848Y-15533984D01*
X7743991Y-15733984D02*
X7629706Y-15733984D01*
X7686848Y-15733984D02*
X7686848Y-15533984D01*
X7686848Y-15533984D02*
X7667801Y-15562555D01*
X7667801Y-15562555D02*
X7648753Y-15581603D01*
X7648753Y-15581603D02*
X7629706Y-15591127D01*
X7934467Y-15733984D02*
X7820182Y-15733984D01*
X7877325Y-15733984D02*
X7877325Y-15533984D01*
X7877325Y-15533984D02*
X7858277Y-15562555D01*
X7858277Y-15562555D02*
X7839229Y-15581603D01*
X7839229Y-15581603D02*
X7820182Y-15591127D01*
X8048753Y-15619698D02*
X8029706Y-15610174D01*
X8029706Y-15610174D02*
X8020182Y-15600650D01*
X8020182Y-15600650D02*
X8010658Y-15581603D01*
X8010658Y-15581603D02*
X8010658Y-15572079D01*
X8010658Y-15572079D02*
X8020182Y-15553031D01*
X8020182Y-15553031D02*
X8029706Y-15543508D01*
X8029706Y-15543508D02*
X8048753Y-15533984D01*
X8048753Y-15533984D02*
X8086848Y-15533984D01*
X8086848Y-15533984D02*
X8105896Y-15543508D01*
X8105896Y-15543508D02*
X8115420Y-15553031D01*
X8115420Y-15553031D02*
X8124944Y-15572079D01*
X8124944Y-15572079D02*
X8124944Y-15581603D01*
X8124944Y-15581603D02*
X8115420Y-15600650D01*
X8115420Y-15600650D02*
X8105896Y-15610174D01*
X8105896Y-15610174D02*
X8086848Y-15619698D01*
X8086848Y-15619698D02*
X8048753Y-15619698D01*
X8048753Y-15619698D02*
X8029706Y-15629222D01*
X8029706Y-15629222D02*
X8020182Y-15638746D01*
X8020182Y-15638746D02*
X8010658Y-15657793D01*
X8010658Y-15657793D02*
X8010658Y-15695888D01*
X8010658Y-15695888D02*
X8020182Y-15714936D01*
X8020182Y-15714936D02*
X8029706Y-15724460D01*
X8029706Y-15724460D02*
X8048753Y-15733984D01*
X8048753Y-15733984D02*
X8086848Y-15733984D01*
X8086848Y-15733984D02*
X8105896Y-15724460D01*
X8105896Y-15724460D02*
X8115420Y-15714936D01*
X8115420Y-15714936D02*
X8124944Y-15695888D01*
X8124944Y-15695888D02*
X8124944Y-15657793D01*
X8124944Y-15657793D02*
X8115420Y-15638746D01*
X8115420Y-15638746D02*
X8105896Y-15629222D01*
X8105896Y-15629222D02*
X8086848Y-15619698D01*
X8201134Y-15533984D02*
X8201134Y-15572079D01*
X8277325Y-15533984D02*
X8277325Y-15572079D01*
X8572563Y-15810174D02*
X8563039Y-15800650D01*
X8563039Y-15800650D02*
X8543991Y-15772079D01*
X8543991Y-15772079D02*
X8534468Y-15753031D01*
X8534468Y-15753031D02*
X8524944Y-15724460D01*
X8524944Y-15724460D02*
X8515420Y-15676841D01*
X8515420Y-15676841D02*
X8515420Y-15638746D01*
X8515420Y-15638746D02*
X8524944Y-15591127D01*
X8524944Y-15591127D02*
X8534468Y-15562555D01*
X8534468Y-15562555D02*
X8543991Y-15543508D01*
X8543991Y-15543508D02*
X8563039Y-15514936D01*
X8563039Y-15514936D02*
X8572563Y-15505412D01*
X8639230Y-15553031D02*
X8648753Y-15543508D01*
X8648753Y-15543508D02*
X8667801Y-15533984D01*
X8667801Y-15533984D02*
X8715420Y-15533984D01*
X8715420Y-15533984D02*
X8734468Y-15543508D01*
X8734468Y-15543508D02*
X8743991Y-15553031D01*
X8743991Y-15553031D02*
X8753515Y-15572079D01*
X8753515Y-15572079D02*
X8753515Y-15591127D01*
X8753515Y-15591127D02*
X8743991Y-15619698D01*
X8743991Y-15619698D02*
X8629706Y-15733984D01*
X8629706Y-15733984D02*
X8753515Y-15733984D01*
X8877325Y-15533984D02*
X8896372Y-15533984D01*
X8896372Y-15533984D02*
X8915420Y-15543508D01*
X8915420Y-15543508D02*
X8924944Y-15553031D01*
X8924944Y-15553031D02*
X8934468Y-15572079D01*
X8934468Y-15572079D02*
X8943991Y-15610174D01*
X8943991Y-15610174D02*
X8943991Y-15657793D01*
X8943991Y-15657793D02*
X8934468Y-15695888D01*
X8934468Y-15695888D02*
X8924944Y-15714936D01*
X8924944Y-15714936D02*
X8915420Y-15724460D01*
X8915420Y-15724460D02*
X8896372Y-15733984D01*
X8896372Y-15733984D02*
X8877325Y-15733984D01*
X8877325Y-15733984D02*
X8858277Y-15724460D01*
X8858277Y-15724460D02*
X8848753Y-15714936D01*
X8848753Y-15714936D02*
X8839230Y-15695888D01*
X8839230Y-15695888D02*
X8829706Y-15657793D01*
X8829706Y-15657793D02*
X8829706Y-15610174D01*
X8829706Y-15610174D02*
X8839230Y-15572079D01*
X8839230Y-15572079D02*
X8848753Y-15553031D01*
X8848753Y-15553031D02*
X8858277Y-15543508D01*
X8858277Y-15543508D02*
X8877325Y-15533984D01*
X9058277Y-15619698D02*
X9039230Y-15610174D01*
X9039230Y-15610174D02*
X9029706Y-15600650D01*
X9029706Y-15600650D02*
X9020182Y-15581603D01*
X9020182Y-15581603D02*
X9020182Y-15572079D01*
X9020182Y-15572079D02*
X9029706Y-15553031D01*
X9029706Y-15553031D02*
X9039230Y-15543508D01*
X9039230Y-15543508D02*
X9058277Y-15533984D01*
X9058277Y-15533984D02*
X9096372Y-15533984D01*
X9096372Y-15533984D02*
X9115420Y-15543508D01*
X9115420Y-15543508D02*
X9124944Y-15553031D01*
X9124944Y-15553031D02*
X9134468Y-15572079D01*
X9134468Y-15572079D02*
X9134468Y-15581603D01*
X9134468Y-15581603D02*
X9124944Y-15600650D01*
X9124944Y-15600650D02*
X9115420Y-15610174D01*
X9115420Y-15610174D02*
X9096372Y-15619698D01*
X9096372Y-15619698D02*
X9058277Y-15619698D01*
X9058277Y-15619698D02*
X9039230Y-15629222D01*
X9039230Y-15629222D02*
X9029706Y-15638746D01*
X9029706Y-15638746D02*
X9020182Y-15657793D01*
X9020182Y-15657793D02*
X9020182Y-15695888D01*
X9020182Y-15695888D02*
X9029706Y-15714936D01*
X9029706Y-15714936D02*
X9039230Y-15724460D01*
X9039230Y-15724460D02*
X9058277Y-15733984D01*
X9058277Y-15733984D02*
X9096372Y-15733984D01*
X9096372Y-15733984D02*
X9115420Y-15724460D01*
X9115420Y-15724460D02*
X9124944Y-15714936D01*
X9124944Y-15714936D02*
X9134468Y-15695888D01*
X9134468Y-15695888D02*
X9134468Y-15657793D01*
X9134468Y-15657793D02*
X9124944Y-15638746D01*
X9124944Y-15638746D02*
X9115420Y-15629222D01*
X9115420Y-15629222D02*
X9096372Y-15619698D01*
X9372563Y-15733984D02*
X9372563Y-15533984D01*
X9458277Y-15733984D02*
X9458277Y-15629222D01*
X9458277Y-15629222D02*
X9448753Y-15610174D01*
X9448753Y-15610174D02*
X9429706Y-15600650D01*
X9429706Y-15600650D02*
X9401134Y-15600650D01*
X9401134Y-15600650D02*
X9382087Y-15610174D01*
X9382087Y-15610174D02*
X9372563Y-15619698D01*
X9582087Y-15733984D02*
X9563039Y-15724460D01*
X9563039Y-15724460D02*
X9553515Y-15714936D01*
X9553515Y-15714936D02*
X9543992Y-15695888D01*
X9543992Y-15695888D02*
X9543992Y-15638746D01*
X9543992Y-15638746D02*
X9553515Y-15619698D01*
X9553515Y-15619698D02*
X9563039Y-15610174D01*
X9563039Y-15610174D02*
X9582087Y-15600650D01*
X9582087Y-15600650D02*
X9610658Y-15600650D01*
X9610658Y-15600650D02*
X9629706Y-15610174D01*
X9629706Y-15610174D02*
X9639230Y-15619698D01*
X9639230Y-15619698D02*
X9648753Y-15638746D01*
X9648753Y-15638746D02*
X9648753Y-15695888D01*
X9648753Y-15695888D02*
X9639230Y-15714936D01*
X9639230Y-15714936D02*
X9629706Y-15724460D01*
X9629706Y-15724460D02*
X9610658Y-15733984D01*
X9610658Y-15733984D02*
X9582087Y-15733984D01*
X9763039Y-15733984D02*
X9743992Y-15724460D01*
X9743992Y-15724460D02*
X9734468Y-15705412D01*
X9734468Y-15705412D02*
X9734468Y-15533984D01*
X9915420Y-15724460D02*
X9896373Y-15733984D01*
X9896373Y-15733984D02*
X9858277Y-15733984D01*
X9858277Y-15733984D02*
X9839230Y-15724460D01*
X9839230Y-15724460D02*
X9829706Y-15705412D01*
X9829706Y-15705412D02*
X9829706Y-15629222D01*
X9829706Y-15629222D02*
X9839230Y-15610174D01*
X9839230Y-15610174D02*
X9858277Y-15600650D01*
X9858277Y-15600650D02*
X9896373Y-15600650D01*
X9896373Y-15600650D02*
X9915420Y-15610174D01*
X9915420Y-15610174D02*
X9924944Y-15629222D01*
X9924944Y-15629222D02*
X9924944Y-15648269D01*
X9924944Y-15648269D02*
X9829706Y-15667317D01*
X10001134Y-15724460D02*
X10020182Y-15733984D01*
X10020182Y-15733984D02*
X10058277Y-15733984D01*
X10058277Y-15733984D02*
X10077325Y-15724460D01*
X10077325Y-15724460D02*
X10086849Y-15705412D01*
X10086849Y-15705412D02*
X10086849Y-15695888D01*
X10086849Y-15695888D02*
X10077325Y-15676841D01*
X10077325Y-15676841D02*
X10058277Y-15667317D01*
X10058277Y-15667317D02*
X10029706Y-15667317D01*
X10029706Y-15667317D02*
X10010658Y-15657793D01*
X10010658Y-15657793D02*
X10001134Y-15638746D01*
X10001134Y-15638746D02*
X10001134Y-15629222D01*
X10001134Y-15629222D02*
X10010658Y-15610174D01*
X10010658Y-15610174D02*
X10029706Y-15600650D01*
X10029706Y-15600650D02*
X10058277Y-15600650D01*
X10058277Y-15600650D02*
X10077325Y-15610174D01*
X10153515Y-15810174D02*
X10163039Y-15800650D01*
X10163039Y-15800650D02*
X10182087Y-15772079D01*
X10182087Y-15772079D02*
X10191611Y-15753031D01*
X10191611Y-15753031D02*
X10201134Y-15724460D01*
X10201134Y-15724460D02*
X10210658Y-15676841D01*
X10210658Y-15676841D02*
X10210658Y-15638746D01*
X10210658Y-15638746D02*
X10201134Y-15591127D01*
X10201134Y-15591127D02*
X10191611Y-15562555D01*
X10191611Y-15562555D02*
X10182087Y-15543508D01*
X10182087Y-15543508D02*
X10163039Y-15514936D01*
X10163039Y-15514936D02*
X10153515Y-15505412D01*
D12*
X4997500Y-15906500D02*
G75*
G02*
X4957500Y-15906500I-20000J0D01*
G01*
X4957500Y-15906500D02*
G75*
G02*
X4997500Y-15906500I20000J0D01*
G01*
D11*
X5296372Y-15797984D02*
X5315420Y-15797984D01*
X5315420Y-15797984D02*
X5334467Y-15807508D01*
X5334467Y-15807508D02*
X5343991Y-15817031D01*
X5343991Y-15817031D02*
X5353515Y-15836079D01*
X5353515Y-15836079D02*
X5363039Y-15874174D01*
X5363039Y-15874174D02*
X5363039Y-15921793D01*
X5363039Y-15921793D02*
X5353515Y-15959888D01*
X5353515Y-15959888D02*
X5343991Y-15978936D01*
X5343991Y-15978936D02*
X5334467Y-15988460D01*
X5334467Y-15988460D02*
X5315420Y-15997984D01*
X5315420Y-15997984D02*
X5296372Y-15997984D01*
X5296372Y-15997984D02*
X5277324Y-15988460D01*
X5277324Y-15988460D02*
X5267801Y-15978936D01*
X5267801Y-15978936D02*
X5258277Y-15959888D01*
X5258277Y-15959888D02*
X5248753Y-15921793D01*
X5248753Y-15921793D02*
X5248753Y-15874174D01*
X5248753Y-15874174D02*
X5258277Y-15836079D01*
X5258277Y-15836079D02*
X5267801Y-15817031D01*
X5267801Y-15817031D02*
X5277324Y-15807508D01*
X5277324Y-15807508D02*
X5296372Y-15797984D01*
X5448753Y-15978936D02*
X5458277Y-15988460D01*
X5458277Y-15988460D02*
X5448753Y-15997984D01*
X5448753Y-15997984D02*
X5439229Y-15988460D01*
X5439229Y-15988460D02*
X5448753Y-15978936D01*
X5448753Y-15978936D02*
X5448753Y-15997984D01*
X5629705Y-15864650D02*
X5629705Y-15997984D01*
X5582086Y-15788460D02*
X5534467Y-15931317D01*
X5534467Y-15931317D02*
X5658277Y-15931317D01*
X5772562Y-15797984D02*
X5791610Y-15797984D01*
X5791610Y-15797984D02*
X5810658Y-15807508D01*
X5810658Y-15807508D02*
X5820182Y-15817031D01*
X5820182Y-15817031D02*
X5829705Y-15836079D01*
X5829705Y-15836079D02*
X5839229Y-15874174D01*
X5839229Y-15874174D02*
X5839229Y-15921793D01*
X5839229Y-15921793D02*
X5829705Y-15959888D01*
X5829705Y-15959888D02*
X5820182Y-15978936D01*
X5820182Y-15978936D02*
X5810658Y-15988460D01*
X5810658Y-15988460D02*
X5791610Y-15997984D01*
X5791610Y-15997984D02*
X5772562Y-15997984D01*
X5772562Y-15997984D02*
X5753515Y-15988460D01*
X5753515Y-15988460D02*
X5743991Y-15978936D01*
X5743991Y-15978936D02*
X5734467Y-15959888D01*
X5734467Y-15959888D02*
X5724943Y-15921793D01*
X5724943Y-15921793D02*
X5724943Y-15874174D01*
X5724943Y-15874174D02*
X5734467Y-15836079D01*
X5734467Y-15836079D02*
X5743991Y-15817031D01*
X5743991Y-15817031D02*
X5753515Y-15807508D01*
X5753515Y-15807508D02*
X5772562Y-15797984D01*
X5963039Y-15797984D02*
X5982086Y-15797984D01*
X5982086Y-15797984D02*
X6001134Y-15807508D01*
X6001134Y-15807508D02*
X6010658Y-15817031D01*
X6010658Y-15817031D02*
X6020182Y-15836079D01*
X6020182Y-15836079D02*
X6029705Y-15874174D01*
X6029705Y-15874174D02*
X6029705Y-15921793D01*
X6029705Y-15921793D02*
X6020182Y-15959888D01*
X6020182Y-15959888D02*
X6010658Y-15978936D01*
X6010658Y-15978936D02*
X6001134Y-15988460D01*
X6001134Y-15988460D02*
X5982086Y-15997984D01*
X5982086Y-15997984D02*
X5963039Y-15997984D01*
X5963039Y-15997984D02*
X5943991Y-15988460D01*
X5943991Y-15988460D02*
X5934467Y-15978936D01*
X5934467Y-15978936D02*
X5924943Y-15959888D01*
X5924943Y-15959888D02*
X5915420Y-15921793D01*
X5915420Y-15921793D02*
X5915420Y-15874174D01*
X5915420Y-15874174D02*
X5924943Y-15836079D01*
X5924943Y-15836079D02*
X5934467Y-15817031D01*
X5934467Y-15817031D02*
X5943991Y-15807508D01*
X5943991Y-15807508D02*
X5963039Y-15797984D01*
X6115420Y-15997984D02*
X6115420Y-15864650D01*
X6115420Y-15883698D02*
X6124943Y-15874174D01*
X6124943Y-15874174D02*
X6143991Y-15864650D01*
X6143991Y-15864650D02*
X6172563Y-15864650D01*
X6172563Y-15864650D02*
X6191610Y-15874174D01*
X6191610Y-15874174D02*
X6201134Y-15893222D01*
X6201134Y-15893222D02*
X6201134Y-15997984D01*
X6201134Y-15893222D02*
X6210658Y-15874174D01*
X6210658Y-15874174D02*
X6229705Y-15864650D01*
X6229705Y-15864650D02*
X6258277Y-15864650D01*
X6258277Y-15864650D02*
X6277324Y-15874174D01*
X6277324Y-15874174D02*
X6286848Y-15893222D01*
X6286848Y-15893222D02*
X6286848Y-15997984D01*
X6382086Y-15997984D02*
X6382086Y-15864650D01*
X6382086Y-15883698D02*
X6391610Y-15874174D01*
X6391610Y-15874174D02*
X6410658Y-15864650D01*
X6410658Y-15864650D02*
X6439229Y-15864650D01*
X6439229Y-15864650D02*
X6458277Y-15874174D01*
X6458277Y-15874174D02*
X6467801Y-15893222D01*
X6467801Y-15893222D02*
X6467801Y-15997984D01*
X6467801Y-15893222D02*
X6477324Y-15874174D01*
X6477324Y-15874174D02*
X6496372Y-15864650D01*
X6496372Y-15864650D02*
X6524943Y-15864650D01*
X6524943Y-15864650D02*
X6543991Y-15874174D01*
X6543991Y-15874174D02*
X6553515Y-15893222D01*
X6553515Y-15893222D02*
X6553515Y-15997984D01*
X6943991Y-15788460D02*
X6772563Y-16045603D01*
X7201134Y-15797984D02*
X7220182Y-15797984D01*
X7220182Y-15797984D02*
X7239229Y-15807508D01*
X7239229Y-15807508D02*
X7248753Y-15817031D01*
X7248753Y-15817031D02*
X7258277Y-15836079D01*
X7258277Y-15836079D02*
X7267801Y-15874174D01*
X7267801Y-15874174D02*
X7267801Y-15921793D01*
X7267801Y-15921793D02*
X7258277Y-15959888D01*
X7258277Y-15959888D02*
X7248753Y-15978936D01*
X7248753Y-15978936D02*
X7239229Y-15988460D01*
X7239229Y-15988460D02*
X7220182Y-15997984D01*
X7220182Y-15997984D02*
X7201134Y-15997984D01*
X7201134Y-15997984D02*
X7182086Y-15988460D01*
X7182086Y-15988460D02*
X7172563Y-15978936D01*
X7172563Y-15978936D02*
X7163039Y-15959888D01*
X7163039Y-15959888D02*
X7153515Y-15921793D01*
X7153515Y-15921793D02*
X7153515Y-15874174D01*
X7153515Y-15874174D02*
X7163039Y-15836079D01*
X7163039Y-15836079D02*
X7172563Y-15817031D01*
X7172563Y-15817031D02*
X7182086Y-15807508D01*
X7182086Y-15807508D02*
X7201134Y-15797984D01*
X7353515Y-15978936D02*
X7363039Y-15988460D01*
X7363039Y-15988460D02*
X7353515Y-15997984D01*
X7353515Y-15997984D02*
X7343991Y-15988460D01*
X7343991Y-15988460D02*
X7353515Y-15978936D01*
X7353515Y-15978936D02*
X7353515Y-15997984D01*
X7486848Y-15797984D02*
X7505896Y-15797984D01*
X7505896Y-15797984D02*
X7524944Y-15807508D01*
X7524944Y-15807508D02*
X7534467Y-15817031D01*
X7534467Y-15817031D02*
X7543991Y-15836079D01*
X7543991Y-15836079D02*
X7553515Y-15874174D01*
X7553515Y-15874174D02*
X7553515Y-15921793D01*
X7553515Y-15921793D02*
X7543991Y-15959888D01*
X7543991Y-15959888D02*
X7534467Y-15978936D01*
X7534467Y-15978936D02*
X7524944Y-15988460D01*
X7524944Y-15988460D02*
X7505896Y-15997984D01*
X7505896Y-15997984D02*
X7486848Y-15997984D01*
X7486848Y-15997984D02*
X7467801Y-15988460D01*
X7467801Y-15988460D02*
X7458277Y-15978936D01*
X7458277Y-15978936D02*
X7448753Y-15959888D01*
X7448753Y-15959888D02*
X7439229Y-15921793D01*
X7439229Y-15921793D02*
X7439229Y-15874174D01*
X7439229Y-15874174D02*
X7448753Y-15836079D01*
X7448753Y-15836079D02*
X7458277Y-15817031D01*
X7458277Y-15817031D02*
X7467801Y-15807508D01*
X7467801Y-15807508D02*
X7486848Y-15797984D01*
X7743991Y-15997984D02*
X7629706Y-15997984D01*
X7686848Y-15997984D02*
X7686848Y-15797984D01*
X7686848Y-15797984D02*
X7667801Y-15826555D01*
X7667801Y-15826555D02*
X7648753Y-15845603D01*
X7648753Y-15845603D02*
X7629706Y-15855127D01*
X7924944Y-15797984D02*
X7829706Y-15797984D01*
X7829706Y-15797984D02*
X7820182Y-15893222D01*
X7820182Y-15893222D02*
X7829706Y-15883698D01*
X7829706Y-15883698D02*
X7848753Y-15874174D01*
X7848753Y-15874174D02*
X7896372Y-15874174D01*
X7896372Y-15874174D02*
X7915420Y-15883698D01*
X7915420Y-15883698D02*
X7924944Y-15893222D01*
X7924944Y-15893222D02*
X7934467Y-15912269D01*
X7934467Y-15912269D02*
X7934467Y-15959888D01*
X7934467Y-15959888D02*
X7924944Y-15978936D01*
X7924944Y-15978936D02*
X7915420Y-15988460D01*
X7915420Y-15988460D02*
X7896372Y-15997984D01*
X7896372Y-15997984D02*
X7848753Y-15997984D01*
X7848753Y-15997984D02*
X7829706Y-15988460D01*
X7829706Y-15988460D02*
X7820182Y-15978936D01*
X8001134Y-15797984D02*
X8134467Y-15797984D01*
X8134467Y-15797984D02*
X8048753Y-15997984D01*
X8201134Y-15797984D02*
X8201134Y-15836079D01*
X8277325Y-15797984D02*
X8277325Y-15836079D01*
X8572563Y-16074174D02*
X8563039Y-16064650D01*
X8563039Y-16064650D02*
X8543991Y-16036079D01*
X8543991Y-16036079D02*
X8534468Y-16017031D01*
X8534468Y-16017031D02*
X8524944Y-15988460D01*
X8524944Y-15988460D02*
X8515420Y-15940841D01*
X8515420Y-15940841D02*
X8515420Y-15902746D01*
X8515420Y-15902746D02*
X8524944Y-15855127D01*
X8524944Y-15855127D02*
X8534468Y-15826555D01*
X8534468Y-15826555D02*
X8543991Y-15807508D01*
X8543991Y-15807508D02*
X8563039Y-15778936D01*
X8563039Y-15778936D02*
X8572563Y-15769412D01*
X8743991Y-15797984D02*
X8648753Y-15797984D01*
X8648753Y-15797984D02*
X8639230Y-15893222D01*
X8639230Y-15893222D02*
X8648753Y-15883698D01*
X8648753Y-15883698D02*
X8667801Y-15874174D01*
X8667801Y-15874174D02*
X8715420Y-15874174D01*
X8715420Y-15874174D02*
X8734468Y-15883698D01*
X8734468Y-15883698D02*
X8743991Y-15893222D01*
X8743991Y-15893222D02*
X8753515Y-15912269D01*
X8753515Y-15912269D02*
X8753515Y-15959888D01*
X8753515Y-15959888D02*
X8743991Y-15978936D01*
X8743991Y-15978936D02*
X8734468Y-15988460D01*
X8734468Y-15988460D02*
X8715420Y-15997984D01*
X8715420Y-15997984D02*
X8667801Y-15997984D01*
X8667801Y-15997984D02*
X8648753Y-15988460D01*
X8648753Y-15988460D02*
X8639230Y-15978936D01*
X8924944Y-15797984D02*
X8886849Y-15797984D01*
X8886849Y-15797984D02*
X8867801Y-15807508D01*
X8867801Y-15807508D02*
X8858277Y-15817031D01*
X8858277Y-15817031D02*
X8839230Y-15845603D01*
X8839230Y-15845603D02*
X8829706Y-15883698D01*
X8829706Y-15883698D02*
X8829706Y-15959888D01*
X8829706Y-15959888D02*
X8839230Y-15978936D01*
X8839230Y-15978936D02*
X8848753Y-15988460D01*
X8848753Y-15988460D02*
X8867801Y-15997984D01*
X8867801Y-15997984D02*
X8905896Y-15997984D01*
X8905896Y-15997984D02*
X8924944Y-15988460D01*
X8924944Y-15988460D02*
X8934468Y-15978936D01*
X8934468Y-15978936D02*
X8943991Y-15959888D01*
X8943991Y-15959888D02*
X8943991Y-15912269D01*
X8943991Y-15912269D02*
X8934468Y-15893222D01*
X8934468Y-15893222D02*
X8924944Y-15883698D01*
X8924944Y-15883698D02*
X8905896Y-15874174D01*
X8905896Y-15874174D02*
X8867801Y-15874174D01*
X8867801Y-15874174D02*
X8848753Y-15883698D01*
X8848753Y-15883698D02*
X8839230Y-15893222D01*
X8839230Y-15893222D02*
X8829706Y-15912269D01*
X9182087Y-15997984D02*
X9182087Y-15797984D01*
X9267801Y-15997984D02*
X9267801Y-15893222D01*
X9267801Y-15893222D02*
X9258277Y-15874174D01*
X9258277Y-15874174D02*
X9239230Y-15864650D01*
X9239230Y-15864650D02*
X9210658Y-15864650D01*
X9210658Y-15864650D02*
X9191611Y-15874174D01*
X9191611Y-15874174D02*
X9182087Y-15883698D01*
X9391611Y-15997984D02*
X9372563Y-15988460D01*
X9372563Y-15988460D02*
X9363039Y-15978936D01*
X9363039Y-15978936D02*
X9353515Y-15959888D01*
X9353515Y-15959888D02*
X9353515Y-15902746D01*
X9353515Y-15902746D02*
X9363039Y-15883698D01*
X9363039Y-15883698D02*
X9372563Y-15874174D01*
X9372563Y-15874174D02*
X9391611Y-15864650D01*
X9391611Y-15864650D02*
X9420182Y-15864650D01*
X9420182Y-15864650D02*
X9439230Y-15874174D01*
X9439230Y-15874174D02*
X9448753Y-15883698D01*
X9448753Y-15883698D02*
X9458277Y-15902746D01*
X9458277Y-15902746D02*
X9458277Y-15959888D01*
X9458277Y-15959888D02*
X9448753Y-15978936D01*
X9448753Y-15978936D02*
X9439230Y-15988460D01*
X9439230Y-15988460D02*
X9420182Y-15997984D01*
X9420182Y-15997984D02*
X9391611Y-15997984D01*
X9572563Y-15997984D02*
X9553515Y-15988460D01*
X9553515Y-15988460D02*
X9543992Y-15969412D01*
X9543992Y-15969412D02*
X9543992Y-15797984D01*
X9724944Y-15988460D02*
X9705896Y-15997984D01*
X9705896Y-15997984D02*
X9667801Y-15997984D01*
X9667801Y-15997984D02*
X9648753Y-15988460D01*
X9648753Y-15988460D02*
X9639230Y-15969412D01*
X9639230Y-15969412D02*
X9639230Y-15893222D01*
X9639230Y-15893222D02*
X9648753Y-15874174D01*
X9648753Y-15874174D02*
X9667801Y-15864650D01*
X9667801Y-15864650D02*
X9705896Y-15864650D01*
X9705896Y-15864650D02*
X9724944Y-15874174D01*
X9724944Y-15874174D02*
X9734468Y-15893222D01*
X9734468Y-15893222D02*
X9734468Y-15912269D01*
X9734468Y-15912269D02*
X9639230Y-15931317D01*
X9810658Y-15988460D02*
X9829706Y-15997984D01*
X9829706Y-15997984D02*
X9867801Y-15997984D01*
X9867801Y-15997984D02*
X9886849Y-15988460D01*
X9886849Y-15988460D02*
X9896373Y-15969412D01*
X9896373Y-15969412D02*
X9896373Y-15959888D01*
X9896373Y-15959888D02*
X9886849Y-15940841D01*
X9886849Y-15940841D02*
X9867801Y-15931317D01*
X9867801Y-15931317D02*
X9839230Y-15931317D01*
X9839230Y-15931317D02*
X9820182Y-15921793D01*
X9820182Y-15921793D02*
X9810658Y-15902746D01*
X9810658Y-15902746D02*
X9810658Y-15893222D01*
X9810658Y-15893222D02*
X9820182Y-15874174D01*
X9820182Y-15874174D02*
X9839230Y-15864650D01*
X9839230Y-15864650D02*
X9867801Y-15864650D01*
X9867801Y-15864650D02*
X9886849Y-15874174D01*
X9963039Y-16074174D02*
X9972563Y-16064650D01*
X9972563Y-16064650D02*
X9991611Y-16036079D01*
X9991611Y-16036079D02*
X10001134Y-16017031D01*
X10001134Y-16017031D02*
X10010658Y-15988460D01*
X10010658Y-15988460D02*
X10020182Y-15940841D01*
X10020182Y-15940841D02*
X10020182Y-15902746D01*
X10020182Y-15902746D02*
X10010658Y-15855127D01*
X10010658Y-15855127D02*
X10001134Y-15826555D01*
X10001134Y-15826555D02*
X9991611Y-15807508D01*
X9991611Y-15807508D02*
X9972563Y-15778936D01*
X9972563Y-15778936D02*
X9963039Y-15769412D01*
D12*
X4957500Y-16130500D02*
X4957500Y-16210500D01*
X4917500Y-16170500D02*
X4997500Y-16170500D01*
D11*
X5296372Y-16061984D02*
X5315420Y-16061984D01*
X5315420Y-16061984D02*
X5334467Y-16071508D01*
X5334467Y-16071508D02*
X5343991Y-16081031D01*
X5343991Y-16081031D02*
X5353515Y-16100079D01*
X5353515Y-16100079D02*
X5363039Y-16138174D01*
X5363039Y-16138174D02*
X5363039Y-16185793D01*
X5363039Y-16185793D02*
X5353515Y-16223888D01*
X5353515Y-16223888D02*
X5343991Y-16242936D01*
X5343991Y-16242936D02*
X5334467Y-16252460D01*
X5334467Y-16252460D02*
X5315420Y-16261984D01*
X5315420Y-16261984D02*
X5296372Y-16261984D01*
X5296372Y-16261984D02*
X5277324Y-16252460D01*
X5277324Y-16252460D02*
X5267801Y-16242936D01*
X5267801Y-16242936D02*
X5258277Y-16223888D01*
X5258277Y-16223888D02*
X5248753Y-16185793D01*
X5248753Y-16185793D02*
X5248753Y-16138174D01*
X5248753Y-16138174D02*
X5258277Y-16100079D01*
X5258277Y-16100079D02*
X5267801Y-16081031D01*
X5267801Y-16081031D02*
X5277324Y-16071508D01*
X5277324Y-16071508D02*
X5296372Y-16061984D01*
X5448753Y-16242936D02*
X5458277Y-16252460D01*
X5458277Y-16252460D02*
X5448753Y-16261984D01*
X5448753Y-16261984D02*
X5439229Y-16252460D01*
X5439229Y-16252460D02*
X5448753Y-16242936D01*
X5448753Y-16242936D02*
X5448753Y-16261984D01*
X5572563Y-16147698D02*
X5553515Y-16138174D01*
X5553515Y-16138174D02*
X5543991Y-16128650D01*
X5543991Y-16128650D02*
X5534467Y-16109603D01*
X5534467Y-16109603D02*
X5534467Y-16100079D01*
X5534467Y-16100079D02*
X5543991Y-16081031D01*
X5543991Y-16081031D02*
X5553515Y-16071508D01*
X5553515Y-16071508D02*
X5572563Y-16061984D01*
X5572563Y-16061984D02*
X5610658Y-16061984D01*
X5610658Y-16061984D02*
X5629705Y-16071508D01*
X5629705Y-16071508D02*
X5639229Y-16081031D01*
X5639229Y-16081031D02*
X5648753Y-16100079D01*
X5648753Y-16100079D02*
X5648753Y-16109603D01*
X5648753Y-16109603D02*
X5639229Y-16128650D01*
X5639229Y-16128650D02*
X5629705Y-16138174D01*
X5629705Y-16138174D02*
X5610658Y-16147698D01*
X5610658Y-16147698D02*
X5572563Y-16147698D01*
X5572563Y-16147698D02*
X5553515Y-16157222D01*
X5553515Y-16157222D02*
X5543991Y-16166746D01*
X5543991Y-16166746D02*
X5534467Y-16185793D01*
X5534467Y-16185793D02*
X5534467Y-16223888D01*
X5534467Y-16223888D02*
X5543991Y-16242936D01*
X5543991Y-16242936D02*
X5553515Y-16252460D01*
X5553515Y-16252460D02*
X5572563Y-16261984D01*
X5572563Y-16261984D02*
X5610658Y-16261984D01*
X5610658Y-16261984D02*
X5629705Y-16252460D01*
X5629705Y-16252460D02*
X5639229Y-16242936D01*
X5639229Y-16242936D02*
X5648753Y-16223888D01*
X5648753Y-16223888D02*
X5648753Y-16185793D01*
X5648753Y-16185793D02*
X5639229Y-16166746D01*
X5639229Y-16166746D02*
X5629705Y-16157222D01*
X5629705Y-16157222D02*
X5610658Y-16147698D01*
X5772562Y-16061984D02*
X5791610Y-16061984D01*
X5791610Y-16061984D02*
X5810658Y-16071508D01*
X5810658Y-16071508D02*
X5820182Y-16081031D01*
X5820182Y-16081031D02*
X5829705Y-16100079D01*
X5829705Y-16100079D02*
X5839229Y-16138174D01*
X5839229Y-16138174D02*
X5839229Y-16185793D01*
X5839229Y-16185793D02*
X5829705Y-16223888D01*
X5829705Y-16223888D02*
X5820182Y-16242936D01*
X5820182Y-16242936D02*
X5810658Y-16252460D01*
X5810658Y-16252460D02*
X5791610Y-16261984D01*
X5791610Y-16261984D02*
X5772562Y-16261984D01*
X5772562Y-16261984D02*
X5753515Y-16252460D01*
X5753515Y-16252460D02*
X5743991Y-16242936D01*
X5743991Y-16242936D02*
X5734467Y-16223888D01*
X5734467Y-16223888D02*
X5724943Y-16185793D01*
X5724943Y-16185793D02*
X5724943Y-16138174D01*
X5724943Y-16138174D02*
X5734467Y-16100079D01*
X5734467Y-16100079D02*
X5743991Y-16081031D01*
X5743991Y-16081031D02*
X5753515Y-16071508D01*
X5753515Y-16071508D02*
X5772562Y-16061984D01*
X5963039Y-16061984D02*
X5982086Y-16061984D01*
X5982086Y-16061984D02*
X6001134Y-16071508D01*
X6001134Y-16071508D02*
X6010658Y-16081031D01*
X6010658Y-16081031D02*
X6020182Y-16100079D01*
X6020182Y-16100079D02*
X6029705Y-16138174D01*
X6029705Y-16138174D02*
X6029705Y-16185793D01*
X6029705Y-16185793D02*
X6020182Y-16223888D01*
X6020182Y-16223888D02*
X6010658Y-16242936D01*
X6010658Y-16242936D02*
X6001134Y-16252460D01*
X6001134Y-16252460D02*
X5982086Y-16261984D01*
X5982086Y-16261984D02*
X5963039Y-16261984D01*
X5963039Y-16261984D02*
X5943991Y-16252460D01*
X5943991Y-16252460D02*
X5934467Y-16242936D01*
X5934467Y-16242936D02*
X5924943Y-16223888D01*
X5924943Y-16223888D02*
X5915420Y-16185793D01*
X5915420Y-16185793D02*
X5915420Y-16138174D01*
X5915420Y-16138174D02*
X5924943Y-16100079D01*
X5924943Y-16100079D02*
X5934467Y-16081031D01*
X5934467Y-16081031D02*
X5943991Y-16071508D01*
X5943991Y-16071508D02*
X5963039Y-16061984D01*
X6115420Y-16261984D02*
X6115420Y-16128650D01*
X6115420Y-16147698D02*
X6124943Y-16138174D01*
X6124943Y-16138174D02*
X6143991Y-16128650D01*
X6143991Y-16128650D02*
X6172563Y-16128650D01*
X6172563Y-16128650D02*
X6191610Y-16138174D01*
X6191610Y-16138174D02*
X6201134Y-16157222D01*
X6201134Y-16157222D02*
X6201134Y-16261984D01*
X6201134Y-16157222D02*
X6210658Y-16138174D01*
X6210658Y-16138174D02*
X6229705Y-16128650D01*
X6229705Y-16128650D02*
X6258277Y-16128650D01*
X6258277Y-16128650D02*
X6277324Y-16138174D01*
X6277324Y-16138174D02*
X6286848Y-16157222D01*
X6286848Y-16157222D02*
X6286848Y-16261984D01*
X6382086Y-16261984D02*
X6382086Y-16128650D01*
X6382086Y-16147698D02*
X6391610Y-16138174D01*
X6391610Y-16138174D02*
X6410658Y-16128650D01*
X6410658Y-16128650D02*
X6439229Y-16128650D01*
X6439229Y-16128650D02*
X6458277Y-16138174D01*
X6458277Y-16138174D02*
X6467801Y-16157222D01*
X6467801Y-16157222D02*
X6467801Y-16261984D01*
X6467801Y-16157222D02*
X6477324Y-16138174D01*
X6477324Y-16138174D02*
X6496372Y-16128650D01*
X6496372Y-16128650D02*
X6524943Y-16128650D01*
X6524943Y-16128650D02*
X6543991Y-16138174D01*
X6543991Y-16138174D02*
X6553515Y-16157222D01*
X6553515Y-16157222D02*
X6553515Y-16261984D01*
X6943991Y-16052460D02*
X6772563Y-16309603D01*
X7201134Y-16061984D02*
X7220182Y-16061984D01*
X7220182Y-16061984D02*
X7239229Y-16071508D01*
X7239229Y-16071508D02*
X7248753Y-16081031D01*
X7248753Y-16081031D02*
X7258277Y-16100079D01*
X7258277Y-16100079D02*
X7267801Y-16138174D01*
X7267801Y-16138174D02*
X7267801Y-16185793D01*
X7267801Y-16185793D02*
X7258277Y-16223888D01*
X7258277Y-16223888D02*
X7248753Y-16242936D01*
X7248753Y-16242936D02*
X7239229Y-16252460D01*
X7239229Y-16252460D02*
X7220182Y-16261984D01*
X7220182Y-16261984D02*
X7201134Y-16261984D01*
X7201134Y-16261984D02*
X7182086Y-16252460D01*
X7182086Y-16252460D02*
X7172563Y-16242936D01*
X7172563Y-16242936D02*
X7163039Y-16223888D01*
X7163039Y-16223888D02*
X7153515Y-16185793D01*
X7153515Y-16185793D02*
X7153515Y-16138174D01*
X7153515Y-16138174D02*
X7163039Y-16100079D01*
X7163039Y-16100079D02*
X7172563Y-16081031D01*
X7172563Y-16081031D02*
X7182086Y-16071508D01*
X7182086Y-16071508D02*
X7201134Y-16061984D01*
X7353515Y-16242936D02*
X7363039Y-16252460D01*
X7363039Y-16252460D02*
X7353515Y-16261984D01*
X7353515Y-16261984D02*
X7343991Y-16252460D01*
X7343991Y-16252460D02*
X7353515Y-16242936D01*
X7353515Y-16242936D02*
X7353515Y-16261984D01*
X7486848Y-16061984D02*
X7505896Y-16061984D01*
X7505896Y-16061984D02*
X7524944Y-16071508D01*
X7524944Y-16071508D02*
X7534467Y-16081031D01*
X7534467Y-16081031D02*
X7543991Y-16100079D01*
X7543991Y-16100079D02*
X7553515Y-16138174D01*
X7553515Y-16138174D02*
X7553515Y-16185793D01*
X7553515Y-16185793D02*
X7543991Y-16223888D01*
X7543991Y-16223888D02*
X7534467Y-16242936D01*
X7534467Y-16242936D02*
X7524944Y-16252460D01*
X7524944Y-16252460D02*
X7505896Y-16261984D01*
X7505896Y-16261984D02*
X7486848Y-16261984D01*
X7486848Y-16261984D02*
X7467801Y-16252460D01*
X7467801Y-16252460D02*
X7458277Y-16242936D01*
X7458277Y-16242936D02*
X7448753Y-16223888D01*
X7448753Y-16223888D02*
X7439229Y-16185793D01*
X7439229Y-16185793D02*
X7439229Y-16138174D01*
X7439229Y-16138174D02*
X7448753Y-16100079D01*
X7448753Y-16100079D02*
X7458277Y-16081031D01*
X7458277Y-16081031D02*
X7467801Y-16071508D01*
X7467801Y-16071508D02*
X7486848Y-16061984D01*
X7620182Y-16061984D02*
X7743991Y-16061984D01*
X7743991Y-16061984D02*
X7677325Y-16138174D01*
X7677325Y-16138174D02*
X7705896Y-16138174D01*
X7705896Y-16138174D02*
X7724944Y-16147698D01*
X7724944Y-16147698D02*
X7734467Y-16157222D01*
X7734467Y-16157222D02*
X7743991Y-16176269D01*
X7743991Y-16176269D02*
X7743991Y-16223888D01*
X7743991Y-16223888D02*
X7734467Y-16242936D01*
X7734467Y-16242936D02*
X7724944Y-16252460D01*
X7724944Y-16252460D02*
X7705896Y-16261984D01*
X7705896Y-16261984D02*
X7648753Y-16261984D01*
X7648753Y-16261984D02*
X7629706Y-16252460D01*
X7629706Y-16252460D02*
X7620182Y-16242936D01*
X7934467Y-16261984D02*
X7820182Y-16261984D01*
X7877325Y-16261984D02*
X7877325Y-16061984D01*
X7877325Y-16061984D02*
X7858277Y-16090555D01*
X7858277Y-16090555D02*
X7839229Y-16109603D01*
X7839229Y-16109603D02*
X7820182Y-16119127D01*
X8115420Y-16061984D02*
X8020182Y-16061984D01*
X8020182Y-16061984D02*
X8010658Y-16157222D01*
X8010658Y-16157222D02*
X8020182Y-16147698D01*
X8020182Y-16147698D02*
X8039229Y-16138174D01*
X8039229Y-16138174D02*
X8086848Y-16138174D01*
X8086848Y-16138174D02*
X8105896Y-16147698D01*
X8105896Y-16147698D02*
X8115420Y-16157222D01*
X8115420Y-16157222D02*
X8124944Y-16176269D01*
X8124944Y-16176269D02*
X8124944Y-16223888D01*
X8124944Y-16223888D02*
X8115420Y-16242936D01*
X8115420Y-16242936D02*
X8105896Y-16252460D01*
X8105896Y-16252460D02*
X8086848Y-16261984D01*
X8086848Y-16261984D02*
X8039229Y-16261984D01*
X8039229Y-16261984D02*
X8020182Y-16252460D01*
X8020182Y-16252460D02*
X8010658Y-16242936D01*
X8201134Y-16061984D02*
X8201134Y-16100079D01*
X8277325Y-16061984D02*
X8277325Y-16100079D01*
X8572563Y-16338174D02*
X8563039Y-16328650D01*
X8563039Y-16328650D02*
X8543991Y-16300079D01*
X8543991Y-16300079D02*
X8534468Y-16281031D01*
X8534468Y-16281031D02*
X8524944Y-16252460D01*
X8524944Y-16252460D02*
X8515420Y-16204841D01*
X8515420Y-16204841D02*
X8515420Y-16166746D01*
X8515420Y-16166746D02*
X8524944Y-16119127D01*
X8524944Y-16119127D02*
X8534468Y-16090555D01*
X8534468Y-16090555D02*
X8543991Y-16071508D01*
X8543991Y-16071508D02*
X8563039Y-16042936D01*
X8563039Y-16042936D02*
X8572563Y-16033412D01*
X8677325Y-16147698D02*
X8658277Y-16138174D01*
X8658277Y-16138174D02*
X8648753Y-16128650D01*
X8648753Y-16128650D02*
X8639230Y-16109603D01*
X8639230Y-16109603D02*
X8639230Y-16100079D01*
X8639230Y-16100079D02*
X8648753Y-16081031D01*
X8648753Y-16081031D02*
X8658277Y-16071508D01*
X8658277Y-16071508D02*
X8677325Y-16061984D01*
X8677325Y-16061984D02*
X8715420Y-16061984D01*
X8715420Y-16061984D02*
X8734468Y-16071508D01*
X8734468Y-16071508D02*
X8743991Y-16081031D01*
X8743991Y-16081031D02*
X8753515Y-16100079D01*
X8753515Y-16100079D02*
X8753515Y-16109603D01*
X8753515Y-16109603D02*
X8743991Y-16128650D01*
X8743991Y-16128650D02*
X8734468Y-16138174D01*
X8734468Y-16138174D02*
X8715420Y-16147698D01*
X8715420Y-16147698D02*
X8677325Y-16147698D01*
X8677325Y-16147698D02*
X8658277Y-16157222D01*
X8658277Y-16157222D02*
X8648753Y-16166746D01*
X8648753Y-16166746D02*
X8639230Y-16185793D01*
X8639230Y-16185793D02*
X8639230Y-16223888D01*
X8639230Y-16223888D02*
X8648753Y-16242936D01*
X8648753Y-16242936D02*
X8658277Y-16252460D01*
X8658277Y-16252460D02*
X8677325Y-16261984D01*
X8677325Y-16261984D02*
X8715420Y-16261984D01*
X8715420Y-16261984D02*
X8734468Y-16252460D01*
X8734468Y-16252460D02*
X8743991Y-16242936D01*
X8743991Y-16242936D02*
X8753515Y-16223888D01*
X8753515Y-16223888D02*
X8753515Y-16185793D01*
X8753515Y-16185793D02*
X8743991Y-16166746D01*
X8743991Y-16166746D02*
X8734468Y-16157222D01*
X8734468Y-16157222D02*
X8715420Y-16147698D01*
X8991611Y-16261984D02*
X8991611Y-16061984D01*
X9077325Y-16261984D02*
X9077325Y-16157222D01*
X9077325Y-16157222D02*
X9067801Y-16138174D01*
X9067801Y-16138174D02*
X9048753Y-16128650D01*
X9048753Y-16128650D02*
X9020182Y-16128650D01*
X9020182Y-16128650D02*
X9001134Y-16138174D01*
X9001134Y-16138174D02*
X8991611Y-16147698D01*
X9201134Y-16261984D02*
X9182087Y-16252460D01*
X9182087Y-16252460D02*
X9172563Y-16242936D01*
X9172563Y-16242936D02*
X9163039Y-16223888D01*
X9163039Y-16223888D02*
X9163039Y-16166746D01*
X9163039Y-16166746D02*
X9172563Y-16147698D01*
X9172563Y-16147698D02*
X9182087Y-16138174D01*
X9182087Y-16138174D02*
X9201134Y-16128650D01*
X9201134Y-16128650D02*
X9229706Y-16128650D01*
X9229706Y-16128650D02*
X9248753Y-16138174D01*
X9248753Y-16138174D02*
X9258277Y-16147698D01*
X9258277Y-16147698D02*
X9267801Y-16166746D01*
X9267801Y-16166746D02*
X9267801Y-16223888D01*
X9267801Y-16223888D02*
X9258277Y-16242936D01*
X9258277Y-16242936D02*
X9248753Y-16252460D01*
X9248753Y-16252460D02*
X9229706Y-16261984D01*
X9229706Y-16261984D02*
X9201134Y-16261984D01*
X9382087Y-16261984D02*
X9363039Y-16252460D01*
X9363039Y-16252460D02*
X9353515Y-16233412D01*
X9353515Y-16233412D02*
X9353515Y-16061984D01*
X9534468Y-16252460D02*
X9515420Y-16261984D01*
X9515420Y-16261984D02*
X9477325Y-16261984D01*
X9477325Y-16261984D02*
X9458277Y-16252460D01*
X9458277Y-16252460D02*
X9448753Y-16233412D01*
X9448753Y-16233412D02*
X9448753Y-16157222D01*
X9448753Y-16157222D02*
X9458277Y-16138174D01*
X9458277Y-16138174D02*
X9477325Y-16128650D01*
X9477325Y-16128650D02*
X9515420Y-16128650D01*
X9515420Y-16128650D02*
X9534468Y-16138174D01*
X9534468Y-16138174D02*
X9543992Y-16157222D01*
X9543992Y-16157222D02*
X9543992Y-16176269D01*
X9543992Y-16176269D02*
X9448753Y-16195317D01*
X9620182Y-16252460D02*
X9639230Y-16261984D01*
X9639230Y-16261984D02*
X9677325Y-16261984D01*
X9677325Y-16261984D02*
X9696373Y-16252460D01*
X9696373Y-16252460D02*
X9705896Y-16233412D01*
X9705896Y-16233412D02*
X9705896Y-16223888D01*
X9705896Y-16223888D02*
X9696373Y-16204841D01*
X9696373Y-16204841D02*
X9677325Y-16195317D01*
X9677325Y-16195317D02*
X9648753Y-16195317D01*
X9648753Y-16195317D02*
X9629706Y-16185793D01*
X9629706Y-16185793D02*
X9620182Y-16166746D01*
X9620182Y-16166746D02*
X9620182Y-16157222D01*
X9620182Y-16157222D02*
X9629706Y-16138174D01*
X9629706Y-16138174D02*
X9648753Y-16128650D01*
X9648753Y-16128650D02*
X9677325Y-16128650D01*
X9677325Y-16128650D02*
X9696373Y-16138174D01*
X9772563Y-16338174D02*
X9782087Y-16328650D01*
X9782087Y-16328650D02*
X9801134Y-16300079D01*
X9801134Y-16300079D02*
X9810658Y-16281031D01*
X9810658Y-16281031D02*
X9820182Y-16252460D01*
X9820182Y-16252460D02*
X9829706Y-16204841D01*
X9829706Y-16204841D02*
X9829706Y-16166746D01*
X9829706Y-16166746D02*
X9820182Y-16119127D01*
X9820182Y-16119127D02*
X9810658Y-16090555D01*
X9810658Y-16090555D02*
X9801134Y-16071508D01*
X9801134Y-16071508D02*
X9782087Y-16042936D01*
X9782087Y-16042936D02*
X9772563Y-16033412D01*
D12*
X4982856Y-16469856D02*
X4982856Y-16399144D01*
X4912144Y-16399144D01*
X4912144Y-16469856D01*
X4982856Y-16469856D01*
D11*
X5363039Y-16525984D02*
X5248753Y-16525984D01*
X5305896Y-16525984D02*
X5305896Y-16325984D01*
X5305896Y-16325984D02*
X5286848Y-16354555D01*
X5286848Y-16354555D02*
X5267801Y-16373603D01*
X5267801Y-16373603D02*
X5248753Y-16383127D01*
X5448753Y-16506936D02*
X5458277Y-16516460D01*
X5458277Y-16516460D02*
X5448753Y-16525984D01*
X5448753Y-16525984D02*
X5439229Y-16516460D01*
X5439229Y-16516460D02*
X5448753Y-16506936D01*
X5448753Y-16506936D02*
X5448753Y-16525984D01*
X5582086Y-16325984D02*
X5601134Y-16325984D01*
X5601134Y-16325984D02*
X5620182Y-16335508D01*
X5620182Y-16335508D02*
X5629705Y-16345031D01*
X5629705Y-16345031D02*
X5639229Y-16364079D01*
X5639229Y-16364079D02*
X5648753Y-16402174D01*
X5648753Y-16402174D02*
X5648753Y-16449793D01*
X5648753Y-16449793D02*
X5639229Y-16487888D01*
X5639229Y-16487888D02*
X5629705Y-16506936D01*
X5629705Y-16506936D02*
X5620182Y-16516460D01*
X5620182Y-16516460D02*
X5601134Y-16525984D01*
X5601134Y-16525984D02*
X5582086Y-16525984D01*
X5582086Y-16525984D02*
X5563039Y-16516460D01*
X5563039Y-16516460D02*
X5553515Y-16506936D01*
X5553515Y-16506936D02*
X5543991Y-16487888D01*
X5543991Y-16487888D02*
X5534467Y-16449793D01*
X5534467Y-16449793D02*
X5534467Y-16402174D01*
X5534467Y-16402174D02*
X5543991Y-16364079D01*
X5543991Y-16364079D02*
X5553515Y-16345031D01*
X5553515Y-16345031D02*
X5563039Y-16335508D01*
X5563039Y-16335508D02*
X5582086Y-16325984D01*
X5772562Y-16325984D02*
X5791610Y-16325984D01*
X5791610Y-16325984D02*
X5810658Y-16335508D01*
X5810658Y-16335508D02*
X5820182Y-16345031D01*
X5820182Y-16345031D02*
X5829705Y-16364079D01*
X5829705Y-16364079D02*
X5839229Y-16402174D01*
X5839229Y-16402174D02*
X5839229Y-16449793D01*
X5839229Y-16449793D02*
X5829705Y-16487888D01*
X5829705Y-16487888D02*
X5820182Y-16506936D01*
X5820182Y-16506936D02*
X5810658Y-16516460D01*
X5810658Y-16516460D02*
X5791610Y-16525984D01*
X5791610Y-16525984D02*
X5772562Y-16525984D01*
X5772562Y-16525984D02*
X5753515Y-16516460D01*
X5753515Y-16516460D02*
X5743991Y-16506936D01*
X5743991Y-16506936D02*
X5734467Y-16487888D01*
X5734467Y-16487888D02*
X5724943Y-16449793D01*
X5724943Y-16449793D02*
X5724943Y-16402174D01*
X5724943Y-16402174D02*
X5734467Y-16364079D01*
X5734467Y-16364079D02*
X5743991Y-16345031D01*
X5743991Y-16345031D02*
X5753515Y-16335508D01*
X5753515Y-16335508D02*
X5772562Y-16325984D01*
X5963039Y-16325984D02*
X5982086Y-16325984D01*
X5982086Y-16325984D02*
X6001134Y-16335508D01*
X6001134Y-16335508D02*
X6010658Y-16345031D01*
X6010658Y-16345031D02*
X6020182Y-16364079D01*
X6020182Y-16364079D02*
X6029705Y-16402174D01*
X6029705Y-16402174D02*
X6029705Y-16449793D01*
X6029705Y-16449793D02*
X6020182Y-16487888D01*
X6020182Y-16487888D02*
X6010658Y-16506936D01*
X6010658Y-16506936D02*
X6001134Y-16516460D01*
X6001134Y-16516460D02*
X5982086Y-16525984D01*
X5982086Y-16525984D02*
X5963039Y-16525984D01*
X5963039Y-16525984D02*
X5943991Y-16516460D01*
X5943991Y-16516460D02*
X5934467Y-16506936D01*
X5934467Y-16506936D02*
X5924943Y-16487888D01*
X5924943Y-16487888D02*
X5915420Y-16449793D01*
X5915420Y-16449793D02*
X5915420Y-16402174D01*
X5915420Y-16402174D02*
X5924943Y-16364079D01*
X5924943Y-16364079D02*
X5934467Y-16345031D01*
X5934467Y-16345031D02*
X5943991Y-16335508D01*
X5943991Y-16335508D02*
X5963039Y-16325984D01*
X6115420Y-16525984D02*
X6115420Y-16392650D01*
X6115420Y-16411698D02*
X6124943Y-16402174D01*
X6124943Y-16402174D02*
X6143991Y-16392650D01*
X6143991Y-16392650D02*
X6172563Y-16392650D01*
X6172563Y-16392650D02*
X6191610Y-16402174D01*
X6191610Y-16402174D02*
X6201134Y-16421222D01*
X6201134Y-16421222D02*
X6201134Y-16525984D01*
X6201134Y-16421222D02*
X6210658Y-16402174D01*
X6210658Y-16402174D02*
X6229705Y-16392650D01*
X6229705Y-16392650D02*
X6258277Y-16392650D01*
X6258277Y-16392650D02*
X6277324Y-16402174D01*
X6277324Y-16402174D02*
X6286848Y-16421222D01*
X6286848Y-16421222D02*
X6286848Y-16525984D01*
X6382086Y-16525984D02*
X6382086Y-16392650D01*
X6382086Y-16411698D02*
X6391610Y-16402174D01*
X6391610Y-16402174D02*
X6410658Y-16392650D01*
X6410658Y-16392650D02*
X6439229Y-16392650D01*
X6439229Y-16392650D02*
X6458277Y-16402174D01*
X6458277Y-16402174D02*
X6467801Y-16421222D01*
X6467801Y-16421222D02*
X6467801Y-16525984D01*
X6467801Y-16421222D02*
X6477324Y-16402174D01*
X6477324Y-16402174D02*
X6496372Y-16392650D01*
X6496372Y-16392650D02*
X6524943Y-16392650D01*
X6524943Y-16392650D02*
X6543991Y-16402174D01*
X6543991Y-16402174D02*
X6553515Y-16421222D01*
X6553515Y-16421222D02*
X6553515Y-16525984D01*
X6943991Y-16316460D02*
X6772563Y-16573603D01*
X7201134Y-16325984D02*
X7220182Y-16325984D01*
X7220182Y-16325984D02*
X7239229Y-16335508D01*
X7239229Y-16335508D02*
X7248753Y-16345031D01*
X7248753Y-16345031D02*
X7258277Y-16364079D01*
X7258277Y-16364079D02*
X7267801Y-16402174D01*
X7267801Y-16402174D02*
X7267801Y-16449793D01*
X7267801Y-16449793D02*
X7258277Y-16487888D01*
X7258277Y-16487888D02*
X7248753Y-16506936D01*
X7248753Y-16506936D02*
X7239229Y-16516460D01*
X7239229Y-16516460D02*
X7220182Y-16525984D01*
X7220182Y-16525984D02*
X7201134Y-16525984D01*
X7201134Y-16525984D02*
X7182086Y-16516460D01*
X7182086Y-16516460D02*
X7172563Y-16506936D01*
X7172563Y-16506936D02*
X7163039Y-16487888D01*
X7163039Y-16487888D02*
X7153515Y-16449793D01*
X7153515Y-16449793D02*
X7153515Y-16402174D01*
X7153515Y-16402174D02*
X7163039Y-16364079D01*
X7163039Y-16364079D02*
X7172563Y-16345031D01*
X7172563Y-16345031D02*
X7182086Y-16335508D01*
X7182086Y-16335508D02*
X7201134Y-16325984D01*
X7353515Y-16506936D02*
X7363039Y-16516460D01*
X7363039Y-16516460D02*
X7353515Y-16525984D01*
X7353515Y-16525984D02*
X7343991Y-16516460D01*
X7343991Y-16516460D02*
X7353515Y-16506936D01*
X7353515Y-16506936D02*
X7353515Y-16525984D01*
X7486848Y-16325984D02*
X7505896Y-16325984D01*
X7505896Y-16325984D02*
X7524944Y-16335508D01*
X7524944Y-16335508D02*
X7534467Y-16345031D01*
X7534467Y-16345031D02*
X7543991Y-16364079D01*
X7543991Y-16364079D02*
X7553515Y-16402174D01*
X7553515Y-16402174D02*
X7553515Y-16449793D01*
X7553515Y-16449793D02*
X7543991Y-16487888D01*
X7543991Y-16487888D02*
X7534467Y-16506936D01*
X7534467Y-16506936D02*
X7524944Y-16516460D01*
X7524944Y-16516460D02*
X7505896Y-16525984D01*
X7505896Y-16525984D02*
X7486848Y-16525984D01*
X7486848Y-16525984D02*
X7467801Y-16516460D01*
X7467801Y-16516460D02*
X7458277Y-16506936D01*
X7458277Y-16506936D02*
X7448753Y-16487888D01*
X7448753Y-16487888D02*
X7439229Y-16449793D01*
X7439229Y-16449793D02*
X7439229Y-16402174D01*
X7439229Y-16402174D02*
X7448753Y-16364079D01*
X7448753Y-16364079D02*
X7458277Y-16345031D01*
X7458277Y-16345031D02*
X7467801Y-16335508D01*
X7467801Y-16335508D02*
X7486848Y-16325984D01*
X7620182Y-16325984D02*
X7743991Y-16325984D01*
X7743991Y-16325984D02*
X7677325Y-16402174D01*
X7677325Y-16402174D02*
X7705896Y-16402174D01*
X7705896Y-16402174D02*
X7724944Y-16411698D01*
X7724944Y-16411698D02*
X7734467Y-16421222D01*
X7734467Y-16421222D02*
X7743991Y-16440269D01*
X7743991Y-16440269D02*
X7743991Y-16487888D01*
X7743991Y-16487888D02*
X7734467Y-16506936D01*
X7734467Y-16506936D02*
X7724944Y-16516460D01*
X7724944Y-16516460D02*
X7705896Y-16525984D01*
X7705896Y-16525984D02*
X7648753Y-16525984D01*
X7648753Y-16525984D02*
X7629706Y-16516460D01*
X7629706Y-16516460D02*
X7620182Y-16506936D01*
X7839229Y-16525984D02*
X7877325Y-16525984D01*
X7877325Y-16525984D02*
X7896372Y-16516460D01*
X7896372Y-16516460D02*
X7905896Y-16506936D01*
X7905896Y-16506936D02*
X7924944Y-16478365D01*
X7924944Y-16478365D02*
X7934467Y-16440269D01*
X7934467Y-16440269D02*
X7934467Y-16364079D01*
X7934467Y-16364079D02*
X7924944Y-16345031D01*
X7924944Y-16345031D02*
X7915420Y-16335508D01*
X7915420Y-16335508D02*
X7896372Y-16325984D01*
X7896372Y-16325984D02*
X7858277Y-16325984D01*
X7858277Y-16325984D02*
X7839229Y-16335508D01*
X7839229Y-16335508D02*
X7829706Y-16345031D01*
X7829706Y-16345031D02*
X7820182Y-16364079D01*
X7820182Y-16364079D02*
X7820182Y-16411698D01*
X7820182Y-16411698D02*
X7829706Y-16430746D01*
X7829706Y-16430746D02*
X7839229Y-16440269D01*
X7839229Y-16440269D02*
X7858277Y-16449793D01*
X7858277Y-16449793D02*
X7896372Y-16449793D01*
X7896372Y-16449793D02*
X7915420Y-16440269D01*
X7915420Y-16440269D02*
X7924944Y-16430746D01*
X7924944Y-16430746D02*
X7934467Y-16411698D01*
X8105896Y-16392650D02*
X8105896Y-16525984D01*
X8058277Y-16316460D02*
X8010658Y-16459317D01*
X8010658Y-16459317D02*
X8134467Y-16459317D01*
X8201134Y-16325984D02*
X8201134Y-16364079D01*
X8277325Y-16325984D02*
X8277325Y-16364079D01*
X8572563Y-16602174D02*
X8563039Y-16592650D01*
X8563039Y-16592650D02*
X8543991Y-16564079D01*
X8543991Y-16564079D02*
X8534468Y-16545031D01*
X8534468Y-16545031D02*
X8524944Y-16516460D01*
X8524944Y-16516460D02*
X8515420Y-16468841D01*
X8515420Y-16468841D02*
X8515420Y-16430746D01*
X8515420Y-16430746D02*
X8524944Y-16383127D01*
X8524944Y-16383127D02*
X8534468Y-16354555D01*
X8534468Y-16354555D02*
X8543991Y-16335508D01*
X8543991Y-16335508D02*
X8563039Y-16306936D01*
X8563039Y-16306936D02*
X8572563Y-16297412D01*
X8677325Y-16411698D02*
X8658277Y-16402174D01*
X8658277Y-16402174D02*
X8648753Y-16392650D01*
X8648753Y-16392650D02*
X8639230Y-16373603D01*
X8639230Y-16373603D02*
X8639230Y-16364079D01*
X8639230Y-16364079D02*
X8648753Y-16345031D01*
X8648753Y-16345031D02*
X8658277Y-16335508D01*
X8658277Y-16335508D02*
X8677325Y-16325984D01*
X8677325Y-16325984D02*
X8715420Y-16325984D01*
X8715420Y-16325984D02*
X8734468Y-16335508D01*
X8734468Y-16335508D02*
X8743991Y-16345031D01*
X8743991Y-16345031D02*
X8753515Y-16364079D01*
X8753515Y-16364079D02*
X8753515Y-16373603D01*
X8753515Y-16373603D02*
X8743991Y-16392650D01*
X8743991Y-16392650D02*
X8734468Y-16402174D01*
X8734468Y-16402174D02*
X8715420Y-16411698D01*
X8715420Y-16411698D02*
X8677325Y-16411698D01*
X8677325Y-16411698D02*
X8658277Y-16421222D01*
X8658277Y-16421222D02*
X8648753Y-16430746D01*
X8648753Y-16430746D02*
X8639230Y-16449793D01*
X8639230Y-16449793D02*
X8639230Y-16487888D01*
X8639230Y-16487888D02*
X8648753Y-16506936D01*
X8648753Y-16506936D02*
X8658277Y-16516460D01*
X8658277Y-16516460D02*
X8677325Y-16525984D01*
X8677325Y-16525984D02*
X8715420Y-16525984D01*
X8715420Y-16525984D02*
X8734468Y-16516460D01*
X8734468Y-16516460D02*
X8743991Y-16506936D01*
X8743991Y-16506936D02*
X8753515Y-16487888D01*
X8753515Y-16487888D02*
X8753515Y-16449793D01*
X8753515Y-16449793D02*
X8743991Y-16430746D01*
X8743991Y-16430746D02*
X8734468Y-16421222D01*
X8734468Y-16421222D02*
X8715420Y-16411698D01*
X8820182Y-16325984D02*
X8953515Y-16325984D01*
X8953515Y-16325984D02*
X8867801Y-16525984D01*
X9182087Y-16525984D02*
X9182087Y-16325984D01*
X9267801Y-16525984D02*
X9267801Y-16421222D01*
X9267801Y-16421222D02*
X9258277Y-16402174D01*
X9258277Y-16402174D02*
X9239230Y-16392650D01*
X9239230Y-16392650D02*
X9210658Y-16392650D01*
X9210658Y-16392650D02*
X9191611Y-16402174D01*
X9191611Y-16402174D02*
X9182087Y-16411698D01*
X9391611Y-16525984D02*
X9372563Y-16516460D01*
X9372563Y-16516460D02*
X9363039Y-16506936D01*
X9363039Y-16506936D02*
X9353515Y-16487888D01*
X9353515Y-16487888D02*
X9353515Y-16430746D01*
X9353515Y-16430746D02*
X9363039Y-16411698D01*
X9363039Y-16411698D02*
X9372563Y-16402174D01*
X9372563Y-16402174D02*
X9391611Y-16392650D01*
X9391611Y-16392650D02*
X9420182Y-16392650D01*
X9420182Y-16392650D02*
X9439230Y-16402174D01*
X9439230Y-16402174D02*
X9448753Y-16411698D01*
X9448753Y-16411698D02*
X9458277Y-16430746D01*
X9458277Y-16430746D02*
X9458277Y-16487888D01*
X9458277Y-16487888D02*
X9448753Y-16506936D01*
X9448753Y-16506936D02*
X9439230Y-16516460D01*
X9439230Y-16516460D02*
X9420182Y-16525984D01*
X9420182Y-16525984D02*
X9391611Y-16525984D01*
X9572563Y-16525984D02*
X9553515Y-16516460D01*
X9553515Y-16516460D02*
X9543992Y-16497412D01*
X9543992Y-16497412D02*
X9543992Y-16325984D01*
X9724944Y-16516460D02*
X9705896Y-16525984D01*
X9705896Y-16525984D02*
X9667801Y-16525984D01*
X9667801Y-16525984D02*
X9648753Y-16516460D01*
X9648753Y-16516460D02*
X9639230Y-16497412D01*
X9639230Y-16497412D02*
X9639230Y-16421222D01*
X9639230Y-16421222D02*
X9648753Y-16402174D01*
X9648753Y-16402174D02*
X9667801Y-16392650D01*
X9667801Y-16392650D02*
X9705896Y-16392650D01*
X9705896Y-16392650D02*
X9724944Y-16402174D01*
X9724944Y-16402174D02*
X9734468Y-16421222D01*
X9734468Y-16421222D02*
X9734468Y-16440269D01*
X9734468Y-16440269D02*
X9639230Y-16459317D01*
X9810658Y-16516460D02*
X9829706Y-16525984D01*
X9829706Y-16525984D02*
X9867801Y-16525984D01*
X9867801Y-16525984D02*
X9886849Y-16516460D01*
X9886849Y-16516460D02*
X9896373Y-16497412D01*
X9896373Y-16497412D02*
X9896373Y-16487888D01*
X9896373Y-16487888D02*
X9886849Y-16468841D01*
X9886849Y-16468841D02*
X9867801Y-16459317D01*
X9867801Y-16459317D02*
X9839230Y-16459317D01*
X9839230Y-16459317D02*
X9820182Y-16449793D01*
X9820182Y-16449793D02*
X9810658Y-16430746D01*
X9810658Y-16430746D02*
X9810658Y-16421222D01*
X9810658Y-16421222D02*
X9820182Y-16402174D01*
X9820182Y-16402174D02*
X9839230Y-16392650D01*
X9839230Y-16392650D02*
X9867801Y-16392650D01*
X9867801Y-16392650D02*
X9886849Y-16402174D01*
X9963039Y-16602174D02*
X9972563Y-16592650D01*
X9972563Y-16592650D02*
X9991611Y-16564079D01*
X9991611Y-16564079D02*
X10001134Y-16545031D01*
X10001134Y-16545031D02*
X10010658Y-16516460D01*
X10010658Y-16516460D02*
X10020182Y-16468841D01*
X10020182Y-16468841D02*
X10020182Y-16430746D01*
X10020182Y-16430746D02*
X10010658Y-16383127D01*
X10010658Y-16383127D02*
X10001134Y-16354555D01*
X10001134Y-16354555D02*
X9991611Y-16335508D01*
X9991611Y-16335508D02*
X9972563Y-16306936D01*
X9972563Y-16306936D02*
X9963039Y-16297412D01*
D13*
X4943000Y-16753000D02*
X4997500Y-16698500D01*
X4943000Y-16644000D01*
X4888500Y-16698500D01*
X4943000Y-16753000D01*
D11*
X5363039Y-16789984D02*
X5248753Y-16789984D01*
X5305896Y-16789984D02*
X5305896Y-16589984D01*
X5305896Y-16589984D02*
X5286848Y-16618555D01*
X5286848Y-16618555D02*
X5267801Y-16637603D01*
X5267801Y-16637603D02*
X5248753Y-16647127D01*
X5448753Y-16770936D02*
X5458277Y-16780460D01*
X5458277Y-16780460D02*
X5448753Y-16789984D01*
X5448753Y-16789984D02*
X5439229Y-16780460D01*
X5439229Y-16780460D02*
X5448753Y-16770936D01*
X5448753Y-16770936D02*
X5448753Y-16789984D01*
X5582086Y-16589984D02*
X5601134Y-16589984D01*
X5601134Y-16589984D02*
X5620182Y-16599508D01*
X5620182Y-16599508D02*
X5629705Y-16609031D01*
X5629705Y-16609031D02*
X5639229Y-16628079D01*
X5639229Y-16628079D02*
X5648753Y-16666174D01*
X5648753Y-16666174D02*
X5648753Y-16713793D01*
X5648753Y-16713793D02*
X5639229Y-16751888D01*
X5639229Y-16751888D02*
X5629705Y-16770936D01*
X5629705Y-16770936D02*
X5620182Y-16780460D01*
X5620182Y-16780460D02*
X5601134Y-16789984D01*
X5601134Y-16789984D02*
X5582086Y-16789984D01*
X5582086Y-16789984D02*
X5563039Y-16780460D01*
X5563039Y-16780460D02*
X5553515Y-16770936D01*
X5553515Y-16770936D02*
X5543991Y-16751888D01*
X5543991Y-16751888D02*
X5534467Y-16713793D01*
X5534467Y-16713793D02*
X5534467Y-16666174D01*
X5534467Y-16666174D02*
X5543991Y-16628079D01*
X5543991Y-16628079D02*
X5553515Y-16609031D01*
X5553515Y-16609031D02*
X5563039Y-16599508D01*
X5563039Y-16599508D02*
X5582086Y-16589984D01*
X5743991Y-16789984D02*
X5782086Y-16789984D01*
X5782086Y-16789984D02*
X5801134Y-16780460D01*
X5801134Y-16780460D02*
X5810658Y-16770936D01*
X5810658Y-16770936D02*
X5829705Y-16742365D01*
X5829705Y-16742365D02*
X5839229Y-16704269D01*
X5839229Y-16704269D02*
X5839229Y-16628079D01*
X5839229Y-16628079D02*
X5829705Y-16609031D01*
X5829705Y-16609031D02*
X5820182Y-16599508D01*
X5820182Y-16599508D02*
X5801134Y-16589984D01*
X5801134Y-16589984D02*
X5763039Y-16589984D01*
X5763039Y-16589984D02*
X5743991Y-16599508D01*
X5743991Y-16599508D02*
X5734467Y-16609031D01*
X5734467Y-16609031D02*
X5724943Y-16628079D01*
X5724943Y-16628079D02*
X5724943Y-16675698D01*
X5724943Y-16675698D02*
X5734467Y-16694746D01*
X5734467Y-16694746D02*
X5743991Y-16704269D01*
X5743991Y-16704269D02*
X5763039Y-16713793D01*
X5763039Y-16713793D02*
X5801134Y-16713793D01*
X5801134Y-16713793D02*
X5820182Y-16704269D01*
X5820182Y-16704269D02*
X5829705Y-16694746D01*
X5829705Y-16694746D02*
X5839229Y-16675698D01*
X5963039Y-16589984D02*
X5982086Y-16589984D01*
X5982086Y-16589984D02*
X6001134Y-16599508D01*
X6001134Y-16599508D02*
X6010658Y-16609031D01*
X6010658Y-16609031D02*
X6020182Y-16628079D01*
X6020182Y-16628079D02*
X6029705Y-16666174D01*
X6029705Y-16666174D02*
X6029705Y-16713793D01*
X6029705Y-16713793D02*
X6020182Y-16751888D01*
X6020182Y-16751888D02*
X6010658Y-16770936D01*
X6010658Y-16770936D02*
X6001134Y-16780460D01*
X6001134Y-16780460D02*
X5982086Y-16789984D01*
X5982086Y-16789984D02*
X5963039Y-16789984D01*
X5963039Y-16789984D02*
X5943991Y-16780460D01*
X5943991Y-16780460D02*
X5934467Y-16770936D01*
X5934467Y-16770936D02*
X5924943Y-16751888D01*
X5924943Y-16751888D02*
X5915420Y-16713793D01*
X5915420Y-16713793D02*
X5915420Y-16666174D01*
X5915420Y-16666174D02*
X5924943Y-16628079D01*
X5924943Y-16628079D02*
X5934467Y-16609031D01*
X5934467Y-16609031D02*
X5943991Y-16599508D01*
X5943991Y-16599508D02*
X5963039Y-16589984D01*
X6115420Y-16789984D02*
X6115420Y-16656650D01*
X6115420Y-16675698D02*
X6124943Y-16666174D01*
X6124943Y-16666174D02*
X6143991Y-16656650D01*
X6143991Y-16656650D02*
X6172563Y-16656650D01*
X6172563Y-16656650D02*
X6191610Y-16666174D01*
X6191610Y-16666174D02*
X6201134Y-16685222D01*
X6201134Y-16685222D02*
X6201134Y-16789984D01*
X6201134Y-16685222D02*
X6210658Y-16666174D01*
X6210658Y-16666174D02*
X6229705Y-16656650D01*
X6229705Y-16656650D02*
X6258277Y-16656650D01*
X6258277Y-16656650D02*
X6277324Y-16666174D01*
X6277324Y-16666174D02*
X6286848Y-16685222D01*
X6286848Y-16685222D02*
X6286848Y-16789984D01*
X6382086Y-16789984D02*
X6382086Y-16656650D01*
X6382086Y-16675698D02*
X6391610Y-16666174D01*
X6391610Y-16666174D02*
X6410658Y-16656650D01*
X6410658Y-16656650D02*
X6439229Y-16656650D01*
X6439229Y-16656650D02*
X6458277Y-16666174D01*
X6458277Y-16666174D02*
X6467801Y-16685222D01*
X6467801Y-16685222D02*
X6467801Y-16789984D01*
X6467801Y-16685222D02*
X6477324Y-16666174D01*
X6477324Y-16666174D02*
X6496372Y-16656650D01*
X6496372Y-16656650D02*
X6524943Y-16656650D01*
X6524943Y-16656650D02*
X6543991Y-16666174D01*
X6543991Y-16666174D02*
X6553515Y-16685222D01*
X6553515Y-16685222D02*
X6553515Y-16789984D01*
X6943991Y-16580460D02*
X6772563Y-16837603D01*
X7201134Y-16589984D02*
X7220182Y-16589984D01*
X7220182Y-16589984D02*
X7239229Y-16599508D01*
X7239229Y-16599508D02*
X7248753Y-16609031D01*
X7248753Y-16609031D02*
X7258277Y-16628079D01*
X7258277Y-16628079D02*
X7267801Y-16666174D01*
X7267801Y-16666174D02*
X7267801Y-16713793D01*
X7267801Y-16713793D02*
X7258277Y-16751888D01*
X7258277Y-16751888D02*
X7248753Y-16770936D01*
X7248753Y-16770936D02*
X7239229Y-16780460D01*
X7239229Y-16780460D02*
X7220182Y-16789984D01*
X7220182Y-16789984D02*
X7201134Y-16789984D01*
X7201134Y-16789984D02*
X7182086Y-16780460D01*
X7182086Y-16780460D02*
X7172563Y-16770936D01*
X7172563Y-16770936D02*
X7163039Y-16751888D01*
X7163039Y-16751888D02*
X7153515Y-16713793D01*
X7153515Y-16713793D02*
X7153515Y-16666174D01*
X7153515Y-16666174D02*
X7163039Y-16628079D01*
X7163039Y-16628079D02*
X7172563Y-16609031D01*
X7172563Y-16609031D02*
X7182086Y-16599508D01*
X7182086Y-16599508D02*
X7201134Y-16589984D01*
X7353515Y-16770936D02*
X7363039Y-16780460D01*
X7363039Y-16780460D02*
X7353515Y-16789984D01*
X7353515Y-16789984D02*
X7343991Y-16780460D01*
X7343991Y-16780460D02*
X7353515Y-16770936D01*
X7353515Y-16770936D02*
X7353515Y-16789984D01*
X7486848Y-16589984D02*
X7505896Y-16589984D01*
X7505896Y-16589984D02*
X7524944Y-16599508D01*
X7524944Y-16599508D02*
X7534467Y-16609031D01*
X7534467Y-16609031D02*
X7543991Y-16628079D01*
X7543991Y-16628079D02*
X7553515Y-16666174D01*
X7553515Y-16666174D02*
X7553515Y-16713793D01*
X7553515Y-16713793D02*
X7543991Y-16751888D01*
X7543991Y-16751888D02*
X7534467Y-16770936D01*
X7534467Y-16770936D02*
X7524944Y-16780460D01*
X7524944Y-16780460D02*
X7505896Y-16789984D01*
X7505896Y-16789984D02*
X7486848Y-16789984D01*
X7486848Y-16789984D02*
X7467801Y-16780460D01*
X7467801Y-16780460D02*
X7458277Y-16770936D01*
X7458277Y-16770936D02*
X7448753Y-16751888D01*
X7448753Y-16751888D02*
X7439229Y-16713793D01*
X7439229Y-16713793D02*
X7439229Y-16666174D01*
X7439229Y-16666174D02*
X7448753Y-16628079D01*
X7448753Y-16628079D02*
X7458277Y-16609031D01*
X7458277Y-16609031D02*
X7467801Y-16599508D01*
X7467801Y-16599508D02*
X7486848Y-16589984D01*
X7724944Y-16656650D02*
X7724944Y-16789984D01*
X7677325Y-16580460D02*
X7629706Y-16723317D01*
X7629706Y-16723317D02*
X7753515Y-16723317D01*
X7820182Y-16609031D02*
X7829706Y-16599508D01*
X7829706Y-16599508D02*
X7848753Y-16589984D01*
X7848753Y-16589984D02*
X7896372Y-16589984D01*
X7896372Y-16589984D02*
X7915420Y-16599508D01*
X7915420Y-16599508D02*
X7924944Y-16609031D01*
X7924944Y-16609031D02*
X7934467Y-16628079D01*
X7934467Y-16628079D02*
X7934467Y-16647127D01*
X7934467Y-16647127D02*
X7924944Y-16675698D01*
X7924944Y-16675698D02*
X7810658Y-16789984D01*
X7810658Y-16789984D02*
X7934467Y-16789984D01*
X8029706Y-16789984D02*
X8067801Y-16789984D01*
X8067801Y-16789984D02*
X8086848Y-16780460D01*
X8086848Y-16780460D02*
X8096372Y-16770936D01*
X8096372Y-16770936D02*
X8115420Y-16742365D01*
X8115420Y-16742365D02*
X8124944Y-16704269D01*
X8124944Y-16704269D02*
X8124944Y-16628079D01*
X8124944Y-16628079D02*
X8115420Y-16609031D01*
X8115420Y-16609031D02*
X8105896Y-16599508D01*
X8105896Y-16599508D02*
X8086848Y-16589984D01*
X8086848Y-16589984D02*
X8048753Y-16589984D01*
X8048753Y-16589984D02*
X8029706Y-16599508D01*
X8029706Y-16599508D02*
X8020182Y-16609031D01*
X8020182Y-16609031D02*
X8010658Y-16628079D01*
X8010658Y-16628079D02*
X8010658Y-16675698D01*
X8010658Y-16675698D02*
X8020182Y-16694746D01*
X8020182Y-16694746D02*
X8029706Y-16704269D01*
X8029706Y-16704269D02*
X8048753Y-16713793D01*
X8048753Y-16713793D02*
X8086848Y-16713793D01*
X8086848Y-16713793D02*
X8105896Y-16704269D01*
X8105896Y-16704269D02*
X8115420Y-16694746D01*
X8115420Y-16694746D02*
X8124944Y-16675698D01*
X8201134Y-16589984D02*
X8201134Y-16628079D01*
X8277325Y-16589984D02*
X8277325Y-16628079D01*
X8572563Y-16866174D02*
X8563039Y-16856650D01*
X8563039Y-16856650D02*
X8543991Y-16828079D01*
X8543991Y-16828079D02*
X8534468Y-16809031D01*
X8534468Y-16809031D02*
X8524944Y-16780460D01*
X8524944Y-16780460D02*
X8515420Y-16732841D01*
X8515420Y-16732841D02*
X8515420Y-16694746D01*
X8515420Y-16694746D02*
X8524944Y-16647127D01*
X8524944Y-16647127D02*
X8534468Y-16618555D01*
X8534468Y-16618555D02*
X8543991Y-16599508D01*
X8543991Y-16599508D02*
X8563039Y-16570936D01*
X8563039Y-16570936D02*
X8572563Y-16561412D01*
X8734468Y-16589984D02*
X8696372Y-16589984D01*
X8696372Y-16589984D02*
X8677325Y-16599508D01*
X8677325Y-16599508D02*
X8667801Y-16609031D01*
X8667801Y-16609031D02*
X8648753Y-16637603D01*
X8648753Y-16637603D02*
X8639230Y-16675698D01*
X8639230Y-16675698D02*
X8639230Y-16751888D01*
X8639230Y-16751888D02*
X8648753Y-16770936D01*
X8648753Y-16770936D02*
X8658277Y-16780460D01*
X8658277Y-16780460D02*
X8677325Y-16789984D01*
X8677325Y-16789984D02*
X8715420Y-16789984D01*
X8715420Y-16789984D02*
X8734468Y-16780460D01*
X8734468Y-16780460D02*
X8743991Y-16770936D01*
X8743991Y-16770936D02*
X8753515Y-16751888D01*
X8753515Y-16751888D02*
X8753515Y-16704269D01*
X8753515Y-16704269D02*
X8743991Y-16685222D01*
X8743991Y-16685222D02*
X8734468Y-16675698D01*
X8734468Y-16675698D02*
X8715420Y-16666174D01*
X8715420Y-16666174D02*
X8677325Y-16666174D01*
X8677325Y-16666174D02*
X8658277Y-16675698D01*
X8658277Y-16675698D02*
X8648753Y-16685222D01*
X8648753Y-16685222D02*
X8639230Y-16704269D01*
X8991611Y-16789984D02*
X8991611Y-16589984D01*
X9077325Y-16789984D02*
X9077325Y-16685222D01*
X9077325Y-16685222D02*
X9067801Y-16666174D01*
X9067801Y-16666174D02*
X9048753Y-16656650D01*
X9048753Y-16656650D02*
X9020182Y-16656650D01*
X9020182Y-16656650D02*
X9001134Y-16666174D01*
X9001134Y-16666174D02*
X8991611Y-16675698D01*
X9201134Y-16789984D02*
X9182087Y-16780460D01*
X9182087Y-16780460D02*
X9172563Y-16770936D01*
X9172563Y-16770936D02*
X9163039Y-16751888D01*
X9163039Y-16751888D02*
X9163039Y-16694746D01*
X9163039Y-16694746D02*
X9172563Y-16675698D01*
X9172563Y-16675698D02*
X9182087Y-16666174D01*
X9182087Y-16666174D02*
X9201134Y-16656650D01*
X9201134Y-16656650D02*
X9229706Y-16656650D01*
X9229706Y-16656650D02*
X9248753Y-16666174D01*
X9248753Y-16666174D02*
X9258277Y-16675698D01*
X9258277Y-16675698D02*
X9267801Y-16694746D01*
X9267801Y-16694746D02*
X9267801Y-16751888D01*
X9267801Y-16751888D02*
X9258277Y-16770936D01*
X9258277Y-16770936D02*
X9248753Y-16780460D01*
X9248753Y-16780460D02*
X9229706Y-16789984D01*
X9229706Y-16789984D02*
X9201134Y-16789984D01*
X9382087Y-16789984D02*
X9363039Y-16780460D01*
X9363039Y-16780460D02*
X9353515Y-16761412D01*
X9353515Y-16761412D02*
X9353515Y-16589984D01*
X9534468Y-16780460D02*
X9515420Y-16789984D01*
X9515420Y-16789984D02*
X9477325Y-16789984D01*
X9477325Y-16789984D02*
X9458277Y-16780460D01*
X9458277Y-16780460D02*
X9448753Y-16761412D01*
X9448753Y-16761412D02*
X9448753Y-16685222D01*
X9448753Y-16685222D02*
X9458277Y-16666174D01*
X9458277Y-16666174D02*
X9477325Y-16656650D01*
X9477325Y-16656650D02*
X9515420Y-16656650D01*
X9515420Y-16656650D02*
X9534468Y-16666174D01*
X9534468Y-16666174D02*
X9543992Y-16685222D01*
X9543992Y-16685222D02*
X9543992Y-16704269D01*
X9543992Y-16704269D02*
X9448753Y-16723317D01*
X9620182Y-16780460D02*
X9639230Y-16789984D01*
X9639230Y-16789984D02*
X9677325Y-16789984D01*
X9677325Y-16789984D02*
X9696373Y-16780460D01*
X9696373Y-16780460D02*
X9705896Y-16761412D01*
X9705896Y-16761412D02*
X9705896Y-16751888D01*
X9705896Y-16751888D02*
X9696373Y-16732841D01*
X9696373Y-16732841D02*
X9677325Y-16723317D01*
X9677325Y-16723317D02*
X9648753Y-16723317D01*
X9648753Y-16723317D02*
X9629706Y-16713793D01*
X9629706Y-16713793D02*
X9620182Y-16694746D01*
X9620182Y-16694746D02*
X9620182Y-16685222D01*
X9620182Y-16685222D02*
X9629706Y-16666174D01*
X9629706Y-16666174D02*
X9648753Y-16656650D01*
X9648753Y-16656650D02*
X9677325Y-16656650D01*
X9677325Y-16656650D02*
X9696373Y-16666174D01*
X9772563Y-16866174D02*
X9782087Y-16856650D01*
X9782087Y-16856650D02*
X9801134Y-16828079D01*
X9801134Y-16828079D02*
X9810658Y-16809031D01*
X9810658Y-16809031D02*
X9820182Y-16780460D01*
X9820182Y-16780460D02*
X9829706Y-16732841D01*
X9829706Y-16732841D02*
X9829706Y-16694746D01*
X9829706Y-16694746D02*
X9820182Y-16647127D01*
X9820182Y-16647127D02*
X9810658Y-16618555D01*
X9810658Y-16618555D02*
X9801134Y-16599508D01*
X9801134Y-16599508D02*
X9782087Y-16570936D01*
X9782087Y-16570936D02*
X9772563Y-16561412D01*
D14*
X4887500Y-16907500D02*
X4997500Y-17017500D01*
X4997500Y-16907500D02*
X4887500Y-17017500D01*
X4997500Y-16962500D02*
G75*
G02*
X4887500Y-16962500I-55000J0D01*
G01*
X4887500Y-16962500D02*
G75*
G02*
X4997500Y-16962500I55000J0D01*
G01*
D11*
X5363039Y-17053984D02*
X5248753Y-17053984D01*
X5305896Y-17053984D02*
X5305896Y-16853984D01*
X5305896Y-16853984D02*
X5286848Y-16882555D01*
X5286848Y-16882555D02*
X5267801Y-16901603D01*
X5267801Y-16901603D02*
X5248753Y-16911127D01*
X5448753Y-17034936D02*
X5458277Y-17044460D01*
X5458277Y-17044460D02*
X5448753Y-17053984D01*
X5448753Y-17053984D02*
X5439229Y-17044460D01*
X5439229Y-17044460D02*
X5448753Y-17034936D01*
X5448753Y-17034936D02*
X5448753Y-17053984D01*
X5648753Y-17053984D02*
X5534467Y-17053984D01*
X5591610Y-17053984D02*
X5591610Y-16853984D01*
X5591610Y-16853984D02*
X5572563Y-16882555D01*
X5572563Y-16882555D02*
X5553515Y-16901603D01*
X5553515Y-16901603D02*
X5534467Y-16911127D01*
X5772562Y-16853984D02*
X5791610Y-16853984D01*
X5791610Y-16853984D02*
X5810658Y-16863508D01*
X5810658Y-16863508D02*
X5820182Y-16873031D01*
X5820182Y-16873031D02*
X5829705Y-16892079D01*
X5829705Y-16892079D02*
X5839229Y-16930174D01*
X5839229Y-16930174D02*
X5839229Y-16977793D01*
X5839229Y-16977793D02*
X5829705Y-17015889D01*
X5829705Y-17015889D02*
X5820182Y-17034936D01*
X5820182Y-17034936D02*
X5810658Y-17044460D01*
X5810658Y-17044460D02*
X5791610Y-17053984D01*
X5791610Y-17053984D02*
X5772562Y-17053984D01*
X5772562Y-17053984D02*
X5753515Y-17044460D01*
X5753515Y-17044460D02*
X5743991Y-17034936D01*
X5743991Y-17034936D02*
X5734467Y-17015889D01*
X5734467Y-17015889D02*
X5724943Y-16977793D01*
X5724943Y-16977793D02*
X5724943Y-16930174D01*
X5724943Y-16930174D02*
X5734467Y-16892079D01*
X5734467Y-16892079D02*
X5743991Y-16873031D01*
X5743991Y-16873031D02*
X5753515Y-16863508D01*
X5753515Y-16863508D02*
X5772562Y-16853984D01*
X5963039Y-16853984D02*
X5982086Y-16853984D01*
X5982086Y-16853984D02*
X6001134Y-16863508D01*
X6001134Y-16863508D02*
X6010658Y-16873031D01*
X6010658Y-16873031D02*
X6020182Y-16892079D01*
X6020182Y-16892079D02*
X6029705Y-16930174D01*
X6029705Y-16930174D02*
X6029705Y-16977793D01*
X6029705Y-16977793D02*
X6020182Y-17015889D01*
X6020182Y-17015889D02*
X6010658Y-17034936D01*
X6010658Y-17034936D02*
X6001134Y-17044460D01*
X6001134Y-17044460D02*
X5982086Y-17053984D01*
X5982086Y-17053984D02*
X5963039Y-17053984D01*
X5963039Y-17053984D02*
X5943991Y-17044460D01*
X5943991Y-17044460D02*
X5934467Y-17034936D01*
X5934467Y-17034936D02*
X5924943Y-17015889D01*
X5924943Y-17015889D02*
X5915420Y-16977793D01*
X5915420Y-16977793D02*
X5915420Y-16930174D01*
X5915420Y-16930174D02*
X5924943Y-16892079D01*
X5924943Y-16892079D02*
X5934467Y-16873031D01*
X5934467Y-16873031D02*
X5943991Y-16863508D01*
X5943991Y-16863508D02*
X5963039Y-16853984D01*
X6115420Y-17053984D02*
X6115420Y-16920650D01*
X6115420Y-16939698D02*
X6124943Y-16930174D01*
X6124943Y-16930174D02*
X6143991Y-16920650D01*
X6143991Y-16920650D02*
X6172563Y-16920650D01*
X6172563Y-16920650D02*
X6191610Y-16930174D01*
X6191610Y-16930174D02*
X6201134Y-16949222D01*
X6201134Y-16949222D02*
X6201134Y-17053984D01*
X6201134Y-16949222D02*
X6210658Y-16930174D01*
X6210658Y-16930174D02*
X6229705Y-16920650D01*
X6229705Y-16920650D02*
X6258277Y-16920650D01*
X6258277Y-16920650D02*
X6277324Y-16930174D01*
X6277324Y-16930174D02*
X6286848Y-16949222D01*
X6286848Y-16949222D02*
X6286848Y-17053984D01*
X6382086Y-17053984D02*
X6382086Y-16920650D01*
X6382086Y-16939698D02*
X6391610Y-16930174D01*
X6391610Y-16930174D02*
X6410658Y-16920650D01*
X6410658Y-16920650D02*
X6439229Y-16920650D01*
X6439229Y-16920650D02*
X6458277Y-16930174D01*
X6458277Y-16930174D02*
X6467801Y-16949222D01*
X6467801Y-16949222D02*
X6467801Y-17053984D01*
X6467801Y-16949222D02*
X6477324Y-16930174D01*
X6477324Y-16930174D02*
X6496372Y-16920650D01*
X6496372Y-16920650D02*
X6524943Y-16920650D01*
X6524943Y-16920650D02*
X6543991Y-16930174D01*
X6543991Y-16930174D02*
X6553515Y-16949222D01*
X6553515Y-16949222D02*
X6553515Y-17053984D01*
X6943991Y-16844460D02*
X6772563Y-17101603D01*
X7201134Y-16853984D02*
X7220182Y-16853984D01*
X7220182Y-16853984D02*
X7239229Y-16863508D01*
X7239229Y-16863508D02*
X7248753Y-16873031D01*
X7248753Y-16873031D02*
X7258277Y-16892079D01*
X7258277Y-16892079D02*
X7267801Y-16930174D01*
X7267801Y-16930174D02*
X7267801Y-16977793D01*
X7267801Y-16977793D02*
X7258277Y-17015889D01*
X7258277Y-17015889D02*
X7248753Y-17034936D01*
X7248753Y-17034936D02*
X7239229Y-17044460D01*
X7239229Y-17044460D02*
X7220182Y-17053984D01*
X7220182Y-17053984D02*
X7201134Y-17053984D01*
X7201134Y-17053984D02*
X7182086Y-17044460D01*
X7182086Y-17044460D02*
X7172563Y-17034936D01*
X7172563Y-17034936D02*
X7163039Y-17015889D01*
X7163039Y-17015889D02*
X7153515Y-16977793D01*
X7153515Y-16977793D02*
X7153515Y-16930174D01*
X7153515Y-16930174D02*
X7163039Y-16892079D01*
X7163039Y-16892079D02*
X7172563Y-16873031D01*
X7172563Y-16873031D02*
X7182086Y-16863508D01*
X7182086Y-16863508D02*
X7201134Y-16853984D01*
X7353515Y-17034936D02*
X7363039Y-17044460D01*
X7363039Y-17044460D02*
X7353515Y-17053984D01*
X7353515Y-17053984D02*
X7343991Y-17044460D01*
X7343991Y-17044460D02*
X7353515Y-17034936D01*
X7353515Y-17034936D02*
X7353515Y-17053984D01*
X7486848Y-16853984D02*
X7505896Y-16853984D01*
X7505896Y-16853984D02*
X7524944Y-16863508D01*
X7524944Y-16863508D02*
X7534467Y-16873031D01*
X7534467Y-16873031D02*
X7543991Y-16892079D01*
X7543991Y-16892079D02*
X7553515Y-16930174D01*
X7553515Y-16930174D02*
X7553515Y-16977793D01*
X7553515Y-16977793D02*
X7543991Y-17015889D01*
X7543991Y-17015889D02*
X7534467Y-17034936D01*
X7534467Y-17034936D02*
X7524944Y-17044460D01*
X7524944Y-17044460D02*
X7505896Y-17053984D01*
X7505896Y-17053984D02*
X7486848Y-17053984D01*
X7486848Y-17053984D02*
X7467801Y-17044460D01*
X7467801Y-17044460D02*
X7458277Y-17034936D01*
X7458277Y-17034936D02*
X7448753Y-17015889D01*
X7448753Y-17015889D02*
X7439229Y-16977793D01*
X7439229Y-16977793D02*
X7439229Y-16930174D01*
X7439229Y-16930174D02*
X7448753Y-16892079D01*
X7448753Y-16892079D02*
X7458277Y-16873031D01*
X7458277Y-16873031D02*
X7467801Y-16863508D01*
X7467801Y-16863508D02*
X7486848Y-16853984D01*
X7724944Y-16920650D02*
X7724944Y-17053984D01*
X7677325Y-16844460D02*
X7629706Y-16987317D01*
X7629706Y-16987317D02*
X7753515Y-16987317D01*
X7810658Y-16853984D02*
X7934467Y-16853984D01*
X7934467Y-16853984D02*
X7867801Y-16930174D01*
X7867801Y-16930174D02*
X7896372Y-16930174D01*
X7896372Y-16930174D02*
X7915420Y-16939698D01*
X7915420Y-16939698D02*
X7924944Y-16949222D01*
X7924944Y-16949222D02*
X7934467Y-16968270D01*
X7934467Y-16968270D02*
X7934467Y-17015889D01*
X7934467Y-17015889D02*
X7924944Y-17034936D01*
X7924944Y-17034936D02*
X7915420Y-17044460D01*
X7915420Y-17044460D02*
X7896372Y-17053984D01*
X7896372Y-17053984D02*
X7839229Y-17053984D01*
X7839229Y-17053984D02*
X7820182Y-17044460D01*
X7820182Y-17044460D02*
X7810658Y-17034936D01*
X8001134Y-16853984D02*
X8124944Y-16853984D01*
X8124944Y-16853984D02*
X8058277Y-16930174D01*
X8058277Y-16930174D02*
X8086848Y-16930174D01*
X8086848Y-16930174D02*
X8105896Y-16939698D01*
X8105896Y-16939698D02*
X8115420Y-16949222D01*
X8115420Y-16949222D02*
X8124944Y-16968270D01*
X8124944Y-16968270D02*
X8124944Y-17015889D01*
X8124944Y-17015889D02*
X8115420Y-17034936D01*
X8115420Y-17034936D02*
X8105896Y-17044460D01*
X8105896Y-17044460D02*
X8086848Y-17053984D01*
X8086848Y-17053984D02*
X8029706Y-17053984D01*
X8029706Y-17053984D02*
X8010658Y-17044460D01*
X8010658Y-17044460D02*
X8001134Y-17034936D01*
X8201134Y-16853984D02*
X8201134Y-16892079D01*
X8277325Y-16853984D02*
X8277325Y-16892079D01*
X8572563Y-17130174D02*
X8563039Y-17120650D01*
X8563039Y-17120650D02*
X8543991Y-17092079D01*
X8543991Y-17092079D02*
X8534468Y-17073031D01*
X8534468Y-17073031D02*
X8524944Y-17044460D01*
X8524944Y-17044460D02*
X8515420Y-16996841D01*
X8515420Y-16996841D02*
X8515420Y-16958746D01*
X8515420Y-16958746D02*
X8524944Y-16911127D01*
X8524944Y-16911127D02*
X8534468Y-16882555D01*
X8534468Y-16882555D02*
X8543991Y-16863508D01*
X8543991Y-16863508D02*
X8563039Y-16834936D01*
X8563039Y-16834936D02*
X8572563Y-16825412D01*
X8753515Y-17053984D02*
X8639230Y-17053984D01*
X8696372Y-17053984D02*
X8696372Y-16853984D01*
X8696372Y-16853984D02*
X8677325Y-16882555D01*
X8677325Y-16882555D02*
X8658277Y-16901603D01*
X8658277Y-16901603D02*
X8639230Y-16911127D01*
X8924944Y-16920650D02*
X8924944Y-17053984D01*
X8877325Y-16844460D02*
X8829706Y-16987317D01*
X8829706Y-16987317D02*
X8953515Y-16987317D01*
X9039230Y-17053984D02*
X9077325Y-17053984D01*
X9077325Y-17053984D02*
X9096372Y-17044460D01*
X9096372Y-17044460D02*
X9105896Y-17034936D01*
X9105896Y-17034936D02*
X9124944Y-17006365D01*
X9124944Y-17006365D02*
X9134468Y-16968270D01*
X9134468Y-16968270D02*
X9134468Y-16892079D01*
X9134468Y-16892079D02*
X9124944Y-16873031D01*
X9124944Y-16873031D02*
X9115420Y-16863508D01*
X9115420Y-16863508D02*
X9096372Y-16853984D01*
X9096372Y-16853984D02*
X9058277Y-16853984D01*
X9058277Y-16853984D02*
X9039230Y-16863508D01*
X9039230Y-16863508D02*
X9029706Y-16873031D01*
X9029706Y-16873031D02*
X9020182Y-16892079D01*
X9020182Y-16892079D02*
X9020182Y-16939698D01*
X9020182Y-16939698D02*
X9029706Y-16958746D01*
X9029706Y-16958746D02*
X9039230Y-16968270D01*
X9039230Y-16968270D02*
X9058277Y-16977793D01*
X9058277Y-16977793D02*
X9096372Y-16977793D01*
X9096372Y-16977793D02*
X9115420Y-16968270D01*
X9115420Y-16968270D02*
X9124944Y-16958746D01*
X9124944Y-16958746D02*
X9134468Y-16939698D01*
X9372563Y-17053984D02*
X9372563Y-16853984D01*
X9458277Y-17053984D02*
X9458277Y-16949222D01*
X9458277Y-16949222D02*
X9448753Y-16930174D01*
X9448753Y-16930174D02*
X9429706Y-16920650D01*
X9429706Y-16920650D02*
X9401134Y-16920650D01*
X9401134Y-16920650D02*
X9382087Y-16930174D01*
X9382087Y-16930174D02*
X9372563Y-16939698D01*
X9582087Y-17053984D02*
X9563039Y-17044460D01*
X9563039Y-17044460D02*
X9553515Y-17034936D01*
X9553515Y-17034936D02*
X9543992Y-17015889D01*
X9543992Y-17015889D02*
X9543992Y-16958746D01*
X9543992Y-16958746D02*
X9553515Y-16939698D01*
X9553515Y-16939698D02*
X9563039Y-16930174D01*
X9563039Y-16930174D02*
X9582087Y-16920650D01*
X9582087Y-16920650D02*
X9610658Y-16920650D01*
X9610658Y-16920650D02*
X9629706Y-16930174D01*
X9629706Y-16930174D02*
X9639230Y-16939698D01*
X9639230Y-16939698D02*
X9648753Y-16958746D01*
X9648753Y-16958746D02*
X9648753Y-17015889D01*
X9648753Y-17015889D02*
X9639230Y-17034936D01*
X9639230Y-17034936D02*
X9629706Y-17044460D01*
X9629706Y-17044460D02*
X9610658Y-17053984D01*
X9610658Y-17053984D02*
X9582087Y-17053984D01*
X9763039Y-17053984D02*
X9743992Y-17044460D01*
X9743992Y-17044460D02*
X9734468Y-17025412D01*
X9734468Y-17025412D02*
X9734468Y-16853984D01*
X9915420Y-17044460D02*
X9896373Y-17053984D01*
X9896373Y-17053984D02*
X9858277Y-17053984D01*
X9858277Y-17053984D02*
X9839230Y-17044460D01*
X9839230Y-17044460D02*
X9829706Y-17025412D01*
X9829706Y-17025412D02*
X9829706Y-16949222D01*
X9829706Y-16949222D02*
X9839230Y-16930174D01*
X9839230Y-16930174D02*
X9858277Y-16920650D01*
X9858277Y-16920650D02*
X9896373Y-16920650D01*
X9896373Y-16920650D02*
X9915420Y-16930174D01*
X9915420Y-16930174D02*
X9924944Y-16949222D01*
X9924944Y-16949222D02*
X9924944Y-16968270D01*
X9924944Y-16968270D02*
X9829706Y-16987317D01*
X10001134Y-17044460D02*
X10020182Y-17053984D01*
X10020182Y-17053984D02*
X10058277Y-17053984D01*
X10058277Y-17053984D02*
X10077325Y-17044460D01*
X10077325Y-17044460D02*
X10086849Y-17025412D01*
X10086849Y-17025412D02*
X10086849Y-17015889D01*
X10086849Y-17015889D02*
X10077325Y-16996841D01*
X10077325Y-16996841D02*
X10058277Y-16987317D01*
X10058277Y-16987317D02*
X10029706Y-16987317D01*
X10029706Y-16987317D02*
X10010658Y-16977793D01*
X10010658Y-16977793D02*
X10001134Y-16958746D01*
X10001134Y-16958746D02*
X10001134Y-16949222D01*
X10001134Y-16949222D02*
X10010658Y-16930174D01*
X10010658Y-16930174D02*
X10029706Y-16920650D01*
X10029706Y-16920650D02*
X10058277Y-16920650D01*
X10058277Y-16920650D02*
X10077325Y-16930174D01*
X10153515Y-17130174D02*
X10163039Y-17120650D01*
X10163039Y-17120650D02*
X10182087Y-17092079D01*
X10182087Y-17092079D02*
X10191611Y-17073031D01*
X10191611Y-17073031D02*
X10201134Y-17044460D01*
X10201134Y-17044460D02*
X10210658Y-16996841D01*
X10210658Y-16996841D02*
X10210658Y-16958746D01*
X10210658Y-16958746D02*
X10201134Y-16911127D01*
X10201134Y-16911127D02*
X10191611Y-16882555D01*
X10191611Y-16882555D02*
X10182087Y-16863508D01*
X10182087Y-16863508D02*
X10163039Y-16834936D01*
X10163039Y-16834936D02*
X10153515Y-16825412D01*
D15*
X4867500Y-17161500D02*
X4997500Y-17291500D01*
X4997500Y-17161500D02*
X4867500Y-17291500D01*
X4932500Y-17161500D02*
X4932500Y-17291500D01*
X4867500Y-17226500D02*
X4997500Y-17226500D01*
D11*
X5363039Y-17317984D02*
X5248753Y-17317984D01*
X5305896Y-17317984D02*
X5305896Y-17117984D01*
X5305896Y-17117984D02*
X5286848Y-17146555D01*
X5286848Y-17146555D02*
X5267801Y-17165603D01*
X5267801Y-17165603D02*
X5248753Y-17175127D01*
X5448753Y-17298936D02*
X5458277Y-17308460D01*
X5458277Y-17308460D02*
X5448753Y-17317984D01*
X5448753Y-17317984D02*
X5439229Y-17308460D01*
X5439229Y-17308460D02*
X5448753Y-17298936D01*
X5448753Y-17298936D02*
X5448753Y-17317984D01*
X5524944Y-17117984D02*
X5648753Y-17117984D01*
X5648753Y-17117984D02*
X5582086Y-17194174D01*
X5582086Y-17194174D02*
X5610658Y-17194174D01*
X5610658Y-17194174D02*
X5629705Y-17203698D01*
X5629705Y-17203698D02*
X5639229Y-17213222D01*
X5639229Y-17213222D02*
X5648753Y-17232270D01*
X5648753Y-17232270D02*
X5648753Y-17279889D01*
X5648753Y-17279889D02*
X5639229Y-17298936D01*
X5639229Y-17298936D02*
X5629705Y-17308460D01*
X5629705Y-17308460D02*
X5610658Y-17317984D01*
X5610658Y-17317984D02*
X5553515Y-17317984D01*
X5553515Y-17317984D02*
X5534467Y-17308460D01*
X5534467Y-17308460D02*
X5524944Y-17298936D01*
X5772562Y-17117984D02*
X5791610Y-17117984D01*
X5791610Y-17117984D02*
X5810658Y-17127508D01*
X5810658Y-17127508D02*
X5820182Y-17137031D01*
X5820182Y-17137031D02*
X5829705Y-17156079D01*
X5829705Y-17156079D02*
X5839229Y-17194174D01*
X5839229Y-17194174D02*
X5839229Y-17241793D01*
X5839229Y-17241793D02*
X5829705Y-17279889D01*
X5829705Y-17279889D02*
X5820182Y-17298936D01*
X5820182Y-17298936D02*
X5810658Y-17308460D01*
X5810658Y-17308460D02*
X5791610Y-17317984D01*
X5791610Y-17317984D02*
X5772562Y-17317984D01*
X5772562Y-17317984D02*
X5753515Y-17308460D01*
X5753515Y-17308460D02*
X5743991Y-17298936D01*
X5743991Y-17298936D02*
X5734467Y-17279889D01*
X5734467Y-17279889D02*
X5724943Y-17241793D01*
X5724943Y-17241793D02*
X5724943Y-17194174D01*
X5724943Y-17194174D02*
X5734467Y-17156079D01*
X5734467Y-17156079D02*
X5743991Y-17137031D01*
X5743991Y-17137031D02*
X5753515Y-17127508D01*
X5753515Y-17127508D02*
X5772562Y-17117984D01*
X5963039Y-17117984D02*
X5982086Y-17117984D01*
X5982086Y-17117984D02*
X6001134Y-17127508D01*
X6001134Y-17127508D02*
X6010658Y-17137031D01*
X6010658Y-17137031D02*
X6020182Y-17156079D01*
X6020182Y-17156079D02*
X6029705Y-17194174D01*
X6029705Y-17194174D02*
X6029705Y-17241793D01*
X6029705Y-17241793D02*
X6020182Y-17279889D01*
X6020182Y-17279889D02*
X6010658Y-17298936D01*
X6010658Y-17298936D02*
X6001134Y-17308460D01*
X6001134Y-17308460D02*
X5982086Y-17317984D01*
X5982086Y-17317984D02*
X5963039Y-17317984D01*
X5963039Y-17317984D02*
X5943991Y-17308460D01*
X5943991Y-17308460D02*
X5934467Y-17298936D01*
X5934467Y-17298936D02*
X5924943Y-17279889D01*
X5924943Y-17279889D02*
X5915420Y-17241793D01*
X5915420Y-17241793D02*
X5915420Y-17194174D01*
X5915420Y-17194174D02*
X5924943Y-17156079D01*
X5924943Y-17156079D02*
X5934467Y-17137031D01*
X5934467Y-17137031D02*
X5943991Y-17127508D01*
X5943991Y-17127508D02*
X5963039Y-17117984D01*
X6115420Y-17317984D02*
X6115420Y-17184650D01*
X6115420Y-17203698D02*
X6124943Y-17194174D01*
X6124943Y-17194174D02*
X6143991Y-17184650D01*
X6143991Y-17184650D02*
X6172563Y-17184650D01*
X6172563Y-17184650D02*
X6191610Y-17194174D01*
X6191610Y-17194174D02*
X6201134Y-17213222D01*
X6201134Y-17213222D02*
X6201134Y-17317984D01*
X6201134Y-17213222D02*
X6210658Y-17194174D01*
X6210658Y-17194174D02*
X6229705Y-17184650D01*
X6229705Y-17184650D02*
X6258277Y-17184650D01*
X6258277Y-17184650D02*
X6277324Y-17194174D01*
X6277324Y-17194174D02*
X6286848Y-17213222D01*
X6286848Y-17213222D02*
X6286848Y-17317984D01*
X6382086Y-17317984D02*
X6382086Y-17184650D01*
X6382086Y-17203698D02*
X6391610Y-17194174D01*
X6391610Y-17194174D02*
X6410658Y-17184650D01*
X6410658Y-17184650D02*
X6439229Y-17184650D01*
X6439229Y-17184650D02*
X6458277Y-17194174D01*
X6458277Y-17194174D02*
X6467801Y-17213222D01*
X6467801Y-17213222D02*
X6467801Y-17317984D01*
X6467801Y-17213222D02*
X6477324Y-17194174D01*
X6477324Y-17194174D02*
X6496372Y-17184650D01*
X6496372Y-17184650D02*
X6524943Y-17184650D01*
X6524943Y-17184650D02*
X6543991Y-17194174D01*
X6543991Y-17194174D02*
X6553515Y-17213222D01*
X6553515Y-17213222D02*
X6553515Y-17317984D01*
X6943991Y-17108460D02*
X6772563Y-17365603D01*
X7201134Y-17117984D02*
X7220182Y-17117984D01*
X7220182Y-17117984D02*
X7239229Y-17127508D01*
X7239229Y-17127508D02*
X7248753Y-17137031D01*
X7248753Y-17137031D02*
X7258277Y-17156079D01*
X7258277Y-17156079D02*
X7267801Y-17194174D01*
X7267801Y-17194174D02*
X7267801Y-17241793D01*
X7267801Y-17241793D02*
X7258277Y-17279889D01*
X7258277Y-17279889D02*
X7248753Y-17298936D01*
X7248753Y-17298936D02*
X7239229Y-17308460D01*
X7239229Y-17308460D02*
X7220182Y-17317984D01*
X7220182Y-17317984D02*
X7201134Y-17317984D01*
X7201134Y-17317984D02*
X7182086Y-17308460D01*
X7182086Y-17308460D02*
X7172563Y-17298936D01*
X7172563Y-17298936D02*
X7163039Y-17279889D01*
X7163039Y-17279889D02*
X7153515Y-17241793D01*
X7153515Y-17241793D02*
X7153515Y-17194174D01*
X7153515Y-17194174D02*
X7163039Y-17156079D01*
X7163039Y-17156079D02*
X7172563Y-17137031D01*
X7172563Y-17137031D02*
X7182086Y-17127508D01*
X7182086Y-17127508D02*
X7201134Y-17117984D01*
X7353515Y-17298936D02*
X7363039Y-17308460D01*
X7363039Y-17308460D02*
X7353515Y-17317984D01*
X7353515Y-17317984D02*
X7343991Y-17308460D01*
X7343991Y-17308460D02*
X7353515Y-17298936D01*
X7353515Y-17298936D02*
X7353515Y-17317984D01*
X7486848Y-17117984D02*
X7505896Y-17117984D01*
X7505896Y-17117984D02*
X7524944Y-17127508D01*
X7524944Y-17127508D02*
X7534467Y-17137031D01*
X7534467Y-17137031D02*
X7543991Y-17156079D01*
X7543991Y-17156079D02*
X7553515Y-17194174D01*
X7553515Y-17194174D02*
X7553515Y-17241793D01*
X7553515Y-17241793D02*
X7543991Y-17279889D01*
X7543991Y-17279889D02*
X7534467Y-17298936D01*
X7534467Y-17298936D02*
X7524944Y-17308460D01*
X7524944Y-17308460D02*
X7505896Y-17317984D01*
X7505896Y-17317984D02*
X7486848Y-17317984D01*
X7486848Y-17317984D02*
X7467801Y-17308460D01*
X7467801Y-17308460D02*
X7458277Y-17298936D01*
X7458277Y-17298936D02*
X7448753Y-17279889D01*
X7448753Y-17279889D02*
X7439229Y-17241793D01*
X7439229Y-17241793D02*
X7439229Y-17194174D01*
X7439229Y-17194174D02*
X7448753Y-17156079D01*
X7448753Y-17156079D02*
X7458277Y-17137031D01*
X7458277Y-17137031D02*
X7467801Y-17127508D01*
X7467801Y-17127508D02*
X7486848Y-17117984D01*
X7734467Y-17117984D02*
X7639229Y-17117984D01*
X7639229Y-17117984D02*
X7629706Y-17213222D01*
X7629706Y-17213222D02*
X7639229Y-17203698D01*
X7639229Y-17203698D02*
X7658277Y-17194174D01*
X7658277Y-17194174D02*
X7705896Y-17194174D01*
X7705896Y-17194174D02*
X7724944Y-17203698D01*
X7724944Y-17203698D02*
X7734467Y-17213222D01*
X7734467Y-17213222D02*
X7743991Y-17232270D01*
X7743991Y-17232270D02*
X7743991Y-17279889D01*
X7743991Y-17279889D02*
X7734467Y-17298936D01*
X7734467Y-17298936D02*
X7724944Y-17308460D01*
X7724944Y-17308460D02*
X7705896Y-17317984D01*
X7705896Y-17317984D02*
X7658277Y-17317984D01*
X7658277Y-17317984D02*
X7639229Y-17308460D01*
X7639229Y-17308460D02*
X7629706Y-17298936D01*
X7934467Y-17317984D02*
X7820182Y-17317984D01*
X7877325Y-17317984D02*
X7877325Y-17117984D01*
X7877325Y-17117984D02*
X7858277Y-17146555D01*
X7858277Y-17146555D02*
X7839229Y-17165603D01*
X7839229Y-17165603D02*
X7820182Y-17175127D01*
X8010658Y-17137031D02*
X8020182Y-17127508D01*
X8020182Y-17127508D02*
X8039229Y-17117984D01*
X8039229Y-17117984D02*
X8086848Y-17117984D01*
X8086848Y-17117984D02*
X8105896Y-17127508D01*
X8105896Y-17127508D02*
X8115420Y-17137031D01*
X8115420Y-17137031D02*
X8124944Y-17156079D01*
X8124944Y-17156079D02*
X8124944Y-17175127D01*
X8124944Y-17175127D02*
X8115420Y-17203698D01*
X8115420Y-17203698D02*
X8001134Y-17317984D01*
X8001134Y-17317984D02*
X8124944Y-17317984D01*
X8201134Y-17117984D02*
X8201134Y-17156079D01*
X8277325Y-17117984D02*
X8277325Y-17156079D01*
X8572563Y-17394174D02*
X8563039Y-17384650D01*
X8563039Y-17384650D02*
X8543991Y-17356079D01*
X8543991Y-17356079D02*
X8534468Y-17337031D01*
X8534468Y-17337031D02*
X8524944Y-17308460D01*
X8524944Y-17308460D02*
X8515420Y-17260841D01*
X8515420Y-17260841D02*
X8515420Y-17222746D01*
X8515420Y-17222746D02*
X8524944Y-17175127D01*
X8524944Y-17175127D02*
X8534468Y-17146555D01*
X8534468Y-17146555D02*
X8543991Y-17127508D01*
X8543991Y-17127508D02*
X8563039Y-17098936D01*
X8563039Y-17098936D02*
X8572563Y-17089412D01*
X8677325Y-17203698D02*
X8658277Y-17194174D01*
X8658277Y-17194174D02*
X8648753Y-17184650D01*
X8648753Y-17184650D02*
X8639230Y-17165603D01*
X8639230Y-17165603D02*
X8639230Y-17156079D01*
X8639230Y-17156079D02*
X8648753Y-17137031D01*
X8648753Y-17137031D02*
X8658277Y-17127508D01*
X8658277Y-17127508D02*
X8677325Y-17117984D01*
X8677325Y-17117984D02*
X8715420Y-17117984D01*
X8715420Y-17117984D02*
X8734468Y-17127508D01*
X8734468Y-17127508D02*
X8743991Y-17137031D01*
X8743991Y-17137031D02*
X8753515Y-17156079D01*
X8753515Y-17156079D02*
X8753515Y-17165603D01*
X8753515Y-17165603D02*
X8743991Y-17184650D01*
X8743991Y-17184650D02*
X8734468Y-17194174D01*
X8734468Y-17194174D02*
X8715420Y-17203698D01*
X8715420Y-17203698D02*
X8677325Y-17203698D01*
X8677325Y-17203698D02*
X8658277Y-17213222D01*
X8658277Y-17213222D02*
X8648753Y-17222746D01*
X8648753Y-17222746D02*
X8639230Y-17241793D01*
X8639230Y-17241793D02*
X8639230Y-17279889D01*
X8639230Y-17279889D02*
X8648753Y-17298936D01*
X8648753Y-17298936D02*
X8658277Y-17308460D01*
X8658277Y-17308460D02*
X8677325Y-17317984D01*
X8677325Y-17317984D02*
X8715420Y-17317984D01*
X8715420Y-17317984D02*
X8734468Y-17308460D01*
X8734468Y-17308460D02*
X8743991Y-17298936D01*
X8743991Y-17298936D02*
X8753515Y-17279889D01*
X8753515Y-17279889D02*
X8753515Y-17241793D01*
X8753515Y-17241793D02*
X8743991Y-17222746D01*
X8743991Y-17222746D02*
X8734468Y-17213222D01*
X8734468Y-17213222D02*
X8715420Y-17203698D01*
X8991611Y-17317984D02*
X8991611Y-17117984D01*
X9077325Y-17317984D02*
X9077325Y-17213222D01*
X9077325Y-17213222D02*
X9067801Y-17194174D01*
X9067801Y-17194174D02*
X9048753Y-17184650D01*
X9048753Y-17184650D02*
X9020182Y-17184650D01*
X9020182Y-17184650D02*
X9001134Y-17194174D01*
X9001134Y-17194174D02*
X8991611Y-17203698D01*
X9201134Y-17317984D02*
X9182087Y-17308460D01*
X9182087Y-17308460D02*
X9172563Y-17298936D01*
X9172563Y-17298936D02*
X9163039Y-17279889D01*
X9163039Y-17279889D02*
X9163039Y-17222746D01*
X9163039Y-17222746D02*
X9172563Y-17203698D01*
X9172563Y-17203698D02*
X9182087Y-17194174D01*
X9182087Y-17194174D02*
X9201134Y-17184650D01*
X9201134Y-17184650D02*
X9229706Y-17184650D01*
X9229706Y-17184650D02*
X9248753Y-17194174D01*
X9248753Y-17194174D02*
X9258277Y-17203698D01*
X9258277Y-17203698D02*
X9267801Y-17222746D01*
X9267801Y-17222746D02*
X9267801Y-17279889D01*
X9267801Y-17279889D02*
X9258277Y-17298936D01*
X9258277Y-17298936D02*
X9248753Y-17308460D01*
X9248753Y-17308460D02*
X9229706Y-17317984D01*
X9229706Y-17317984D02*
X9201134Y-17317984D01*
X9382087Y-17317984D02*
X9363039Y-17308460D01*
X9363039Y-17308460D02*
X9353515Y-17289412D01*
X9353515Y-17289412D02*
X9353515Y-17117984D01*
X9534468Y-17308460D02*
X9515420Y-17317984D01*
X9515420Y-17317984D02*
X9477325Y-17317984D01*
X9477325Y-17317984D02*
X9458277Y-17308460D01*
X9458277Y-17308460D02*
X9448753Y-17289412D01*
X9448753Y-17289412D02*
X9448753Y-17213222D01*
X9448753Y-17213222D02*
X9458277Y-17194174D01*
X9458277Y-17194174D02*
X9477325Y-17184650D01*
X9477325Y-17184650D02*
X9515420Y-17184650D01*
X9515420Y-17184650D02*
X9534468Y-17194174D01*
X9534468Y-17194174D02*
X9543992Y-17213222D01*
X9543992Y-17213222D02*
X9543992Y-17232270D01*
X9543992Y-17232270D02*
X9448753Y-17251317D01*
X9620182Y-17308460D02*
X9639230Y-17317984D01*
X9639230Y-17317984D02*
X9677325Y-17317984D01*
X9677325Y-17317984D02*
X9696373Y-17308460D01*
X9696373Y-17308460D02*
X9705896Y-17289412D01*
X9705896Y-17289412D02*
X9705896Y-17279889D01*
X9705896Y-17279889D02*
X9696373Y-17260841D01*
X9696373Y-17260841D02*
X9677325Y-17251317D01*
X9677325Y-17251317D02*
X9648753Y-17251317D01*
X9648753Y-17251317D02*
X9629706Y-17241793D01*
X9629706Y-17241793D02*
X9620182Y-17222746D01*
X9620182Y-17222746D02*
X9620182Y-17213222D01*
X9620182Y-17213222D02*
X9629706Y-17194174D01*
X9629706Y-17194174D02*
X9648753Y-17184650D01*
X9648753Y-17184650D02*
X9677325Y-17184650D01*
X9677325Y-17184650D02*
X9696373Y-17194174D01*
X9772563Y-17394174D02*
X9782087Y-17384650D01*
X9782087Y-17384650D02*
X9801134Y-17356079D01*
X9801134Y-17356079D02*
X9810658Y-17337031D01*
X9810658Y-17337031D02*
X9820182Y-17308460D01*
X9820182Y-17308460D02*
X9829706Y-17260841D01*
X9829706Y-17260841D02*
X9829706Y-17222746D01*
X9829706Y-17222746D02*
X9820182Y-17175127D01*
X9820182Y-17175127D02*
X9810658Y-17146555D01*
X9810658Y-17146555D02*
X9801134Y-17127508D01*
X9801134Y-17127508D02*
X9782087Y-17098936D01*
X9782087Y-17098936D02*
X9772563Y-17089412D01*
D16*
X4819500Y-17401500D02*
X4997500Y-17579500D01*
X4997500Y-17401500D02*
X4819500Y-17579500D01*
X4971433Y-17553433D02*
X4971433Y-17427567D01*
X4845567Y-17427567D01*
X4845567Y-17553433D01*
X4971433Y-17553433D01*
D11*
X5363039Y-17581984D02*
X5248753Y-17581984D01*
X5305896Y-17581984D02*
X5305896Y-17381984D01*
X5305896Y-17381984D02*
X5286848Y-17410555D01*
X5286848Y-17410555D02*
X5267801Y-17429603D01*
X5267801Y-17429603D02*
X5248753Y-17439127D01*
X5448753Y-17562936D02*
X5458277Y-17572460D01*
X5458277Y-17572460D02*
X5448753Y-17581984D01*
X5448753Y-17581984D02*
X5439229Y-17572460D01*
X5439229Y-17572460D02*
X5448753Y-17562936D01*
X5448753Y-17562936D02*
X5448753Y-17581984D01*
X5524944Y-17381984D02*
X5658277Y-17381984D01*
X5658277Y-17381984D02*
X5572563Y-17581984D01*
X5763039Y-17467698D02*
X5743991Y-17458174D01*
X5743991Y-17458174D02*
X5734467Y-17448650D01*
X5734467Y-17448650D02*
X5724943Y-17429603D01*
X5724943Y-17429603D02*
X5724943Y-17420079D01*
X5724943Y-17420079D02*
X5734467Y-17401031D01*
X5734467Y-17401031D02*
X5743991Y-17391508D01*
X5743991Y-17391508D02*
X5763039Y-17381984D01*
X5763039Y-17381984D02*
X5801134Y-17381984D01*
X5801134Y-17381984D02*
X5820182Y-17391508D01*
X5820182Y-17391508D02*
X5829705Y-17401031D01*
X5829705Y-17401031D02*
X5839229Y-17420079D01*
X5839229Y-17420079D02*
X5839229Y-17429603D01*
X5839229Y-17429603D02*
X5829705Y-17448650D01*
X5829705Y-17448650D02*
X5820182Y-17458174D01*
X5820182Y-17458174D02*
X5801134Y-17467698D01*
X5801134Y-17467698D02*
X5763039Y-17467698D01*
X5763039Y-17467698D02*
X5743991Y-17477222D01*
X5743991Y-17477222D02*
X5734467Y-17486746D01*
X5734467Y-17486746D02*
X5724943Y-17505793D01*
X5724943Y-17505793D02*
X5724943Y-17543889D01*
X5724943Y-17543889D02*
X5734467Y-17562936D01*
X5734467Y-17562936D02*
X5743991Y-17572460D01*
X5743991Y-17572460D02*
X5763039Y-17581984D01*
X5763039Y-17581984D02*
X5801134Y-17581984D01*
X5801134Y-17581984D02*
X5820182Y-17572460D01*
X5820182Y-17572460D02*
X5829705Y-17562936D01*
X5829705Y-17562936D02*
X5839229Y-17543889D01*
X5839229Y-17543889D02*
X5839229Y-17505793D01*
X5839229Y-17505793D02*
X5829705Y-17486746D01*
X5829705Y-17486746D02*
X5820182Y-17477222D01*
X5820182Y-17477222D02*
X5801134Y-17467698D01*
X5963039Y-17381984D02*
X5982086Y-17381984D01*
X5982086Y-17381984D02*
X6001134Y-17391508D01*
X6001134Y-17391508D02*
X6010658Y-17401031D01*
X6010658Y-17401031D02*
X6020182Y-17420079D01*
X6020182Y-17420079D02*
X6029705Y-17458174D01*
X6029705Y-17458174D02*
X6029705Y-17505793D01*
X6029705Y-17505793D02*
X6020182Y-17543889D01*
X6020182Y-17543889D02*
X6010658Y-17562936D01*
X6010658Y-17562936D02*
X6001134Y-17572460D01*
X6001134Y-17572460D02*
X5982086Y-17581984D01*
X5982086Y-17581984D02*
X5963039Y-17581984D01*
X5963039Y-17581984D02*
X5943991Y-17572460D01*
X5943991Y-17572460D02*
X5934467Y-17562936D01*
X5934467Y-17562936D02*
X5924943Y-17543889D01*
X5924943Y-17543889D02*
X5915420Y-17505793D01*
X5915420Y-17505793D02*
X5915420Y-17458174D01*
X5915420Y-17458174D02*
X5924943Y-17420079D01*
X5924943Y-17420079D02*
X5934467Y-17401031D01*
X5934467Y-17401031D02*
X5943991Y-17391508D01*
X5943991Y-17391508D02*
X5963039Y-17381984D01*
X6115420Y-17581984D02*
X6115420Y-17448650D01*
X6115420Y-17467698D02*
X6124943Y-17458174D01*
X6124943Y-17458174D02*
X6143991Y-17448650D01*
X6143991Y-17448650D02*
X6172563Y-17448650D01*
X6172563Y-17448650D02*
X6191610Y-17458174D01*
X6191610Y-17458174D02*
X6201134Y-17477222D01*
X6201134Y-17477222D02*
X6201134Y-17581984D01*
X6201134Y-17477222D02*
X6210658Y-17458174D01*
X6210658Y-17458174D02*
X6229705Y-17448650D01*
X6229705Y-17448650D02*
X6258277Y-17448650D01*
X6258277Y-17448650D02*
X6277324Y-17458174D01*
X6277324Y-17458174D02*
X6286848Y-17477222D01*
X6286848Y-17477222D02*
X6286848Y-17581984D01*
X6382086Y-17581984D02*
X6382086Y-17448650D01*
X6382086Y-17467698D02*
X6391610Y-17458174D01*
X6391610Y-17458174D02*
X6410658Y-17448650D01*
X6410658Y-17448650D02*
X6439229Y-17448650D01*
X6439229Y-17448650D02*
X6458277Y-17458174D01*
X6458277Y-17458174D02*
X6467801Y-17477222D01*
X6467801Y-17477222D02*
X6467801Y-17581984D01*
X6467801Y-17477222D02*
X6477324Y-17458174D01*
X6477324Y-17458174D02*
X6496372Y-17448650D01*
X6496372Y-17448650D02*
X6524943Y-17448650D01*
X6524943Y-17448650D02*
X6543991Y-17458174D01*
X6543991Y-17458174D02*
X6553515Y-17477222D01*
X6553515Y-17477222D02*
X6553515Y-17581984D01*
X6943991Y-17372460D02*
X6772563Y-17629603D01*
X7201134Y-17381984D02*
X7220182Y-17381984D01*
X7220182Y-17381984D02*
X7239229Y-17391508D01*
X7239229Y-17391508D02*
X7248753Y-17401031D01*
X7248753Y-17401031D02*
X7258277Y-17420079D01*
X7258277Y-17420079D02*
X7267801Y-17458174D01*
X7267801Y-17458174D02*
X7267801Y-17505793D01*
X7267801Y-17505793D02*
X7258277Y-17543889D01*
X7258277Y-17543889D02*
X7248753Y-17562936D01*
X7248753Y-17562936D02*
X7239229Y-17572460D01*
X7239229Y-17572460D02*
X7220182Y-17581984D01*
X7220182Y-17581984D02*
X7201134Y-17581984D01*
X7201134Y-17581984D02*
X7182086Y-17572460D01*
X7182086Y-17572460D02*
X7172563Y-17562936D01*
X7172563Y-17562936D02*
X7163039Y-17543889D01*
X7163039Y-17543889D02*
X7153515Y-17505793D01*
X7153515Y-17505793D02*
X7153515Y-17458174D01*
X7153515Y-17458174D02*
X7163039Y-17420079D01*
X7163039Y-17420079D02*
X7172563Y-17401031D01*
X7172563Y-17401031D02*
X7182086Y-17391508D01*
X7182086Y-17391508D02*
X7201134Y-17381984D01*
X7353515Y-17562936D02*
X7363039Y-17572460D01*
X7363039Y-17572460D02*
X7353515Y-17581984D01*
X7353515Y-17581984D02*
X7343991Y-17572460D01*
X7343991Y-17572460D02*
X7353515Y-17562936D01*
X7353515Y-17562936D02*
X7353515Y-17581984D01*
X7486848Y-17381984D02*
X7505896Y-17381984D01*
X7505896Y-17381984D02*
X7524944Y-17391508D01*
X7524944Y-17391508D02*
X7534467Y-17401031D01*
X7534467Y-17401031D02*
X7543991Y-17420079D01*
X7543991Y-17420079D02*
X7553515Y-17458174D01*
X7553515Y-17458174D02*
X7553515Y-17505793D01*
X7553515Y-17505793D02*
X7543991Y-17543889D01*
X7543991Y-17543889D02*
X7534467Y-17562936D01*
X7534467Y-17562936D02*
X7524944Y-17572460D01*
X7524944Y-17572460D02*
X7505896Y-17581984D01*
X7505896Y-17581984D02*
X7486848Y-17581984D01*
X7486848Y-17581984D02*
X7467801Y-17572460D01*
X7467801Y-17572460D02*
X7458277Y-17562936D01*
X7458277Y-17562936D02*
X7448753Y-17543889D01*
X7448753Y-17543889D02*
X7439229Y-17505793D01*
X7439229Y-17505793D02*
X7439229Y-17458174D01*
X7439229Y-17458174D02*
X7448753Y-17420079D01*
X7448753Y-17420079D02*
X7458277Y-17401031D01*
X7458277Y-17401031D02*
X7467801Y-17391508D01*
X7467801Y-17391508D02*
X7486848Y-17381984D01*
X7620182Y-17381984D02*
X7753515Y-17381984D01*
X7753515Y-17381984D02*
X7667801Y-17581984D01*
X7867801Y-17381984D02*
X7886848Y-17381984D01*
X7886848Y-17381984D02*
X7905896Y-17391508D01*
X7905896Y-17391508D02*
X7915420Y-17401031D01*
X7915420Y-17401031D02*
X7924944Y-17420079D01*
X7924944Y-17420079D02*
X7934467Y-17458174D01*
X7934467Y-17458174D02*
X7934467Y-17505793D01*
X7934467Y-17505793D02*
X7924944Y-17543889D01*
X7924944Y-17543889D02*
X7915420Y-17562936D01*
X7915420Y-17562936D02*
X7905896Y-17572460D01*
X7905896Y-17572460D02*
X7886848Y-17581984D01*
X7886848Y-17581984D02*
X7867801Y-17581984D01*
X7867801Y-17581984D02*
X7848753Y-17572460D01*
X7848753Y-17572460D02*
X7839229Y-17562936D01*
X7839229Y-17562936D02*
X7829706Y-17543889D01*
X7829706Y-17543889D02*
X7820182Y-17505793D01*
X7820182Y-17505793D02*
X7820182Y-17458174D01*
X7820182Y-17458174D02*
X7829706Y-17420079D01*
X7829706Y-17420079D02*
X7839229Y-17401031D01*
X7839229Y-17401031D02*
X7848753Y-17391508D01*
X7848753Y-17391508D02*
X7867801Y-17381984D01*
X8124944Y-17581984D02*
X8010658Y-17581984D01*
X8067801Y-17581984D02*
X8067801Y-17381984D01*
X8067801Y-17381984D02*
X8048753Y-17410555D01*
X8048753Y-17410555D02*
X8029706Y-17429603D01*
X8029706Y-17429603D02*
X8010658Y-17439127D01*
X8201134Y-17381984D02*
X8201134Y-17420079D01*
X8277325Y-17381984D02*
X8277325Y-17420079D01*
X8572563Y-17658174D02*
X8563039Y-17648650D01*
X8563039Y-17648650D02*
X8543991Y-17620079D01*
X8543991Y-17620079D02*
X8534468Y-17601031D01*
X8534468Y-17601031D02*
X8524944Y-17572460D01*
X8524944Y-17572460D02*
X8515420Y-17524841D01*
X8515420Y-17524841D02*
X8515420Y-17486746D01*
X8515420Y-17486746D02*
X8524944Y-17439127D01*
X8524944Y-17439127D02*
X8534468Y-17410555D01*
X8534468Y-17410555D02*
X8543991Y-17391508D01*
X8543991Y-17391508D02*
X8563039Y-17362936D01*
X8563039Y-17362936D02*
X8572563Y-17353412D01*
X8753515Y-17581984D02*
X8639230Y-17581984D01*
X8696372Y-17581984D02*
X8696372Y-17381984D01*
X8696372Y-17381984D02*
X8677325Y-17410555D01*
X8677325Y-17410555D02*
X8658277Y-17429603D01*
X8658277Y-17429603D02*
X8639230Y-17439127D01*
X8829706Y-17401031D02*
X8839230Y-17391508D01*
X8839230Y-17391508D02*
X8858277Y-17381984D01*
X8858277Y-17381984D02*
X8905896Y-17381984D01*
X8905896Y-17381984D02*
X8924944Y-17391508D01*
X8924944Y-17391508D02*
X8934468Y-17401031D01*
X8934468Y-17401031D02*
X8943991Y-17420079D01*
X8943991Y-17420079D02*
X8943991Y-17439127D01*
X8943991Y-17439127D02*
X8934468Y-17467698D01*
X8934468Y-17467698D02*
X8820182Y-17581984D01*
X8820182Y-17581984D02*
X8943991Y-17581984D01*
X9182087Y-17581984D02*
X9182087Y-17381984D01*
X9267801Y-17581984D02*
X9267801Y-17477222D01*
X9267801Y-17477222D02*
X9258277Y-17458174D01*
X9258277Y-17458174D02*
X9239230Y-17448650D01*
X9239230Y-17448650D02*
X9210658Y-17448650D01*
X9210658Y-17448650D02*
X9191611Y-17458174D01*
X9191611Y-17458174D02*
X9182087Y-17467698D01*
X9391611Y-17581984D02*
X9372563Y-17572460D01*
X9372563Y-17572460D02*
X9363039Y-17562936D01*
X9363039Y-17562936D02*
X9353515Y-17543889D01*
X9353515Y-17543889D02*
X9353515Y-17486746D01*
X9353515Y-17486746D02*
X9363039Y-17467698D01*
X9363039Y-17467698D02*
X9372563Y-17458174D01*
X9372563Y-17458174D02*
X9391611Y-17448650D01*
X9391611Y-17448650D02*
X9420182Y-17448650D01*
X9420182Y-17448650D02*
X9439230Y-17458174D01*
X9439230Y-17458174D02*
X9448753Y-17467698D01*
X9448753Y-17467698D02*
X9458277Y-17486746D01*
X9458277Y-17486746D02*
X9458277Y-17543889D01*
X9458277Y-17543889D02*
X9448753Y-17562936D01*
X9448753Y-17562936D02*
X9439230Y-17572460D01*
X9439230Y-17572460D02*
X9420182Y-17581984D01*
X9420182Y-17581984D02*
X9391611Y-17581984D01*
X9572563Y-17581984D02*
X9553515Y-17572460D01*
X9553515Y-17572460D02*
X9543992Y-17553412D01*
X9543992Y-17553412D02*
X9543992Y-17381984D01*
X9724944Y-17572460D02*
X9705896Y-17581984D01*
X9705896Y-17581984D02*
X9667801Y-17581984D01*
X9667801Y-17581984D02*
X9648753Y-17572460D01*
X9648753Y-17572460D02*
X9639230Y-17553412D01*
X9639230Y-17553412D02*
X9639230Y-17477222D01*
X9639230Y-17477222D02*
X9648753Y-17458174D01*
X9648753Y-17458174D02*
X9667801Y-17448650D01*
X9667801Y-17448650D02*
X9705896Y-17448650D01*
X9705896Y-17448650D02*
X9724944Y-17458174D01*
X9724944Y-17458174D02*
X9734468Y-17477222D01*
X9734468Y-17477222D02*
X9734468Y-17496270D01*
X9734468Y-17496270D02*
X9639230Y-17515317D01*
X9810658Y-17572460D02*
X9829706Y-17581984D01*
X9829706Y-17581984D02*
X9867801Y-17581984D01*
X9867801Y-17581984D02*
X9886849Y-17572460D01*
X9886849Y-17572460D02*
X9896373Y-17553412D01*
X9896373Y-17553412D02*
X9896373Y-17543889D01*
X9896373Y-17543889D02*
X9886849Y-17524841D01*
X9886849Y-17524841D02*
X9867801Y-17515317D01*
X9867801Y-17515317D02*
X9839230Y-17515317D01*
X9839230Y-17515317D02*
X9820182Y-17505793D01*
X9820182Y-17505793D02*
X9810658Y-17486746D01*
X9810658Y-17486746D02*
X9810658Y-17477222D01*
X9810658Y-17477222D02*
X9820182Y-17458174D01*
X9820182Y-17458174D02*
X9839230Y-17448650D01*
X9839230Y-17448650D02*
X9867801Y-17448650D01*
X9867801Y-17448650D02*
X9886849Y-17458174D01*
X9963039Y-17658174D02*
X9972563Y-17648650D01*
X9972563Y-17648650D02*
X9991611Y-17620079D01*
X9991611Y-17620079D02*
X10001134Y-17601031D01*
X10001134Y-17601031D02*
X10010658Y-17572460D01*
X10010658Y-17572460D02*
X10020182Y-17524841D01*
X10020182Y-17524841D02*
X10020182Y-17486746D01*
X10020182Y-17486746D02*
X10010658Y-17439127D01*
X10010658Y-17439127D02*
X10001134Y-17410555D01*
X10001134Y-17410555D02*
X9991611Y-17391508D01*
X9991611Y-17391508D02*
X9972563Y-17362936D01*
X9972563Y-17362936D02*
X9963039Y-17353412D01*
M02*
