G04 #@! TF.GenerationSoftware,KiCad,Pcbnew,8.0.4*
G04 #@! TF.CreationDate,2024-11-23T11:06:33-08:00*
G04 #@! TF.ProjectId,rpi pico printer board,72706920-7069-4636-9f20-7072696e7465,rev?*
G04 #@! TF.SameCoordinates,Original*
G04 #@! TF.FileFunction,Copper,L4,Bot*
G04 #@! TF.FilePolarity,Positive*
%FSLAX46Y46*%
G04 Gerber Fmt 4.6, Leading zero omitted, Abs format (unit mm)*
G04 Created by KiCad (PCBNEW 8.0.4) date 2024-11-23 11:06:33*
%MOMM*%
%LPD*%
G01*
G04 APERTURE LIST*
G04 Aperture macros list*
%AMRoundRect*
0 Rectangle with rounded corners*
0 $1 Rounding radius*
0 $2 $3 $4 $5 $6 $7 $8 $9 X,Y pos of 4 corners*
0 Add a 4 corners polygon primitive as box body*
4,1,4,$2,$3,$4,$5,$6,$7,$8,$9,$2,$3,0*
0 Add four circle primitives for the rounded corners*
1,1,$1+$1,$2,$3*
1,1,$1+$1,$4,$5*
1,1,$1+$1,$6,$7*
1,1,$1+$1,$8,$9*
0 Add four rect primitives between the rounded corners*
20,1,$1+$1,$2,$3,$4,$5,0*
20,1,$1+$1,$4,$5,$6,$7,0*
20,1,$1+$1,$6,$7,$8,$9,0*
20,1,$1+$1,$8,$9,$2,$3,0*%
G04 Aperture macros list end*
G04 #@! TA.AperFunction,ComponentPad*
%ADD10R,1.600000X1.600000*%
G04 #@! TD*
G04 #@! TA.AperFunction,ComponentPad*
%ADD11C,1.600000*%
G04 #@! TD*
G04 #@! TA.AperFunction,ComponentPad*
%ADD12C,1.800000*%
G04 #@! TD*
G04 #@! TA.AperFunction,ComponentPad*
%ADD13C,1.700000*%
G04 #@! TD*
G04 #@! TA.AperFunction,ComponentPad*
%ADD14RoundRect,0.250000X0.620000X0.620000X-0.620000X0.620000X-0.620000X-0.620000X0.620000X-0.620000X0*%
G04 #@! TD*
G04 #@! TA.AperFunction,ComponentPad*
%ADD15C,1.740000*%
G04 #@! TD*
G04 #@! TA.AperFunction,ComponentPad*
%ADD16R,1.700000X1.700000*%
G04 #@! TD*
G04 #@! TA.AperFunction,ComponentPad*
%ADD17O,1.700000X1.700000*%
G04 #@! TD*
G04 #@! TA.AperFunction,ComponentPad*
%ADD18O,1.800000X1.800000*%
G04 #@! TD*
G04 #@! TA.AperFunction,ComponentPad*
%ADD19C,2.000000*%
G04 #@! TD*
G04 #@! TA.AperFunction,ComponentPad*
%ADD20C,2.780000*%
G04 #@! TD*
G04 #@! TA.AperFunction,ComponentPad*
%ADD21R,2.600000X2.600000*%
G04 #@! TD*
G04 #@! TA.AperFunction,ComponentPad*
%ADD22C,2.600000*%
G04 #@! TD*
G04 #@! TA.AperFunction,SMDPad,CuDef*
%ADD23R,0.862500X1.000000*%
G04 #@! TD*
G04 #@! TA.AperFunction,SMDPad,CuDef*
%ADD24R,1.000000X1.000000*%
G04 #@! TD*
G04 #@! TA.AperFunction,SMDPad,CuDef*
%ADD25R,0.900000X0.950000*%
G04 #@! TD*
G04 #@! TA.AperFunction,SMDPad,CuDef*
%ADD26R,1.700000X3.500000*%
G04 #@! TD*
G04 #@! TA.AperFunction,SMDPad,CuDef*
%ADD27R,3.500000X1.700000*%
G04 #@! TD*
G04 #@! TA.AperFunction,ViaPad*
%ADD28C,0.800000*%
G04 #@! TD*
G04 #@! TA.AperFunction,ViaPad*
%ADD29C,0.600000*%
G04 #@! TD*
G04 #@! TA.AperFunction,Conductor*
%ADD30C,0.200000*%
G04 #@! TD*
G04 #@! TA.AperFunction,Conductor*
%ADD31C,0.600000*%
G04 #@! TD*
G04 #@! TA.AperFunction,Conductor*
%ADD32C,0.400000*%
G04 #@! TD*
G04 #@! TA.AperFunction,Conductor*
%ADD33C,2.000000*%
G04 #@! TD*
G04 APERTURE END LIST*
D10*
X91900000Y-104152651D03*
D11*
X91900000Y-100652651D03*
D12*
X77380000Y-64300000D03*
X79900000Y-64300000D03*
X82420000Y-64300000D03*
X139780000Y-64200000D03*
X142300000Y-64200000D03*
X144820000Y-64200000D03*
D13*
X119975000Y-126669999D03*
X119975000Y-124129999D03*
X119975000Y-121589999D03*
X119975000Y-119049999D03*
X119975000Y-116509999D03*
X119975000Y-113969999D03*
X119975000Y-111429999D03*
X119975000Y-108889999D03*
X107275000Y-108889999D03*
X107275000Y-111429999D03*
X107275000Y-113969999D03*
X107275000Y-116509999D03*
X107275000Y-119049999D03*
X107275000Y-121589999D03*
X107275000Y-124129999D03*
X107275000Y-126669999D03*
X109815000Y-108889999D03*
X112355000Y-108889999D03*
X136075000Y-126669999D03*
X136075000Y-124129999D03*
X136075000Y-121589999D03*
X136075000Y-119049999D03*
X136075000Y-116509999D03*
X136075000Y-113969999D03*
X136075000Y-111429999D03*
X136075000Y-108889999D03*
X123375000Y-108889999D03*
X123375000Y-111429999D03*
X123375000Y-113969999D03*
X123375000Y-116509999D03*
X123375000Y-119049999D03*
X123375000Y-121589999D03*
X123375000Y-124129999D03*
X123375000Y-126669999D03*
X125915000Y-108889999D03*
X128455000Y-108889999D03*
D14*
X112150000Y-101300000D03*
D15*
X109610000Y-101300000D03*
X107070000Y-101300000D03*
X104530000Y-101300000D03*
X101990000Y-101300000D03*
X99450000Y-101300000D03*
D16*
X79300000Y-85175000D03*
D17*
X79300000Y-82635000D03*
X79300000Y-80095000D03*
D12*
X66380000Y-64300000D03*
X68900000Y-64300000D03*
X71420000Y-64300000D03*
X114290000Y-64200000D03*
X116810000Y-64200000D03*
X147020000Y-117425000D03*
X144500000Y-117425000D03*
X141980000Y-117425000D03*
D10*
X132747349Y-102500000D03*
D11*
X136247349Y-102500000D03*
D16*
X93350000Y-86700000D03*
D17*
X93350000Y-89240000D03*
X93350000Y-91780000D03*
D12*
X117255000Y-135775000D03*
X114735000Y-135775000D03*
D18*
X112215000Y-135775000D03*
X109695000Y-135775000D03*
D16*
X87600000Y-85160000D03*
D17*
X87600000Y-82620000D03*
X87600000Y-80080000D03*
D19*
X146500000Y-145900000D03*
X146500000Y-140400000D03*
X143000000Y-145900000D03*
X143000000Y-140400000D03*
X139500000Y-145900000D03*
X139500000Y-140400000D03*
X136000000Y-145900000D03*
X136000000Y-140400000D03*
X132500000Y-145900000D03*
X132500000Y-140400000D03*
X129000000Y-145900000D03*
X129000000Y-140400000D03*
X125500000Y-145900000D03*
X125500000Y-140400000D03*
X122000000Y-145900000D03*
X122000000Y-140400000D03*
X118500000Y-145900000D03*
X118500000Y-140400000D03*
X115000000Y-145900000D03*
X115000000Y-140400000D03*
X111500000Y-145900000D03*
X111500000Y-140400000D03*
X108000000Y-145900000D03*
X108000000Y-140400000D03*
X104500000Y-145900000D03*
X104500000Y-140400000D03*
X101000000Y-145900000D03*
X101000000Y-140400000D03*
X97500000Y-145900000D03*
X97500000Y-140400000D03*
X94000000Y-145900000D03*
X94000000Y-140400000D03*
X90500000Y-145900000D03*
X90500000Y-140400000D03*
X87000000Y-145900000D03*
X87000000Y-140400000D03*
X83500000Y-145900000D03*
X83500000Y-140400000D03*
X80000000Y-145900000D03*
X80000000Y-140400000D03*
X76500000Y-145900000D03*
X76500000Y-140400000D03*
X73000000Y-145900000D03*
X73000000Y-140400000D03*
X69500000Y-145900000D03*
X69500000Y-140400000D03*
X66000000Y-145900000D03*
X66000000Y-140400000D03*
X62500000Y-145900000D03*
X62500000Y-140400000D03*
D12*
X122790000Y-64200000D03*
X125310000Y-64200000D03*
X147020000Y-103600000D03*
X144500000Y-103600000D03*
X141980000Y-103600000D03*
D16*
X75200000Y-85175000D03*
D17*
X75200000Y-82635000D03*
X75200000Y-80095000D03*
D12*
X85005000Y-135775000D03*
X82485000Y-135775000D03*
D18*
X79965000Y-135775000D03*
X77445000Y-135775000D03*
D12*
X88380000Y-64300000D03*
X90900000Y-64300000D03*
X93420000Y-64300000D03*
X99380000Y-64300000D03*
X101900000Y-64300000D03*
X104420000Y-64300000D03*
D19*
X62500000Y-54100000D03*
X62500000Y-59600000D03*
X66000000Y-54100000D03*
X66000000Y-59600000D03*
X69500000Y-54100000D03*
X69500000Y-59600000D03*
X73000000Y-54100000D03*
X73000000Y-59600000D03*
X76500000Y-54100000D03*
X76500000Y-59600000D03*
X80000000Y-54100000D03*
X80000000Y-59600000D03*
X83500000Y-54100000D03*
X83500000Y-59600000D03*
X87000000Y-54100000D03*
X87000000Y-59600000D03*
X90500000Y-54100000D03*
X90500000Y-59600000D03*
X94000000Y-54100000D03*
X94000000Y-59600000D03*
X97500000Y-54100000D03*
X97500000Y-59600000D03*
X101000000Y-54100000D03*
X101000000Y-59600000D03*
X104500000Y-54100000D03*
X104500000Y-59600000D03*
X108000000Y-54100000D03*
X108000000Y-59600000D03*
X111500000Y-54100000D03*
X111500000Y-59600000D03*
X115000000Y-54100000D03*
X115000000Y-59600000D03*
X118500000Y-54100000D03*
X118500000Y-59600000D03*
X122000000Y-54100000D03*
X122000000Y-59600000D03*
X125500000Y-54100000D03*
X125500000Y-59600000D03*
X129000000Y-54100000D03*
X129000000Y-59600000D03*
X132500000Y-54100000D03*
X132500000Y-59600000D03*
X136000000Y-54100000D03*
X136000000Y-59600000D03*
X139500000Y-54100000D03*
X139500000Y-59600000D03*
X143000000Y-54100000D03*
X143000000Y-59600000D03*
X146500000Y-54100000D03*
X146500000Y-59600000D03*
D20*
X68400000Y-107370000D03*
X65000000Y-107370000D03*
X68400000Y-117290000D03*
X65000000Y-117290000D03*
D10*
X93300000Y-81900000D03*
D11*
X93300000Y-79400000D03*
D13*
X87750000Y-126654999D03*
X87750000Y-124114999D03*
X87750000Y-121574999D03*
X87750000Y-119034999D03*
X87750000Y-116494999D03*
X87750000Y-113954999D03*
X87750000Y-111414999D03*
X87750000Y-108874999D03*
X75050000Y-108874999D03*
X75050000Y-111414999D03*
X75050000Y-113954999D03*
X75050000Y-116494999D03*
X75050000Y-119034999D03*
X75050000Y-121574999D03*
X75050000Y-124114999D03*
X75050000Y-126654999D03*
X77590000Y-108874999D03*
X80130000Y-108874999D03*
D12*
X133330000Y-135775000D03*
X130810000Y-135775000D03*
D18*
X128290000Y-135775000D03*
X125770000Y-135775000D03*
D12*
X131290000Y-64200000D03*
X133810000Y-64200000D03*
D21*
X57095000Y-77000000D03*
D22*
X57095000Y-82000000D03*
D12*
X147020000Y-110500000D03*
X144500000Y-110500000D03*
X141980000Y-110500000D03*
X147020000Y-124325000D03*
X144500000Y-124325000D03*
X141980000Y-124325000D03*
D20*
X65000000Y-99330000D03*
X68400000Y-99330000D03*
X65000000Y-89410000D03*
X68400000Y-89410000D03*
D12*
X101080000Y-135775000D03*
X98560000Y-135775000D03*
D18*
X96040000Y-135775000D03*
X93520000Y-135775000D03*
D13*
X103875000Y-126669999D03*
X103875000Y-124129999D03*
X103875000Y-121589999D03*
X103875000Y-119049999D03*
X103875000Y-116509999D03*
X103875000Y-113969999D03*
X103875000Y-111429999D03*
X103875000Y-108889999D03*
X91175000Y-108889999D03*
X91175000Y-111429999D03*
X91175000Y-113969999D03*
X91175000Y-116509999D03*
X91175000Y-119049999D03*
X91175000Y-121589999D03*
X91175000Y-124129999D03*
X91175000Y-126669999D03*
X93715000Y-108889999D03*
X96255000Y-108889999D03*
D20*
X57000000Y-99330000D03*
X60400000Y-99330000D03*
X57000000Y-89410000D03*
X60400000Y-89410000D03*
D21*
X57100000Y-107000000D03*
D22*
X57100000Y-112000000D03*
X57100000Y-117000000D03*
X57100000Y-122000000D03*
X57100000Y-127000000D03*
X57100000Y-132000000D03*
D16*
X83400000Y-85175000D03*
D17*
X83400000Y-82635000D03*
X83400000Y-80095000D03*
D10*
X110000000Y-71900000D03*
D11*
X112500000Y-71900000D03*
D23*
X109943750Y-119410000D03*
D24*
X111075000Y-119410000D03*
D23*
X112206250Y-119410000D03*
X77718750Y-121935000D03*
D24*
X78850000Y-121935000D03*
D23*
X79981250Y-121935000D03*
X93843750Y-119410000D03*
D24*
X94975000Y-119410000D03*
D23*
X96106250Y-119410000D03*
X77718750Y-119395000D03*
D24*
X78850000Y-119395000D03*
D23*
X79981250Y-119395000D03*
D25*
X109962500Y-111750000D03*
X111062500Y-111750000D03*
D23*
X126043750Y-124490000D03*
D24*
X127175000Y-124490000D03*
D23*
X128306250Y-124490000D03*
X126043750Y-114330000D03*
D24*
X127175000Y-114330000D03*
D23*
X128306250Y-114330000D03*
X126043750Y-121950000D03*
D24*
X127175000Y-121950000D03*
D23*
X128306250Y-121950000D03*
X126043750Y-119410000D03*
D24*
X127175000Y-119410000D03*
D23*
X128306250Y-119410000D03*
D25*
X77737500Y-111735000D03*
X78837500Y-111735000D03*
D23*
X109943750Y-124490000D03*
D24*
X111075000Y-124490000D03*
D23*
X112206250Y-124490000D03*
D26*
X148000000Y-97800000D03*
X145460000Y-97800000D03*
X142920000Y-97800000D03*
X140380000Y-97800000D03*
X137840000Y-97800000D03*
X135300000Y-97800000D03*
X132760000Y-97800000D03*
X130220000Y-97800000D03*
X127680000Y-97800000D03*
X125140000Y-97800000D03*
X122600000Y-97800000D03*
X120060000Y-97800000D03*
X117520000Y-97800000D03*
X114980000Y-97800000D03*
X112440000Y-97800000D03*
X109900000Y-97800000D03*
X107360000Y-97800000D03*
X104820000Y-97800000D03*
X102280000Y-97800000D03*
X99740000Y-97800000D03*
X99740000Y-78220000D03*
X102280000Y-78220000D03*
X104820000Y-78220000D03*
X107360000Y-78220000D03*
X109900000Y-78220000D03*
X112440000Y-78220000D03*
X114980000Y-78220000D03*
X117520000Y-78220000D03*
X120060000Y-78220000D03*
X122600000Y-78220000D03*
X125140000Y-78220000D03*
X127680000Y-78220000D03*
X130220000Y-78220000D03*
X132760000Y-78220000D03*
X135300000Y-78220000D03*
X137840000Y-78220000D03*
X140380000Y-78220000D03*
X142920000Y-78220000D03*
X145460000Y-78220000D03*
X148000000Y-78220000D03*
D27*
X99070000Y-90550000D03*
X99070000Y-88010000D03*
X99070000Y-85470000D03*
D25*
X126062500Y-111750000D03*
X127162500Y-111750000D03*
D23*
X77718750Y-116855000D03*
D24*
X78850000Y-116855000D03*
D23*
X79981250Y-116855000D03*
X77718750Y-114315000D03*
D24*
X78850000Y-114315000D03*
D23*
X79981250Y-114315000D03*
X109943750Y-114330000D03*
D24*
X111075000Y-114330000D03*
D23*
X112206250Y-114330000D03*
X109943750Y-116870000D03*
D24*
X111075000Y-116870000D03*
D23*
X112206250Y-116870000D03*
X126043750Y-116870000D03*
D24*
X127175000Y-116870000D03*
D23*
X128306250Y-116870000D03*
X93843750Y-121950000D03*
D24*
X94975000Y-121950000D03*
D23*
X96106250Y-121950000D03*
X93843750Y-116870000D03*
D24*
X94975000Y-116870000D03*
D23*
X96106250Y-116870000D03*
D25*
X93862500Y-111750000D03*
X94962500Y-111750000D03*
D23*
X109943750Y-121950000D03*
D24*
X111075000Y-121950000D03*
D23*
X112206250Y-121950000D03*
X77718750Y-124475000D03*
D24*
X78850000Y-124475000D03*
D23*
X79981250Y-124475000D03*
X93843750Y-114330000D03*
D24*
X94975000Y-114330000D03*
D23*
X96106250Y-114330000D03*
X93843750Y-124490000D03*
D24*
X94975000Y-124490000D03*
D23*
X96106250Y-124490000D03*
D28*
X61500000Y-128500000D03*
D29*
X77500000Y-97600000D03*
X86850001Y-100400000D03*
X108925000Y-114289999D03*
X125700000Y-92200000D03*
X105650000Y-81700000D03*
X104000000Y-129300000D03*
X99100000Y-110600000D03*
X125100000Y-124500000D03*
D28*
X60000000Y-131500000D03*
D29*
X130600000Y-93700000D03*
X83775000Y-129485000D03*
X113700000Y-88600000D03*
X66800000Y-77200000D03*
X98000000Y-74200000D03*
X125025000Y-116870000D03*
X106700000Y-129300000D03*
X131300000Y-110600000D03*
X83975000Y-110585000D03*
X122800000Y-129300000D03*
X92900000Y-124500000D03*
X116200000Y-110600000D03*
X58500000Y-65400000D03*
X63400000Y-78100000D03*
X121700000Y-88600000D03*
X92400000Y-68400000D03*
X120100000Y-129300000D03*
X119700001Y-88600000D03*
X65900000Y-75300000D03*
D28*
X63000000Y-128500000D03*
D29*
X126900000Y-129500000D03*
X132300000Y-110600000D03*
X76775000Y-124485000D03*
X133000000Y-70600000D03*
X132500000Y-91000000D03*
X94700000Y-129500000D03*
X76000000Y-75300000D03*
X92825000Y-116870000D03*
X125700000Y-95500000D03*
X142920000Y-75720000D03*
X126700000Y-95500000D03*
X109400000Y-91700000D03*
D28*
X61500000Y-133000000D03*
D29*
X99900000Y-129500000D03*
X57700000Y-67900000D03*
X125025000Y-114289999D03*
X108925000Y-116870000D03*
X99800000Y-75300000D03*
X102000000Y-85450000D03*
X70400000Y-68400000D03*
X82850000Y-100400000D03*
X103400000Y-68400000D03*
X104820000Y-95400000D03*
X57700000Y-66900000D03*
X66800000Y-79000000D03*
X127249999Y-100100000D03*
X56900000Y-65400000D03*
D28*
X64500000Y-128500000D03*
X60000000Y-128500000D03*
D29*
X55125000Y-65050000D03*
X132100000Y-129500000D03*
X80850000Y-100400000D03*
X98900000Y-75300000D03*
X78850000Y-101200000D03*
X100100000Y-110600000D03*
X89700000Y-75300000D03*
X115700000Y-88600000D03*
D28*
X63000000Y-131500000D03*
D29*
X93600000Y-95000000D03*
X84850000Y-100400000D03*
X138300000Y-81775000D03*
X56900000Y-66400000D03*
X139500000Y-91000000D03*
D28*
X63000000Y-134500000D03*
D29*
X78575000Y-129485000D03*
X130200000Y-80500000D03*
X66800000Y-78100000D03*
X93600000Y-97000001D03*
X87900000Y-75300000D03*
X66800000Y-75300000D03*
X127700000Y-95500000D03*
X116000000Y-129500000D03*
X100700000Y-75300000D03*
X76900000Y-75300000D03*
X76725000Y-116855000D03*
D28*
X61500000Y-130000000D03*
D29*
X139400000Y-70600000D03*
X75800000Y-93600000D03*
X65000000Y-75300000D03*
X100200000Y-93700000D03*
X77800000Y-75300000D03*
X123700001Y-88600000D03*
X78700000Y-75300000D03*
X109000000Y-124500000D03*
X142920000Y-94900000D03*
X110800000Y-129500000D03*
X65000000Y-74200000D03*
X76725000Y-114289999D03*
X63400000Y-79000000D03*
X136000000Y-91000000D03*
X92825000Y-114330000D03*
X77500000Y-98600000D03*
X126550000Y-70650000D03*
D28*
X60000000Y-134500000D03*
X61500000Y-127000000D03*
D29*
X87875000Y-129285000D03*
X129000000Y-95500000D03*
X117520000Y-75720000D03*
X78850000Y-100100000D03*
X67700000Y-75300000D03*
X136200000Y-129300000D03*
D28*
X53750000Y-127000000D03*
D29*
X81400000Y-68400000D03*
D28*
X53750000Y-130000000D03*
D29*
X63400000Y-79900000D03*
X88800000Y-75300000D03*
X74475000Y-129285000D03*
X130600000Y-94500000D03*
D28*
X64500000Y-130000000D03*
D29*
X115200000Y-110600000D03*
X57700000Y-65900000D03*
X125700000Y-88600000D03*
X87000000Y-75300000D03*
X82975000Y-110585000D03*
X76000000Y-74200000D03*
X90600000Y-129300000D03*
X98000000Y-75300000D03*
X56900000Y-67400000D03*
X117700000Y-88600000D03*
D28*
X53750000Y-133000000D03*
D29*
X63400000Y-77200000D03*
X129000000Y-91000000D03*
X87000000Y-74200000D03*
X131300000Y-107600000D03*
X132300000Y-105600000D03*
X132300000Y-106600000D03*
X84000000Y-103600000D03*
X101100000Y-107600000D03*
X131300000Y-104600000D03*
X132300000Y-107600000D03*
X83000000Y-103600000D03*
X83000000Y-105600000D03*
X84000000Y-105600000D03*
X115200000Y-107600000D03*
X124700000Y-106600000D03*
X83000000Y-107600000D03*
X133300000Y-107600000D03*
X131300000Y-106600000D03*
X116200000Y-107600000D03*
X84000000Y-106600000D03*
X122100000Y-106600000D03*
X122100000Y-107600000D03*
X122100000Y-104600000D03*
X131300000Y-105600000D03*
X84000000Y-104600000D03*
X124700000Y-107600000D03*
X100100000Y-107600000D03*
X83000000Y-106600000D03*
X84000000Y-107600000D03*
X83000000Y-104600000D03*
X124700000Y-105600000D03*
X124700000Y-104600000D03*
X117200000Y-107600000D03*
X99100000Y-107600000D03*
X122100000Y-105600000D03*
X127050000Y-86050000D03*
X109325000Y-125525000D03*
X104300000Y-93800000D03*
X127050000Y-84400000D03*
X137850000Y-75700000D03*
X77125000Y-125525000D03*
X93225000Y-125525000D03*
X125425000Y-125525000D03*
X134700000Y-74300000D03*
X135250000Y-80450000D03*
X121825000Y-74275000D03*
X128275000Y-74275000D03*
X124950000Y-75700000D03*
X127700000Y-75700000D03*
X126424996Y-102750000D03*
X97036735Y-84207978D03*
X133750000Y-82800000D03*
X123725000Y-94850000D03*
X132800000Y-75700000D03*
X75950000Y-91285000D03*
X83500000Y-96150000D03*
X97050000Y-81900000D03*
D28*
X65999999Y-114000000D03*
X53750000Y-115500000D03*
X69000000Y-114000000D03*
X67500000Y-115500000D03*
X63000000Y-114000000D03*
X60000000Y-117000000D03*
X63000000Y-117000000D03*
X61500000Y-115500000D03*
X53750000Y-118500000D03*
X64500000Y-115500000D03*
X66750000Y-118500000D03*
X61500000Y-118500000D03*
X67500000Y-128500000D03*
X53750000Y-121000000D03*
X60000000Y-122500000D03*
X67500000Y-124000000D03*
X67500000Y-121000000D03*
X63000000Y-124000000D03*
X72000000Y-130000000D03*
X70500000Y-122500000D03*
X69000000Y-122500000D03*
X61500000Y-124000000D03*
X69000000Y-125500000D03*
X63000000Y-125500000D03*
X69000000Y-128500000D03*
X70500000Y-128500000D03*
X63000000Y-122500000D03*
X53750000Y-124000000D03*
X67500000Y-130000000D03*
X64500000Y-122500000D03*
X64500000Y-121000000D03*
X69000000Y-130000000D03*
X67500000Y-122500000D03*
X69000000Y-124000000D03*
X69000000Y-127000000D03*
X67500000Y-127000000D03*
X67500000Y-125500000D03*
X61500000Y-121000000D03*
X70500000Y-125500000D03*
X72000000Y-127000000D03*
X66000000Y-122500000D03*
D29*
X70400000Y-132000000D03*
X103675000Y-92975000D03*
X59950000Y-64950000D03*
X104975000Y-92975000D03*
X142875000Y-80575000D03*
X104975000Y-84775000D03*
X102400000Y-90050000D03*
X135350000Y-88750000D03*
X138850000Y-88750000D03*
X142350000Y-88750000D03*
X131850000Y-85250000D03*
X111525000Y-118089999D03*
X127625000Y-118089999D03*
X95425000Y-118089999D03*
X79325000Y-118089999D03*
X120675000Y-87325000D03*
X95425000Y-123189999D03*
X79325000Y-123189999D03*
X122625000Y-86725000D03*
X111525000Y-123189999D03*
X127625000Y-123189999D03*
X122600000Y-80500000D03*
X107525000Y-88800000D03*
X105625000Y-90200000D03*
X104325000Y-90200000D03*
X106925000Y-90200000D03*
X108725000Y-87500000D03*
X108125000Y-88150000D03*
X108975000Y-119389999D03*
X108975000Y-121989999D03*
X92875000Y-119389999D03*
X92875000Y-121989999D03*
X76750000Y-119374999D03*
X76750000Y-121974999D03*
X125075000Y-119389999D03*
X125075000Y-121989999D03*
D30*
X127175000Y-121189999D02*
X126775000Y-120789999D01*
X125115000Y-120789999D02*
X123375000Y-119049999D01*
X126775000Y-120789999D02*
X125115000Y-120789999D01*
X127175000Y-121950000D02*
X127175000Y-121189999D01*
X109010000Y-124490000D02*
X109000000Y-124500000D01*
D31*
X117520000Y-96900000D02*
X117700000Y-96720000D01*
D30*
X108925000Y-114289999D02*
X108965001Y-114330000D01*
X108965001Y-114330000D02*
X109943750Y-114330000D01*
D31*
X104820000Y-95400000D02*
X104820000Y-96900000D01*
D30*
X76725000Y-116855000D02*
X77718750Y-116855000D01*
X76725000Y-114289999D02*
X76750001Y-114315000D01*
X125025000Y-116870000D02*
X126043750Y-116870000D01*
X92825000Y-116870000D02*
X93843750Y-116870000D01*
X92910000Y-124490000D02*
X92900000Y-124500000D01*
X92825000Y-114330000D02*
X93843750Y-114330000D01*
X93843750Y-124490000D02*
X92910000Y-124490000D01*
X126043750Y-124490000D02*
X125110000Y-124490000D01*
X108925000Y-116870000D02*
X109943750Y-116870000D01*
X125110000Y-124490000D02*
X125100000Y-124500000D01*
D31*
X130220000Y-94880000D02*
X130600000Y-94500000D01*
X117700000Y-96720000D02*
X117700000Y-88600000D01*
D30*
X76750001Y-114315000D02*
X77718750Y-114315000D01*
D31*
X104820000Y-80870000D02*
X104820000Y-79120000D01*
X117520000Y-75720000D02*
X117520000Y-79120000D01*
X142920000Y-94900000D02*
X142920000Y-96900000D01*
X105650000Y-81700000D02*
X104820000Y-80870000D01*
D30*
X125025000Y-114289999D02*
X125065001Y-114330000D01*
D31*
X142920000Y-75720000D02*
X142920000Y-79120000D01*
D30*
X77718750Y-124475000D02*
X76785000Y-124475000D01*
X125065001Y-114330000D02*
X126043750Y-114330000D01*
X76785000Y-124475000D02*
X76775000Y-124485000D01*
X109943750Y-124490000D02*
X109010000Y-124490000D01*
D31*
X130220000Y-96900000D02*
X130220000Y-94880000D01*
D30*
X123375000Y-124323529D02*
X125321470Y-126269999D01*
X130225000Y-107855685D02*
X125140000Y-102770685D01*
X130225000Y-124734314D02*
X130225000Y-107855685D01*
X125140000Y-102770685D02*
X125140000Y-96900000D01*
X128689315Y-126269999D02*
X130225000Y-124734314D01*
X123375000Y-124129999D02*
X123375000Y-124323529D01*
X125321470Y-126269999D02*
X128689315Y-126269999D01*
X126674999Y-123289999D02*
X127175000Y-123790000D01*
X127175000Y-123790000D02*
X127175000Y-124490000D01*
X125075000Y-123289999D02*
X126674999Y-123289999D01*
X123375000Y-121589999D02*
X125075000Y-123289999D01*
X123375000Y-108889999D02*
X123900000Y-108364999D01*
X132750000Y-93050000D02*
X132750000Y-96890000D01*
X126400000Y-93350000D02*
X126400000Y-86700000D01*
X132750000Y-96890000D02*
X132760000Y-96900000D01*
X127050000Y-86050000D02*
X127650000Y-86050000D01*
X123900000Y-108364999D02*
X123900000Y-95850000D01*
X126400000Y-86700000D02*
X127050000Y-86050000D01*
X128250000Y-88550000D02*
X132750000Y-93050000D01*
X127650000Y-86050000D02*
X128250000Y-86650000D01*
X128250000Y-86650000D02*
X128250000Y-88550000D01*
X123900000Y-95850000D02*
X126400000Y-93350000D01*
X125055000Y-118189999D02*
X126675000Y-118189999D01*
X123375000Y-116509999D02*
X125055000Y-118189999D01*
X127175000Y-118689999D02*
X127175000Y-119410000D01*
X126675000Y-118189999D02*
X127175000Y-118689999D01*
X123375000Y-113969999D02*
X125095000Y-115689999D01*
X126694999Y-115689999D02*
X127175000Y-116170000D01*
X127175000Y-116170000D02*
X127175000Y-116870000D01*
X125095000Y-115689999D02*
X126694999Y-115689999D01*
X112200000Y-119410000D02*
X112200000Y-121950000D01*
D31*
X136015000Y-124189999D02*
X136075000Y-124129999D01*
D30*
X128300000Y-121950000D02*
X128300000Y-124490000D01*
X77125000Y-125525000D02*
X79631250Y-125525000D01*
X128306250Y-125190000D02*
X128306250Y-124490000D01*
X112206250Y-125190000D02*
X112206250Y-124490000D01*
X112200000Y-116870000D02*
X112200000Y-119410000D01*
X112200000Y-114330000D02*
X112200000Y-116870000D01*
X96100000Y-119410000D02*
X96100000Y-121950000D01*
X127971250Y-125525000D02*
X128306250Y-125190000D01*
X128300000Y-119410000D02*
X128300000Y-121950000D01*
X112200000Y-121950000D02*
X112200000Y-124490000D01*
X79981250Y-125175000D02*
X79981250Y-124475000D01*
X96106250Y-125190000D02*
X96106250Y-124490000D01*
X109325000Y-125525000D02*
X111871250Y-125525000D01*
X96100000Y-121950000D02*
X96100000Y-124490000D01*
X93225000Y-125525000D02*
X95771250Y-125525000D01*
X79631250Y-125525000D02*
X79981250Y-125175000D01*
X96100000Y-114330000D02*
X96100000Y-116870000D01*
X79975000Y-114315000D02*
X79975000Y-124475000D01*
X96100000Y-116870000D02*
X96100000Y-119410000D01*
D31*
X137850000Y-75700000D02*
X137840000Y-75710000D01*
D30*
X95771250Y-125525000D02*
X96106250Y-125190000D01*
X111871250Y-125525000D02*
X112206250Y-125190000D01*
X125425000Y-125525000D02*
X127971250Y-125525000D01*
D31*
X137840000Y-75710000D02*
X137840000Y-79120000D01*
D30*
X128300000Y-116870000D02*
X128300000Y-119410000D01*
X128300000Y-114330000D02*
X128300000Y-116870000D01*
X126775000Y-113189999D02*
X127175000Y-113589999D01*
X127175000Y-113589999D02*
X127175000Y-114330000D01*
X125135000Y-113189999D02*
X126775000Y-113189999D01*
X123375000Y-111429999D02*
X125135000Y-113189999D01*
X127680000Y-96900000D02*
X127950000Y-97170000D01*
X128855001Y-126669999D02*
X123375000Y-126669999D01*
X127950000Y-105014999D02*
X130625000Y-107689999D01*
X127950000Y-97170000D02*
X127950000Y-105014999D01*
X130625000Y-124900000D02*
X128855001Y-126669999D01*
X130625000Y-107689999D02*
X130625000Y-124900000D01*
X109226471Y-126275000D02*
X107275000Y-124323529D01*
X112440000Y-96900000D02*
X112440000Y-98740000D01*
X107275000Y-124323529D02*
X107275000Y-124129999D01*
X112440000Y-98740000D02*
X114025000Y-100325000D01*
X114025000Y-100325000D02*
X114025000Y-124909314D01*
X114025000Y-124909314D02*
X112659314Y-126275000D01*
X112659314Y-126275000D02*
X109226471Y-126275000D01*
X111075000Y-121189999D02*
X110675000Y-120789999D01*
X110675000Y-120789999D02*
X109015000Y-120789999D01*
X111075000Y-121950000D02*
X111075000Y-121189999D01*
X109015000Y-120789999D02*
X107275000Y-119049999D01*
X107280001Y-126675000D02*
X107275000Y-126669999D01*
X114980000Y-98705000D02*
X114425000Y-99260000D01*
X114425000Y-125075000D02*
X112825000Y-126675000D01*
X112825000Y-126675000D02*
X107280001Y-126675000D01*
X114980000Y-96900000D02*
X114980000Y-98705000D01*
X114425000Y-99260000D02*
X114425000Y-125075000D01*
X107275000Y-116509999D02*
X108955000Y-118189999D01*
X110575000Y-118189999D02*
X111075000Y-118689999D01*
X108955000Y-118189999D02*
X110575000Y-118189999D01*
X111075000Y-118689999D02*
X111075000Y-119410000D01*
X110594999Y-115689999D02*
X111075000Y-116170000D01*
X111075000Y-116170000D02*
X111075000Y-116870000D01*
X107275000Y-113969999D02*
X108995000Y-115689999D01*
X108995000Y-115689999D02*
X110594999Y-115689999D01*
X111075000Y-113589999D02*
X111075000Y-114330000D01*
X110675000Y-113189999D02*
X111075000Y-113589999D01*
X109035000Y-113189999D02*
X110675000Y-113189999D01*
X107275000Y-111429999D02*
X109035000Y-113189999D01*
X107275000Y-121589999D02*
X108975000Y-123289999D01*
X108975000Y-123289999D02*
X110574999Y-123289999D01*
X110574999Y-123289999D02*
X111075000Y-123790000D01*
X111075000Y-123790000D02*
X111075000Y-124490000D01*
X94975000Y-113589999D02*
X94975000Y-114330000D01*
X94575000Y-113189999D02*
X94975000Y-113589999D01*
X92935000Y-113189999D02*
X94575000Y-113189999D01*
X91175000Y-111429999D02*
X92935000Y-113189999D01*
X94975000Y-116170000D02*
X94975000Y-116870000D01*
X91175000Y-113969999D02*
X92895000Y-115689999D01*
X92895000Y-115689999D02*
X94494999Y-115689999D01*
X94494999Y-115689999D02*
X94975000Y-116170000D01*
X91175000Y-116509999D02*
X92855000Y-118189999D01*
X92855000Y-118189999D02*
X94475000Y-118189999D01*
X94475000Y-118189999D02*
X94975000Y-118689999D01*
X94975000Y-118689999D02*
X94975000Y-119410000D01*
X110875000Y-99575000D02*
X109900000Y-98600000D01*
X91175000Y-126669999D02*
X96680001Y-126669999D01*
X109900000Y-98600000D02*
X109900000Y-96900000D01*
X110875000Y-101930000D02*
X110875000Y-99575000D01*
X110155000Y-102650000D02*
X110875000Y-101930000D01*
X108265686Y-102650000D02*
X110155000Y-102650000D01*
X101725000Y-109190686D02*
X108265686Y-102650000D01*
X96680001Y-126669999D02*
X101725000Y-121625000D01*
X101725000Y-121625000D02*
X101725000Y-109190686D01*
X92875000Y-123289999D02*
X94474999Y-123289999D01*
X91175000Y-121589999D02*
X92875000Y-123289999D01*
X94474999Y-123289999D02*
X94975000Y-123790000D01*
X94975000Y-123790000D02*
X94975000Y-124490000D01*
X94575000Y-120789999D02*
X92915000Y-120789999D01*
X94975000Y-121189999D02*
X94575000Y-120789999D01*
X92915000Y-120789999D02*
X91175000Y-119049999D01*
X94975000Y-121950000D02*
X94975000Y-121189999D01*
X93119999Y-126269999D02*
X96514315Y-126269999D01*
X91175000Y-124325000D02*
X93119999Y-126269999D01*
X91175000Y-124129999D02*
X91175000Y-124325000D01*
X96514315Y-126269999D02*
X101325000Y-121459314D01*
X108350000Y-102000000D02*
X108350000Y-99650000D01*
X101325000Y-109025000D02*
X108350000Y-102000000D01*
X108350000Y-99650000D02*
X107360000Y-98660000D01*
X101325000Y-121459314D02*
X101325000Y-109025000D01*
X107360000Y-98660000D02*
X107360000Y-96900000D01*
X78450000Y-120774999D02*
X76790000Y-120774999D01*
X78850000Y-121935000D02*
X78850000Y-121174999D01*
X78850000Y-121174999D02*
X78450000Y-120774999D01*
X76790000Y-120774999D02*
X75050000Y-119034999D01*
X87159314Y-105689999D02*
X96360001Y-105689999D01*
X98280000Y-100170000D02*
X99740000Y-98710000D01*
X84925000Y-121775000D02*
X84925000Y-107924313D01*
X99740000Y-98710000D02*
X99740000Y-96900000D01*
X80450000Y-126250000D02*
X84925000Y-121775000D01*
X75050000Y-124114999D02*
X75050000Y-124298529D01*
X84925000Y-107924313D02*
X87159314Y-105689999D01*
X96360001Y-105689999D02*
X98280000Y-103770000D01*
X98280000Y-103770000D02*
X98280000Y-100170000D01*
X75050000Y-124298529D02*
X77001471Y-126250000D01*
X77001471Y-126250000D02*
X80450000Y-126250000D01*
X96525687Y-106089999D02*
X100700000Y-101915686D01*
X87325000Y-106089999D02*
X96525687Y-106089999D01*
X100700000Y-100275000D02*
X102280000Y-98695000D01*
X100700000Y-101915686D02*
X100700000Y-100275000D01*
X102280000Y-98695000D02*
X102280000Y-96900000D01*
X75050000Y-126654999D02*
X80610687Y-126654999D01*
X85325000Y-108089999D02*
X87325000Y-106089999D01*
X85325000Y-121940686D02*
X85325000Y-108089999D01*
X80610687Y-126654999D02*
X85325000Y-121940686D01*
X78450000Y-113174999D02*
X78850000Y-113574999D01*
X78850000Y-113574999D02*
X78850000Y-114315000D01*
X75050000Y-111414999D02*
X76810000Y-113174999D01*
X76810000Y-113174999D02*
X78450000Y-113174999D01*
X78369999Y-115674999D02*
X78850000Y-116155000D01*
X75050000Y-113954999D02*
X76770000Y-115674999D01*
X76770000Y-115674999D02*
X78369999Y-115674999D01*
X78850000Y-116155000D02*
X78850000Y-116855000D01*
X78349999Y-123274999D02*
X78850000Y-123775000D01*
X75050000Y-121574999D02*
X76750000Y-123274999D01*
X76750000Y-123274999D02*
X78349999Y-123274999D01*
X78850000Y-123775000D02*
X78850000Y-124475000D01*
X78850000Y-118674999D02*
X78850000Y-119395000D01*
X76730000Y-118174999D02*
X78350000Y-118174999D01*
X78350000Y-118174999D02*
X78850000Y-118674999D01*
X75050000Y-116494999D02*
X76730000Y-118174999D01*
D32*
X135300000Y-79120000D02*
X135300000Y-74900000D01*
X135300000Y-74900000D02*
X134700000Y-74300000D01*
X128275000Y-74275000D02*
X134675000Y-74275000D01*
X135250000Y-79170000D02*
X135300000Y-79120000D01*
X134675000Y-74275000D02*
X134700000Y-74300000D01*
X135250000Y-80450000D02*
X135250000Y-79170000D01*
X121825000Y-74275000D02*
X128275000Y-74275000D01*
D30*
X124950000Y-78930000D02*
X125140000Y-79120000D01*
X124950000Y-75700000D02*
X124950000Y-78930000D01*
X127680000Y-79120000D02*
X127680000Y-75720000D01*
X127680000Y-75720000D02*
X127700000Y-75700000D01*
X132800000Y-75700000D02*
X132760000Y-75740000D01*
X132760000Y-75740000D02*
X132760000Y-79120000D01*
X80850000Y-96150000D02*
X75985000Y-91285000D01*
X75985000Y-91285000D02*
X75950000Y-91285000D01*
X83500000Y-96150000D02*
X80850000Y-96150000D01*
D33*
X69500000Y-59600000D02*
X69500000Y-54100000D01*
X75200000Y-82635000D02*
X73997919Y-82635000D01*
X66380000Y-67680000D02*
X66380000Y-64300000D01*
X73997919Y-82635000D02*
X69400000Y-78037081D01*
X66380000Y-64300000D02*
X66380000Y-62720000D01*
X69400000Y-78037081D02*
X69400000Y-70700000D01*
X69400000Y-70700000D02*
X66380000Y-67680000D01*
X66380000Y-62720000D02*
X69500000Y-59600000D01*
X74450000Y-75942032D02*
X74450000Y-70650000D01*
X78635000Y-82635000D02*
X77250000Y-81250000D01*
X77380000Y-60480000D02*
X76500000Y-59600000D01*
X77380000Y-67720000D02*
X77380000Y-60480000D01*
X77250000Y-81250000D02*
X77250000Y-78742032D01*
X77250000Y-78742032D02*
X74450000Y-75942032D01*
X76500000Y-59600000D02*
X76500000Y-54100000D01*
X74450000Y-70650000D02*
X77380000Y-67720000D01*
X79300000Y-82635000D02*
X78635000Y-82635000D01*
D30*
X73300000Y-104150000D02*
X73300000Y-131100000D01*
X73300000Y-131100000D02*
X72400000Y-132000000D01*
X94100000Y-98600000D02*
X78850000Y-98600000D01*
X78850000Y-98600000D02*
X73300000Y-104150000D01*
X99725000Y-92975000D02*
X94100000Y-98600000D01*
X103675000Y-92975000D02*
X99725000Y-92975000D01*
X72400000Y-132000000D02*
X70400000Y-132000000D01*
D33*
X85450000Y-70650000D02*
X88380000Y-67720000D01*
X88380000Y-64300000D02*
X88400000Y-64300000D01*
X88380000Y-67720000D02*
X88380000Y-64300000D01*
X88400000Y-63900000D02*
X88400000Y-64300000D01*
X83500000Y-59600000D02*
X83500000Y-54100000D01*
X83400000Y-82635000D02*
X84065000Y-82635000D01*
X83500000Y-60700000D02*
X83500000Y-59600000D01*
X88380000Y-64300000D02*
X88380000Y-63180000D01*
X88380000Y-63180000D02*
X87300000Y-62100000D01*
X87300000Y-62100000D02*
X84900000Y-62100000D01*
X84900000Y-62100000D02*
X83500000Y-60700000D01*
X84065000Y-82635000D02*
X85450000Y-81250000D01*
X85450000Y-81250000D02*
X85450000Y-70650000D01*
X90500000Y-59600000D02*
X90500000Y-54100000D01*
X90500000Y-60700000D02*
X90500000Y-59600000D01*
X91900000Y-62100000D02*
X90500000Y-60700000D01*
X98200000Y-62100000D02*
X91900000Y-62100000D01*
X87600000Y-82620000D02*
X88280000Y-82620000D01*
X99380000Y-67820000D02*
X99380000Y-63280000D01*
X89900000Y-77300000D02*
X99380000Y-67820000D01*
X88280000Y-82620000D02*
X89900000Y-81000000D01*
X99380000Y-63280000D02*
X98200000Y-62100000D01*
X89900000Y-81000000D02*
X89900000Y-77300000D01*
D30*
X64200000Y-69200000D02*
X59950000Y-64950000D01*
X79900000Y-93250000D02*
X64200000Y-77550000D01*
X98550000Y-93250000D02*
X79900000Y-93250000D01*
X104975000Y-92975000D02*
X104350000Y-92350000D01*
X64200000Y-77550000D02*
X64200000Y-69200000D01*
X104350000Y-92350000D02*
X99450000Y-92350000D01*
X99450000Y-92350000D02*
X98550000Y-93250000D01*
D31*
X101100000Y-69500000D02*
X134480000Y-69500000D01*
X93350000Y-89240000D02*
X95500000Y-87090000D01*
X95500000Y-75100000D02*
X101100000Y-69500000D01*
X95500000Y-87090000D02*
X95500000Y-75100000D01*
X134480000Y-69500000D02*
X139780000Y-64200000D01*
D30*
X90000000Y-127200000D02*
X92975000Y-130175000D01*
X92975000Y-130175000D02*
X136875000Y-130175000D01*
X145725000Y-118100000D02*
X145725000Y-107325000D01*
X140650000Y-121475000D02*
X143300000Y-118825000D01*
X90000000Y-110900000D02*
X90000000Y-127200000D01*
X90620001Y-110279999D02*
X90000000Y-110900000D01*
X136875000Y-130175000D02*
X140650000Y-126400000D01*
X145000000Y-118825000D02*
X145725000Y-118100000D01*
X92392499Y-110279999D02*
X90620001Y-110279999D01*
X93862500Y-111750000D02*
X92392499Y-110279999D01*
X140650000Y-126400000D02*
X140650000Y-121475000D01*
X143300000Y-118825000D02*
X145000000Y-118825000D01*
X145725000Y-107325000D02*
X142000000Y-103600000D01*
D31*
X145460000Y-80240000D02*
X145460000Y-79120000D01*
X142875000Y-80575000D02*
X145125000Y-80575000D01*
X145125000Y-80575000D02*
X145460000Y-80240000D01*
D30*
X104975000Y-87475000D02*
X104975000Y-84775000D01*
X102400000Y-90050000D02*
X104975000Y-87475000D01*
X137300000Y-128000000D02*
X139425000Y-125875000D01*
X122200000Y-127200000D02*
X123000000Y-128000000D01*
X123000000Y-128000000D02*
X137300000Y-128000000D01*
X124592499Y-110279999D02*
X122820001Y-110279999D01*
X139425000Y-125875000D02*
X139425000Y-121275000D01*
X122820001Y-110279999D02*
X122200000Y-110900000D01*
X142000000Y-118700000D02*
X142000000Y-117425000D01*
X122200000Y-110900000D02*
X122200000Y-127200000D01*
X126062500Y-111750000D02*
X124592499Y-110279999D01*
X139425000Y-121275000D02*
X142000000Y-118700000D01*
X135300000Y-96900000D02*
X135350000Y-96850000D01*
X135350000Y-96850000D02*
X135350000Y-88750000D01*
X106100000Y-110894058D02*
X106100000Y-127200000D01*
X109962500Y-111750000D02*
X109962500Y-111737500D01*
X143275000Y-118150000D02*
X143275000Y-111775000D01*
X140025000Y-126150000D02*
X140025000Y-121400000D01*
X137575000Y-128600000D02*
X140025000Y-126150000D01*
X107500000Y-128600000D02*
X137575000Y-128600000D01*
X143275000Y-111775000D02*
X142000000Y-110500000D01*
X106731948Y-110262110D02*
X106100000Y-110894058D01*
X106100000Y-127200000D02*
X107500000Y-128600000D01*
X109962500Y-111737500D02*
X108487110Y-110262110D01*
X140025000Y-121400000D02*
X143275000Y-118150000D01*
X108487110Y-110262110D02*
X106731948Y-110262110D01*
X137840000Y-96900000D02*
X137850000Y-96890000D01*
X137840000Y-96900000D02*
X137840000Y-89760000D01*
X137840000Y-89760000D02*
X138850000Y-88750000D01*
X140380000Y-96900000D02*
X140380000Y-90720000D01*
X140380000Y-90720000D02*
X142350000Y-88750000D01*
X77737500Y-111735000D02*
X76267499Y-110264999D01*
X73900000Y-127200000D02*
X77500000Y-130800000D01*
X77500000Y-130800000D02*
X137125000Y-130800000D01*
X137125000Y-130800000D02*
X141300000Y-126625000D01*
X76267499Y-110264999D02*
X74535001Y-110264999D01*
X141300000Y-125005000D02*
X141980000Y-124325000D01*
X73900000Y-110900000D02*
X73900000Y-127200000D01*
X74535001Y-110264999D02*
X73900000Y-110900000D01*
X141300000Y-126625000D02*
X141300000Y-125005000D01*
X121450000Y-81800000D02*
X120060000Y-80410000D01*
X128400000Y-81800000D02*
X121450000Y-81800000D01*
X131850000Y-85250000D02*
X128400000Y-81800000D01*
X120060000Y-80410000D02*
X120060000Y-79120000D01*
X120675000Y-87325000D02*
X120675000Y-96285000D01*
X120675000Y-96285000D02*
X120060000Y-96900000D01*
X122625000Y-96875000D02*
X122600000Y-96900000D01*
X122625000Y-86725000D02*
X122625000Y-96875000D01*
X122600000Y-79120000D02*
X122600000Y-80500000D01*
X107525000Y-86200000D02*
X109900000Y-83825000D01*
X109900000Y-83825000D02*
X109900000Y-79120000D01*
X107525000Y-88800000D02*
X107525000Y-86200000D01*
X106300000Y-87906250D02*
X106300000Y-84250000D01*
X105625000Y-90200000D02*
X105625000Y-88581250D01*
X106300000Y-84250000D02*
X102280000Y-80230000D01*
X102280000Y-80230000D02*
X102280000Y-79120000D01*
X105625000Y-88581250D02*
X106300000Y-87906250D01*
X101800000Y-80600000D02*
X100100000Y-80600000D01*
X100100000Y-80600000D02*
X99740000Y-80240000D01*
X104325000Y-89037500D02*
X105650000Y-87712500D01*
X105650000Y-84450000D02*
X101800000Y-80600000D01*
X105650000Y-87712500D02*
X105650000Y-84450000D01*
X104325000Y-90200000D02*
X104325000Y-89037500D01*
X99740000Y-80240000D02*
X99740000Y-79120000D01*
X106925000Y-90200000D02*
X106925000Y-79555000D01*
X106925000Y-79555000D02*
X107360000Y-79120000D01*
X108725000Y-87500000D02*
X108725000Y-86750000D01*
X108725000Y-86750000D02*
X114980000Y-80495000D01*
X114980000Y-80495000D02*
X114980000Y-79120000D01*
X106048529Y-99781471D02*
X104530000Y-101300000D01*
X142950000Y-88050000D02*
X142300000Y-87400000D01*
X131150000Y-87400000D02*
X127350000Y-83600000D01*
X145460000Y-94910000D02*
X142950000Y-92400000D01*
X106048529Y-94051471D02*
X106048529Y-99781471D01*
X145460000Y-96900000D02*
X145460000Y-94910000D01*
X127350000Y-83600000D02*
X116500000Y-83600000D01*
X142300000Y-87400000D02*
X131150000Y-87400000D01*
X116500000Y-83600000D02*
X106048529Y-94051471D01*
X142950000Y-92400000D02*
X142950000Y-88050000D01*
X101990000Y-101300000D02*
X103550000Y-99740000D01*
X103550000Y-99740000D02*
X103550000Y-95700000D01*
X148000000Y-95575000D02*
X148000000Y-96900000D01*
X143425000Y-92225000D02*
X145950000Y-94750000D01*
X116250000Y-83000000D02*
X127600000Y-83000000D01*
X143425000Y-87825000D02*
X143425000Y-92225000D01*
X127600000Y-83000000D02*
X131400000Y-86800000D01*
X103550000Y-95700000D02*
X116250000Y-83000000D01*
X147175000Y-94750000D02*
X148000000Y-95575000D01*
X145950000Y-94750000D02*
X147175000Y-94750000D01*
X142400000Y-86800000D02*
X143425000Y-87825000D01*
X131400000Y-86800000D02*
X142400000Y-86800000D01*
X108125000Y-88150000D02*
X108125000Y-86490000D01*
X108125000Y-86490000D02*
X112440000Y-82175000D01*
X112440000Y-82175000D02*
X112440000Y-79120000D01*
X128455000Y-108889999D02*
X127162500Y-110182499D01*
X127162500Y-110182499D02*
X127162500Y-111750000D01*
X112355000Y-108889999D02*
X111062500Y-110182499D01*
X111062500Y-110182499D02*
X111062500Y-111750000D01*
X94962500Y-110182499D02*
X94962500Y-111750000D01*
X96255000Y-108889999D02*
X94962500Y-110182499D01*
X78837500Y-110167499D02*
X78837500Y-111735000D01*
X80130000Y-108874999D02*
X78837500Y-110167499D01*
X108975000Y-119389999D02*
X108995001Y-119410000D01*
X108995001Y-119410000D02*
X109943750Y-119410000D01*
X109903751Y-121989999D02*
X109943750Y-121950000D01*
X108975000Y-121989999D02*
X109903751Y-121989999D01*
X92895001Y-119410000D02*
X93843750Y-119410000D01*
X92875000Y-119389999D02*
X92895001Y-119410000D01*
X92875000Y-121989999D02*
X93803751Y-121989999D01*
X93803751Y-121989999D02*
X93843750Y-121950000D01*
X76750000Y-119374999D02*
X76770001Y-119395000D01*
X76770001Y-119395000D02*
X77718750Y-119395000D01*
X77678751Y-121974999D02*
X77718750Y-121935000D01*
X76750000Y-121974999D02*
X77678751Y-121974999D01*
X125075000Y-119389999D02*
X125095001Y-119410000D01*
X125095001Y-119410000D02*
X126043750Y-119410000D01*
X126003751Y-121989999D02*
X126043750Y-121950000D01*
X125075000Y-121989999D02*
X126003751Y-121989999D01*
G04 #@! TA.AperFunction,Conductor*
G36*
X62600932Y-52800752D02*
G01*
X62618914Y-52802741D01*
X62711646Y-52812999D01*
X62738246Y-52818957D01*
X62837106Y-52852876D01*
X62861757Y-52864502D01*
X62956671Y-52922808D01*
X62967895Y-52930585D01*
X63462798Y-53315510D01*
X63473412Y-53324781D01*
X63555545Y-53405184D01*
X63573292Y-53427025D01*
X63631364Y-53517906D01*
X63643728Y-53543187D01*
X63679810Y-53644816D01*
X63686155Y-53672232D01*
X63699199Y-53786436D01*
X63700000Y-53800507D01*
X63700000Y-59899492D01*
X63699199Y-59913563D01*
X63686155Y-60027767D01*
X63679810Y-60055183D01*
X63643728Y-60156812D01*
X63631364Y-60182093D01*
X63573292Y-60272974D01*
X63555545Y-60294815D01*
X63473412Y-60375218D01*
X63462798Y-60384489D01*
X62967895Y-60769414D01*
X62956671Y-60777191D01*
X62861762Y-60835494D01*
X62837100Y-60847125D01*
X62738251Y-60881041D01*
X62711642Y-60887001D01*
X62600933Y-60899248D01*
X62587299Y-60900000D01*
X54899992Y-60900000D01*
X54744709Y-60920445D01*
X54744705Y-60920446D01*
X54600002Y-60980383D01*
X54475736Y-61075736D01*
X54380383Y-61200002D01*
X54320446Y-61344705D01*
X54320445Y-61344709D01*
X54300000Y-61499992D01*
X54300000Y-79100007D01*
X54320445Y-79255290D01*
X54320446Y-79255294D01*
X54380383Y-79399997D01*
X54380384Y-79399999D01*
X54380385Y-79400000D01*
X54475736Y-79524264D01*
X54600000Y-79619615D01*
X54744709Y-79679555D01*
X54900000Y-79700000D01*
X61891873Y-79700000D01*
X61908058Y-79701061D01*
X61965772Y-79708659D01*
X62039107Y-79718314D01*
X62070370Y-79726691D01*
X62184919Y-79774138D01*
X62212950Y-79790322D01*
X62311314Y-79865799D01*
X62334202Y-79888687D01*
X62409677Y-79987049D01*
X62425862Y-80015082D01*
X62473307Y-80129625D01*
X62481685Y-80160892D01*
X62498939Y-80291941D01*
X62500000Y-80308127D01*
X62500000Y-91641872D01*
X62498939Y-91658058D01*
X62481685Y-91789107D01*
X62473307Y-91820374D01*
X62425862Y-91934917D01*
X62409677Y-91962950D01*
X62334202Y-92061312D01*
X62311312Y-92084202D01*
X62212950Y-92159677D01*
X62184917Y-92175862D01*
X62070374Y-92223307D01*
X62039107Y-92231685D01*
X61908059Y-92248939D01*
X61891873Y-92250000D01*
X51108127Y-92250000D01*
X51091941Y-92248939D01*
X50960892Y-92231685D01*
X50929625Y-92223307D01*
X50815082Y-92175862D01*
X50787049Y-92159677D01*
X50688687Y-92084202D01*
X50665799Y-92061314D01*
X50590322Y-91962950D01*
X50574137Y-91934917D01*
X50526691Y-91820370D01*
X50518314Y-91789106D01*
X50501561Y-91661854D01*
X50500500Y-91645669D01*
X50500500Y-57304329D01*
X50501561Y-57288144D01*
X50518314Y-57160893D01*
X50526690Y-57129631D01*
X50574140Y-57015076D01*
X50590320Y-56987052D01*
X50665802Y-56888681D01*
X50688681Y-56865802D01*
X50787052Y-56790320D01*
X50815076Y-56774140D01*
X50929631Y-56726690D01*
X50960890Y-56718314D01*
X51053513Y-56706120D01*
X51091942Y-56701061D01*
X51108127Y-56700000D01*
X52807040Y-56700000D01*
X52815170Y-56700398D01*
X52815173Y-56700351D01*
X52818203Y-56700500D01*
X52818206Y-56700500D01*
X53181791Y-56700500D01*
X53181794Y-56700500D01*
X53543631Y-56664862D01*
X53613045Y-56651054D01*
X53900212Y-56593935D01*
X53900223Y-56593932D01*
X53900223Y-56593931D01*
X53900233Y-56593930D01*
X54248164Y-56488386D01*
X54584076Y-56349247D01*
X54904732Y-56177853D01*
X55207044Y-55975854D01*
X55488101Y-55745197D01*
X55745197Y-55488101D01*
X55975854Y-55207044D01*
X56177853Y-54904732D01*
X56349247Y-54584076D01*
X56488386Y-54248164D01*
X56593930Y-53900233D01*
X56593932Y-53900223D01*
X56593935Y-53900212D01*
X56664862Y-53543630D01*
X56687330Y-53315510D01*
X56700500Y-53181794D01*
X56700500Y-52988142D01*
X56720185Y-52921103D01*
X56772989Y-52875348D01*
X56775480Y-52874243D01*
X56881955Y-52828490D01*
X56914176Y-52819553D01*
X57049502Y-52801132D01*
X57066226Y-52800000D01*
X62587299Y-52800000D01*
X62600932Y-52800752D01*
G37*
G04 #@! TD.AperFunction*
G04 #@! TA.AperFunction,Conductor*
G36*
X69658043Y-112501059D02*
G01*
X69789105Y-112518314D01*
X69820371Y-112526692D01*
X69892156Y-112556426D01*
X69934919Y-112574139D01*
X69962947Y-112590321D01*
X70061314Y-112665800D01*
X70084202Y-112688688D01*
X70159676Y-112787049D01*
X70175861Y-112815082D01*
X70223307Y-112929627D01*
X70231685Y-112960894D01*
X70248939Y-113091942D01*
X70250000Y-113108128D01*
X70250000Y-118891872D01*
X70248939Y-118908058D01*
X70231685Y-119039107D01*
X70223307Y-119070374D01*
X70175862Y-119184917D01*
X70159677Y-119212950D01*
X70084202Y-119311312D01*
X70061312Y-119334202D01*
X69962950Y-119409677D01*
X69934917Y-119425862D01*
X69820374Y-119473307D01*
X69789108Y-119481685D01*
X69723356Y-119490342D01*
X69699832Y-119493439D01*
X69683649Y-119494500D01*
X53608126Y-119494500D01*
X53578328Y-119495475D01*
X53558087Y-119494481D01*
X53460895Y-119481686D01*
X53429627Y-119473308D01*
X53315082Y-119425862D01*
X53287051Y-119409678D01*
X53188686Y-119334200D01*
X53165800Y-119311314D01*
X53090321Y-119212947D01*
X53074140Y-119184922D01*
X53026692Y-119070373D01*
X53018314Y-119039106D01*
X53001059Y-118908043D01*
X53000000Y-118891889D01*
X53000000Y-115108127D01*
X53001061Y-115091943D01*
X53018314Y-114960894D01*
X53026690Y-114929632D01*
X53074140Y-114815077D01*
X53090320Y-114787053D01*
X53165802Y-114688682D01*
X53188681Y-114665803D01*
X53287055Y-114590318D01*
X53315077Y-114574140D01*
X53429628Y-114526692D01*
X53460892Y-114518314D01*
X53591957Y-114501059D01*
X53608109Y-114500000D01*
X60318334Y-114500000D01*
X60492204Y-114474255D01*
X60651154Y-114399230D01*
X63341260Y-112605826D01*
X63357084Y-112596881D01*
X63491193Y-112533580D01*
X63525955Y-112523056D01*
X63672636Y-112501336D01*
X63690797Y-112500000D01*
X69641889Y-112500000D01*
X69658043Y-112501059D01*
G37*
G04 #@! TD.AperFunction*
G04 #@! TA.AperFunction,Conductor*
G36*
X71958057Y-120001061D02*
G01*
X72015771Y-120008659D01*
X72089106Y-120018314D01*
X72120369Y-120026691D01*
X72234918Y-120074138D01*
X72262949Y-120090322D01*
X72361313Y-120165799D01*
X72384201Y-120188687D01*
X72459676Y-120287049D01*
X72475861Y-120315082D01*
X72523306Y-120429625D01*
X72531684Y-120460892D01*
X72548938Y-120591941D01*
X72549999Y-120608127D01*
X72549999Y-130391873D01*
X72548938Y-130408059D01*
X72531685Y-130539105D01*
X72523307Y-130570372D01*
X72475861Y-130684917D01*
X72459676Y-130712950D01*
X72384201Y-130811311D01*
X72361311Y-130834201D01*
X72262950Y-130909676D01*
X72234917Y-130925861D01*
X72120372Y-130973307D01*
X72089105Y-130981685D01*
X71970265Y-130997330D01*
X71958057Y-130998938D01*
X71941873Y-130999999D01*
X67408127Y-130999999D01*
X67391942Y-130998938D01*
X67260893Y-130981685D01*
X67229625Y-130973307D01*
X67115082Y-130925862D01*
X67087049Y-130909677D01*
X66988687Y-130834202D01*
X66965799Y-130811314D01*
X66890322Y-130712950D01*
X66874137Y-130684917D01*
X66826691Y-130570370D01*
X66818314Y-130539106D01*
X66801061Y-130408057D01*
X66800000Y-130391872D01*
X66800000Y-127100006D01*
X66799999Y-127099992D01*
X66798965Y-127092141D01*
X66779555Y-126944709D01*
X66719615Y-126800000D01*
X66624264Y-126675736D01*
X66500000Y-126580385D01*
X66499999Y-126580384D01*
X66499997Y-126580383D01*
X66355294Y-126520446D01*
X66355292Y-126520445D01*
X66355291Y-126520445D01*
X66335879Y-126517889D01*
X66200007Y-126500000D01*
X66200000Y-126500000D01*
X65481305Y-126500000D01*
X65469152Y-126499403D01*
X65441140Y-126496644D01*
X65441125Y-126496643D01*
X65424940Y-126495582D01*
X65391873Y-126494499D01*
X65391859Y-126494499D01*
X63250749Y-126494499D01*
X63230886Y-126492898D01*
X63192064Y-126486597D01*
X63154379Y-126474035D01*
X63119556Y-126455789D01*
X63102706Y-126445153D01*
X62315180Y-125854510D01*
X61471296Y-125221597D01*
X61437824Y-125198536D01*
X61437820Y-125198533D01*
X61420970Y-125187897D01*
X61420966Y-125187894D01*
X61420957Y-125187889D01*
X61385759Y-125167603D01*
X61242175Y-125092371D01*
X61242173Y-125092370D01*
X61242169Y-125092368D01*
X61195935Y-125072701D01*
X61167421Y-125060572D01*
X61164712Y-125059669D01*
X61129733Y-125048009D01*
X61129729Y-125048008D01*
X61129726Y-125048007D01*
X61050854Y-125028595D01*
X61050848Y-125028594D01*
X60923559Y-125007938D01*
X60923558Y-125007938D01*
X60918631Y-125007138D01*
X60918630Y-125007138D01*
X60907195Y-125005282D01*
X60890836Y-125002628D01*
X60890825Y-125002626D01*
X60890821Y-125002626D01*
X60850484Y-124997735D01*
X60830622Y-124996133D01*
X60794944Y-124994698D01*
X60790003Y-124994500D01*
X53608127Y-124994500D01*
X53578330Y-124995475D01*
X53558091Y-124994481D01*
X53460895Y-124981686D01*
X53429627Y-124973308D01*
X53315078Y-124925860D01*
X53287049Y-124909677D01*
X53188684Y-124834199D01*
X53165798Y-124811313D01*
X53090321Y-124712949D01*
X53074136Y-124684916D01*
X53026690Y-124570369D01*
X53018313Y-124539105D01*
X53001060Y-124408056D01*
X52999999Y-124391871D01*
X52999999Y-120608109D01*
X53001058Y-120591957D01*
X53018313Y-120460891D01*
X53026691Y-120429626D01*
X53074141Y-120315073D01*
X53090317Y-120287055D01*
X53165802Y-120188681D01*
X53188681Y-120165802D01*
X53287055Y-120090317D01*
X53315073Y-120074141D01*
X53429627Y-120026690D01*
X53460893Y-120018313D01*
X53591941Y-120001061D01*
X53608126Y-120000000D01*
X71941872Y-120000000D01*
X71958057Y-120001061D01*
G37*
G04 #@! TD.AperFunction*
G04 #@! TA.AperFunction,Conductor*
G36*
X60809865Y-125501601D02*
G01*
X60842587Y-125506911D01*
X60969876Y-125527567D01*
X61007561Y-125540129D01*
X61151147Y-125615362D01*
X61167997Y-125625998D01*
X62011880Y-126258910D01*
X62840000Y-126879999D01*
X63010263Y-126969209D01*
X63200000Y-126999999D01*
X65391873Y-126999999D01*
X65408058Y-127001060D01*
X65539104Y-127018312D01*
X65570372Y-127026690D01*
X65684921Y-127074138D01*
X65712946Y-127090319D01*
X65811313Y-127165798D01*
X65834201Y-127188686D01*
X65909676Y-127287047D01*
X65925861Y-127315080D01*
X65973307Y-127429625D01*
X65981685Y-127460892D01*
X65998938Y-127591938D01*
X65999999Y-127608124D01*
X65999999Y-130391872D01*
X65998938Y-130408057D01*
X65981685Y-130539106D01*
X65973307Y-130570374D01*
X65925862Y-130684917D01*
X65909677Y-130712950D01*
X65834202Y-130811312D01*
X65811312Y-130834202D01*
X65712950Y-130909677D01*
X65684917Y-130925862D01*
X65570374Y-130973307D01*
X65539107Y-130981685D01*
X65408059Y-130998939D01*
X65391873Y-131000000D01*
X64349992Y-131000000D01*
X64194709Y-131020445D01*
X64194705Y-131020446D01*
X64050002Y-131080383D01*
X63925736Y-131175736D01*
X63830383Y-131300002D01*
X63770446Y-131444705D01*
X63770445Y-131444709D01*
X63750000Y-131599992D01*
X63750000Y-134391871D01*
X63748939Y-134408057D01*
X63731685Y-134539106D01*
X63723307Y-134570373D01*
X63675862Y-134684916D01*
X63659677Y-134712949D01*
X63584202Y-134811311D01*
X63561312Y-134834201D01*
X63462950Y-134909676D01*
X63434917Y-134925861D01*
X63320374Y-134973306D01*
X63289107Y-134981684D01*
X63158059Y-134998938D01*
X63141873Y-134999999D01*
X53608128Y-134999999D01*
X53591942Y-134998938D01*
X53460893Y-134981684D01*
X53429626Y-134973306D01*
X53315083Y-134925861D01*
X53287050Y-134909676D01*
X53188688Y-134834201D01*
X53165800Y-134811313D01*
X53090321Y-134712946D01*
X53074138Y-134684916D01*
X53026692Y-134570370D01*
X53018314Y-134539104D01*
X53001059Y-134408042D01*
X53000000Y-134391888D01*
X53000000Y-126108126D01*
X53001061Y-126091942D01*
X53018314Y-125960893D01*
X53026690Y-125929631D01*
X53074140Y-125815076D01*
X53090320Y-125787052D01*
X53165802Y-125688681D01*
X53188681Y-125665802D01*
X53287052Y-125590320D01*
X53315076Y-125574140D01*
X53429631Y-125526690D01*
X53460890Y-125518314D01*
X53587840Y-125501601D01*
X53591942Y-125501061D01*
X53608127Y-125500000D01*
X60790003Y-125500000D01*
X60809865Y-125501601D01*
G37*
G04 #@! TD.AperFunction*
G04 #@! TA.AperFunction,Conductor*
G36*
X69658058Y-97401061D02*
G01*
X69715772Y-97408659D01*
X69789107Y-97418314D01*
X69820370Y-97426691D01*
X69934919Y-97474138D01*
X69962950Y-97490322D01*
X70061314Y-97565799D01*
X70084202Y-97588687D01*
X70159677Y-97687049D01*
X70175862Y-97715082D01*
X70223307Y-97829625D01*
X70231685Y-97860892D01*
X70248939Y-97991941D01*
X70250000Y-98008127D01*
X70250000Y-111391872D01*
X70248939Y-111408058D01*
X70231685Y-111539107D01*
X70223307Y-111570374D01*
X70175862Y-111684917D01*
X70159677Y-111712950D01*
X70084202Y-111811312D01*
X70061312Y-111834202D01*
X69962950Y-111909677D01*
X69934917Y-111925862D01*
X69820374Y-111973307D01*
X69789107Y-111981685D01*
X69691918Y-111994481D01*
X69671679Y-111995475D01*
X69641889Y-111994500D01*
X63690797Y-111994500D01*
X63690784Y-111994500D01*
X63653737Y-111995860D01*
X63653710Y-111995862D01*
X63635549Y-111997198D01*
X63631284Y-111997669D01*
X63598574Y-112001289D01*
X63451918Y-112023006D01*
X63379503Y-112039236D01*
X63379491Y-112039240D01*
X63379488Y-112039240D01*
X63379483Y-112039242D01*
X63362102Y-112044504D01*
X63344713Y-112049768D01*
X63275428Y-112076441D01*
X63275412Y-112076448D01*
X63141329Y-112139736D01*
X63125240Y-112148066D01*
X63108328Y-112156823D01*
X63108312Y-112156831D01*
X63108312Y-112156832D01*
X63092495Y-112165772D01*
X63060865Y-112185219D01*
X60409320Y-113952916D01*
X60393467Y-113961878D01*
X60360727Y-113977332D01*
X60325961Y-113987858D01*
X60290142Y-113993162D01*
X60271978Y-113994500D01*
X53608109Y-113994500D01*
X53578319Y-113995475D01*
X53558084Y-113994481D01*
X53460892Y-113981685D01*
X53429625Y-113973307D01*
X53315082Y-113925862D01*
X53287049Y-113909677D01*
X53188687Y-113834202D01*
X53165799Y-113811314D01*
X53090322Y-113712950D01*
X53074137Y-113684917D01*
X53026691Y-113570370D01*
X53018314Y-113539106D01*
X53001061Y-113408057D01*
X53000000Y-113391872D01*
X53000000Y-98008127D01*
X53001061Y-97991942D01*
X53018314Y-97860893D01*
X53026690Y-97829631D01*
X53074140Y-97715076D01*
X53090320Y-97687052D01*
X53165802Y-97588681D01*
X53188681Y-97565802D01*
X53287052Y-97490320D01*
X53315076Y-97474140D01*
X53429631Y-97426690D01*
X53460890Y-97418314D01*
X53553513Y-97406120D01*
X53591942Y-97401061D01*
X53608127Y-97400000D01*
X69641873Y-97400000D01*
X69658058Y-97401061D01*
G37*
G04 #@! TD.AperFunction*
G04 #@! TA.AperFunction,Conductor*
G36*
X124157013Y-118729781D02*
G01*
X124163338Y-118736120D01*
X124163806Y-118737486D01*
X124283795Y-119174219D01*
X124284178Y-119176410D01*
X124310607Y-119515477D01*
X124383840Y-119824439D01*
X124503024Y-119985606D01*
X124641799Y-120173266D01*
X124643963Y-120181956D01*
X124640665Y-120188496D01*
X124513497Y-120315664D01*
X124505224Y-120319091D01*
X124498267Y-120316798D01*
X124473155Y-120298228D01*
X124149440Y-120058839D01*
X123994959Y-120022222D01*
X123840479Y-119985606D01*
X123501411Y-119959177D01*
X123499220Y-119958794D01*
X123062487Y-119838805D01*
X123055418Y-119833309D01*
X123054305Y-119824423D01*
X123054773Y-119823057D01*
X123372438Y-119053782D01*
X123378759Y-119047447D01*
X124148058Y-118729772D01*
X124157013Y-118729781D01*
G37*
G04 #@! TD.AperFunction*
G04 #@! TA.AperFunction,Conductor*
G36*
X109050109Y-114018523D02*
G01*
X109051198Y-114019046D01*
X109178889Y-114088656D01*
X109180407Y-114089643D01*
X109270940Y-114159039D01*
X109365934Y-114210176D01*
X109506866Y-114228664D01*
X109514622Y-114233138D01*
X109517043Y-114240265D01*
X109517043Y-114418924D01*
X109513616Y-114427197D01*
X109505984Y-114430606D01*
X109369998Y-114438068D01*
X109369991Y-114438069D01*
X109271341Y-114462949D01*
X109271337Y-114462950D01*
X109271336Y-114462951D01*
X109189671Y-114499611D01*
X109176219Y-114505651D01*
X109176218Y-114505650D01*
X109050772Y-114562217D01*
X109041822Y-114562494D01*
X109035297Y-114556360D01*
X109035167Y-114556062D01*
X108985866Y-114438068D01*
X108925883Y-114294508D01*
X108925857Y-114285555D01*
X108925862Y-114285541D01*
X109034802Y-114024807D01*
X109041154Y-114018496D01*
X109050109Y-114018523D01*
G37*
G04 #@! TD.AperFunction*
G04 #@! TA.AperFunction,Conductor*
G36*
X76850303Y-116583059D02*
G01*
X76850982Y-116583369D01*
X76979565Y-116647018D01*
X76980335Y-116647435D01*
X77075030Y-116703480D01*
X77173786Y-116741216D01*
X77314362Y-116754030D01*
X77322290Y-116758194D01*
X77325000Y-116765682D01*
X77325000Y-116944317D01*
X77321573Y-116952590D01*
X77314362Y-116955969D01*
X77173784Y-116968783D01*
X77075036Y-117006516D01*
X77075029Y-117006519D01*
X76980339Y-117062560D01*
X76979571Y-117062977D01*
X76850983Y-117126630D01*
X76842048Y-117127229D01*
X76835306Y-117121335D01*
X76834996Y-117120655D01*
X76810723Y-117062560D01*
X76725883Y-116859509D01*
X76725857Y-116850556D01*
X76725862Y-116850542D01*
X76834997Y-116589342D01*
X76841348Y-116583032D01*
X76850303Y-116583059D01*
G37*
G04 #@! TD.AperFunction*
G04 #@! TA.AperFunction,Conductor*
G36*
X125150303Y-116598059D02*
G01*
X125150982Y-116598369D01*
X125279565Y-116662018D01*
X125280335Y-116662435D01*
X125375030Y-116718480D01*
X125473786Y-116756216D01*
X125614362Y-116769030D01*
X125622290Y-116773194D01*
X125625000Y-116780682D01*
X125625000Y-116959317D01*
X125621573Y-116967590D01*
X125614362Y-116970969D01*
X125473784Y-116983783D01*
X125375036Y-117021516D01*
X125375029Y-117021519D01*
X125280339Y-117077560D01*
X125279571Y-117077977D01*
X125150983Y-117141630D01*
X125142048Y-117142229D01*
X125135306Y-117136335D01*
X125134996Y-117135655D01*
X125110723Y-117077560D01*
X125025883Y-116874509D01*
X125025857Y-116865556D01*
X125025862Y-116865542D01*
X125134997Y-116604342D01*
X125141348Y-116598032D01*
X125150303Y-116598059D01*
G37*
G04 #@! TD.AperFunction*
G04 #@! TA.AperFunction,Conductor*
G36*
X92950303Y-116598059D02*
G01*
X92950982Y-116598369D01*
X93079565Y-116662018D01*
X93080335Y-116662435D01*
X93175030Y-116718480D01*
X93273786Y-116756216D01*
X93414362Y-116769030D01*
X93422290Y-116773194D01*
X93425000Y-116780682D01*
X93425000Y-116959317D01*
X93421573Y-116967590D01*
X93414362Y-116970969D01*
X93273784Y-116983783D01*
X93175036Y-117021516D01*
X93175029Y-117021519D01*
X93080339Y-117077560D01*
X93079571Y-117077977D01*
X92950983Y-117141630D01*
X92942048Y-117142229D01*
X92935306Y-117136335D01*
X92934996Y-117135655D01*
X92910723Y-117077560D01*
X92825883Y-116874509D01*
X92825857Y-116865556D01*
X92825862Y-116865542D01*
X92934997Y-116604342D01*
X92941348Y-116598032D01*
X92950303Y-116598059D01*
G37*
G04 #@! TD.AperFunction*
G04 #@! TA.AperFunction,Conductor*
G36*
X92950303Y-114058059D02*
G01*
X92950982Y-114058369D01*
X93079565Y-114122018D01*
X93080335Y-114122435D01*
X93175030Y-114178480D01*
X93273786Y-114216216D01*
X93414362Y-114229030D01*
X93422290Y-114233194D01*
X93425000Y-114240682D01*
X93425000Y-114419317D01*
X93421573Y-114427590D01*
X93414362Y-114430969D01*
X93273784Y-114443783D01*
X93175036Y-114481516D01*
X93175029Y-114481519D01*
X93080339Y-114537560D01*
X93079571Y-114537977D01*
X92950983Y-114601630D01*
X92942048Y-114602229D01*
X92935306Y-114596335D01*
X92934996Y-114595655D01*
X92910723Y-114537560D01*
X92825883Y-114334509D01*
X92825857Y-114325556D01*
X92825862Y-114325542D01*
X92934997Y-114064342D01*
X92941348Y-114058032D01*
X92950303Y-114058059D01*
G37*
G04 #@! TD.AperFunction*
G04 #@! TA.AperFunction,Conductor*
G36*
X93025345Y-124227959D02*
G01*
X93025933Y-124228224D01*
X93153723Y-124290095D01*
X93154277Y-124290383D01*
X93249110Y-124343105D01*
X93347871Y-124377638D01*
X93487272Y-124389115D01*
X93495235Y-124393210D01*
X93498011Y-124400776D01*
X93498011Y-124579424D01*
X93494584Y-124587697D01*
X93487489Y-124591065D01*
X93346864Y-124605301D01*
X93276002Y-124635063D01*
X93249011Y-124646400D01*
X93249009Y-124646400D01*
X93249007Y-124646402D01*
X93155323Y-124705793D01*
X93154354Y-124706344D01*
X93026039Y-124771462D01*
X93017110Y-124772150D01*
X93010311Y-124766324D01*
X93009948Y-124765540D01*
X92985215Y-124706344D01*
X92900883Y-124504509D01*
X92900857Y-124495556D01*
X92900862Y-124495542D01*
X93010038Y-124234243D01*
X93016390Y-124227932D01*
X93025345Y-124227959D01*
G37*
G04 #@! TD.AperFunction*
G04 #@! TA.AperFunction,Conductor*
G36*
X125225345Y-124227959D02*
G01*
X125225933Y-124228224D01*
X125353723Y-124290095D01*
X125354277Y-124290383D01*
X125449110Y-124343105D01*
X125547871Y-124377638D01*
X125687272Y-124389115D01*
X125695235Y-124393210D01*
X125698011Y-124400776D01*
X125698011Y-124579424D01*
X125694584Y-124587697D01*
X125687489Y-124591065D01*
X125546864Y-124605301D01*
X125476002Y-124635063D01*
X125449011Y-124646400D01*
X125449009Y-124646400D01*
X125449007Y-124646402D01*
X125355323Y-124705793D01*
X125354354Y-124706344D01*
X125226039Y-124771462D01*
X125217110Y-124772150D01*
X125210311Y-124766324D01*
X125209948Y-124765540D01*
X125185215Y-124706344D01*
X125100883Y-124504509D01*
X125100857Y-124495556D01*
X125100862Y-124495542D01*
X125210038Y-124234243D01*
X125216390Y-124227932D01*
X125225345Y-124227959D01*
G37*
G04 #@! TD.AperFunction*
G04 #@! TA.AperFunction,Conductor*
G36*
X109050303Y-116598059D02*
G01*
X109050982Y-116598369D01*
X109179565Y-116662018D01*
X109180335Y-116662435D01*
X109275030Y-116718480D01*
X109373786Y-116756216D01*
X109514362Y-116769030D01*
X109522290Y-116773194D01*
X109525000Y-116780682D01*
X109525000Y-116959317D01*
X109521573Y-116967590D01*
X109514362Y-116970969D01*
X109373784Y-116983783D01*
X109275036Y-117021516D01*
X109275029Y-117021519D01*
X109180339Y-117077560D01*
X109179571Y-117077977D01*
X109050983Y-117141630D01*
X109042048Y-117142229D01*
X109035306Y-117136335D01*
X109034996Y-117135655D01*
X109010723Y-117077560D01*
X108925883Y-116874509D01*
X108925857Y-116865556D01*
X108925862Y-116865542D01*
X109034997Y-116604342D01*
X109041348Y-116598032D01*
X109050303Y-116598059D01*
G37*
G04 #@! TD.AperFunction*
G04 #@! TA.AperFunction,Conductor*
G36*
X76850182Y-114018348D02*
G01*
X76851120Y-114018790D01*
X76979092Y-114086139D01*
X76980346Y-114086903D01*
X77072479Y-114151303D01*
X77168931Y-114197431D01*
X77309679Y-114213796D01*
X77317500Y-114218156D01*
X77320027Y-114225418D01*
X77320027Y-114404077D01*
X77316600Y-114412350D01*
X77309130Y-114415749D01*
X77171457Y-114425219D01*
X77072723Y-114454935D01*
X76977736Y-114502650D01*
X76977441Y-114502793D01*
X76850855Y-114561994D01*
X76841909Y-114562395D01*
X76835300Y-114556353D01*
X76835102Y-114555907D01*
X76812910Y-114502793D01*
X76725883Y-114294508D01*
X76725857Y-114285555D01*
X76725862Y-114285541D01*
X76834875Y-114024632D01*
X76841227Y-114018321D01*
X76850182Y-114018348D01*
G37*
G04 #@! TD.AperFunction*
G04 #@! TA.AperFunction,Conductor*
G36*
X76900345Y-124212959D02*
G01*
X76900933Y-124213224D01*
X77028723Y-124275095D01*
X77029277Y-124275383D01*
X77124110Y-124328105D01*
X77222871Y-124362638D01*
X77362272Y-124374115D01*
X77370235Y-124378210D01*
X77373011Y-124385776D01*
X77373011Y-124564424D01*
X77369584Y-124572697D01*
X77362489Y-124576065D01*
X77221864Y-124590301D01*
X77151002Y-124620063D01*
X77124011Y-124631400D01*
X77124009Y-124631400D01*
X77124007Y-124631402D01*
X77030323Y-124690793D01*
X77029354Y-124691344D01*
X76901039Y-124756462D01*
X76892110Y-124757150D01*
X76885311Y-124751324D01*
X76884948Y-124750540D01*
X76860215Y-124691344D01*
X76775883Y-124489509D01*
X76775857Y-124480556D01*
X76775862Y-124480542D01*
X76885038Y-124219243D01*
X76891390Y-124212932D01*
X76900345Y-124212959D01*
G37*
G04 #@! TD.AperFunction*
G04 #@! TA.AperFunction,Conductor*
G36*
X125150109Y-114018523D02*
G01*
X125151198Y-114019046D01*
X125278889Y-114088656D01*
X125280407Y-114089643D01*
X125370940Y-114159039D01*
X125465934Y-114210176D01*
X125606866Y-114228664D01*
X125614622Y-114233138D01*
X125617043Y-114240265D01*
X125617043Y-114418924D01*
X125613616Y-114427197D01*
X125605984Y-114430606D01*
X125469998Y-114438068D01*
X125469991Y-114438069D01*
X125371341Y-114462949D01*
X125371337Y-114462950D01*
X125371336Y-114462951D01*
X125289671Y-114499611D01*
X125276219Y-114505651D01*
X125276218Y-114505650D01*
X125150772Y-114562217D01*
X125141822Y-114562494D01*
X125135297Y-114556360D01*
X125135167Y-114556062D01*
X125085866Y-114438068D01*
X125025883Y-114294508D01*
X125025857Y-114285555D01*
X125025862Y-114285541D01*
X125134802Y-114024807D01*
X125141154Y-114018496D01*
X125150109Y-114018523D01*
G37*
G04 #@! TD.AperFunction*
G04 #@! TA.AperFunction,Conductor*
G36*
X109125345Y-124227959D02*
G01*
X109125933Y-124228224D01*
X109253723Y-124290095D01*
X109254277Y-124290383D01*
X109349110Y-124343105D01*
X109447871Y-124377638D01*
X109587272Y-124389115D01*
X109595235Y-124393210D01*
X109598011Y-124400776D01*
X109598011Y-124579424D01*
X109594584Y-124587697D01*
X109587489Y-124591065D01*
X109446864Y-124605301D01*
X109376002Y-124635063D01*
X109349011Y-124646400D01*
X109349009Y-124646400D01*
X109349007Y-124646402D01*
X109255323Y-124705793D01*
X109254354Y-124706344D01*
X109126039Y-124771462D01*
X109117110Y-124772150D01*
X109110311Y-124766324D01*
X109109948Y-124765540D01*
X109085215Y-124706344D01*
X109000883Y-124504509D01*
X109000857Y-124495556D01*
X109000862Y-124495542D01*
X109110038Y-124234243D01*
X109116390Y-124227932D01*
X109125345Y-124227959D01*
G37*
G04 #@! TD.AperFunction*
G04 #@! TA.AperFunction,Conductor*
G36*
X124156459Y-123810010D02*
G01*
X124162784Y-123816349D01*
X124163377Y-123818212D01*
X124266924Y-124272009D01*
X124267204Y-124275169D01*
X124250018Y-124635963D01*
X124280765Y-124966270D01*
X124526393Y-125330893D01*
X124528173Y-125339669D01*
X124524962Y-125345703D01*
X124397770Y-125472895D01*
X124389497Y-125476322D01*
X124382179Y-125473751D01*
X124058394Y-125214174D01*
X124058391Y-125214172D01*
X123779164Y-125109303D01*
X123471030Y-125048812D01*
X123469748Y-125048484D01*
X123061857Y-124919145D01*
X123055006Y-124913378D01*
X123054240Y-124904456D01*
X123054573Y-124903541D01*
X123372438Y-124133782D01*
X123378759Y-124127447D01*
X124147504Y-123810001D01*
X124156459Y-123810010D01*
G37*
G04 #@! TD.AperFunction*
G04 #@! TA.AperFunction,Conductor*
G36*
X124157013Y-121269781D02*
G01*
X124163338Y-121276120D01*
X124163806Y-121277486D01*
X124283795Y-121714219D01*
X124284178Y-121716410D01*
X124310607Y-122055477D01*
X124383840Y-122364439D01*
X124503024Y-122525606D01*
X124641799Y-122713266D01*
X124643963Y-122721956D01*
X124640665Y-122728496D01*
X124513497Y-122855664D01*
X124505224Y-122859091D01*
X124498267Y-122856798D01*
X124473155Y-122838228D01*
X124149440Y-122598839D01*
X123994959Y-122562222D01*
X123840479Y-122525606D01*
X123501411Y-122499177D01*
X123499220Y-122498794D01*
X123062487Y-122378805D01*
X123055418Y-122373309D01*
X123054305Y-122364423D01*
X123054773Y-122363057D01*
X123372438Y-121593782D01*
X123378759Y-121587447D01*
X124148058Y-121269772D01*
X124157013Y-121269781D01*
G37*
G04 #@! TD.AperFunction*
G04 #@! TA.AperFunction,Conductor*
G36*
X127175303Y-85778059D02*
G01*
X127175982Y-85778369D01*
X127304565Y-85842018D01*
X127305335Y-85842435D01*
X127400030Y-85898480D01*
X127498786Y-85936216D01*
X127639362Y-85949030D01*
X127647290Y-85953194D01*
X127650000Y-85960682D01*
X127650000Y-86139317D01*
X127646573Y-86147590D01*
X127639362Y-86150969D01*
X127498784Y-86163783D01*
X127400036Y-86201516D01*
X127400029Y-86201519D01*
X127305339Y-86257560D01*
X127304571Y-86257977D01*
X127175983Y-86321630D01*
X127167048Y-86322229D01*
X127160306Y-86316335D01*
X127159996Y-86315655D01*
X127135723Y-86257560D01*
X127050883Y-86054509D01*
X127050857Y-86045556D01*
X127050862Y-86045542D01*
X127159997Y-85784342D01*
X127166348Y-85778032D01*
X127175303Y-85778059D01*
G37*
G04 #@! TD.AperFunction*
G04 #@! TA.AperFunction,Conductor*
G36*
X123997455Y-107391576D02*
G01*
X124000846Y-107398934D01*
X124035155Y-107836358D01*
X124035156Y-107836366D01*
X124112500Y-108139074D01*
X124189593Y-108440805D01*
X124189921Y-108442786D01*
X124224011Y-108877398D01*
X124221242Y-108885914D01*
X124213262Y-108889977D01*
X124212361Y-108890013D01*
X123379859Y-108890993D01*
X123371583Y-108887576D01*
X122783921Y-108298937D01*
X122780502Y-108290662D01*
X122783936Y-108282392D01*
X122785603Y-108281010D01*
X123136807Y-108041321D01*
X123139196Y-108040069D01*
X123468002Y-107913535D01*
X123707564Y-107749022D01*
X123763606Y-107530231D01*
X123797747Y-107396946D01*
X123803119Y-107389782D01*
X123809081Y-107388149D01*
X123989182Y-107388149D01*
X123997455Y-107391576D01*
G37*
G04 #@! TD.AperFunction*
G04 #@! TA.AperFunction,Conductor*
G36*
X126784365Y-85939929D02*
G01*
X126929990Y-85999725D01*
X127046184Y-86047436D01*
X127052536Y-86053748D01*
X127052563Y-86053815D01*
X127160067Y-86315626D01*
X127160040Y-86324581D01*
X127153688Y-86330893D01*
X127152988Y-86331155D01*
X127017050Y-86377073D01*
X127016212Y-86377321D01*
X126909630Y-86404647D01*
X126909627Y-86404649D01*
X126813116Y-86447796D01*
X126813114Y-86447797D01*
X126704654Y-86538137D01*
X126696104Y-86540799D01*
X126688893Y-86537420D01*
X126562579Y-86411106D01*
X126559152Y-86402833D01*
X126561862Y-86395345D01*
X126652202Y-86286882D01*
X126681521Y-86221299D01*
X126695348Y-86190374D01*
X126695349Y-86190370D01*
X126695350Y-86190368D01*
X126722682Y-86083767D01*
X126722919Y-86082967D01*
X126768845Y-85947009D01*
X126774739Y-85940269D01*
X126783673Y-85939670D01*
X126784365Y-85939929D01*
G37*
G04 #@! TD.AperFunction*
G04 #@! TA.AperFunction,Conductor*
G36*
X124157013Y-116189781D02*
G01*
X124163338Y-116196120D01*
X124163806Y-116197486D01*
X124283795Y-116634219D01*
X124284178Y-116636410D01*
X124310607Y-116975477D01*
X124383840Y-117284439D01*
X124503024Y-117445606D01*
X124641799Y-117633266D01*
X124643963Y-117641956D01*
X124640665Y-117648496D01*
X124513497Y-117775664D01*
X124505224Y-117779091D01*
X124498267Y-117776798D01*
X124473155Y-117758228D01*
X124149440Y-117518839D01*
X123994959Y-117482222D01*
X123840479Y-117445606D01*
X123501411Y-117419177D01*
X123499220Y-117418794D01*
X123062487Y-117298805D01*
X123055418Y-117293309D01*
X123054305Y-117284423D01*
X123054773Y-117283057D01*
X123372438Y-116513782D01*
X123378759Y-116507447D01*
X124148058Y-116189772D01*
X124157013Y-116189781D01*
G37*
G04 #@! TD.AperFunction*
G04 #@! TA.AperFunction,Conductor*
G36*
X124157013Y-113649781D02*
G01*
X124163338Y-113656120D01*
X124163806Y-113657486D01*
X124283795Y-114094219D01*
X124284178Y-114096410D01*
X124310607Y-114435477D01*
X124383840Y-114744439D01*
X124503024Y-114905606D01*
X124641799Y-115093266D01*
X124643963Y-115101956D01*
X124640665Y-115108496D01*
X124513497Y-115235664D01*
X124505224Y-115239091D01*
X124498267Y-115236798D01*
X124473155Y-115218228D01*
X124149440Y-114978839D01*
X123994959Y-114942222D01*
X123840479Y-114905606D01*
X123501411Y-114879177D01*
X123499220Y-114878794D01*
X123062487Y-114758805D01*
X123055418Y-114753309D01*
X123054305Y-114744423D01*
X123054773Y-114743057D01*
X123372438Y-113973782D01*
X123378759Y-113967447D01*
X124148058Y-113649772D01*
X124157013Y-113649781D01*
G37*
G04 #@! TD.AperFunction*
G04 #@! TA.AperFunction,Conductor*
G36*
X77250303Y-125253059D02*
G01*
X77250982Y-125253369D01*
X77379565Y-125317018D01*
X77380335Y-125317435D01*
X77475030Y-125373480D01*
X77573786Y-125411216D01*
X77714362Y-125424030D01*
X77722290Y-125428194D01*
X77725000Y-125435682D01*
X77725000Y-125614317D01*
X77721573Y-125622590D01*
X77714362Y-125625969D01*
X77573784Y-125638783D01*
X77475036Y-125676516D01*
X77475029Y-125676519D01*
X77380339Y-125732560D01*
X77379571Y-125732977D01*
X77250983Y-125796630D01*
X77242048Y-125797229D01*
X77235306Y-125791335D01*
X77234996Y-125790655D01*
X77210723Y-125732560D01*
X77125883Y-125529509D01*
X77125857Y-125520556D01*
X77125862Y-125520542D01*
X77234997Y-125259342D01*
X77241348Y-125253032D01*
X77250303Y-125253059D01*
G37*
G04 #@! TD.AperFunction*
G04 #@! TA.AperFunction,Conductor*
G36*
X109450303Y-125253059D02*
G01*
X109450982Y-125253369D01*
X109579565Y-125317018D01*
X109580335Y-125317435D01*
X109675030Y-125373480D01*
X109773786Y-125411216D01*
X109914362Y-125424030D01*
X109922290Y-125428194D01*
X109925000Y-125435682D01*
X109925000Y-125614317D01*
X109921573Y-125622590D01*
X109914362Y-125625969D01*
X109773784Y-125638783D01*
X109675036Y-125676516D01*
X109675029Y-125676519D01*
X109580339Y-125732560D01*
X109579571Y-125732977D01*
X109450983Y-125796630D01*
X109442048Y-125797229D01*
X109435306Y-125791335D01*
X109434996Y-125790655D01*
X109410723Y-125732560D01*
X109325883Y-125529509D01*
X109325857Y-125520556D01*
X109325862Y-125520542D01*
X109434997Y-125259342D01*
X109441348Y-125253032D01*
X109450303Y-125253059D01*
G37*
G04 #@! TD.AperFunction*
G04 #@! TA.AperFunction,Conductor*
G36*
X93350303Y-125253059D02*
G01*
X93350982Y-125253369D01*
X93479565Y-125317018D01*
X93480335Y-125317435D01*
X93575030Y-125373480D01*
X93673786Y-125411216D01*
X93814362Y-125424030D01*
X93822290Y-125428194D01*
X93825000Y-125435682D01*
X93825000Y-125614317D01*
X93821573Y-125622590D01*
X93814362Y-125625969D01*
X93673784Y-125638783D01*
X93575036Y-125676516D01*
X93575029Y-125676519D01*
X93480339Y-125732560D01*
X93479571Y-125732977D01*
X93350983Y-125796630D01*
X93342048Y-125797229D01*
X93335306Y-125791335D01*
X93334996Y-125790655D01*
X93310723Y-125732560D01*
X93225883Y-125529509D01*
X93225857Y-125520556D01*
X93225862Y-125520542D01*
X93334997Y-125259342D01*
X93341348Y-125253032D01*
X93350303Y-125253059D01*
G37*
G04 #@! TD.AperFunction*
G04 #@! TA.AperFunction,Conductor*
G36*
X125550303Y-125253059D02*
G01*
X125550982Y-125253369D01*
X125679565Y-125317018D01*
X125680335Y-125317435D01*
X125775030Y-125373480D01*
X125873786Y-125411216D01*
X126014362Y-125424030D01*
X126022290Y-125428194D01*
X126025000Y-125435682D01*
X126025000Y-125614317D01*
X126021573Y-125622590D01*
X126014362Y-125625969D01*
X125873784Y-125638783D01*
X125775036Y-125676516D01*
X125775029Y-125676519D01*
X125680339Y-125732560D01*
X125679571Y-125732977D01*
X125550983Y-125796630D01*
X125542048Y-125797229D01*
X125535306Y-125791335D01*
X125534996Y-125790655D01*
X125510723Y-125732560D01*
X125425883Y-125529509D01*
X125425857Y-125520556D01*
X125425862Y-125520542D01*
X125534997Y-125259342D01*
X125541348Y-125253032D01*
X125550303Y-125253059D01*
G37*
G04 #@! TD.AperFunction*
G04 #@! TA.AperFunction,Conductor*
G36*
X124157013Y-111109781D02*
G01*
X124163338Y-111116120D01*
X124163806Y-111117486D01*
X124283795Y-111554219D01*
X124284178Y-111556410D01*
X124310607Y-111895477D01*
X124383840Y-112204439D01*
X124503024Y-112365606D01*
X124641799Y-112553266D01*
X124643963Y-112561956D01*
X124640665Y-112568496D01*
X124513497Y-112695664D01*
X124505224Y-112699091D01*
X124498267Y-112696798D01*
X124473155Y-112678228D01*
X124149440Y-112438839D01*
X123994959Y-112402222D01*
X123840479Y-112365606D01*
X123501411Y-112339177D01*
X123499220Y-112338794D01*
X123062487Y-112218805D01*
X123055418Y-112213309D01*
X123054305Y-112204423D01*
X123054773Y-112203057D01*
X123372438Y-111433782D01*
X123378759Y-111427447D01*
X124148058Y-111109772D01*
X124157013Y-111109781D01*
G37*
G04 #@! TD.AperFunction*
G04 #@! TA.AperFunction,Conductor*
G36*
X123710494Y-125890613D02*
G01*
X123711784Y-125891245D01*
X124105458Y-126115221D01*
X124107270Y-126116495D01*
X124365716Y-126337567D01*
X124635970Y-126504252D01*
X125065033Y-126568506D01*
X125072707Y-126573120D01*
X125075000Y-126580077D01*
X125075000Y-126759920D01*
X125071573Y-126768193D01*
X125065033Y-126771491D01*
X124635970Y-126835745D01*
X124635965Y-126835747D01*
X124365716Y-127002429D01*
X124365710Y-127002434D01*
X124107273Y-127223498D01*
X124105454Y-127224776D01*
X123711791Y-127448748D01*
X123702905Y-127449861D01*
X123695836Y-127444365D01*
X123695200Y-127443068D01*
X123442865Y-126835745D01*
X123375864Y-126674487D01*
X123375856Y-126665533D01*
X123375865Y-126665510D01*
X123512123Y-126337562D01*
X123695200Y-125896928D01*
X123701539Y-125890604D01*
X123710494Y-125890613D01*
G37*
G04 #@! TD.AperFunction*
G04 #@! TA.AperFunction,Conductor*
G36*
X108056459Y-123810010D02*
G01*
X108062784Y-123816349D01*
X108063377Y-123818212D01*
X108166924Y-124272009D01*
X108167204Y-124275169D01*
X108150018Y-124635963D01*
X108180765Y-124966270D01*
X108426393Y-125330893D01*
X108428173Y-125339669D01*
X108424962Y-125345703D01*
X108297770Y-125472895D01*
X108289497Y-125476322D01*
X108282179Y-125473751D01*
X107958394Y-125214174D01*
X107958391Y-125214172D01*
X107679164Y-125109303D01*
X107371030Y-125048812D01*
X107369748Y-125048484D01*
X106961857Y-124919145D01*
X106955006Y-124913378D01*
X106954240Y-124904456D01*
X106954573Y-124903541D01*
X107272438Y-124133782D01*
X107278759Y-124127447D01*
X108047504Y-123810001D01*
X108056459Y-123810010D01*
G37*
G04 #@! TD.AperFunction*
G04 #@! TA.AperFunction,Conductor*
G36*
X108057013Y-118729781D02*
G01*
X108063338Y-118736120D01*
X108063806Y-118737486D01*
X108183795Y-119174219D01*
X108184178Y-119176410D01*
X108210607Y-119515477D01*
X108283840Y-119824439D01*
X108403024Y-119985606D01*
X108541799Y-120173266D01*
X108543963Y-120181956D01*
X108540665Y-120188496D01*
X108413497Y-120315664D01*
X108405224Y-120319091D01*
X108398267Y-120316798D01*
X108373155Y-120298228D01*
X108049440Y-120058839D01*
X107894959Y-120022222D01*
X107740479Y-119985606D01*
X107401411Y-119959177D01*
X107399220Y-119958794D01*
X106962487Y-119838805D01*
X106955418Y-119833309D01*
X106954305Y-119824423D01*
X106954773Y-119823057D01*
X107272438Y-119053782D01*
X107278759Y-119047447D01*
X108048058Y-118729772D01*
X108057013Y-118729781D01*
G37*
G04 #@! TD.AperFunction*
G04 #@! TA.AperFunction,Conductor*
G36*
X107610485Y-125890633D02*
G01*
X107611791Y-125891274D01*
X107932537Y-126074457D01*
X108005452Y-126116100D01*
X108007298Y-126117406D01*
X108265192Y-126340158D01*
X108265194Y-126340159D01*
X108265200Y-126340164D01*
X108534933Y-126508508D01*
X108964058Y-126573493D01*
X108971724Y-126578120D01*
X108974005Y-126585061D01*
X108974005Y-126764908D01*
X108970578Y-126773181D01*
X108964022Y-126776481D01*
X108535588Y-126840046D01*
X108265264Y-127005152D01*
X108006720Y-127224544D01*
X108004922Y-127225800D01*
X107611784Y-127448772D01*
X107602897Y-127449873D01*
X107595835Y-127444367D01*
X107595207Y-127443084D01*
X107318242Y-126776481D01*
X107275864Y-126674487D01*
X107275856Y-126665533D01*
X107275865Y-126665510D01*
X107595192Y-125896947D01*
X107601530Y-125890624D01*
X107610485Y-125890633D01*
G37*
G04 #@! TD.AperFunction*
G04 #@! TA.AperFunction,Conductor*
G36*
X108057013Y-116189781D02*
G01*
X108063338Y-116196120D01*
X108063806Y-116197486D01*
X108183795Y-116634219D01*
X108184178Y-116636410D01*
X108210607Y-116975477D01*
X108283840Y-117284439D01*
X108403024Y-117445606D01*
X108541799Y-117633266D01*
X108543963Y-117641956D01*
X108540665Y-117648496D01*
X108413497Y-117775664D01*
X108405224Y-117779091D01*
X108398267Y-117776798D01*
X108373155Y-117758228D01*
X108049440Y-117518839D01*
X107894959Y-117482222D01*
X107740479Y-117445606D01*
X107401411Y-117419177D01*
X107399220Y-117418794D01*
X106962487Y-117298805D01*
X106955418Y-117293309D01*
X106954305Y-117284423D01*
X106954773Y-117283057D01*
X107272438Y-116513782D01*
X107278759Y-116507447D01*
X108048058Y-116189772D01*
X108057013Y-116189781D01*
G37*
G04 #@! TD.AperFunction*
G04 #@! TA.AperFunction,Conductor*
G36*
X108057013Y-113649781D02*
G01*
X108063338Y-113656120D01*
X108063806Y-113657486D01*
X108183795Y-114094219D01*
X108184178Y-114096410D01*
X108210607Y-114435477D01*
X108283840Y-114744439D01*
X108403024Y-114905606D01*
X108541799Y-115093266D01*
X108543963Y-115101956D01*
X108540665Y-115108496D01*
X108413497Y-115235664D01*
X108405224Y-115239091D01*
X108398267Y-115236798D01*
X108373155Y-115218228D01*
X108049440Y-114978839D01*
X107894959Y-114942222D01*
X107740479Y-114905606D01*
X107401411Y-114879177D01*
X107399220Y-114878794D01*
X106962487Y-114758805D01*
X106955418Y-114753309D01*
X106954305Y-114744423D01*
X106954773Y-114743057D01*
X107272438Y-113973782D01*
X107278759Y-113967447D01*
X108048058Y-113649772D01*
X108057013Y-113649781D01*
G37*
G04 #@! TD.AperFunction*
G04 #@! TA.AperFunction,Conductor*
G36*
X108057013Y-111109781D02*
G01*
X108063338Y-111116120D01*
X108063806Y-111117486D01*
X108183795Y-111554219D01*
X108184178Y-111556410D01*
X108210607Y-111895477D01*
X108283840Y-112204439D01*
X108403024Y-112365606D01*
X108541799Y-112553266D01*
X108543963Y-112561956D01*
X108540665Y-112568496D01*
X108413497Y-112695664D01*
X108405224Y-112699091D01*
X108398267Y-112696798D01*
X108373155Y-112678228D01*
X108049440Y-112438839D01*
X107894959Y-112402222D01*
X107740479Y-112365606D01*
X107401411Y-112339177D01*
X107399220Y-112338794D01*
X106962487Y-112218805D01*
X106955418Y-112213309D01*
X106954305Y-112204423D01*
X106954773Y-112203057D01*
X107272438Y-111433782D01*
X107278759Y-111427447D01*
X108048058Y-111109772D01*
X108057013Y-111109781D01*
G37*
G04 #@! TD.AperFunction*
G04 #@! TA.AperFunction,Conductor*
G36*
X108057013Y-121269781D02*
G01*
X108063338Y-121276120D01*
X108063806Y-121277486D01*
X108183795Y-121714219D01*
X108184178Y-121716410D01*
X108210607Y-122055477D01*
X108283840Y-122364439D01*
X108403024Y-122525606D01*
X108541799Y-122713266D01*
X108543963Y-122721956D01*
X108540665Y-122728496D01*
X108413497Y-122855664D01*
X108405224Y-122859091D01*
X108398267Y-122856798D01*
X108373155Y-122838228D01*
X108049440Y-122598839D01*
X107894959Y-122562222D01*
X107740479Y-122525606D01*
X107401411Y-122499177D01*
X107399220Y-122498794D01*
X106962487Y-122378805D01*
X106955418Y-122373309D01*
X106954305Y-122364423D01*
X106954773Y-122363057D01*
X107272438Y-121593782D01*
X107278759Y-121587447D01*
X108048058Y-121269772D01*
X108057013Y-121269781D01*
G37*
G04 #@! TD.AperFunction*
G04 #@! TA.AperFunction,Conductor*
G36*
X91957013Y-111109781D02*
G01*
X91963338Y-111116120D01*
X91963806Y-111117486D01*
X92083795Y-111554219D01*
X92084178Y-111556410D01*
X92110607Y-111895477D01*
X92183840Y-112204439D01*
X92303024Y-112365606D01*
X92441799Y-112553266D01*
X92443963Y-112561956D01*
X92440665Y-112568496D01*
X92313497Y-112695664D01*
X92305224Y-112699091D01*
X92298267Y-112696798D01*
X92273155Y-112678228D01*
X91949440Y-112438839D01*
X91794959Y-112402222D01*
X91640479Y-112365606D01*
X91301411Y-112339177D01*
X91299220Y-112338794D01*
X90862487Y-112218805D01*
X90855418Y-112213309D01*
X90854305Y-112204423D01*
X90854773Y-112203057D01*
X91172438Y-111433782D01*
X91178759Y-111427447D01*
X91948058Y-111109772D01*
X91957013Y-111109781D01*
G37*
G04 #@! TD.AperFunction*
G04 #@! TA.AperFunction,Conductor*
G36*
X91957013Y-113649781D02*
G01*
X91963338Y-113656120D01*
X91963806Y-113657486D01*
X92083795Y-114094219D01*
X92084178Y-114096410D01*
X92110607Y-114435477D01*
X92183840Y-114744439D01*
X92303024Y-114905606D01*
X92441799Y-115093266D01*
X92443963Y-115101956D01*
X92440665Y-115108496D01*
X92313497Y-115235664D01*
X92305224Y-115239091D01*
X92298267Y-115236798D01*
X92273155Y-115218228D01*
X91949440Y-114978839D01*
X91794959Y-114942222D01*
X91640479Y-114905606D01*
X91301411Y-114879177D01*
X91299220Y-114878794D01*
X90862487Y-114758805D01*
X90855418Y-114753309D01*
X90854305Y-114744423D01*
X90854773Y-114743057D01*
X91172438Y-113973782D01*
X91178759Y-113967447D01*
X91948058Y-113649772D01*
X91957013Y-113649781D01*
G37*
G04 #@! TD.AperFunction*
G04 #@! TA.AperFunction,Conductor*
G36*
X91957013Y-116189781D02*
G01*
X91963338Y-116196120D01*
X91963806Y-116197486D01*
X92083795Y-116634219D01*
X92084178Y-116636410D01*
X92110607Y-116975477D01*
X92183840Y-117284439D01*
X92303024Y-117445606D01*
X92441799Y-117633266D01*
X92443963Y-117641956D01*
X92440665Y-117648496D01*
X92313497Y-117775664D01*
X92305224Y-117779091D01*
X92298267Y-117776798D01*
X92273155Y-117758228D01*
X91949440Y-117518839D01*
X91794959Y-117482222D01*
X91640479Y-117445606D01*
X91301411Y-117419177D01*
X91299220Y-117418794D01*
X90862487Y-117298805D01*
X90855418Y-117293309D01*
X90854305Y-117284423D01*
X90854773Y-117283057D01*
X91172438Y-116513782D01*
X91178759Y-116507447D01*
X91948058Y-116189772D01*
X91957013Y-116189781D01*
G37*
G04 #@! TD.AperFunction*
G04 #@! TA.AperFunction,Conductor*
G36*
X91510494Y-125890613D02*
G01*
X91511784Y-125891245D01*
X91905458Y-126115221D01*
X91907270Y-126116495D01*
X92165716Y-126337567D01*
X92435970Y-126504252D01*
X92865033Y-126568506D01*
X92872707Y-126573120D01*
X92875000Y-126580077D01*
X92875000Y-126759920D01*
X92871573Y-126768193D01*
X92865033Y-126771491D01*
X92435970Y-126835745D01*
X92435965Y-126835747D01*
X92165716Y-127002429D01*
X92165710Y-127002434D01*
X91907273Y-127223498D01*
X91905454Y-127224776D01*
X91511791Y-127448748D01*
X91502905Y-127449861D01*
X91495836Y-127444365D01*
X91495200Y-127443068D01*
X91242865Y-126835745D01*
X91175864Y-126674487D01*
X91175856Y-126665533D01*
X91175865Y-126665510D01*
X91312123Y-126337562D01*
X91495200Y-125896928D01*
X91501539Y-125890604D01*
X91510494Y-125890613D01*
G37*
G04 #@! TD.AperFunction*
G04 #@! TA.AperFunction,Conductor*
G36*
X91957013Y-121269781D02*
G01*
X91963338Y-121276120D01*
X91963806Y-121277486D01*
X92083795Y-121714219D01*
X92084178Y-121716410D01*
X92110607Y-122055477D01*
X92183840Y-122364439D01*
X92303024Y-122525606D01*
X92441799Y-122713266D01*
X92443963Y-122721956D01*
X92440665Y-122728496D01*
X92313497Y-122855664D01*
X92305224Y-122859091D01*
X92298267Y-122856798D01*
X92273155Y-122838228D01*
X91949440Y-122598839D01*
X91794959Y-122562222D01*
X91640479Y-122525606D01*
X91301411Y-122499177D01*
X91299220Y-122498794D01*
X90862487Y-122378805D01*
X90855418Y-122373309D01*
X90854305Y-122364423D01*
X90854773Y-122363057D01*
X91172438Y-121593782D01*
X91178759Y-121587447D01*
X91948058Y-121269772D01*
X91957013Y-121269781D01*
G37*
G04 #@! TD.AperFunction*
G04 #@! TA.AperFunction,Conductor*
G36*
X91957013Y-118729781D02*
G01*
X91963338Y-118736120D01*
X91963806Y-118737486D01*
X92083795Y-119174219D01*
X92084178Y-119176410D01*
X92110607Y-119515477D01*
X92183840Y-119824439D01*
X92303024Y-119985606D01*
X92441799Y-120173266D01*
X92443963Y-120181956D01*
X92440665Y-120188496D01*
X92313497Y-120315664D01*
X92305224Y-120319091D01*
X92298267Y-120316798D01*
X92273155Y-120298228D01*
X91949440Y-120058839D01*
X91794959Y-120022222D01*
X91640479Y-119985606D01*
X91301411Y-119959177D01*
X91299220Y-119958794D01*
X90862487Y-119838805D01*
X90855418Y-119833309D01*
X90854305Y-119824423D01*
X90854773Y-119823057D01*
X91172438Y-119053782D01*
X91178759Y-119047447D01*
X91948058Y-118729772D01*
X91957013Y-118729781D01*
G37*
G04 #@! TD.AperFunction*
G04 #@! TA.AperFunction,Conductor*
G36*
X91956454Y-123810011D02*
G01*
X91962779Y-123816350D01*
X91963373Y-123818217D01*
X92066798Y-124272154D01*
X92067076Y-124275320D01*
X92049555Y-124636269D01*
X92061061Y-124761262D01*
X92079976Y-124966735D01*
X92325516Y-125331482D01*
X92327293Y-125340259D01*
X92324083Y-125346289D01*
X92196890Y-125473482D01*
X92188617Y-125476909D01*
X92181296Y-125474335D01*
X91857700Y-125214744D01*
X91857699Y-125214743D01*
X91857697Y-125214742D01*
X91736368Y-125169032D01*
X91578708Y-125109635D01*
X91270805Y-125048886D01*
X91269530Y-125048559D01*
X90861851Y-124919148D01*
X90855003Y-124913378D01*
X90854239Y-124904456D01*
X90854568Y-124903552D01*
X91172438Y-124133782D01*
X91178759Y-124127447D01*
X91947501Y-123810002D01*
X91956454Y-123810011D01*
G37*
G04 #@! TD.AperFunction*
G04 #@! TA.AperFunction,Conductor*
G36*
X75832013Y-118714781D02*
G01*
X75838338Y-118721120D01*
X75838806Y-118722486D01*
X75958795Y-119159219D01*
X75959178Y-119161410D01*
X75985607Y-119500477D01*
X76058840Y-119809439D01*
X76178024Y-119970606D01*
X76316799Y-120158266D01*
X76318963Y-120166956D01*
X76315665Y-120173496D01*
X76188497Y-120300664D01*
X76180224Y-120304091D01*
X76173267Y-120301798D01*
X76148155Y-120283228D01*
X75824440Y-120043839D01*
X75669959Y-120007222D01*
X75515479Y-119970606D01*
X75176411Y-119944177D01*
X75174220Y-119943794D01*
X74737487Y-119823805D01*
X74730418Y-119818309D01*
X74729305Y-119809423D01*
X74729773Y-119808057D01*
X75047438Y-119038782D01*
X75053759Y-119032447D01*
X75823058Y-118714772D01*
X75832013Y-118714781D01*
G37*
G04 #@! TD.AperFunction*
G04 #@! TA.AperFunction,Conductor*
G36*
X75831487Y-123794998D02*
G01*
X75837812Y-123801337D01*
X75838399Y-123803175D01*
X75942786Y-124256049D01*
X75943075Y-124259162D01*
X75928166Y-124618856D01*
X75961125Y-124948098D01*
X76045441Y-125072665D01*
X76207359Y-125311882D01*
X76209159Y-125320653D01*
X76205943Y-125326712D01*
X76078749Y-125453906D01*
X76070476Y-125457333D01*
X76063177Y-125454777D01*
X75738116Y-125195307D01*
X75457330Y-125092060D01*
X75457333Y-125092060D01*
X75147571Y-125033310D01*
X75146238Y-125032975D01*
X74736890Y-124904128D01*
X74730028Y-124898376D01*
X74729243Y-124889455D01*
X74729584Y-124888514D01*
X75047438Y-124118782D01*
X75053759Y-124112447D01*
X75822533Y-123794989D01*
X75831487Y-123794998D01*
G37*
G04 #@! TD.AperFunction*
G04 #@! TA.AperFunction,Conductor*
G36*
X75385494Y-125875613D02*
G01*
X75386784Y-125876245D01*
X75780458Y-126100221D01*
X75782270Y-126101495D01*
X76040716Y-126322567D01*
X76310970Y-126489252D01*
X76740033Y-126553506D01*
X76747707Y-126558120D01*
X76750000Y-126565077D01*
X76750000Y-126744920D01*
X76746573Y-126753193D01*
X76740033Y-126756491D01*
X76310970Y-126820745D01*
X76310965Y-126820747D01*
X76040716Y-126987429D01*
X76040710Y-126987434D01*
X75782273Y-127208498D01*
X75780454Y-127209776D01*
X75386791Y-127433748D01*
X75377905Y-127434861D01*
X75370836Y-127429365D01*
X75370200Y-127428068D01*
X75117865Y-126820745D01*
X75050864Y-126659487D01*
X75050856Y-126650533D01*
X75050865Y-126650510D01*
X75187123Y-126322562D01*
X75370200Y-125881928D01*
X75376539Y-125875604D01*
X75385494Y-125875613D01*
G37*
G04 #@! TD.AperFunction*
G04 #@! TA.AperFunction,Conductor*
G36*
X75832013Y-111094781D02*
G01*
X75838338Y-111101120D01*
X75838806Y-111102486D01*
X75958795Y-111539219D01*
X75959178Y-111541410D01*
X75985607Y-111880477D01*
X76058840Y-112189439D01*
X76178024Y-112350606D01*
X76316799Y-112538266D01*
X76318963Y-112546956D01*
X76315665Y-112553496D01*
X76188497Y-112680664D01*
X76180224Y-112684091D01*
X76173267Y-112681798D01*
X76148155Y-112663228D01*
X75824440Y-112423839D01*
X75669959Y-112387222D01*
X75515479Y-112350606D01*
X75176411Y-112324177D01*
X75174220Y-112323794D01*
X74737487Y-112203805D01*
X74730418Y-112198309D01*
X74729305Y-112189423D01*
X74729773Y-112188057D01*
X75047438Y-111418782D01*
X75053759Y-111412447D01*
X75823058Y-111094772D01*
X75832013Y-111094781D01*
G37*
G04 #@! TD.AperFunction*
G04 #@! TA.AperFunction,Conductor*
G36*
X75832013Y-113634781D02*
G01*
X75838338Y-113641120D01*
X75838806Y-113642486D01*
X75958795Y-114079219D01*
X75959178Y-114081410D01*
X75985607Y-114420477D01*
X76058840Y-114729439D01*
X76178024Y-114890606D01*
X76316799Y-115078266D01*
X76318963Y-115086956D01*
X76315665Y-115093496D01*
X76188497Y-115220664D01*
X76180224Y-115224091D01*
X76173267Y-115221798D01*
X76148155Y-115203228D01*
X75824440Y-114963839D01*
X75669959Y-114927222D01*
X75515479Y-114890606D01*
X75176411Y-114864177D01*
X75174220Y-114863794D01*
X74737487Y-114743805D01*
X74730418Y-114738309D01*
X74729305Y-114729423D01*
X74729773Y-114728057D01*
X75047438Y-113958782D01*
X75053759Y-113952447D01*
X75823058Y-113634772D01*
X75832013Y-113634781D01*
G37*
G04 #@! TD.AperFunction*
G04 #@! TA.AperFunction,Conductor*
G36*
X75832013Y-121254781D02*
G01*
X75838338Y-121261120D01*
X75838806Y-121262486D01*
X75958795Y-121699219D01*
X75959178Y-121701410D01*
X75985607Y-122040477D01*
X76058840Y-122349439D01*
X76178024Y-122510606D01*
X76316799Y-122698266D01*
X76318963Y-122706956D01*
X76315665Y-122713496D01*
X76188497Y-122840664D01*
X76180224Y-122844091D01*
X76173267Y-122841798D01*
X76148155Y-122823228D01*
X75824440Y-122583839D01*
X75669959Y-122547222D01*
X75515479Y-122510606D01*
X75176411Y-122484177D01*
X75174220Y-122483794D01*
X74737487Y-122363805D01*
X74730418Y-122358309D01*
X74729305Y-122349423D01*
X74729773Y-122348057D01*
X75047438Y-121578782D01*
X75053759Y-121572447D01*
X75823058Y-121254772D01*
X75832013Y-121254781D01*
G37*
G04 #@! TD.AperFunction*
G04 #@! TA.AperFunction,Conductor*
G36*
X75832013Y-116174781D02*
G01*
X75838338Y-116181120D01*
X75838806Y-116182486D01*
X75958795Y-116619219D01*
X75959178Y-116621410D01*
X75985607Y-116960477D01*
X76058840Y-117269439D01*
X76178024Y-117430606D01*
X76316799Y-117618266D01*
X76318963Y-117626956D01*
X76315665Y-117633496D01*
X76188497Y-117760664D01*
X76180224Y-117764091D01*
X76173267Y-117761798D01*
X76148155Y-117743228D01*
X75824440Y-117503839D01*
X75669959Y-117467222D01*
X75515479Y-117430606D01*
X75176411Y-117404177D01*
X75174220Y-117403794D01*
X74737487Y-117283805D01*
X74730418Y-117278309D01*
X74729305Y-117269423D01*
X74729773Y-117268057D01*
X75047438Y-116498782D01*
X75053759Y-116492447D01*
X75823058Y-116174772D01*
X75832013Y-116174781D01*
G37*
G04 #@! TD.AperFunction*
G04 #@! TA.AperFunction,Conductor*
G36*
X134919653Y-74096888D02*
G01*
X134920312Y-74097610D01*
X135027139Y-74224834D01*
X135028400Y-74226665D01*
X135088908Y-74335354D01*
X135149957Y-74445017D01*
X135149959Y-74445019D01*
X135149960Y-74445021D01*
X135258788Y-74574628D01*
X135261484Y-74583168D01*
X135258101Y-74590425D01*
X134990425Y-74858101D01*
X134982152Y-74861528D01*
X134974628Y-74858788D01*
X134845021Y-74749960D01*
X134845019Y-74749959D01*
X134845017Y-74749957D01*
X134735354Y-74688908D01*
X134626665Y-74628400D01*
X134624836Y-74627141D01*
X134497610Y-74520312D01*
X134493478Y-74512368D01*
X134496174Y-74503828D01*
X134496821Y-74503118D01*
X134699293Y-74299293D01*
X134903107Y-74096832D01*
X134911391Y-74093434D01*
X134919653Y-74096888D01*
G37*
G04 #@! TD.AperFunction*
G04 #@! TA.AperFunction,Conductor*
G36*
X128287662Y-73976103D02*
G01*
X128453183Y-73990528D01*
X128455353Y-73990928D01*
X128575000Y-74025000D01*
X128695711Y-74059375D01*
X128864318Y-74074069D01*
X128872260Y-74078200D01*
X128875000Y-74085724D01*
X128875000Y-74464275D01*
X128871573Y-74472548D01*
X128864316Y-74475931D01*
X128799653Y-74481566D01*
X128695711Y-74490625D01*
X128575000Y-74525000D01*
X128455362Y-74559069D01*
X128453174Y-74559472D01*
X128287673Y-74573895D01*
X128279133Y-74571199D01*
X128275001Y-74563255D01*
X128274957Y-74562292D01*
X128274000Y-74275000D01*
X128274957Y-73987719D01*
X128278411Y-73979459D01*
X128286696Y-73976060D01*
X128287662Y-73976103D01*
G37*
G04 #@! TD.AperFunction*
G04 #@! TA.AperFunction,Conductor*
G36*
X134696051Y-74003695D02*
G01*
X134700016Y-74011724D01*
X134700041Y-74012457D01*
X134700992Y-74297632D01*
X134700088Y-74302182D01*
X134589668Y-74566457D01*
X134583316Y-74572769D01*
X134574450Y-74572778D01*
X134449000Y-74521568D01*
X134448997Y-74521567D01*
X134448992Y-74521565D01*
X134352095Y-74490854D01*
X134352088Y-74490852D01*
X134251671Y-74477751D01*
X134251680Y-74477751D01*
X134116454Y-74475215D01*
X134108246Y-74471634D01*
X134104973Y-74463517D01*
X134104973Y-74085952D01*
X134108400Y-74077679D01*
X134115899Y-74074277D01*
X134282283Y-74063281D01*
X134402486Y-74037500D01*
X134521868Y-74011893D01*
X134523522Y-74011662D01*
X134687570Y-74000821D01*
X134696051Y-74003695D01*
G37*
G04 #@! TD.AperFunction*
G04 #@! TA.AperFunction,Conductor*
G36*
X135447548Y-79853427D02*
G01*
X135450931Y-79860684D01*
X135465625Y-80029288D01*
X135465626Y-80029290D01*
X135500000Y-80150000D01*
X135534069Y-80269636D01*
X135534472Y-80271824D01*
X135548895Y-80437326D01*
X135546199Y-80445866D01*
X135538255Y-80449998D01*
X135537278Y-80450042D01*
X135250039Y-80450999D01*
X135249961Y-80450999D01*
X134962721Y-80450042D01*
X134954459Y-80446588D01*
X134951060Y-80438303D01*
X134951103Y-80437338D01*
X134965528Y-80271813D01*
X134965927Y-80269649D01*
X135000000Y-80150000D01*
X135034375Y-80029288D01*
X135049069Y-79860684D01*
X135053201Y-79852740D01*
X135060725Y-79850000D01*
X135439275Y-79850000D01*
X135447548Y-79853427D01*
G37*
G04 #@! TD.AperFunction*
G04 #@! TA.AperFunction,Conductor*
G36*
X121837662Y-73976103D02*
G01*
X122003183Y-73990528D01*
X122005353Y-73990928D01*
X122125000Y-74025000D01*
X122245711Y-74059375D01*
X122414318Y-74074069D01*
X122422260Y-74078200D01*
X122425000Y-74085724D01*
X122425000Y-74464275D01*
X122421573Y-74472548D01*
X122414316Y-74475931D01*
X122349653Y-74481566D01*
X122245711Y-74490625D01*
X122125000Y-74525000D01*
X122005362Y-74559069D01*
X122003174Y-74559472D01*
X121837673Y-74573895D01*
X121829133Y-74571199D01*
X121825001Y-74563255D01*
X121824957Y-74562292D01*
X121824000Y-74275000D01*
X121824957Y-73987719D01*
X121828411Y-73979459D01*
X121836696Y-73976060D01*
X121837662Y-73976103D01*
G37*
G04 #@! TD.AperFunction*
G04 #@! TA.AperFunction,Conductor*
G36*
X128270866Y-73978800D02*
G01*
X128274998Y-73986744D01*
X128275042Y-73987721D01*
X128276000Y-74275000D01*
X128276000Y-74275078D01*
X128275042Y-74562278D01*
X128271588Y-74570540D01*
X128263303Y-74573939D01*
X128262326Y-74573895D01*
X128096824Y-74559472D01*
X128094636Y-74559069D01*
X127975000Y-74525000D01*
X127854288Y-74490625D01*
X127736760Y-74480382D01*
X127685684Y-74475931D01*
X127677740Y-74471799D01*
X127675000Y-74464275D01*
X127675000Y-74085724D01*
X127678427Y-74077451D01*
X127685681Y-74074069D01*
X127854288Y-74059375D01*
X127975000Y-74025000D01*
X128094649Y-73990927D01*
X128096813Y-73990528D01*
X128262327Y-73976104D01*
X128270866Y-73978800D01*
G37*
G04 #@! TD.AperFunction*
G04 #@! TA.AperFunction,Conductor*
G36*
X125215655Y-75809996D02*
G01*
X125221967Y-75816348D01*
X125221940Y-75825303D01*
X125221630Y-75825983D01*
X125157977Y-75954571D01*
X125157560Y-75955339D01*
X125101519Y-76050029D01*
X125101516Y-76050036D01*
X125063783Y-76148784D01*
X125050970Y-76289362D01*
X125046806Y-76297290D01*
X125039318Y-76300000D01*
X124860682Y-76300000D01*
X124852409Y-76296573D01*
X124849030Y-76289362D01*
X124836216Y-76148786D01*
X124798480Y-76050030D01*
X124742435Y-75955334D01*
X124742018Y-75954565D01*
X124678369Y-75825982D01*
X124677770Y-75817048D01*
X124683665Y-75810306D01*
X124684325Y-75810004D01*
X124945490Y-75700883D01*
X124954444Y-75700857D01*
X125215655Y-75809996D01*
G37*
G04 #@! TD.AperFunction*
G04 #@! TA.AperFunction,Conductor*
G36*
X127908455Y-75786097D02*
G01*
X127965424Y-75809900D01*
X127971736Y-75816252D01*
X127971709Y-75825207D01*
X127971293Y-75826094D01*
X127904689Y-75954176D01*
X127903997Y-75955337D01*
X127841269Y-76047986D01*
X127796813Y-76144916D01*
X127796811Y-76144922D01*
X127781158Y-76285616D01*
X127776838Y-76293459D01*
X127769530Y-76296022D01*
X127590874Y-76296022D01*
X127582601Y-76292595D01*
X127579205Y-76285178D01*
X127575363Y-76232813D01*
X127569064Y-76146933D01*
X127537741Y-76048188D01*
X127488347Y-75953231D01*
X127488160Y-75952853D01*
X127428077Y-75825881D01*
X127427636Y-75816937D01*
X127433649Y-75810301D01*
X127434142Y-75810081D01*
X127434575Y-75809900D01*
X127695490Y-75700883D01*
X127704444Y-75700857D01*
X127908455Y-75786097D01*
G37*
G04 #@! TD.AperFunction*
G04 #@! TA.AperFunction,Conductor*
G36*
X133065190Y-75809802D02*
G01*
X133071502Y-75816154D01*
X133071475Y-75825109D01*
X133070952Y-75826198D01*
X133001341Y-75953889D01*
X133000354Y-75955407D01*
X132930959Y-76045939D01*
X132879823Y-76140934D01*
X132879823Y-76140935D01*
X132861335Y-76281866D01*
X132856861Y-76289623D01*
X132849734Y-76292044D01*
X132671075Y-76292044D01*
X132662802Y-76288617D01*
X132659393Y-76280985D01*
X132651930Y-76144998D01*
X132651929Y-76144991D01*
X132651929Y-76144988D01*
X132627047Y-76046337D01*
X132584351Y-75951228D01*
X132584347Y-75951219D01*
X132584347Y-75951218D01*
X132527781Y-75825772D01*
X132527504Y-75816822D01*
X132533638Y-75810297D01*
X132533936Y-75810167D01*
X132534810Y-75809802D01*
X132795490Y-75700883D01*
X132804444Y-75700857D01*
X133065190Y-75809802D01*
G37*
G04 #@! TD.AperFunction*
G04 #@! TA.AperFunction,Conductor*
G36*
X76224832Y-91174856D02*
G01*
X76231144Y-91181208D01*
X76231321Y-91181665D01*
X76278957Y-91313098D01*
X76279066Y-91313414D01*
X76312427Y-91414363D01*
X76361171Y-91505245D01*
X76451699Y-91609197D01*
X76451821Y-91609336D01*
X76454670Y-91617826D01*
X76451271Y-91625293D01*
X76324941Y-91751623D01*
X76316668Y-91755050D01*
X76309404Y-91752522D01*
X76198336Y-91664548D01*
X76097558Y-91628886D01*
X75986913Y-91609197D01*
X75985492Y-91608851D01*
X75847402Y-91565956D01*
X75840518Y-91560230D01*
X75839700Y-91551312D01*
X75840046Y-91550349D01*
X75947436Y-91288814D01*
X75953746Y-91282464D01*
X76215878Y-91174829D01*
X76224832Y-91174856D01*
G37*
G04 #@! TD.AperFunction*
G04 #@! TA.AperFunction,Conductor*
G36*
X83389693Y-95883664D02*
G01*
X83390003Y-95884343D01*
X83499115Y-96145489D01*
X83499142Y-96154444D01*
X83499115Y-96154511D01*
X83390003Y-96415655D01*
X83383651Y-96421967D01*
X83374696Y-96421940D01*
X83374017Y-96421630D01*
X83245433Y-96357980D01*
X83244664Y-96357563D01*
X83149969Y-96301519D01*
X83149962Y-96301516D01*
X83051214Y-96263783D01*
X82910638Y-96250969D01*
X82902710Y-96246805D01*
X82900000Y-96239317D01*
X82900000Y-96060682D01*
X82903427Y-96052409D01*
X82910637Y-96049030D01*
X83051213Y-96036216D01*
X83149969Y-95998480D01*
X83244674Y-95942429D01*
X83245423Y-95942023D01*
X83374019Y-95878367D01*
X83382951Y-95877769D01*
X83389693Y-95883664D01*
G37*
G04 #@! TD.AperFunction*
G04 #@! TA.AperFunction,Conductor*
G36*
X103564693Y-92708664D02*
G01*
X103565003Y-92709343D01*
X103674115Y-92970489D01*
X103674142Y-92979444D01*
X103674115Y-92979511D01*
X103565003Y-93240655D01*
X103558651Y-93246967D01*
X103549696Y-93246940D01*
X103549017Y-93246630D01*
X103420433Y-93182980D01*
X103419664Y-93182563D01*
X103324969Y-93126519D01*
X103324962Y-93126516D01*
X103226214Y-93088783D01*
X103085638Y-93075969D01*
X103077710Y-93071805D01*
X103075000Y-93064317D01*
X103075000Y-92885682D01*
X103078427Y-92877409D01*
X103085637Y-92874030D01*
X103226213Y-92861216D01*
X103324969Y-92823480D01*
X103419674Y-92767429D01*
X103420423Y-92767023D01*
X103549019Y-92703367D01*
X103557951Y-92702769D01*
X103564693Y-92708664D01*
G37*
G04 #@! TD.AperFunction*
G04 #@! TA.AperFunction,Conductor*
G36*
X70525303Y-131728059D02*
G01*
X70525982Y-131728369D01*
X70654565Y-131792018D01*
X70655335Y-131792435D01*
X70750030Y-131848480D01*
X70848786Y-131886216D01*
X70989362Y-131899030D01*
X70997290Y-131903194D01*
X71000000Y-131910682D01*
X71000000Y-132089317D01*
X70996573Y-132097590D01*
X70989362Y-132100969D01*
X70848784Y-132113783D01*
X70750036Y-132151516D01*
X70750029Y-132151519D01*
X70655339Y-132207560D01*
X70654571Y-132207977D01*
X70525983Y-132271630D01*
X70517048Y-132272229D01*
X70510306Y-132266335D01*
X70509996Y-132265655D01*
X70485723Y-132207560D01*
X70400883Y-132004509D01*
X70400857Y-131995556D01*
X70400862Y-131995542D01*
X70509997Y-131734342D01*
X70516348Y-131728032D01*
X70525303Y-131728059D01*
G37*
G04 #@! TD.AperFunction*
G04 #@! TA.AperFunction,Conductor*
G36*
X60224581Y-64839959D02*
G01*
X60230893Y-64846311D01*
X60231155Y-64847011D01*
X60277073Y-64982948D01*
X60277321Y-64983786D01*
X60304647Y-65090368D01*
X60304649Y-65090371D01*
X60347796Y-65186882D01*
X60347797Y-65186883D01*
X60438137Y-65295345D01*
X60440799Y-65303895D01*
X60437420Y-65311106D01*
X60311106Y-65437420D01*
X60302833Y-65440847D01*
X60295345Y-65438137D01*
X60186883Y-65347797D01*
X60186882Y-65347796D01*
X60132144Y-65323324D01*
X60090371Y-65304649D01*
X60090368Y-65304647D01*
X59983786Y-65277321D01*
X59982948Y-65277073D01*
X59847011Y-65231155D01*
X59840269Y-65225260D01*
X59839670Y-65216326D01*
X59839925Y-65215644D01*
X59947436Y-64953814D01*
X59953746Y-64947464D01*
X60215627Y-64839932D01*
X60224581Y-64839959D01*
G37*
G04 #@! TD.AperFunction*
G04 #@! TA.AperFunction,Conductor*
G36*
X104629654Y-92486862D02*
G01*
X104738116Y-92577202D01*
X104820188Y-92613893D01*
X104834627Y-92620348D01*
X104834630Y-92620350D01*
X104838909Y-92621447D01*
X104941224Y-92647680D01*
X104942038Y-92647921D01*
X105077988Y-92693844D01*
X105084730Y-92699739D01*
X105085329Y-92708673D01*
X105085067Y-92709373D01*
X104977563Y-92971184D01*
X104971251Y-92977536D01*
X104971184Y-92977563D01*
X104709373Y-93085067D01*
X104700418Y-93085040D01*
X104694106Y-93078688D01*
X104693844Y-93077988D01*
X104647921Y-92942038D01*
X104647677Y-92941212D01*
X104620350Y-92834630D01*
X104620348Y-92834627D01*
X104577202Y-92738116D01*
X104486862Y-92629654D01*
X104484200Y-92621104D01*
X104487578Y-92613894D01*
X104613894Y-92487578D01*
X104622166Y-92484152D01*
X104629654Y-92486862D01*
G37*
G04 #@! TD.AperFunction*
G04 #@! TA.AperFunction,Conductor*
G36*
X94347544Y-87833382D02*
G01*
X94756617Y-88242455D01*
X94760044Y-88250728D01*
X94757293Y-88258265D01*
X94487721Y-88578302D01*
X94361074Y-88848409D01*
X94361073Y-88848413D01*
X94278863Y-89147786D01*
X94278645Y-89148493D01*
X94139340Y-89553528D01*
X94133409Y-89560237D01*
X94124471Y-89560787D01*
X94123810Y-89560537D01*
X93353785Y-89242562D01*
X93347447Y-89236238D01*
X93029462Y-88466187D01*
X93029471Y-88457234D01*
X93035810Y-88450909D01*
X93036441Y-88450670D01*
X93441523Y-88311346D01*
X93442194Y-88311139D01*
X93741588Y-88228925D01*
X94011699Y-88102275D01*
X94331735Y-87832705D01*
X94340269Y-87829998D01*
X94347544Y-87833382D01*
G37*
G04 #@! TD.AperFunction*
G04 #@! TA.AperFunction,Conductor*
G36*
X138960040Y-63860348D02*
G01*
X139776214Y-64197437D01*
X139782553Y-64203763D01*
X139782562Y-64203785D01*
X140119644Y-65019940D01*
X140119635Y-65028894D01*
X140113296Y-65035220D01*
X140112574Y-65035491D01*
X139680337Y-65181495D01*
X139679499Y-65181743D01*
X139358893Y-65263946D01*
X139358890Y-65263948D01*
X139069349Y-65393391D01*
X139069347Y-65393392D01*
X138727547Y-65678087D01*
X138718997Y-65680749D01*
X138711786Y-65677370D01*
X138302629Y-65268213D01*
X138299202Y-65259940D01*
X138301911Y-65252453D01*
X138586607Y-64910649D01*
X138674569Y-64713892D01*
X138716050Y-64621110D01*
X138716051Y-64621106D01*
X138716052Y-64621104D01*
X138798260Y-64300480D01*
X138798497Y-64299680D01*
X138944508Y-63867423D01*
X138950403Y-63860683D01*
X138959337Y-63860084D01*
X138960040Y-63860348D01*
G37*
G04 #@! TD.AperFunction*
G04 #@! TA.AperFunction,Conductor*
G36*
X142808230Y-103260639D02*
G01*
X142814556Y-103266978D01*
X142815018Y-103268322D01*
X142942686Y-103729493D01*
X142943069Y-103731639D01*
X142972943Y-104088685D01*
X142972946Y-104088702D01*
X143052188Y-104413907D01*
X143052189Y-104413909D01*
X143052190Y-104413910D01*
X143230284Y-104653761D01*
X143325493Y-104781984D01*
X143327673Y-104790669D01*
X143324372Y-104797232D01*
X143197175Y-104924429D01*
X143188902Y-104927856D01*
X143182002Y-104925605D01*
X142809715Y-104653761D01*
X142809714Y-104653760D01*
X142550799Y-104597677D01*
X142479210Y-104582171D01*
X142116699Y-104560318D01*
X142114371Y-104559939D01*
X141648452Y-104434944D01*
X141641350Y-104429491D01*
X141640184Y-104420612D01*
X141640666Y-104419189D01*
X141977438Y-103603783D01*
X141983761Y-103597447D01*
X142799276Y-103260630D01*
X142808230Y-103260639D01*
G37*
G04 #@! TD.AperFunction*
G04 #@! TA.AperFunction,Conductor*
G36*
X105240655Y-84884996D02*
G01*
X105246967Y-84891348D01*
X105246940Y-84900303D01*
X105246630Y-84900983D01*
X105182977Y-85029571D01*
X105182560Y-85030339D01*
X105126519Y-85125029D01*
X105126516Y-85125036D01*
X105088783Y-85223784D01*
X105075970Y-85364362D01*
X105071806Y-85372290D01*
X105064318Y-85375000D01*
X104885682Y-85375000D01*
X104877409Y-85371573D01*
X104874030Y-85364362D01*
X104861216Y-85223786D01*
X104823480Y-85125030D01*
X104767435Y-85030334D01*
X104767018Y-85029565D01*
X104703369Y-84900982D01*
X104702770Y-84892048D01*
X104708665Y-84885306D01*
X104709325Y-84885004D01*
X104970490Y-84775883D01*
X104979444Y-84775857D01*
X105240655Y-84884996D01*
G37*
G04 #@! TD.AperFunction*
G04 #@! TA.AperFunction,Conductor*
G36*
X102761106Y-89562579D02*
G01*
X102887420Y-89688893D01*
X102890847Y-89697166D01*
X102888137Y-89704654D01*
X102797797Y-89813114D01*
X102797796Y-89813116D01*
X102754649Y-89909627D01*
X102754647Y-89909630D01*
X102727321Y-90016212D01*
X102727073Y-90017050D01*
X102681155Y-90152988D01*
X102675260Y-90159730D01*
X102666326Y-90160329D01*
X102665626Y-90160067D01*
X102403815Y-90052563D01*
X102397463Y-90046251D01*
X102397436Y-90046184D01*
X102341363Y-89909627D01*
X102289932Y-89784372D01*
X102289959Y-89775418D01*
X102296311Y-89769106D01*
X102296994Y-89768850D01*
X102432967Y-89722919D01*
X102433767Y-89722682D01*
X102540368Y-89695350D01*
X102540370Y-89695348D01*
X102540374Y-89695348D01*
X102571299Y-89681521D01*
X102636882Y-89652202D01*
X102745345Y-89561861D01*
X102753895Y-89559200D01*
X102761106Y-89562579D01*
G37*
G04 #@! TD.AperFunction*
G04 #@! TA.AperFunction,Conductor*
G36*
X141986237Y-117429835D02*
G01*
X142608489Y-118053472D01*
X142611907Y-118061749D01*
X142608829Y-118069645D01*
X142333041Y-118370315D01*
X142159344Y-118600261D01*
X141985979Y-118829763D01*
X141985265Y-118830620D01*
X141710549Y-119130125D01*
X141702432Y-119133905D01*
X141694018Y-119130838D01*
X141693654Y-119130489D01*
X141567054Y-119003889D01*
X141563627Y-118995616D01*
X141565048Y-118990027D01*
X141724558Y-118696697D01*
X141619440Y-118436223D01*
X141564864Y-118370315D01*
X141382473Y-118150053D01*
X141381515Y-118148715D01*
X141155683Y-117781094D01*
X141154272Y-117772251D01*
X141159528Y-117765001D01*
X141161160Y-117764167D01*
X141973475Y-117427291D01*
X141982428Y-117427288D01*
X141986237Y-117429835D01*
G37*
G04 #@! TD.AperFunction*
G04 #@! TA.AperFunction,Conductor*
G36*
X135615655Y-88859996D02*
G01*
X135621967Y-88866348D01*
X135621940Y-88875303D01*
X135621630Y-88875983D01*
X135557977Y-89004571D01*
X135557560Y-89005339D01*
X135501519Y-89100029D01*
X135501516Y-89100036D01*
X135463783Y-89198784D01*
X135450970Y-89339362D01*
X135446806Y-89347290D01*
X135439318Y-89350000D01*
X135260682Y-89350000D01*
X135252409Y-89346573D01*
X135249030Y-89339362D01*
X135236216Y-89198786D01*
X135198480Y-89100030D01*
X135142435Y-89005334D01*
X135142018Y-89004565D01*
X135078369Y-88875982D01*
X135077770Y-88867048D01*
X135083665Y-88860306D01*
X135084325Y-88860004D01*
X135345490Y-88750883D01*
X135354444Y-88750857D01*
X135615655Y-88859996D01*
G37*
G04 #@! TD.AperFunction*
G04 #@! TA.AperFunction,Conductor*
G36*
X142808230Y-110160639D02*
G01*
X142814556Y-110166978D01*
X142815018Y-110168322D01*
X142942686Y-110629493D01*
X142943069Y-110631639D01*
X142972943Y-110988685D01*
X142972946Y-110988702D01*
X143052188Y-111313907D01*
X143052189Y-111313909D01*
X143052190Y-111313910D01*
X143230284Y-111553761D01*
X143325493Y-111681984D01*
X143327673Y-111690669D01*
X143324372Y-111697232D01*
X143197175Y-111824429D01*
X143188902Y-111827856D01*
X143182002Y-111825605D01*
X142809715Y-111553761D01*
X142809714Y-111553760D01*
X142550799Y-111497677D01*
X142479210Y-111482171D01*
X142116699Y-111460318D01*
X142114371Y-111459939D01*
X141648452Y-111334944D01*
X141641350Y-111329491D01*
X141640184Y-111320612D01*
X141640666Y-111319189D01*
X141977438Y-110503783D01*
X141983761Y-110497447D01*
X142799276Y-110160630D01*
X142808230Y-110160639D01*
G37*
G04 #@! TD.AperFunction*
G04 #@! TA.AperFunction,Conductor*
G36*
X138584365Y-88639929D02*
G01*
X138729990Y-88699725D01*
X138846184Y-88747436D01*
X138852536Y-88753748D01*
X138852563Y-88753815D01*
X138960067Y-89015626D01*
X138960040Y-89024581D01*
X138953688Y-89030893D01*
X138952988Y-89031155D01*
X138817050Y-89077073D01*
X138816212Y-89077321D01*
X138709630Y-89104647D01*
X138709627Y-89104649D01*
X138613116Y-89147796D01*
X138613114Y-89147797D01*
X138504654Y-89238137D01*
X138496104Y-89240799D01*
X138488893Y-89237420D01*
X138362579Y-89111106D01*
X138359152Y-89102833D01*
X138361862Y-89095345D01*
X138452202Y-88986882D01*
X138481521Y-88921299D01*
X138495348Y-88890374D01*
X138495349Y-88890370D01*
X138495350Y-88890368D01*
X138522682Y-88783767D01*
X138522919Y-88782967D01*
X138568845Y-88647009D01*
X138574739Y-88640269D01*
X138583673Y-88639670D01*
X138584365Y-88639929D01*
G37*
G04 #@! TD.AperFunction*
G04 #@! TA.AperFunction,Conductor*
G36*
X142084365Y-88639929D02*
G01*
X142229990Y-88699725D01*
X142346184Y-88747436D01*
X142352536Y-88753748D01*
X142352563Y-88753815D01*
X142460067Y-89015626D01*
X142460040Y-89024581D01*
X142453688Y-89030893D01*
X142452988Y-89031155D01*
X142317050Y-89077073D01*
X142316212Y-89077321D01*
X142209630Y-89104647D01*
X142209627Y-89104649D01*
X142113116Y-89147796D01*
X142113114Y-89147797D01*
X142004654Y-89238137D01*
X141996104Y-89240799D01*
X141988893Y-89237420D01*
X141862579Y-89111106D01*
X141859152Y-89102833D01*
X141861862Y-89095345D01*
X141952202Y-88986882D01*
X141981521Y-88921299D01*
X141995348Y-88890374D01*
X141995349Y-88890370D01*
X141995350Y-88890368D01*
X142022682Y-88783767D01*
X142022919Y-88782967D01*
X142068845Y-88647009D01*
X142074739Y-88640269D01*
X142083673Y-88639670D01*
X142084365Y-88639929D01*
G37*
G04 #@! TD.AperFunction*
G04 #@! TA.AperFunction,Conductor*
G36*
X141983417Y-124327423D02*
G01*
X141983426Y-124327432D01*
X142295541Y-124640037D01*
X142605964Y-124950948D01*
X142609384Y-124959224D01*
X142605951Y-124967495D01*
X142603840Y-124969164D01*
X142203735Y-125216726D01*
X142200522Y-125218101D01*
X141808994Y-125319853D01*
X141515362Y-125463303D01*
X141515361Y-125463303D01*
X141515361Y-125463304D01*
X141403404Y-125832121D01*
X141402520Y-125835034D01*
X141396837Y-125841955D01*
X141391324Y-125843335D01*
X141211224Y-125843335D01*
X141202951Y-125839908D01*
X141199534Y-125832121D01*
X141181250Y-125391914D01*
X141181249Y-125391906D01*
X141140000Y-125084167D01*
X141123544Y-124961396D01*
X141098819Y-124776938D01*
X141098728Y-124775908D01*
X141080505Y-124337170D01*
X141083586Y-124328763D01*
X141091709Y-124324996D01*
X141092158Y-124324986D01*
X141975140Y-124324005D01*
X141983417Y-124327423D01*
G37*
G04 #@! TD.AperFunction*
G04 #@! TA.AperFunction,Conductor*
G36*
X131504654Y-84761862D02*
G01*
X131613116Y-84852202D01*
X131695188Y-84888893D01*
X131709627Y-84895348D01*
X131709630Y-84895350D01*
X131713909Y-84896447D01*
X131816224Y-84922680D01*
X131817038Y-84922921D01*
X131952988Y-84968844D01*
X131959730Y-84974739D01*
X131960329Y-84983673D01*
X131960067Y-84984373D01*
X131852563Y-85246184D01*
X131846251Y-85252536D01*
X131846184Y-85252563D01*
X131584373Y-85360067D01*
X131575418Y-85360040D01*
X131569106Y-85353688D01*
X131568844Y-85352988D01*
X131522921Y-85217038D01*
X131522677Y-85216212D01*
X131495350Y-85109630D01*
X131495348Y-85109627D01*
X131452202Y-85013116D01*
X131361862Y-84904654D01*
X131359200Y-84896104D01*
X131362578Y-84888894D01*
X131488894Y-84762578D01*
X131497166Y-84759152D01*
X131504654Y-84761862D01*
G37*
G04 #@! TD.AperFunction*
G04 #@! TA.AperFunction,Conductor*
G36*
X120940655Y-87434996D02*
G01*
X120946967Y-87441348D01*
X120946940Y-87450303D01*
X120946630Y-87450983D01*
X120882977Y-87579571D01*
X120882560Y-87580339D01*
X120826519Y-87675029D01*
X120826516Y-87675036D01*
X120788783Y-87773784D01*
X120775970Y-87914362D01*
X120771806Y-87922290D01*
X120764318Y-87925000D01*
X120585682Y-87925000D01*
X120577409Y-87921573D01*
X120574030Y-87914362D01*
X120561216Y-87773786D01*
X120523480Y-87675030D01*
X120467435Y-87580334D01*
X120467018Y-87579565D01*
X120403369Y-87450982D01*
X120402770Y-87442048D01*
X120408665Y-87435306D01*
X120409325Y-87435004D01*
X120670490Y-87325883D01*
X120679444Y-87325857D01*
X120940655Y-87434996D01*
G37*
G04 #@! TD.AperFunction*
G04 #@! TA.AperFunction,Conductor*
G36*
X122890655Y-86834996D02*
G01*
X122896967Y-86841348D01*
X122896940Y-86850303D01*
X122896630Y-86850983D01*
X122832977Y-86979571D01*
X122832560Y-86980339D01*
X122776519Y-87075029D01*
X122776516Y-87075036D01*
X122738783Y-87173784D01*
X122725970Y-87314362D01*
X122721806Y-87322290D01*
X122714318Y-87325000D01*
X122535682Y-87325000D01*
X122527409Y-87321573D01*
X122524030Y-87314362D01*
X122511216Y-87173786D01*
X122473480Y-87075030D01*
X122417435Y-86980334D01*
X122417018Y-86979565D01*
X122353369Y-86850982D01*
X122352770Y-86842048D01*
X122358665Y-86835306D01*
X122359325Y-86835004D01*
X122620490Y-86725883D01*
X122629444Y-86725857D01*
X122890655Y-86834996D01*
G37*
G04 #@! TD.AperFunction*
G04 #@! TA.AperFunction,Conductor*
G36*
X122697591Y-79903427D02*
G01*
X122700970Y-79910638D01*
X122713783Y-80051214D01*
X122751516Y-80149962D01*
X122751519Y-80149969D01*
X122807563Y-80244664D01*
X122807980Y-80245433D01*
X122871630Y-80374017D01*
X122872229Y-80382951D01*
X122866334Y-80389693D01*
X122865655Y-80390003D01*
X122604511Y-80499115D01*
X122595556Y-80499142D01*
X122595489Y-80499115D01*
X122334343Y-80390003D01*
X122328031Y-80383651D01*
X122328058Y-80374696D01*
X122328354Y-80374046D01*
X122392023Y-80245423D01*
X122392429Y-80244674D01*
X122448480Y-80149969D01*
X122486216Y-80051213D01*
X122499030Y-79910637D01*
X122503194Y-79902710D01*
X122510682Y-79900000D01*
X122689318Y-79900000D01*
X122697591Y-79903427D01*
G37*
G04 #@! TD.AperFunction*
G04 #@! TA.AperFunction,Conductor*
G36*
X107622591Y-88203427D02*
G01*
X107625970Y-88210638D01*
X107638783Y-88351214D01*
X107676516Y-88449962D01*
X107676519Y-88449969D01*
X107732563Y-88544664D01*
X107732980Y-88545433D01*
X107796630Y-88674017D01*
X107797229Y-88682951D01*
X107791334Y-88689693D01*
X107790655Y-88690003D01*
X107529511Y-88799115D01*
X107520556Y-88799142D01*
X107520489Y-88799115D01*
X107259343Y-88690003D01*
X107253031Y-88683651D01*
X107253058Y-88674696D01*
X107253354Y-88674046D01*
X107317023Y-88545423D01*
X107317429Y-88544674D01*
X107373480Y-88449969D01*
X107411216Y-88351213D01*
X107424030Y-88210637D01*
X107428194Y-88202710D01*
X107435682Y-88200000D01*
X107614318Y-88200000D01*
X107622591Y-88203427D01*
G37*
G04 #@! TD.AperFunction*
G04 #@! TA.AperFunction,Conductor*
G36*
X105722591Y-89603427D02*
G01*
X105725970Y-89610638D01*
X105738783Y-89751214D01*
X105776516Y-89849962D01*
X105776519Y-89849969D01*
X105832563Y-89944664D01*
X105832980Y-89945433D01*
X105896630Y-90074017D01*
X105897229Y-90082951D01*
X105891334Y-90089693D01*
X105890655Y-90090003D01*
X105629511Y-90199115D01*
X105620556Y-90199142D01*
X105620489Y-90199115D01*
X105359343Y-90090003D01*
X105353031Y-90083651D01*
X105353058Y-90074696D01*
X105353354Y-90074046D01*
X105417023Y-89945423D01*
X105417429Y-89944674D01*
X105473480Y-89849969D01*
X105511216Y-89751213D01*
X105524030Y-89610637D01*
X105528194Y-89602710D01*
X105535682Y-89600000D01*
X105714318Y-89600000D01*
X105722591Y-89603427D01*
G37*
G04 #@! TD.AperFunction*
G04 #@! TA.AperFunction,Conductor*
G36*
X104422591Y-89603427D02*
G01*
X104425970Y-89610638D01*
X104438783Y-89751214D01*
X104476516Y-89849962D01*
X104476519Y-89849969D01*
X104532563Y-89944664D01*
X104532980Y-89945433D01*
X104596630Y-90074017D01*
X104597229Y-90082951D01*
X104591334Y-90089693D01*
X104590655Y-90090003D01*
X104329511Y-90199115D01*
X104320556Y-90199142D01*
X104320489Y-90199115D01*
X104059343Y-90090003D01*
X104053031Y-90083651D01*
X104053058Y-90074696D01*
X104053354Y-90074046D01*
X104117023Y-89945423D01*
X104117429Y-89944674D01*
X104173480Y-89849969D01*
X104211216Y-89751213D01*
X104224030Y-89610637D01*
X104228194Y-89602710D01*
X104235682Y-89600000D01*
X104414318Y-89600000D01*
X104422591Y-89603427D01*
G37*
G04 #@! TD.AperFunction*
G04 #@! TA.AperFunction,Conductor*
G36*
X107022591Y-89603427D02*
G01*
X107025970Y-89610638D01*
X107038783Y-89751214D01*
X107076516Y-89849962D01*
X107076519Y-89849969D01*
X107132563Y-89944664D01*
X107132980Y-89945433D01*
X107196630Y-90074017D01*
X107197229Y-90082951D01*
X107191334Y-90089693D01*
X107190655Y-90090003D01*
X106929511Y-90199115D01*
X106920556Y-90199142D01*
X106920489Y-90199115D01*
X106659343Y-90090003D01*
X106653031Y-90083651D01*
X106653058Y-90074696D01*
X106653354Y-90074046D01*
X106717023Y-89945423D01*
X106717429Y-89944674D01*
X106773480Y-89849969D01*
X106811216Y-89751213D01*
X106824030Y-89610637D01*
X106828194Y-89602710D01*
X106835682Y-89600000D01*
X107014318Y-89600000D01*
X107022591Y-89603427D01*
G37*
G04 #@! TD.AperFunction*
G04 #@! TA.AperFunction,Conductor*
G36*
X108822591Y-86903427D02*
G01*
X108825970Y-86910638D01*
X108838783Y-87051214D01*
X108876516Y-87149962D01*
X108876519Y-87149969D01*
X108932563Y-87244664D01*
X108932980Y-87245433D01*
X108996630Y-87374017D01*
X108997229Y-87382951D01*
X108991334Y-87389693D01*
X108990655Y-87390003D01*
X108729511Y-87499115D01*
X108720556Y-87499142D01*
X108720489Y-87499115D01*
X108459343Y-87390003D01*
X108453031Y-87383651D01*
X108453058Y-87374696D01*
X108453354Y-87374046D01*
X108517023Y-87245423D01*
X108517429Y-87244674D01*
X108573480Y-87149969D01*
X108611216Y-87051213D01*
X108624030Y-86910637D01*
X108628194Y-86902710D01*
X108635682Y-86900000D01*
X108814318Y-86900000D01*
X108822591Y-86903427D01*
G37*
G04 #@! TD.AperFunction*
G04 #@! TA.AperFunction,Conductor*
G36*
X105696776Y-100006045D02*
G01*
X105823954Y-100133223D01*
X105827381Y-100141496D01*
X105825093Y-100148446D01*
X105561045Y-100506021D01*
X105486724Y-100822699D01*
X105460340Y-101170216D01*
X105459958Y-101172422D01*
X105337276Y-101620154D01*
X105331785Y-101627227D01*
X105322900Y-101628346D01*
X105321526Y-101627876D01*
X104533785Y-101302562D01*
X104527447Y-101296238D01*
X104202123Y-100508472D01*
X104202132Y-100499518D01*
X104208471Y-100493193D01*
X104209842Y-100492723D01*
X104657583Y-100370038D01*
X104659774Y-100369659D01*
X105007304Y-100343274D01*
X105323977Y-100268954D01*
X105681554Y-100004905D01*
X105690244Y-100002748D01*
X105696776Y-100006045D01*
G37*
G04 #@! TD.AperFunction*
G04 #@! TA.AperFunction,Conductor*
G36*
X103156776Y-100006045D02*
G01*
X103283954Y-100133223D01*
X103287381Y-100141496D01*
X103285093Y-100148446D01*
X103021045Y-100506021D01*
X102946724Y-100822699D01*
X102920340Y-101170216D01*
X102919958Y-101172422D01*
X102797276Y-101620154D01*
X102791785Y-101627227D01*
X102782900Y-101628346D01*
X102781526Y-101627876D01*
X101993785Y-101302562D01*
X101987447Y-101296238D01*
X101662123Y-100508472D01*
X101662132Y-100499518D01*
X101668471Y-100493193D01*
X101669842Y-100492723D01*
X102117583Y-100370038D01*
X102119774Y-100369659D01*
X102467304Y-100343274D01*
X102783977Y-100268954D01*
X103141554Y-100004905D01*
X103150244Y-100002748D01*
X103156776Y-100006045D01*
G37*
G04 #@! TD.AperFunction*
G04 #@! TA.AperFunction,Conductor*
G36*
X108222591Y-87553427D02*
G01*
X108225970Y-87560638D01*
X108238783Y-87701214D01*
X108276516Y-87799962D01*
X108276519Y-87799969D01*
X108332563Y-87894664D01*
X108332980Y-87895433D01*
X108396630Y-88024017D01*
X108397229Y-88032951D01*
X108391334Y-88039693D01*
X108390655Y-88040003D01*
X108129511Y-88149115D01*
X108120556Y-88149142D01*
X108120489Y-88149115D01*
X107859343Y-88040003D01*
X107853031Y-88033651D01*
X107853058Y-88024696D01*
X107853354Y-88024046D01*
X107917023Y-87895423D01*
X107917429Y-87894674D01*
X107973480Y-87799969D01*
X108011216Y-87701213D01*
X108024030Y-87560637D01*
X108028194Y-87552710D01*
X108035682Y-87550000D01*
X108214318Y-87550000D01*
X108222591Y-87553427D01*
G37*
G04 #@! TD.AperFunction*
G04 #@! TA.AperFunction,Conductor*
G36*
X127681941Y-108569772D02*
G01*
X128451215Y-108887437D01*
X128457552Y-108893760D01*
X128457562Y-108893784D01*
X128775226Y-109663057D01*
X128775217Y-109672012D01*
X128768878Y-109678337D01*
X128767512Y-109678805D01*
X128330778Y-109798794D01*
X128328587Y-109799177D01*
X127989519Y-109825606D01*
X127680559Y-109898839D01*
X127331732Y-110156798D01*
X127323042Y-110158962D01*
X127316502Y-110155664D01*
X127189334Y-110028496D01*
X127185907Y-110020223D01*
X127188199Y-110013268D01*
X127446158Y-109664439D01*
X127519392Y-109355477D01*
X127545820Y-109016406D01*
X127546203Y-109014219D01*
X127579292Y-108893784D01*
X127666194Y-108577483D01*
X127671689Y-108570417D01*
X127680575Y-108569304D01*
X127681941Y-108569772D01*
G37*
G04 #@! TD.AperFunction*
G04 #@! TA.AperFunction,Conductor*
G36*
X111581941Y-108569772D02*
G01*
X112351215Y-108887437D01*
X112357552Y-108893760D01*
X112357562Y-108893784D01*
X112675226Y-109663057D01*
X112675217Y-109672012D01*
X112668878Y-109678337D01*
X112667512Y-109678805D01*
X112230778Y-109798794D01*
X112228587Y-109799177D01*
X111889519Y-109825606D01*
X111580559Y-109898839D01*
X111231732Y-110156798D01*
X111223042Y-110158962D01*
X111216502Y-110155664D01*
X111089334Y-110028496D01*
X111085907Y-110020223D01*
X111088199Y-110013268D01*
X111346158Y-109664439D01*
X111419392Y-109355477D01*
X111445820Y-109016406D01*
X111446203Y-109014219D01*
X111479292Y-108893784D01*
X111566194Y-108577483D01*
X111571689Y-108570417D01*
X111580575Y-108569304D01*
X111581941Y-108569772D01*
G37*
G04 #@! TD.AperFunction*
G04 #@! TA.AperFunction,Conductor*
G36*
X95481941Y-108569772D02*
G01*
X96251215Y-108887437D01*
X96257552Y-108893760D01*
X96257562Y-108893784D01*
X96575226Y-109663057D01*
X96575217Y-109672012D01*
X96568878Y-109678337D01*
X96567512Y-109678805D01*
X96130778Y-109798794D01*
X96128587Y-109799177D01*
X95789519Y-109825606D01*
X95480559Y-109898839D01*
X95131732Y-110156798D01*
X95123042Y-110158962D01*
X95116502Y-110155664D01*
X94989334Y-110028496D01*
X94985907Y-110020223D01*
X94988199Y-110013268D01*
X95246158Y-109664439D01*
X95319392Y-109355477D01*
X95345820Y-109016406D01*
X95346203Y-109014219D01*
X95379292Y-108893784D01*
X95466194Y-108577483D01*
X95471689Y-108570417D01*
X95480575Y-108569304D01*
X95481941Y-108569772D01*
G37*
G04 #@! TD.AperFunction*
G04 #@! TA.AperFunction,Conductor*
G36*
X79356941Y-108554772D02*
G01*
X80126215Y-108872437D01*
X80132552Y-108878760D01*
X80132562Y-108878784D01*
X80450226Y-109648057D01*
X80450217Y-109657012D01*
X80443878Y-109663337D01*
X80442512Y-109663805D01*
X80005778Y-109783794D01*
X80003587Y-109784177D01*
X79664519Y-109810606D01*
X79355559Y-109883839D01*
X79006732Y-110141798D01*
X78998042Y-110143962D01*
X78991502Y-110140664D01*
X78864334Y-110013496D01*
X78860907Y-110005223D01*
X78863199Y-109998268D01*
X79121158Y-109649439D01*
X79194392Y-109340477D01*
X79220820Y-109001406D01*
X79221203Y-108999219D01*
X79254292Y-108878784D01*
X79341194Y-108562483D01*
X79346689Y-108555417D01*
X79355575Y-108554304D01*
X79356941Y-108554772D01*
G37*
G04 #@! TD.AperFunction*
G04 #@! TA.AperFunction,Conductor*
G36*
X109100207Y-119118289D02*
G01*
X109101087Y-119118701D01*
X109229182Y-119185312D01*
X109230330Y-119185996D01*
X109322991Y-119248731D01*
X109419917Y-119293185D01*
X109419920Y-119293185D01*
X109419922Y-119293186D01*
X109560616Y-119308842D01*
X109568459Y-119313163D01*
X109571022Y-119320470D01*
X109571022Y-119499126D01*
X109567595Y-119507399D01*
X109560178Y-119510795D01*
X109421929Y-119520935D01*
X109323190Y-119552255D01*
X109228258Y-119601635D01*
X109227864Y-119601831D01*
X109100881Y-119661921D01*
X109091937Y-119662362D01*
X109085300Y-119656350D01*
X109085091Y-119655881D01*
X108975883Y-119394508D01*
X108975857Y-119385555D01*
X108975862Y-119385541D01*
X109084900Y-119124573D01*
X109091252Y-119118262D01*
X109100207Y-119118289D01*
G37*
G04 #@! TD.AperFunction*
G04 #@! TA.AperFunction,Conductor*
G36*
X109100303Y-121718058D02*
G01*
X109100982Y-121718368D01*
X109229565Y-121782017D01*
X109230335Y-121782434D01*
X109325030Y-121838479D01*
X109423786Y-121876215D01*
X109564362Y-121889029D01*
X109572290Y-121893193D01*
X109575000Y-121900681D01*
X109575000Y-122079316D01*
X109571573Y-122087589D01*
X109564362Y-122090968D01*
X109423784Y-122103782D01*
X109325036Y-122141515D01*
X109325029Y-122141518D01*
X109230339Y-122197559D01*
X109229571Y-122197976D01*
X109100983Y-122261629D01*
X109092048Y-122262228D01*
X109085306Y-122256334D01*
X109084996Y-122255654D01*
X109060723Y-122197559D01*
X108975883Y-121994508D01*
X108975857Y-121985555D01*
X108975862Y-121985541D01*
X109084997Y-121724341D01*
X109091348Y-121718031D01*
X109100303Y-121718058D01*
G37*
G04 #@! TD.AperFunction*
G04 #@! TA.AperFunction,Conductor*
G36*
X93000207Y-119118289D02*
G01*
X93001087Y-119118701D01*
X93129182Y-119185312D01*
X93130330Y-119185996D01*
X93222991Y-119248731D01*
X93319917Y-119293185D01*
X93319920Y-119293185D01*
X93319922Y-119293186D01*
X93460616Y-119308842D01*
X93468459Y-119313163D01*
X93471022Y-119320470D01*
X93471022Y-119499126D01*
X93467595Y-119507399D01*
X93460178Y-119510795D01*
X93321929Y-119520935D01*
X93223190Y-119552255D01*
X93128258Y-119601635D01*
X93127864Y-119601831D01*
X93000881Y-119661921D01*
X92991937Y-119662362D01*
X92985300Y-119656350D01*
X92985091Y-119655881D01*
X92875883Y-119394508D01*
X92875857Y-119385555D01*
X92875862Y-119385541D01*
X92984900Y-119124573D01*
X92991252Y-119118262D01*
X93000207Y-119118289D01*
G37*
G04 #@! TD.AperFunction*
G04 #@! TA.AperFunction,Conductor*
G36*
X93000303Y-121718058D02*
G01*
X93000982Y-121718368D01*
X93129565Y-121782017D01*
X93130335Y-121782434D01*
X93225030Y-121838479D01*
X93323786Y-121876215D01*
X93464362Y-121889029D01*
X93472290Y-121893193D01*
X93475000Y-121900681D01*
X93475000Y-122079316D01*
X93471573Y-122087589D01*
X93464362Y-122090968D01*
X93323784Y-122103782D01*
X93225036Y-122141515D01*
X93225029Y-122141518D01*
X93130339Y-122197559D01*
X93129571Y-122197976D01*
X93000983Y-122261629D01*
X92992048Y-122262228D01*
X92985306Y-122256334D01*
X92984996Y-122255654D01*
X92960723Y-122197559D01*
X92875883Y-121994508D01*
X92875857Y-121985555D01*
X92875862Y-121985541D01*
X92984997Y-121724341D01*
X92991348Y-121718031D01*
X93000303Y-121718058D01*
G37*
G04 #@! TD.AperFunction*
G04 #@! TA.AperFunction,Conductor*
G36*
X76875207Y-119103289D02*
G01*
X76876087Y-119103701D01*
X77004182Y-119170312D01*
X77005330Y-119170996D01*
X77097991Y-119233731D01*
X77194917Y-119278185D01*
X77194920Y-119278185D01*
X77194922Y-119278186D01*
X77335616Y-119293842D01*
X77343459Y-119298163D01*
X77346022Y-119305470D01*
X77346022Y-119484126D01*
X77342595Y-119492399D01*
X77335178Y-119495795D01*
X77196929Y-119505935D01*
X77098190Y-119537255D01*
X77003258Y-119586635D01*
X77002864Y-119586831D01*
X76875881Y-119646921D01*
X76866937Y-119647362D01*
X76860300Y-119641350D01*
X76860091Y-119640881D01*
X76750883Y-119379508D01*
X76750857Y-119370555D01*
X76750862Y-119370541D01*
X76859900Y-119109573D01*
X76866252Y-119103262D01*
X76875207Y-119103289D01*
G37*
G04 #@! TD.AperFunction*
G04 #@! TA.AperFunction,Conductor*
G36*
X76875303Y-121703058D02*
G01*
X76875982Y-121703368D01*
X77004565Y-121767017D01*
X77005335Y-121767434D01*
X77100030Y-121823479D01*
X77198786Y-121861215D01*
X77339362Y-121874029D01*
X77347290Y-121878193D01*
X77350000Y-121885681D01*
X77350000Y-122064316D01*
X77346573Y-122072589D01*
X77339362Y-122075968D01*
X77198784Y-122088782D01*
X77100036Y-122126515D01*
X77100029Y-122126518D01*
X77005339Y-122182559D01*
X77004571Y-122182976D01*
X76875983Y-122246629D01*
X76867048Y-122247228D01*
X76860306Y-122241334D01*
X76859996Y-122240654D01*
X76835723Y-122182559D01*
X76750883Y-121979508D01*
X76750857Y-121970555D01*
X76750862Y-121970541D01*
X76859997Y-121709341D01*
X76866348Y-121703031D01*
X76875303Y-121703058D01*
G37*
G04 #@! TD.AperFunction*
G04 #@! TA.AperFunction,Conductor*
G36*
X125200207Y-119118289D02*
G01*
X125201087Y-119118701D01*
X125329182Y-119185312D01*
X125330330Y-119185996D01*
X125422991Y-119248731D01*
X125519917Y-119293185D01*
X125519920Y-119293185D01*
X125519922Y-119293186D01*
X125660616Y-119308842D01*
X125668459Y-119313163D01*
X125671022Y-119320470D01*
X125671022Y-119499126D01*
X125667595Y-119507399D01*
X125660178Y-119510795D01*
X125521929Y-119520935D01*
X125423190Y-119552255D01*
X125328258Y-119601635D01*
X125327864Y-119601831D01*
X125200881Y-119661921D01*
X125191937Y-119662362D01*
X125185300Y-119656350D01*
X125185091Y-119655881D01*
X125075883Y-119394508D01*
X125075857Y-119385555D01*
X125075862Y-119385541D01*
X125184900Y-119124573D01*
X125191252Y-119118262D01*
X125200207Y-119118289D01*
G37*
G04 #@! TD.AperFunction*
G04 #@! TA.AperFunction,Conductor*
G36*
X125200303Y-121718058D02*
G01*
X125200982Y-121718368D01*
X125329565Y-121782017D01*
X125330335Y-121782434D01*
X125425030Y-121838479D01*
X125523786Y-121876215D01*
X125664362Y-121889029D01*
X125672290Y-121893193D01*
X125675000Y-121900681D01*
X125675000Y-122079316D01*
X125671573Y-122087589D01*
X125664362Y-122090968D01*
X125523784Y-122103782D01*
X125425036Y-122141515D01*
X125425029Y-122141518D01*
X125330339Y-122197559D01*
X125329571Y-122197976D01*
X125200983Y-122261629D01*
X125192048Y-122262228D01*
X125185306Y-122256334D01*
X125184996Y-122255654D01*
X125160723Y-122197559D01*
X125075883Y-121994508D01*
X125075857Y-121985555D01*
X125075862Y-121985541D01*
X125184997Y-121724341D01*
X125191348Y-121718031D01*
X125200303Y-121718058D01*
G37*
G04 #@! TD.AperFunction*
M02*
